<svg width="306" height="423" viewBox="0 0 306 423" fill="none" xmlns="http://www.w3.org/2000/svg">
<path opacity="0.1" fill-rule="evenodd" clip-rule="evenodd" d="M221 126.756C218.167 137.778 195.5 203.911 153 242.489C107.667 206.667 82.1667 126.756 82.1667 126.756C53.8333 170.844 31.1667 225.956 31.1667 225.956C31.1667 225.956 76.5 355.467 153 413.333C229.5 349.956 272 223.2 272 223.2C272 223.2 255 176.356 221 126.756ZM221 99.2C221 99.2 198.333 170.844 153 209.422C110.5 176.356 85 99.2 85 99.2C85 99.2 110.5 35.8222 153 0C198.333 33.0667 221 99.2 221 99.2ZM266.333 267.289C291.833 314.133 306 349.956 306 349.956C306 349.956 249.333 537.333 153 620C53.8333 542.844 0 352.711 0 352.711V347.2C2.83333 338.933 14.1667 308.622 36.8333 270.044C51 305.867 93.5 402.311 153 451.911C221 394.044 255 297.6 266.333 267.289Z" fill="url(#paint0_linear_2303_7725)" fill-opacity="0.8"/>
<defs>
<linearGradient id="paint0_linear_2303_7725" x1="143.458" y1="162.359" x2="8.7455" y2="549.393" gradientUnits="userSpaceOnUse">
<stop stop-color="white" stop-opacity="0.53"/>
<stop offset="1" stop-color="white" stop-opacity="0.67"/>
</linearGradient>
</defs>
</svg>
