<svg width="203" height="67" viewBox="0 0 203 67" fill="none" xmlns="http://www.w3.org/2000/svg">
<g clip-path="url(#clip0_2303_41133)">
<path d="M189.439 0H13.5314C6.0582 0 0 5.99938 0 13.4V53.6C0 61.0006 6.0582 67 13.5314 67H189.439C196.912 67 202.971 61.0006 202.971 53.6V13.4C202.971 5.99938 196.912 0 189.439 0Z" fill="black"/>
<path d="M42.0474 33.9999C42.0474 29.3099 45.9475 27.1324 46.117 26.9649C43.9127 23.7824 40.5214 23.4474 39.3344 23.2799C36.4518 22.9449 33.7386 24.9549 32.2126 24.9549C30.6865 24.9549 28.4822 23.2799 26.1083 23.2799C23.0561 23.2799 20.1734 25.1224 18.4778 27.8024C15.256 33.3299 17.6299 41.7049 20.8517 46.2274C22.3779 48.4049 24.243 50.9174 26.6169 50.9174C28.9908 50.7499 29.8387 49.4099 32.7212 49.4099C35.6039 49.4099 36.2822 50.9174 38.8257 50.9174C41.3691 50.9174 42.8953 48.7399 44.4213 46.3949C46.2866 43.8824 46.9649 41.3699 46.9649 41.2024C46.9649 41.3699 42.0474 39.5273 42.0474 33.9999Z" fill="white"/>
<path d="M37.3008 20.4289C38.4878 18.9214 39.5052 16.7439 39.1661 14.5664C37.3008 14.5664 35.0965 15.7389 33.74 17.4139C32.553 18.7539 31.5356 20.9314 31.8747 23.1089C33.9095 23.1089 36.1139 21.9364 37.3008 20.4289Z" fill="white"/>
<path d="M71.7341 45.3875H63.7644L61.8991 51.0825H58.5078L66.1383 30.3125H69.5296L77.1601 51.0825H73.7688L71.7341 45.3875ZM64.6122 42.875H71.0558L67.834 33.6625H67.6645L64.6122 42.875Z" fill="white"/>
<path d="M93.5967 43.559C93.5967 48.249 91.0533 51.264 87.1532 51.264C84.9488 51.264 83.2532 50.259 82.4054 48.584V56.1215H79.1836V36.0215H82.2358V38.534C83.0837 36.859 84.9488 35.854 87.1532 35.854C90.8837 35.6865 93.5967 38.869 93.5967 43.559ZM90.2054 43.559C90.2054 40.544 88.6792 38.534 86.1358 38.534C83.7619 38.534 82.0663 40.544 82.0663 43.559C82.0663 46.574 83.7619 48.584 86.1358 48.584C88.6792 48.584 90.2054 46.574 90.2054 43.559Z" fill="white"/>
<path d="M110.39 43.559C110.39 48.249 107.846 51.264 103.946 51.264C101.742 51.264 100.046 50.259 99.1984 48.584V56.1215H95.9766V36.0215H99.0287V38.534C99.8766 36.859 101.742 35.854 103.946 35.854C107.846 35.6865 110.39 38.869 110.39 43.559ZM107.168 43.559C107.168 40.544 105.642 38.534 103.098 38.534C100.724 38.534 99.0287 40.544 99.0287 43.559C99.0287 46.574 100.724 48.584 103.098 48.584C105.642 48.584 107.168 46.574 107.168 43.559Z" fill="white"/>
<path d="M121.578 45.2269C121.747 47.2369 123.782 48.5769 126.665 48.5769C129.378 48.5769 131.243 47.2369 131.243 45.3944C131.243 43.7194 130.056 42.8819 127.343 42.2119L124.63 41.5419C120.73 40.5369 119.034 38.8619 119.034 36.0144C119.034 32.4969 122.256 29.9844 126.665 29.9844C131.074 29.9844 134.126 32.4969 134.295 36.0144H131.074C130.904 34.0044 129.208 32.6644 126.665 32.6644C124.121 32.6644 122.426 34.0044 122.426 35.8469C122.426 37.3544 123.613 38.1919 126.326 38.8619L128.7 39.3644C132.939 40.3694 134.804 42.0444 134.804 45.0594C134.804 48.9119 131.582 51.4244 126.665 51.4244C121.917 51.4244 118.865 49.0794 118.695 45.2269H121.578Z" fill="white"/>
<path d="M141.241 32.3203V35.8378H144.123V38.3503H141.241V46.7253C141.241 48.0653 141.75 48.5678 143.106 48.5678C143.445 48.5678 143.954 48.5678 144.123 48.5678V51.0803C143.784 51.2478 143.106 51.2478 142.428 51.2478C139.376 51.2478 138.189 50.0753 138.189 47.2278V38.5178H135.984V36.0053H138.189V32.4878H141.241V32.3203Z" fill="white"/>
<path d="M145.992 43.5527C145.992 38.8627 148.875 35.8477 153.284 35.8477C157.692 35.8477 160.575 38.8627 160.575 43.5527C160.575 48.4102 157.692 51.2577 153.284 51.2577C148.705 51.2577 145.992 48.2427 145.992 43.5527ZM157.353 43.5527C157.353 40.2027 155.827 38.3602 153.284 38.3602C150.74 38.3602 149.214 40.2027 149.214 43.5527C149.214 46.9027 150.74 48.7452 153.284 48.7452C155.827 48.7452 157.353 46.7352 157.353 43.5527Z" fill="white"/>
<path d="M163.125 35.8477H166.177V38.5277C166.686 36.8527 168.042 35.8477 169.908 35.8477C170.417 35.8477 170.755 35.8477 170.926 36.0152V38.8627C170.755 38.6952 170.077 38.6952 169.569 38.6952C167.534 38.6952 166.347 40.0352 166.347 42.2127V51.2577H163.125V35.8477Z" fill="white"/>
<path d="M185.505 46.5633C185.167 49.2433 182.283 51.2533 178.892 51.2533C174.484 51.2533 171.602 48.2383 171.602 43.5483C171.602 38.8583 174.315 35.6758 178.722 35.6758C182.961 35.6758 185.674 38.5233 185.674 43.2133V44.2183H174.822V44.3858C174.822 46.8983 176.519 48.7408 178.892 48.7408C180.588 48.7408 181.945 47.9033 182.454 46.5633H185.505ZM174.822 42.0408H182.454C182.454 39.6958 180.926 38.1883 178.722 38.1883C176.519 38.1883 174.993 39.8633 174.822 42.0408Z" fill="white"/>
<path d="M62.2333 18.917H63.5898C64.7768 18.917 65.4551 18.247 65.4551 17.242C65.4551 16.237 64.7768 15.7345 63.5898 15.7345C62.4029 15.7345 61.555 16.4045 61.555 17.242H60.029C60.1985 15.3995 61.555 14.3945 63.5898 14.3945C65.6246 14.3945 66.9813 15.567 66.9813 17.0745C66.9813 18.247 66.303 19.0845 65.116 19.4195V19.587C66.4725 19.7545 67.3204 20.592 67.3204 21.932C67.3204 23.607 65.6246 24.947 63.5898 24.947C61.3855 24.947 59.8594 23.7745 59.8594 21.932H61.3855C61.555 22.937 62.4029 23.4395 63.7595 23.4395C65.116 23.4395 65.9637 22.7695 65.9637 21.7645C65.9637 20.7595 65.116 20.0895 63.7595 20.0895H62.4029V18.917H62.2333Z" fill="white"/>
<path d="M69.1797 22.4494C69.1797 21.1094 70.1971 20.2719 72.0624 20.2719L74.0972 20.1044V19.4344C74.0972 18.5969 73.5884 18.2619 72.571 18.2619C71.7232 18.2619 71.2145 18.5969 71.045 19.0994H69.5188C69.6885 17.7594 70.8753 16.9219 72.571 16.9219C74.4363 16.9219 75.6232 17.9269 75.6232 19.4344V24.6269H74.0972V23.6219H73.9275C73.4189 24.4594 72.571 24.7944 71.5536 24.7944C70.3667 24.7944 69.1797 23.7894 69.1797 22.4494ZM74.0972 21.7794V21.1094L72.2319 21.2769C71.2145 21.2769 70.7059 21.7794 70.7059 22.2819C70.7059 22.9519 71.3841 23.2869 72.0624 23.2869C73.2492 23.4544 74.0972 22.7844 74.0972 21.7794Z" fill="white"/>
<path d="M79.694 18.2584V24.6234H78.168V17.0859H83.2549V18.2584H79.694Z" fill="white"/>
<path d="M92.2482 20.77C92.2482 23.115 91.0614 24.6225 89.0266 24.6225C88.0092 24.6225 86.9918 24.12 86.6527 23.2825H86.483V26.9675H84.957V16.9175H86.483V18.09H86.6527C87.1613 17.2525 88.0092 16.75 89.0266 16.75C91.0614 16.9175 92.2482 18.425 92.2482 20.77ZM90.7222 20.77C90.7222 19.095 89.8743 18.2575 88.6875 18.2575C87.5004 18.2575 86.6527 19.2625 86.6527 20.77C86.6527 22.2775 87.5004 23.2825 88.6875 23.2825C90.044 23.45 90.7222 22.445 90.7222 20.77Z" fill="white"/>
<path d="M94.272 27.3034V25.9634C94.4415 25.9634 94.6111 25.9634 94.7806 25.9634C95.4589 25.9634 95.9677 25.6284 96.1371 24.9584L96.3068 24.6234L93.5938 17.0859H95.2894L97.1545 23.1159H97.3242L99.1893 17.0859H100.715L97.8328 24.9584C97.1545 26.8009 96.4763 27.3034 94.9503 27.3034C94.7806 27.3034 94.4415 27.3034 94.272 27.3034Z" fill="white"/>
<path d="M101.906 22.4494H103.432C103.602 23.1194 104.28 23.4544 105.128 23.4544C106.145 23.4544 106.824 22.9519 106.824 22.2819C106.824 21.6119 106.315 21.2769 105.128 21.2769H103.941V20.1044H105.128C105.976 20.1044 106.485 19.7694 106.485 19.0994C106.485 18.5969 105.976 18.0944 105.128 18.0944C104.28 18.0944 103.602 18.4294 103.602 19.0994H102.076C102.245 17.7594 103.432 16.9219 105.128 16.9219C106.993 16.9219 108.011 17.7594 108.011 18.9319C108.011 19.7694 107.502 20.2719 106.824 20.4394V20.6069C107.841 20.7744 108.35 21.4444 108.35 22.2819C108.35 23.7894 107.163 24.6269 105.298 24.6269C103.432 24.7944 102.076 23.9569 101.906 22.4494Z" fill="white"/>
<path d="M110.383 24.6234V17.0859H111.909V22.2784L115.47 17.0859H116.996V24.6234H115.47V19.4309H115.3L111.739 24.6234H110.383Z" fill="white"/>
<path d="M125.141 18.2584H122.767V24.6234H121.241V18.2584H118.867V17.0859H125.141V18.2584Z" fill="white"/>
<path d="M133.28 22.6169C132.941 23.9569 131.754 24.7944 129.889 24.7944C127.685 24.7944 126.328 23.2869 126.328 20.9419C126.328 18.5969 127.685 16.9219 129.889 16.9219C132.094 16.9219 133.28 18.4294 133.28 20.7744V21.2769H127.854C127.854 22.6169 128.702 23.4544 129.889 23.4544C130.737 23.4544 131.415 23.1194 131.754 22.6169H133.28ZM128.024 20.1044H131.924C131.924 18.9319 131.076 18.0944 130.059 18.0944C128.872 18.2619 128.024 18.9319 128.024 20.1044Z" fill="white"/>
<path d="M139.724 17.0859H143.116C144.642 17.0859 145.49 17.7559 145.49 18.9284C145.49 19.7659 144.981 20.4359 144.133 20.6034V20.7709C145.15 20.9384 145.829 21.6084 145.829 22.4459C145.829 23.7859 144.811 24.6234 143.116 24.6234H139.555V17.0859H139.724ZM141.25 18.2584V20.1009H142.777C143.624 20.1009 144.133 19.7659 144.133 19.0959C144.133 18.4259 143.794 18.0909 142.946 18.0909H141.25V18.2584ZM141.25 21.2734V23.4509H143.116C143.963 23.4509 144.472 23.1159 144.472 22.2784C144.472 21.4409 143.963 21.1059 142.946 21.1059H141.25V21.2734Z" fill="white"/>
</g>
<defs>
<clipPath id="clip0_2303_41133">
<rect width="203" height="67" fill="white"/>
</clipPath>
</defs>
</svg>
