<svg width="178" height="177" viewBox="0 0 178 177" fill="none" xmlns="http://www.w3.org/2000/svg">
<path d="M89 0.5C77.4437 0.5 66.0005 2.77619 55.3239 7.1986C44.6472 11.621 34.9462 18.1031 26.7746 26.2746C18.603 34.4462 12.121 44.1472 7.6986 54.8239C3.27618 65.5005 0.999998 76.9437 1 88.5C1 100.056 3.27619 111.5 7.69861 122.176C12.121 132.853 18.6031 142.554 26.7746 150.725C34.9462 158.897 44.6472 165.379 55.3239 169.801C66.0005 174.224 77.4437 176.5 89 176.5C100.556 176.5 112 174.224 122.676 169.801C133.353 165.379 143.054 158.897 151.225 150.725C159.397 142.554 165.879 132.853 170.301 122.176C174.724 111.499 177 100.056 177 88.5C177 76.9436 174.724 65.5005 170.301 54.8238C165.879 44.1472 159.397 34.4461 151.225 26.2746C143.054 18.103 133.353 11.621 122.676 7.19858C111.999 2.77617 100.556 0.499992 88.9999 0.5L89 0.5Z" stroke="#F8661C"/>
</svg>
