<svg width="68" height="19" viewBox="0 0 68 19" fill="none" xmlns="http://www.w3.org/2000/svg">
<path d="M24.3514 15.2V18.1902H25.8216C26.4342 18.1902 26.8631 17.8787 26.8631 17.3803C26.8631 16.882 26.5568 16.6639 26.2198 16.6328V16.6016C26.5261 16.5393 26.7405 16.2902 26.7405 15.9164C26.7405 15.6049 26.5874 15.2 25.7604 15.2H24.3514ZM25.1171 15.7295H25.5766C25.7297 15.7295 26.036 15.7295 26.036 16.041C26.036 16.3525 25.7297 16.3525 25.5766 16.3525H25.1171V15.7295ZM30.6306 15.2V16.4459C30.6306 17.1 30.7225 17.6607 30.2631 17.6607L30.1405 17.6295L30.0793 18.1902L28.9153 16.6328L29.9568 15.2311H29.1297L28.2108 16.5705H28.1802V15.2623H27.4144V18.2525H28.1802V16.8197L29.191 18.2525H30.1099C30.2018 18.3148 30.2937 18.3148 30.4162 18.3148C31.2126 18.3148 31.3351 18.0033 31.3351 16.477V15.7918H32.2234V18.2213H32.9892V15.2311H30.6306V15.2ZM33.7856 15.9787C34.0919 15.7607 34.3982 15.7295 34.7045 15.7295C34.7964 15.7295 35.3171 15.7295 35.3784 16.2279V16.3525H34.9189C33.6937 16.3525 33.4793 16.9131 33.4793 17.3492C33.4793 17.8164 33.7856 18.2836 34.4901 18.2836C35.1027 18.2836 35.3171 17.9098 35.409 17.7852V18.2213H36.1748V16.3525C36.1748 15.8852 36.0523 15.1689 34.8577 15.1689C34.4901 15.1689 34.1532 15.2311 33.8162 15.3869V15.9787H33.7856ZM35.3784 16.8508V16.9131C35.3784 17.5672 35.0108 17.7229 34.7045 17.7229C34.3676 17.7229 34.245 17.5361 34.245 17.318C34.245 16.8508 34.8577 16.8197 35.2559 16.8197H35.3784V16.8508ZM37.155 15.2V16.1656C37.155 16.7574 37.1243 17.1934 36.7568 17.6295H36.4505V19H37.155V18.2213H39.2072V19H39.9117V17.6607H39.4216V15.2311H37.155V15.2ZM37.4919 17.6607C37.7982 17.1934 37.7982 16.7262 37.7982 16.259V15.7918H38.6559V17.6607H37.4919ZM40.0649 16.7262C40.0649 17.7229 40.6775 18.2836 41.5351 18.2836C42.4234 18.2836 43.0667 17.7229 43.0667 16.7262C43.0667 15.6984 42.4234 15.1689 41.5351 15.1689C40.7081 15.1689 40.0649 15.6984 40.0649 16.7262ZM40.8613 16.7262C40.8613 16.0098 41.2288 15.7607 41.5658 15.7607C41.9946 15.7607 42.2396 16.1656 42.2396 16.7262C42.2396 17.3492 41.9946 17.6918 41.5351 17.6918C41.2288 17.6918 40.8613 17.4115 40.8613 16.7262ZM43.5261 15.2V18.1902H44.9964C45.6396 18.1902 46.0685 17.8787 46.0685 17.3803C46.0685 16.882 45.7622 16.6639 45.3946 16.6328V16.6016C45.7009 16.5393 45.9459 16.2902 45.9459 15.9164C45.9459 15.6049 45.7622 15.2 44.9351 15.2H43.5261ZM44.2613 15.7295H44.7514C44.9045 15.7295 45.1802 15.7295 45.1802 16.041C45.1802 16.3525 44.9351 16.3525 44.7514 16.3525H44.2613V15.7295ZM44.2613 16.9131H44.7514C44.9351 16.9131 45.2721 16.9131 45.2721 17.2869C45.2721 17.6918 44.9045 17.6918 44.7514 17.6918H44.2613V16.9131ZM64.6306 9.40656V8.1918H63.8342V11.2131H64.6306V9.96721H65.0595C65.1207 10.7459 65.7027 11.2754 66.5297 11.2754C67.3874 11.2754 68 10.7148 68 9.71803C68 8.72131 67.3874 8.16066 66.5297 8.16066C65.764 8.16066 65.1207 8.62787 65.0595 9.40656H64.6306ZM65.8559 9.71803C65.8559 9.03279 66.1928 8.72131 66.5297 8.72131C66.9892 8.72131 67.2342 9.12623 67.2342 9.71803C67.2342 10.341 66.9279 10.7148 66.5297 10.7148C66.2234 10.7148 65.8559 10.4033 65.8559 9.71803ZM60.3423 8.1918V11.2131H61.1694L62.4559 9.09508V11.2131H63.191V8.1918H62.364L61.1081 10.3098H61.0775V8.22295H60.3423V8.1918ZM56.973 8.1918V11.2131H57.7387V9.96721H58.964V11.2131H59.7297V8.1918H58.964V9.34426H57.7387V8.1918H56.973ZM54.0018 8.97049C54.3081 8.78361 54.6144 8.69016 54.9207 8.69016C55.0432 8.69016 55.5333 8.72131 55.5946 9.21967V9.34426H55.0739C53.8486 9.34426 53.6342 9.93606 53.6342 10.3098C53.6342 10.8082 53.9405 11.2443 54.6757 11.2443C55.2883 11.2443 55.5027 10.9016 55.564 10.7459V11.2131H56.3297V9.28197C56.3297 8.81475 56.2378 8.12951 55.0432 8.12951C54.6757 8.12951 54.3387 8.16066 54.0018 8.31639V8.97049ZM55.5946 9.84262V9.93606C55.5946 10.559 55.1964 10.7148 54.8901 10.7148C54.5532 10.7148 54.4 10.559 54.4 10.3098C54.4 9.81147 55.0126 9.81147 55.4414 9.81147H55.5946V9.84262ZM50.755 8.1918V11.2131H52.2252C52.8378 11.2131 53.2973 10.9016 53.2973 10.3721C53.2973 9.87377 52.9604 9.65574 52.6541 9.65574V9.62459C52.9604 9.56229 53.1748 9.31311 53.1748 8.93934C53.1748 8.62787 53.0216 8.1918 52.1946 8.1918H50.755ZM51.5514 8.72131H52.0108C52.164 8.72131 52.4396 8.72131 52.4396 9.03279C52.4396 9.37541 52.164 9.37541 52.0108 9.37541H51.5514V8.75246V8.72131ZM51.5514 9.90492H52.0108C52.2252 9.90492 52.5315 9.90492 52.5315 10.3098C52.5315 10.7148 52.1946 10.7148 52.0414 10.7148H51.5514V9.90492ZM47.3243 9.71803C47.3243 10.7148 47.9676 11.2754 48.8559 11.2754C49.6829 11.2754 50.3261 10.7148 50.3261 9.71803C50.3261 8.69016 49.7135 8.16066 48.8559 8.16066C47.9676 8.16066 47.3243 8.69016 47.3243 9.71803ZM48.1207 9.71803C48.1207 9.03279 48.4883 8.72131 48.8252 8.72131C49.2234 8.72131 49.5297 9.12623 49.5297 9.71803C49.5297 10.341 49.2234 10.7148 48.8252 10.7148C48.4883 10.7148 48.1207 10.4033 48.1207 9.71803ZM44.2 8.1918L45.0883 9.68688L44.1081 11.2443H44.9351L45.3946 10.4344L45.5784 10.0607L45.7622 10.4344L46.2523 11.2131H47.1712L46.1604 9.65574L47.0793 8.1918H46.2216L45.8234 8.9082L45.6703 9.25082L45.4865 8.93934L45.0577 8.1918H44.2ZM41.4432 8.97049C41.7802 8.78361 42.0559 8.69016 42.3928 8.69016C42.4847 8.69016 43.0054 8.72131 43.036 9.21967V9.34426H42.5766C41.3514 9.34426 41.1369 9.93606 41.1369 10.3098C41.1369 10.8082 41.4126 11.2443 42.1478 11.2443C42.7604 11.2443 42.9748 10.9016 43.0667 10.7459V11.2131H43.8324V9.28197C43.8324 8.81475 43.7099 8.12951 42.5153 8.12951C42.1477 8.12951 41.8108 8.16066 41.4739 8.31639V8.97049H41.4432ZM43.0054 9.84262V9.93606C43.0054 10.559 42.6378 10.7148 42.3315 10.7148C41.9946 10.7148 41.8721 10.559 41.8721 10.3098C41.8721 9.81147 42.4847 9.81147 42.9135 9.81147H43.0054V9.84262ZM38.7171 12.4902V10.8393C38.8067 10.9853 38.9342 11.1032 39.0856 11.1802C39.2369 11.2571 39.4062 11.2901 39.5748 11.2754C40.1874 11.2754 40.8 10.8393 40.8 9.71803C40.8 8.59672 40.2486 8.16066 39.5748 8.16066C39.4829 8.16066 38.9622 8.1918 38.6559 8.72131V8.1918H37.982V12.4902H38.7477H38.7171ZM38.7171 9.71803C38.7171 9.09508 39.0847 8.78361 39.391 8.78361C39.6973 8.78361 40.0342 9.09508 40.0342 9.71803C40.0342 10.3721 39.6973 10.6525 39.391 10.6525C39.0847 10.6525 38.7477 10.341 38.7477 9.71803H38.7171ZM35.0414 8.1918V8.81475H35.9604V11.2131H36.7261V8.81475H37.645V8.1918H35.0414ZM34.9189 8.2541C34.7045 8.16066 34.4595 8.16066 34.245 8.16066C33.2342 8.16066 32.7135 8.9082 32.7135 9.71803C32.7135 10.4967 33.173 11.2754 34.2144 11.2754C34.5207 11.2754 34.827 11.2131 34.9495 11.1508V10.5902C34.7351 10.6836 34.5207 10.7148 34.3369 10.7148C33.8162 10.7148 33.5099 10.2787 33.5099 9.71803C33.5099 9.12623 33.9081 8.72131 34.4288 8.72131C34.5858 8.72831 34.7408 8.75983 34.8883 8.81475V8.2541H34.9189ZM27.5063 9.71803C27.5063 10.7148 28.1189 11.2754 29.0072 11.2754C29.8649 11.2754 30.5081 10.7148 30.5081 9.71803C30.5081 8.69016 29.8955 8.16066 29.0072 8.16066C28.1495 8.16066 27.5063 8.69016 27.5063 9.71803ZM28.2721 9.71803C28.2721 9.03279 28.6396 8.72131 28.9766 8.72131C29.4054 8.72131 29.6811 9.12623 29.6811 9.71803C29.6811 10.341 29.3748 10.7148 28.9766 10.7148C28.6703 10.7148 28.2721 10.4033 28.2721 9.71803ZM24.3514 8.1918V11.2131H25.1171V8.81475H26.2811V11.2131H27.0468V8.1918H24.3514ZM47.845 2.70984C47.845 3.7377 48.4577 4.26721 49.3153 4.26721C50.2036 4.26721 50.8468 3.70656 50.8468 2.70984C50.8468 1.71311 50.2036 1.15246 49.3153 1.15246C48.4577 1.15246 47.845 1.71311 47.845 2.70984ZM48.6414 2.70984C48.6414 2.02459 48.9784 1.71311 49.3153 1.71311C49.7441 1.71311 50.0198 2.11803 50.0198 2.70984C50.0198 3.30164 49.7441 3.67541 49.3153 3.67541C49.009 3.67541 48.6414 3.39508 48.6414 2.70984ZM44.9351 1.21475V4.20492H46.3748C47.0486 4.20492 47.4775 3.89344 47.4775 3.36393C47.4775 2.86557 47.1405 2.64754 46.8036 2.64754C47.1099 2.5541 47.3243 2.33607 47.3243 1.9623C47.3243 1.65082 47.1712 1.21475 46.3441 1.21475H44.9351ZM45.7009 1.71311H46.1604C46.3135 1.71311 46.6198 1.74426 46.6198 2.02459C46.6198 2.36721 46.3135 2.36721 46.1604 2.36721H45.7009V1.74426V1.71311ZM45.7009 2.89672H46.1604C46.3441 2.89672 46.6811 2.89672 46.6811 3.30164C46.6811 3.70656 46.3135 3.70656 46.1604 3.70656H45.7009V2.89672ZM42.0252 1.21475V1.80656H42.9135V4.23607H43.6793V1.77541H44.5676V1.21475H41.964H42.0252ZM41.8414 1.21475L41.2288 1.15246C40.1874 1.15246 39.636 1.86885 39.636 2.67869C39.636 3.48852 40.1261 4.23607 41.1676 4.23607C41.4739 4.23607 41.7802 4.17377 41.9027 4.11147V3.55082C41.6883 3.61311 41.5045 3.67541 41.2901 3.67541C40.7694 3.67541 40.4631 3.23934 40.4631 2.70984C40.4631 2.08689 40.8613 1.71311 41.382 1.71311C41.5476 1.70678 41.7131 1.72782 41.8721 1.77541L41.8414 1.21475ZM36.9099 1.21475V1.80656H37.7982V4.23607H38.564V1.77541H39.4829V1.21475H36.9099ZM33.8468 1.21475V4.20492H34.582V2.89672H35.8072V4.20492H36.573V1.21475H35.8072V2.33607H34.582V1.2459H33.8162L33.8468 1.21475ZM33.3568 2.95902V2.77213C33.3568 2.4918 33.3568 1.15246 32.009 1.15246C31.2432 1.15246 30.5694 1.77541 30.5694 2.70984C30.5694 3.76885 31.2739 4.26721 32.1315 4.26721C32.4685 4.26721 32.836 4.17377 33.1423 4.08033V3.45738C32.8973 3.61311 32.5604 3.67541 32.2234 3.67541C31.6414 3.67541 31.3964 3.33279 31.3964 2.95902H33.3568ZM31.427 2.39836C31.427 1.99344 31.6414 1.71311 32.009 1.71311C32.2847 1.71311 32.6216 1.9 32.6216 2.39836H31.3964H31.427ZM28.3946 1.2459V4.23607H29.1604V1.80656H30.3856V1.18361H28.3946V1.2459ZM25.6378 0.155738L24.0757 4.20492H24.9027L25.2396 3.33279H26.8631L27.2 4.23607H28.1189L26.5261 0.12459H25.6072L25.6378 0.155738ZM25.4847 2.64754L26.036 0.965574L26.6486 2.61639H25.4847V2.64754ZM25.1171 16.9131H25.5766C25.791 16.9131 26.1279 16.9131 26.1279 17.2869C26.1279 17.6918 25.7604 17.6918 25.6072 17.6918H25.1477V16.9131H25.1171ZM7.65766 0C8.79099 0.186885 9.58739 1.02787 10.5369 2.05574L16.5405 8.40984L19.5423 5.41967L16.8468 2.52295C15.3459 0.934426 13.9369 0 11.9459 0H7.65766ZM0 12.7705L2.72613 15.7295C4.1964 17.318 5.60541 18.2213 7.62703 18.2213H11.9153C10.7514 18.0656 9.95495 17.2246 8.97477 16.1967L3.0018 9.81147L0 12.7705Z" fill="white"/>
</svg>
