<svg width="80" height="22" viewBox="0 0 80 22" fill="none" xmlns="http://www.w3.org/2000/svg">
<g opacity="0.6" clip-path="url(#clip0_1152_22089)">
<path d="M28.6486 17.6V21.0623H30.3784C31.0991 21.0623 31.6036 20.7016 31.6036 20.1246C31.6036 19.5475 31.2432 19.2951 30.8468 19.259V19.2229C31.2072 19.1508 31.4595 18.8623 31.4595 18.4295C31.4595 18.0689 31.2793 17.6 30.3063 17.6H28.6486V17.6ZM29.5495 18.2131H30.0901C30.2703 18.2131 30.6306 18.2131 30.6306 18.5738C30.6306 18.9344 30.2703 18.9344 30.0901 18.9344H29.5495V18.2131ZM36.036 17.6V19.0426C36.036 19.8 36.1441 20.4492 35.6036 20.4492L35.4595 20.4131L35.3874 21.0623L34.018 19.259L35.2432 17.6361H34.2703L33.1892 19.1869H33.1532V17.6721H32.2523V21.1344H33.1532V19.4754L34.3423 21.1344H35.4234C35.5315 21.2066 35.6396 21.2066 35.7838 21.2066C36.7207 21.2066 36.8649 20.8459 36.8649 19.0787V18.2852H37.9099V21.0984H38.8108V17.6361H36.036V17.6ZM39.7477 18.5016C40.1081 18.2492 40.4685 18.2131 40.8288 18.2131C40.9369 18.2131 41.5495 18.2131 41.6216 18.7902V18.9344H41.0811C39.6396 18.9344 39.3874 19.5836 39.3874 20.0885C39.3874 20.6295 39.7477 21.1705 40.5766 21.1705C41.2973 21.1705 41.5495 20.7377 41.6577 20.5934V21.0984H42.5586V18.9344C42.5586 18.3934 42.4144 17.5639 41.009 17.5639C40.5766 17.5639 40.1802 17.6361 39.7838 17.8164V18.5016H39.7477ZM41.6216 19.5115V19.5836C41.6216 20.341 41.1892 20.5213 40.8288 20.5213C40.4324 20.5213 40.2883 20.3049 40.2883 20.0525C40.2883 19.5115 41.009 19.4754 41.4775 19.4754H41.6216V19.5115V19.5115ZM43.7117 17.6V18.718C43.7117 19.4033 43.6757 19.9082 43.2432 20.4131H42.8829V22H43.7117V21.0984H46.1261V22H46.955V20.4492H46.3784V17.6361H43.7117V17.6V17.6ZM44.1081 20.4492C44.4685 19.9082 44.4685 19.3672 44.4685 18.8262V18.2852H45.4775V20.4492H44.1081ZM47.1351 19.3672C47.1351 20.5213 47.8559 21.1705 48.8649 21.1705C49.9099 21.1705 50.6667 20.5213 50.6667 19.3672C50.6667 18.177 49.9099 17.5639 48.8649 17.5639C47.8919 17.5639 47.1351 18.177 47.1351 19.3672ZM48.0721 19.3672C48.0721 18.5377 48.5045 18.2492 48.9009 18.2492C49.4054 18.2492 49.6937 18.718 49.6937 19.3672C49.6937 20.0885 49.4054 20.4852 48.8649 20.4852C48.5045 20.4852 48.0721 20.1607 48.0721 19.3672ZM51.2072 17.6V21.0623H52.9369C53.6937 21.0623 54.1982 20.7016 54.1982 20.1246C54.1982 19.5475 53.8378 19.2951 53.4054 19.259V19.2229C53.7658 19.1508 54.0541 18.8623 54.0541 18.4295C54.0541 18.0689 53.8378 17.6 52.8649 17.6H51.2072V17.6ZM52.0721 18.2131H52.6486C52.8288 18.2131 53.1532 18.2131 53.1532 18.5738C53.1532 18.9344 52.8649 18.9344 52.6486 18.9344H52.0721V18.2131ZM52.0721 19.5836H52.6486C52.8649 19.5836 53.2613 19.5836 53.2613 20.0164C53.2613 20.4852 52.8288 20.4852 52.6486 20.4852H52.0721V19.5836ZM76.036 10.8918V9.48525H75.0991V12.9836H76.036V11.541H76.5405C76.6126 12.4426 77.2973 13.0557 78.2703 13.0557C79.2793 13.0557 80 12.4066 80 11.2525C80 10.0984 79.2793 9.44918 78.2703 9.44918C77.3694 9.44918 76.6126 9.99016 76.5405 10.8918H76.036V10.8918ZM77.4775 11.2525C77.4775 10.459 77.8739 10.0984 78.2703 10.0984C78.8108 10.0984 79.0991 10.5672 79.0991 11.2525C79.0991 11.9738 78.7387 12.4066 78.2703 12.4066C77.9099 12.4066 77.4775 12.0459 77.4775 11.2525ZM70.991 9.48525V12.9836H71.964L73.4775 10.5311V12.9836H74.3423V9.48525H73.3694L71.8919 11.9377H71.8559V9.52131H70.991V9.48525ZM67.027 9.48525V12.9836H67.9279V11.541H69.3694V12.9836H70.2703V9.48525H69.3694V10.8197H67.9279V9.48525H67.027ZM63.5315 10.3869C63.8919 10.1705 64.2523 10.0623 64.6126 10.0623C64.7568 10.0623 65.3333 10.0984 65.4054 10.6754V10.8197H64.7928C63.3514 10.8197 63.0991 11.5049 63.0991 11.9377C63.0991 12.5148 63.4595 13.0197 64.3243 13.0197C65.045 13.0197 65.2973 12.623 65.3694 12.4426V12.9836H66.2703V10.7475C66.2703 10.2066 66.1622 9.41311 64.7568 9.41311C64.3243 9.41311 63.9279 9.44918 63.5315 9.62951V10.3869V10.3869ZM65.4054 11.3967V11.5049C65.4054 12.2262 64.9369 12.4066 64.5766 12.4066C64.1802 12.4066 64 12.2262 64 11.9377C64 11.3607 64.7207 11.3607 65.2252 11.3607H65.4054V11.3967V11.3967ZM59.7117 9.48525V12.9836H61.4414C62.1622 12.9836 62.7027 12.623 62.7027 12.0098C62.7027 11.4328 62.3063 11.1803 61.9459 11.1803V11.1443C62.3063 11.0721 62.5586 10.7836 62.5586 10.3508C62.5586 9.99016 62.3784 9.48525 61.4054 9.48525H59.7117V9.48525ZM60.6486 10.0984H61.1892C61.3694 10.0984 61.6937 10.0984 61.6937 10.459C61.6937 10.8557 61.3694 10.8557 61.1892 10.8557H60.6486V10.1344V10.0984ZM60.6486 11.4689H61.1892C61.4414 11.4689 61.8018 11.4689 61.8018 11.9377C61.8018 12.4066 61.4054 12.4066 61.2252 12.4066H60.6486V11.4689V11.4689ZM55.6757 11.2525C55.6757 12.4066 56.4324 13.0557 57.4775 13.0557C58.4504 13.0557 59.2072 12.4066 59.2072 11.2525C59.2072 10.0623 58.4865 9.44918 57.4775 9.44918C56.4324 9.44918 55.6757 10.0623 55.6757 11.2525V11.2525ZM56.6126 11.2525C56.6126 10.459 57.045 10.0984 57.4414 10.0984C57.9099 10.0984 58.2703 10.5672 58.2703 11.2525C58.2703 11.9738 57.9099 12.4066 57.4414 12.4066C57.045 12.4066 56.6126 12.0459 56.6126 11.2525ZM52 9.48525L53.045 11.2164L51.8919 13.0197H52.8649L53.4054 12.082L53.6216 11.6492L53.8378 12.082L54.4144 12.9836H55.4955L54.3063 11.1803L55.3874 9.48525H54.3784L53.9099 10.3148L53.7297 10.7115L53.5135 10.3508L53.009 9.48525H52V9.48525ZM48.7568 10.3869C49.1532 10.1705 49.4775 10.0623 49.8739 10.0623C49.982 10.0623 50.5946 10.0984 50.6306 10.6754V10.8197H50.0901C48.6486 10.8197 48.3964 11.5049 48.3964 11.9377C48.3964 12.5148 48.7207 13.0197 49.5856 13.0197C50.3063 13.0197 50.5586 12.623 50.6667 12.4426V12.9836H51.5676V10.7475C51.5676 10.2066 51.4234 9.41311 50.018 9.41311C49.5856 9.41311 49.1892 9.44918 48.7928 9.62951V10.3869H48.7568ZM50.5946 11.3967V11.5049C50.5946 12.2262 50.1622 12.4066 49.8018 12.4066C49.4054 12.4066 49.2613 12.2262 49.2613 11.9377C49.2613 11.3607 49.982 11.3607 50.4865 11.3607H50.5946V11.3967V11.3967ZM45.5495 14.4623V12.5508C45.655 12.7198 45.805 12.8563 45.983 12.9454C46.1611 13.0345 46.3602 13.0727 46.5586 13.0557C47.2793 13.0557 48 12.5508 48 11.2525C48 9.9541 47.3513 9.44918 46.5586 9.44918C46.4504 9.44918 45.8378 9.48525 45.4775 10.0984V9.48525H44.6847V14.4623H45.5856H45.5495ZM45.5495 11.2525C45.5495 10.5311 45.982 10.1705 46.3423 10.1705C46.7027 10.1705 47.0991 10.5311 47.0991 11.2525C47.0991 12.0098 46.7027 12.3344 46.3423 12.3344C45.982 12.3344 45.5856 11.9738 45.5856 11.2525H45.5495ZM41.2252 9.48525V10.2066H42.3063V12.9836H43.2072V10.2066H44.2883V9.48525H41.2252V9.48525ZM41.0811 9.55738C40.8288 9.44918 40.5405 9.44918 40.2883 9.44918C39.0991 9.44918 38.4865 10.3148 38.4865 11.2525C38.4865 12.1541 39.027 13.0557 40.2523 13.0557C40.6126 13.0557 40.973 12.9836 41.1171 12.9115V12.2623C40.8649 12.3705 40.6126 12.4066 40.3964 12.4066C39.7838 12.4066 39.4234 11.9016 39.4234 11.2525C39.4234 10.5672 39.8919 10.0984 40.5045 10.0984C40.6892 10.1065 40.8715 10.143 41.045 10.2066V9.55738H41.0811ZM32.3604 11.2525C32.3604 12.4066 33.0811 13.0557 34.1261 13.0557C35.1351 13.0557 35.8919 12.4066 35.8919 11.2525C35.8919 10.0623 35.1712 9.44918 34.1261 9.44918C33.1171 9.44918 32.3604 10.0623 32.3604 11.2525ZM33.2613 11.2525C33.2613 10.459 33.6937 10.0984 34.0901 10.0984C34.5946 10.0984 34.9189 10.5672 34.9189 11.2525C34.9189 11.9738 34.5586 12.4066 34.0901 12.4066C33.7297 12.4066 33.2613 12.0459 33.2613 11.2525V11.2525ZM28.6486 9.48525V12.9836H29.5495V10.2066H30.9189V12.9836H31.8198V9.48525H28.6486V9.48525ZM56.2883 3.1377C56.2883 4.32787 57.009 4.94098 58.018 4.94098C59.0631 4.94098 59.8198 4.2918 59.8198 3.1377C59.8198 1.98361 59.0631 1.33443 58.018 1.33443C57.009 1.33443 56.2883 1.98361 56.2883 3.1377ZM57.2252 3.1377C57.2252 2.34426 57.6216 1.98361 58.018 1.98361C58.5225 1.98361 58.8468 2.45246 58.8468 3.1377C58.8468 3.82295 58.5225 4.25574 58.018 4.25574C57.6577 4.25574 57.2252 3.93115 57.2252 3.1377ZM52.8649 1.40656V4.86885H54.5586C55.3513 4.86885 55.8559 4.5082 55.8559 3.89508C55.8559 3.31803 55.4595 3.06557 55.0631 3.06557C55.4234 2.95738 55.6757 2.70492 55.6757 2.27213C55.6757 1.91148 55.4955 1.40656 54.5225 1.40656H52.8649V1.40656ZM53.7658 1.98361H54.3063C54.4865 1.98361 54.8468 2.01967 54.8468 2.34426C54.8468 2.74098 54.4865 2.74098 54.3063 2.74098H53.7658V2.01967V1.98361ZM53.7658 3.3541H54.3063C54.5225 3.3541 54.9189 3.3541 54.9189 3.82295C54.9189 4.2918 54.4865 4.2918 54.3063 4.2918H53.7658V3.3541V3.3541ZM49.4414 1.40656V2.0918H50.4865V4.90492H51.3874V2.05574H52.4324V1.40656H49.3694H49.4414ZM49.2252 1.40656L48.5045 1.33443C47.2793 1.33443 46.6306 2.16393 46.6306 3.10164C46.6306 4.03934 47.2072 4.90492 48.4324 4.90492C48.7928 4.90492 49.1532 4.83279 49.2973 4.76066V4.11148C49.045 4.18361 48.8288 4.25574 48.5766 4.25574C47.964 4.25574 47.6036 3.75082 47.6036 3.1377C47.6036 2.41639 48.0721 1.98361 48.6847 1.98361C48.8795 1.97627 49.0742 2.00063 49.2613 2.05574L49.2252 1.40656V1.40656ZM43.4234 1.40656V2.0918H44.4685V4.90492H45.3694V2.05574H46.4504V1.40656H43.4234V1.40656ZM39.8198 1.40656V4.86885H40.6847V3.3541H42.1261V4.86885H43.027V1.40656H42.1261V2.70492H40.6847V1.44262H39.7838L39.8198 1.40656ZM39.2432 3.42623V3.20984C39.2432 2.88525 39.2432 1.33443 37.6577 1.33443C36.7568 1.33443 35.964 2.05574 35.964 3.1377C35.964 4.36393 36.7928 4.94098 37.8018 4.94098C38.1982 4.94098 38.6306 4.83279 38.991 4.72459V4.00328C38.7027 4.18361 38.3063 4.25574 37.9099 4.25574C37.2252 4.25574 36.9369 3.85902 36.9369 3.42623H39.2432V3.42623ZM36.973 2.77705C36.973 2.3082 37.2252 1.98361 37.6577 1.98361C37.982 1.98361 38.3784 2.2 38.3784 2.77705H36.9369H36.973ZM33.4054 1.44262V4.90492H34.3063V2.0918H35.7477V1.37049H33.4054V1.44262ZM30.1622 0.180328L28.3243 4.86885H29.2973L29.6937 3.85902H31.6036L32 4.90492H33.0811L31.2072 0.144262H30.1261L30.1622 0.180328ZM29.982 3.06557L30.6306 1.11803L31.3514 3.02951H29.982V3.06557ZM29.5495 19.5836H30.0901C30.3423 19.5836 30.7387 19.5836 30.7387 20.0164C30.7387 20.4852 30.3063 20.4852 30.1261 20.4852H29.5856V19.5836H29.5495ZM9.00901 0C10.3423 0.216393 11.2793 1.19016 12.3964 2.38033L19.4595 9.7377L22.991 6.27541L19.8198 2.92131C18.0541 1.08197 16.3964 0 14.0541 0H9.00901ZM0 14.7869L3.20721 18.2131C4.93694 20.0525 6.59459 21.0984 8.97297 21.0984H14.018C12.6486 20.918 11.7117 19.9443 10.5586 18.7541L3.53153 11.3607L0 14.7869Z" fill="#2A2A2A"/>
<path fill-rule="evenodd" clip-rule="evenodd" d="M4.18018 1.9498L0 6.31373L3.53153 9.95635L8.54054 4.69078C9.15315 4.0416 9.8018 4.22193 10.2703 4.76291L15.2793 9.81209L16.3243 8.73012L9.87387 2.05799C9.49934 1.64167 9.04442 1.3056 8.53656 1.07005C8.02869 0.834507 7.47841 0.704373 6.91892 0.6875C5.90991 0.6875 4.97297 1.12029 4.18018 1.9498ZM14.4865 16.4482C13.8739 17.0973 13.2252 16.917 12.7568 16.376L7.74775 11.3268L6.7027 12.4449L13.1532 19.0449C14.8108 20.74 17.2252 20.9203 18.8468 19.1531L23.027 14.8252L19.4234 11.1826L14.4865 16.4482Z" fill="#2A2A2A"/>
</g>
<defs>
<clipPath id="clip0_1152_22089">
<rect width="80" height="22" fill="white"/>
</clipPath>
</defs>
</svg>
