<svg width="9" height="10" viewBox="0 0 9 10" fill="none" xmlns="http://www.w3.org/2000/svg">
<path d="M1.16657 0.803706C0.928299 0.565431 0.54198 0.565431 0.303706 0.803706C0.0654314 1.04198 0.0654314 1.4283 0.303706 1.66657L3.63713 5L0.303706 8.33343C0.0654314 8.5717 0.0654314 8.95802 0.303706 9.19629C0.54198 9.43457 0.928299 9.43457 1.16657 9.19629L4.5 5.86287L7.83343 9.19629C8.0717 9.43457 8.45802 9.43457 8.69629 9.19629C8.93457 8.95802 8.93457 8.5717 8.69629 8.33343L5.36287 5L8.69629 1.66657C8.93457 1.4283 8.93457 1.04198 8.69629 0.803706C8.45802 0.565431 8.0717 0.565431 7.83343 0.803706L4.5 4.13713L1.16657 0.803706Z" fill="white"/>
</svg>
