<svg width="227" height="67" viewBox="0 0 227 67" fill="none" xmlns="http://www.w3.org/2000/svg">
<g clip-path="url(#clip0_2303_41155)">
<path d="M213.287 0H13.3305C5.96825 0 0 5.99938 0 13.4V53.6C0 61.0006 5.96825 67 13.3305 67H213.287C220.649 67 226.618 61.0006 226.618 53.6V13.4C226.618 5.99938 220.649 0 213.287 0Z" fill="black"/>
<path d="M112.967 36.5209C108.968 36.5209 105.802 39.5359 105.802 43.7234C105.802 47.7434 108.968 50.9259 112.967 50.9259C116.966 50.9259 120.132 47.9109 120.132 43.7234C120.132 39.3684 116.966 36.5209 112.967 36.5209ZM112.967 47.9109C110.801 47.9109 108.968 46.0684 108.968 43.5559C108.968 41.0434 110.801 39.2009 112.967 39.2009C115.133 39.2009 116.966 40.8759 116.966 43.5559C116.966 46.0684 115.133 47.9109 112.967 47.9109ZM97.4702 36.5209C93.4711 36.5209 90.3052 39.5359 90.3052 43.7234C90.3052 47.7434 93.4711 50.9259 97.4702 50.9259C101.469 50.9259 104.635 47.9109 104.635 43.7234C104.635 39.3684 101.469 36.5209 97.4702 36.5209ZM97.4702 47.9109C95.3042 47.9109 93.4712 46.0684 93.4712 43.5559C93.4712 41.0434 95.3042 39.2009 97.4702 39.2009C99.6364 39.2009 101.469 40.8759 101.469 43.5559C101.469 46.0684 99.6364 47.9109 97.4702 47.9109ZM78.9744 38.6984V41.7134H86.1395C85.9727 43.3884 85.3063 44.7284 84.4732 45.5659C83.4732 46.5709 81.8071 47.7434 78.9744 47.7434C74.4753 47.7434 71.1427 44.2259 71.1427 39.7034C71.1427 35.1809 74.642 31.6634 78.9744 31.6634C81.3072 31.6634 83.1401 32.6684 84.4732 33.8409L86.6392 31.6634C84.8063 29.9884 82.4734 28.6484 79.1408 28.6484C73.1421 28.6484 67.9766 33.6734 67.9766 39.7034C67.9766 45.7334 73.1421 50.7584 79.1408 50.7584C82.4734 50.7584 84.8064 49.7534 86.806 47.5759C88.8056 45.5659 89.4721 42.7184 89.4721 40.5409C89.4721 39.8709 89.4721 39.2009 89.3055 38.6984H78.9744ZM154.625 41.0434C153.958 39.3684 152.292 36.5209 148.626 36.5209C144.96 36.5209 141.961 39.3684 141.961 43.7234C141.961 47.7434 144.96 50.9259 148.959 50.9259C152.125 50.9259 154.125 48.9159 154.791 47.7434L152.458 46.0684C151.625 47.2409 150.625 48.0784 148.959 48.0784C147.293 48.0784 146.293 47.4084 145.46 45.9009L154.958 41.8809L154.625 41.0434ZM144.96 43.3884C144.96 40.7084 147.126 39.2009 148.626 39.2009C149.792 39.2009 150.959 39.8709 151.292 40.7084L144.96 43.3884ZM137.128 50.2559H140.294V29.3184H137.128V50.2559ZM132.129 38.0284C131.296 37.1909 129.963 36.3534 128.297 36.3534C124.798 36.3534 121.465 39.5359 121.465 43.5559C121.465 47.5759 124.631 50.5909 128.297 50.5909C129.963 50.5909 131.296 49.7534 131.963 48.9159H132.129V49.9209C132.129 52.6009 130.63 54.1084 128.297 54.1084C126.464 54.1084 125.131 52.7684 124.798 51.5959L122.132 52.7684C122.965 54.6109 124.964 56.9559 128.464 56.9559C132.13 56.9559 135.129 54.7784 135.129 49.5859V36.8559H132.129V38.0284ZM128.464 47.9109C126.297 47.9109 124.465 46.0684 124.465 43.5559C124.465 41.0434 126.297 39.2009 128.464 39.2009C130.63 39.2009 132.296 41.0434 132.296 43.5559C132.296 46.0684 130.63 47.9109 128.464 47.9109ZM169.121 29.3184H161.623V50.2559H164.789V42.3834H169.121C172.621 42.3834 175.953 39.8709 175.953 35.8509C175.953 31.8309 172.621 29.3184 169.121 29.3184ZM169.288 39.3684H164.789V32.1659H169.288C171.621 32.1659 172.954 34.1759 172.954 35.6834C172.787 37.5259 171.454 39.3684 169.288 39.3684ZM188.451 36.3534C186.118 36.3534 183.785 37.3584 182.952 39.5359L185.784 40.7084C186.451 39.5359 187.451 39.2009 188.617 39.2009C190.283 39.2009 191.783 40.2059 191.95 41.8809V42.0484C191.45 41.7134 190.117 41.2109 188.784 41.2109C185.784 41.2109 182.785 42.8859 182.785 45.9009C182.785 48.7484 185.285 50.5909 187.951 50.5909C190.117 50.5909 191.117 49.5859 191.95 48.5809H192.116V50.2559H195.116V42.2159C194.782 38.5309 191.95 36.3534 188.451 36.3534ZM188.117 47.9109C187.117 47.9109 185.618 47.4084 185.618 46.0684C185.618 44.3934 187.451 43.8909 188.95 43.8909C190.283 43.8909 190.95 44.2259 191.783 44.5609C191.45 46.5709 189.784 47.9109 188.117 47.9109ZM205.613 36.8559L202.114 45.9009H201.948L198.282 36.8559H194.949L200.448 49.5859L197.282 56.6209H200.448L208.946 36.8559H205.613ZM177.62 50.2559H180.785V29.3184H177.62V50.2559Z" fill="white"/>
<path d="M16.8229 12.5625C16.3229 13.065 16.1562 13.9025 16.1562 14.9075V51.925C16.1562 52.93 16.4895 53.7675 16.9895 54.27L17.1561 54.4375L37.8183 33.6675V33.5V33.3325L16.8229 12.5625Z" fill="url(#paint0_linear_2303_41155)"/>
<path d="M44.4842 40.7023L37.6523 33.8348V33.4998V33.3323L44.4842 26.4648L44.6508 26.6323L52.8157 31.3223C55.1486 32.6623 55.1486 34.8398 52.8157 36.1798L44.4842 40.7023Z" fill="url(#paint1_linear_2303_41155)"/>
<path d="M44.6632 40.535L37.6648 33.5L16.8359 54.4375C17.6691 55.275 18.8355 55.275 20.3352 54.605L44.6632 40.535Z" fill="url(#paint2_linear_2303_41155)"/>
<path d="M44.6632 26.4765L20.3352 12.5741C18.8355 11.7366 17.6691 11.9041 16.8359 12.7416L37.6648 33.5115L44.6632 26.4765Z" fill="url(#paint3_linear_2303_41155)"/>
<path opacity="0.2" d="M44.4966 40.3633L20.3352 54.0983C19.0021 54.9358 17.8357 54.7683 17.0026 54.0983L16.8359 54.2658L17.0026 54.4333C17.8357 55.1033 19.0021 55.2708 20.3352 54.4333L44.4966 40.3633Z" fill="black"/>
<path opacity="0.12" d="M16.8229 54.1067C16.3229 53.6042 16.1562 52.7667 16.1562 51.7617V51.9292C16.1562 52.9342 16.4895 53.7717 16.9895 54.2742V54.1067H16.8229Z" fill="black"/>
<path opacity="0.12" d="M52.8276 35.6775L44.4961 40.3675L44.6627 40.535L52.8276 35.845C53.994 35.175 54.4939 34.3375 54.4939 33.5C54.4939 34.3375 53.8274 35.0075 52.8276 35.6775Z" fill="black"/>
<path opacity="0.25" d="M20.3221 12.7389L52.8151 31.3314C53.8148 32.0014 54.4814 32.6714 54.4814 33.5089C54.4814 32.6714 53.9815 31.8339 52.8151 31.1639L20.3221 12.5714C17.9893 11.2314 16.1562 12.2364 16.1562 14.9164V15.0839C16.1562 12.5714 17.9893 11.3989 20.3221 12.7389Z" fill="white"/>
<path d="M69.6547 23.954H68.4883V20.604H69.4881C70.3212 19.934 70.8211 18.594 70.8211 16.7515V11.7266H77.4863V20.604H78.6528V23.954H77.4863V21.7765H69.8213V23.954H69.6547ZM71.9875 16.7515C71.9875 18.259 71.6543 19.599 70.9877 20.604H75.9867V12.8991H71.8209V16.7515H71.9875Z" fill="white" stroke="white" stroke-width="0.394563" stroke-miterlimit="10"/>
<path d="M88.4838 20.4243C87.484 21.4293 86.3176 21.9318 84.8179 21.9318C83.3182 21.9318 82.1518 21.4293 81.152 20.4243C80.1522 19.4193 79.6523 18.2468 79.6523 16.7393C79.6523 15.2319 80.1522 14.0594 81.152 13.0544C82.1518 12.0494 83.3182 11.5469 84.8179 11.5469C86.3176 11.5469 87.484 12.0494 88.4838 13.0544C89.4836 14.0594 89.9834 15.2319 89.9834 16.7393C89.9834 18.2468 89.4836 19.4193 88.4838 20.4243ZM82.1518 19.5868C82.8183 20.2568 83.8181 20.7593 84.8179 20.7593C85.8177 20.7593 86.8175 20.4243 87.484 19.5868C88.1505 18.9168 88.6504 17.9118 88.6504 16.7393C88.6504 15.5669 88.3171 14.5619 87.484 13.8919C86.8175 13.2219 85.8177 12.7194 84.8179 12.7194C83.8181 12.7194 82.8183 13.0544 82.1518 13.8919C81.4853 14.5619 80.9854 15.5669 80.9854 16.7393C80.9854 17.9118 81.3187 18.9168 82.1518 19.5868Z" fill="white" stroke="white" stroke-width="0.394563" stroke-miterlimit="10"/>
<path d="M96.4859 21.9318C94.9862 21.9318 93.8198 21.4293 92.82 20.4243C91.8202 19.4193 91.3203 18.2468 91.3203 16.7393C91.3203 15.2319 91.8202 14.0594 92.82 13.0544C93.8198 12.0494 94.9862 11.5469 96.4859 11.5469C97.9855 11.5469 99.1519 12.0494 100.152 13.2219L99.3186 14.0594C98.6521 13.2219 97.6523 12.7194 96.4859 12.7194C95.3194 12.7194 94.4863 13.0544 93.6531 13.8919C92.82 14.5619 92.4867 15.5669 92.4867 16.7393C92.4867 17.9118 92.82 18.9168 93.6531 19.5868C94.3197 20.2568 95.3194 20.7593 96.4859 20.7593C97.6523 20.7593 98.6521 20.2568 99.4852 19.2518L100.318 20.0893C99.8185 20.5918 99.3186 21.0943 98.6521 21.4293C97.9855 21.7643 97.319 21.9318 96.4859 21.9318Z" fill="white" stroke="white" stroke-width="0.394563" stroke-miterlimit="10"/>
<path d="M105.65 21.7765H104.317V12.8991H101.484V11.7266H108.316V12.8991H105.484V21.7765H105.65Z" fill="white" stroke="white" stroke-width="0.394563" stroke-miterlimit="10"/>
<path d="M117.131 11.7266L113.299 20.269C112.799 21.4415 111.966 22.1115 110.966 22.1115C110.632 22.1115 110.299 22.1115 109.966 21.944L110.299 20.7715C110.466 20.939 110.799 20.939 110.966 20.939C111.299 20.939 111.466 20.939 111.632 20.7715C111.799 20.604 111.966 20.4365 112.132 20.1015L112.465 19.264L109.133 11.8941H110.632L113.132 17.589L115.631 11.7266H117.131Z" fill="white" stroke="white" stroke-width="0.394563" stroke-miterlimit="10"/>
<path d="M118.645 21.7765V11.7266H125.81V21.7765H124.477V12.8991H119.811V21.7765H118.645Z" fill="white" stroke="white" stroke-width="0.394563" stroke-miterlimit="10"/>
<path d="M128.141 21.7765V11.7266H129.474V16.0816H134.473V11.7266H135.806V21.7765H134.473V17.254H129.474V21.7765H128.141Z" fill="white" stroke="white" stroke-width="0.394563" stroke-miterlimit="10"/>
<path d="M146.3 20.4243C145.3 21.4293 144.134 21.9318 142.634 21.9318C141.135 21.9318 139.968 21.4293 138.968 20.4243C137.969 19.4193 137.469 18.2468 137.469 16.7393C137.469 15.2319 137.969 14.0594 138.968 13.0544C139.968 12.0494 141.135 11.5469 142.634 11.5469C144.134 11.5469 145.3 12.0494 146.3 13.0544C147.3 14.0594 147.8 15.2319 147.8 16.7393C147.633 18.2468 147.133 19.4193 146.3 20.4243ZM139.802 19.5868C140.468 20.2568 141.468 20.7593 142.468 20.7593C143.467 20.7593 144.467 20.4243 145.134 19.5868C145.8 18.9168 146.3 17.9118 146.3 16.7393C146.3 15.5669 145.967 14.5619 145.134 13.8919C144.467 13.2219 143.467 12.7194 142.468 12.7194C141.468 12.7194 140.468 13.0544 139.802 13.8919C139.135 14.5619 138.635 15.5669 138.635 16.7393C138.635 17.9118 139.135 18.9168 139.802 19.5868Z" fill="white" stroke="white" stroke-width="0.394563" stroke-miterlimit="10"/>
<path d="M152.961 21.7765V11.7266H156.627C157.46 11.7266 158.126 12.0616 158.626 12.5641C159.126 13.0666 159.46 13.7366 159.46 14.4066C159.46 14.9091 159.293 15.2441 159.126 15.7466C158.96 16.0816 158.626 16.4166 158.126 16.5841C158.626 16.7515 158.96 17.0865 159.293 17.4215C159.626 17.7565 159.793 18.259 159.793 18.929C159.793 19.7665 159.46 20.4365 158.96 20.939C158.293 21.4415 157.627 21.7765 156.793 21.7765H152.961ZM154.294 16.0816H156.627C157.127 16.0816 157.46 15.9141 157.793 15.5791C158.126 15.2441 158.293 14.9091 158.293 14.5741C158.293 14.2391 157.96 13.7366 157.793 13.4016C157.46 13.0666 157.127 12.8991 156.627 12.8991H154.294V16.0816ZM154.294 20.604H156.96C157.46 20.604 157.793 20.4365 158.126 20.1015C158.46 19.7665 158.626 19.4315 158.626 18.929C158.626 18.594 158.46 18.0915 158.126 17.7565C157.793 17.4215 157.46 17.254 156.96 17.254H154.461V20.604H154.294Z" fill="white" stroke="white" stroke-width="0.394563" stroke-miterlimit="10"/>
</g>
<defs>
<linearGradient id="paint0_linear_2303_41155" x1="35.8181" y1="14.5889" x2="7.70786" y2="42.5531" gradientUnits="userSpaceOnUse">
<stop stop-color="#00A0FF"/>
<stop offset="0.00657445" stop-color="#00A1FF"/>
<stop offset="0.2601" stop-color="#00BEFF"/>
<stop offset="0.5122" stop-color="#00D2FF"/>
<stop offset="0.7604" stop-color="#00DFFF"/>
<stop offset="1" stop-color="#00E3FF"/>
</linearGradient>
<linearGradient id="paint1_linear_2303_41155" x1="55.8722" y1="33.5024" x2="15.5528" y2="33.5024" gradientUnits="userSpaceOnUse">
<stop stop-color="#FFE000"/>
<stop offset="0.4087" stop-color="#FFBD00"/>
<stop offset="0.7754" stop-color="#FFA500"/>
<stop offset="1" stop-color="#FF9C00"/>
</linearGradient>
<linearGradient id="paint2_linear_2303_41155" x1="40.8756" y1="37.3461" x2="2.7559" y2="75.2679" gradientUnits="userSpaceOnUse">
<stop stop-color="#FF3A44"/>
<stop offset="1" stop-color="#C31162"/>
</linearGradient>
<linearGradient id="paint3_linear_2303_41155" x1="11.6657" y1="0.306852" x2="28.6878" y2="17.2404" gradientUnits="userSpaceOnUse">
<stop stop-color="#32A071"/>
<stop offset="0.0685" stop-color="#2DA771"/>
<stop offset="0.4762" stop-color="#15CF74"/>
<stop offset="0.8009" stop-color="#06E775"/>
<stop offset="1" stop-color="#00F076"/>
</linearGradient>
<clipPath id="clip0_2303_41155">
<rect width="227" height="67" fill="white"/>
</clipPath>
</defs>
</svg>
