<svg width="126" height="26" viewBox="0 0 126 26" fill="none" xmlns="http://www.w3.org/2000/svg">
<path d="M62.3336 9.47979C59.7087 9.47979 57.6306 11.4587 57.6306 14.2073C57.6306 16.8459 59.7087 18.9348 62.3336 18.9348C64.9585 18.9348 67.0367 16.9559 67.0367 14.2073C67.0367 11.3488 64.9585 9.47979 62.3336 9.47979ZM62.3336 16.9559C60.9117 16.9559 59.7086 15.7465 59.7086 14.0974C59.7086 12.4482 60.9117 11.2389 62.3336 11.2389C63.7554 11.2389 64.9586 12.3383 64.9586 14.0974C64.9586 15.7465 63.7554 16.9559 62.3336 16.9559ZM52.162 9.47979C49.5371 9.47979 47.4591 11.4587 47.4591 14.2073C47.4591 16.8459 49.5371 18.9348 52.162 18.9348C54.7869 18.9348 56.865 16.9559 56.865 14.2073C56.865 11.3488 54.7869 9.47979 52.162 9.47979ZM52.162 16.9559C50.7403 16.9559 49.5372 15.7465 49.5372 14.0974C49.5372 12.4482 50.7403 11.2389 52.162 11.2389C53.5838 11.2389 54.787 12.3383 54.787 14.0974C54.787 15.7465 53.5838 16.9559 52.162 16.9559ZM40.0219 10.909V12.888H44.7248C44.6154 13.9874 44.178 14.867 43.6311 15.4167C42.9748 16.0763 41.8812 16.8459 40.0219 16.8459C37.0688 16.8459 34.8814 14.5371 34.8814 11.5687C34.8814 8.60025 37.1782 6.29146 40.0219 6.29146C41.5531 6.29146 42.7562 6.95111 43.6311 7.72071L45.0528 6.29146C43.8498 5.19204 42.3186 4.3125 40.1311 4.3125C36.1937 4.3125 32.8032 7.61077 32.8032 11.5687C32.8032 15.5266 36.1937 18.8249 40.1311 18.8249C42.3186 18.8249 43.8499 18.1652 45.1623 16.736C46.4748 15.4167 46.9123 13.5477 46.9123 12.1184C46.9123 11.6786 46.9123 11.2389 46.8029 10.909H40.0219ZM89.6765 12.4482C89.239 11.3488 88.1454 9.47979 85.7392 9.47979C83.3329 9.47979 81.3643 11.3488 81.3643 14.2073C81.3643 16.8459 83.3329 18.9348 85.9578 18.9348C88.0359 18.9348 89.3484 17.6155 89.7859 16.8459L88.2548 15.7465C87.7079 16.5161 87.0516 17.0658 85.9578 17.0658C84.8641 17.0658 84.2079 16.626 83.661 15.6366L89.8953 12.9979L89.6765 12.4482ZM83.333 13.9874C83.333 12.2283 84.7548 11.2389 85.7392 11.2389C86.5048 11.2389 87.2703 11.6786 87.489 12.2283L83.333 13.9874ZM78.1925 18.4951H80.2706V4.75227H78.1925V18.4951ZM74.9113 10.4693C74.3644 9.91956 73.4896 9.36984 72.3959 9.36984C70.0991 9.36984 67.9115 11.4587 67.9115 14.0974C67.9115 16.736 69.9897 18.7149 72.3959 18.7149C73.4896 18.7149 74.3644 18.1652 74.802 17.6155H74.9113V18.2752C74.9113 20.0342 73.9271 21.0237 72.3959 21.0237C71.1928 21.0237 70.3177 20.1442 70.099 19.3746L68.349 20.1442C68.8959 21.3536 70.2084 22.8927 72.5052 22.8927C74.9114 22.8927 76.8801 21.4635 76.8801 18.0553V9.69967H74.9113V10.4693ZM72.5052 16.9559C71.0834 16.9559 69.8803 15.7465 69.8803 14.0974C69.8803 12.4482 71.0834 11.2389 72.5052 11.2389C73.9271 11.2389 75.0207 12.4482 75.0207 14.0974C75.0207 15.7465 73.9271 16.9559 72.5052 16.9559ZM99.1918 4.75227H94.2702V18.4951H96.3481V13.3278H99.1918C101.489 13.3278 103.676 11.6786 103.676 9.04002C103.676 6.4014 101.489 4.75227 99.1918 4.75227ZM99.3012 11.3488H96.3481V6.62129H99.3012C100.832 6.62129 101.707 7.94059 101.707 8.93007C101.598 10.1394 100.723 11.3488 99.3012 11.3488ZM111.879 9.36984C110.348 9.36984 108.817 10.0295 108.27 11.4587L110.129 12.2283C110.566 11.4587 111.223 11.2389 111.988 11.2389C113.082 11.2389 114.066 11.8985 114.176 12.9979V13.1079C113.848 12.888 112.973 12.5582 112.098 12.5582C110.129 12.5582 108.16 13.6576 108.16 15.6366C108.16 17.5056 109.801 18.7149 111.551 18.7149C112.973 18.7149 113.629 18.0553 114.176 17.3956H114.285V18.4951H116.254V13.2178C116.035 10.7991 114.176 9.36984 111.879 9.36984ZM111.66 16.9559C111.004 16.9559 110.02 16.626 110.02 15.7465C110.02 14.6471 111.223 14.3172 112.207 14.3172C113.082 14.3172 113.519 14.5371 114.066 14.757C113.848 16.0763 112.754 16.9559 111.66 16.9559ZM123.144 9.69967L120.847 15.6366H120.738L118.332 9.69967H116.144L119.754 18.0553L117.676 22.6729H119.754L125.332 9.69967H123.144ZM104.77 18.4951H106.848V4.75227H104.77V18.4951Z" fill="#241E1A"/>
<path d="M1.34827 0.335938C1.05776 0.627913 0.960938 1.11454 0.960938 1.69849V23.2073C0.960938 23.7913 1.15458 24.2779 1.44509 24.5699L1.54191 24.6672L13.5476 12.5989V12.5015V12.4042L1.34827 0.335938Z" fill="url(#paint0_linear_1609_56701)"/>
<path d="M17.4208 16.6945L13.4512 12.7042V12.5095V12.4122L17.4208 8.42188L17.5176 8.5192L22.2618 11.2443C23.6173 12.0229 23.6173 13.2881 22.2618 14.0667L17.4208 16.6945Z" fill="url(#paint1_linear_1609_56701)"/>
<path d="M17.5234 16.5877L13.457 12.5L1.35449 24.6656C1.83859 25.1523 2.51633 25.1523 3.38771 24.763L17.5234 16.5877Z" fill="url(#paint2_linear_1609_56701)"/>
<path d="M17.5234 8.42132L3.38771 0.34337C2.51633 -0.143256 1.83859 -0.0459307 1.35449 0.440695L13.457 12.509L17.5234 8.42132Z" fill="url(#paint3_linear_1609_56701)"/>
<path opacity="0.2" d="M17.4266 16.5L3.38771 24.4807C2.61315 24.9673 1.93541 24.87 1.45131 24.4807L1.35449 24.578L1.45131 24.6753C1.93541 25.0646 2.61315 25.1619 3.38771 24.6753L17.4266 16.5Z" fill="#241E1A"/>
<path opacity="0.12" d="M1.34827 24.4797C1.05776 24.1878 0.960938 23.7011 0.960938 23.1172V23.2145C0.960938 23.7985 1.15458 24.2851 1.44509 24.5771V24.4797H1.34827Z" fill="#241E1A"/>
<path opacity="0.12" d="M22.2668 13.7652L17.4258 16.4903L17.5226 16.5877L22.2668 13.8626C22.9445 13.4733 23.235 12.9866 23.235 12.5C23.235 12.9866 22.8477 13.3759 22.2668 13.7652Z" fill="#241E1A"/>
<path opacity="0.25" d="M3.38148 0.440697L22.2614 11.2438C22.8423 11.6331 23.2296 12.0224 23.2296 12.509C23.2296 12.0224 22.9391 11.5357 22.2614 11.1464L3.38148 0.343372C2.026 -0.435229 0.960938 0.148722 0.960938 1.70592V1.80325C0.960938 0.343371 2.026 -0.337904 3.38148 0.440697Z" fill="#241E1A"/>
<defs>
<linearGradient id="paint0_linear_1609_56701" x1="12.3854" y1="1.51338" x2="-3.94796" y2="17.7618" gradientUnits="userSpaceOnUse">
<stop stop-color="#00A0FF"/>
<stop offset="0.00657445" stop-color="#00A1FF"/>
<stop offset="0.2601" stop-color="#00BEFF"/>
<stop offset="0.5122" stop-color="#00D2FF"/>
<stop offset="0.7604" stop-color="#00DFFF"/>
<stop offset="1" stop-color="#00E3FF"/>
</linearGradient>
<linearGradient id="paint1_linear_1609_56701" x1="24.0378" y1="12.511" x2="0.61031" y2="12.511" gradientUnits="userSpaceOnUse">
<stop stop-color="#FFE000"/>
<stop offset="0.4087" stop-color="#FFBD00"/>
<stop offset="0.7754" stop-color="#FFA500"/>
<stop offset="1" stop-color="#FF9C00"/>
</linearGradient>
<linearGradient id="paint2_linear_1609_56701" x1="15.3226" y1="14.7348" x2="-6.82665" y2="36.769" gradientUnits="userSpaceOnUse">
<stop stop-color="#FF3A44"/>
<stop offset="1" stop-color="#C31162"/>
</linearGradient>
<linearGradient id="paint3_linear_1609_56701" x1="-1.64966" y1="-6.78443" x2="8.24099" y2="3.05473" gradientUnits="userSpaceOnUse">
<stop stop-color="#32A071"/>
<stop offset="0.0685" stop-color="#2DA771"/>
<stop offset="0.4762" stop-color="#15CF74"/>
<stop offset="0.8009" stop-color="#06E775"/>
<stop offset="1" stop-color="#00F076"/>
</linearGradient>
</defs>
</svg>
