<svg width="474" height="326" viewBox="0 0 474 326" fill="none" xmlns="http://www.w3.org/2000/svg">
<path opacity="0.2" fill-rule="evenodd" clip-rule="evenodd" d="M332.863 54.1274C328.167 76.7622 290.596 212.571 220.151 291.792C145.009 218.229 102.742 54.1274 102.742 54.1274C55.7778 144.666 18.2069 257.84 18.2069 257.84C18.2069 257.84 93.3488 523.798 220.151 642.63C346.953 512.481 417.398 252.181 417.398 252.181C417.398 252.181 389.22 155.984 332.863 54.1274ZM332.863 -2.45937C332.863 -2.45937 295.293 144.666 220.151 223.888C149.705 155.984 107.438 -2.45937 107.438 -2.45937C107.438 -2.45937 149.705 -132.609 220.151 -206.172C295.293 -138.268 332.863 -2.45937 332.863 -2.45937ZM408.005 342.72C450.273 438.918 473.754 512.481 473.754 512.481C473.754 512.481 379.827 897.271 220.151 1067.03C55.7778 908.588 -33.4531 518.139 -33.4531 518.139V506.822C-28.7568 489.846 -9.97129 427.6 27.5996 348.379C51.0815 421.942 121.527 619.996 220.151 721.852C332.863 603.019 389.22 404.966 408.005 342.72Z" fill="url(#paint0_linear_1992_21477)" fill-opacity="0.9"/>
<defs>
<linearGradient id="paint0_linear_1992_21477" x1="204.334" y1="127.241" x2="-119.67" y2="878.605" gradientUnits="userSpaceOnUse">
<stop stop-color="white" stop-opacity="0.53"/>
<stop offset="1" stop-color="white" stop-opacity="0.67"/>
</linearGradient>
</defs>
</svg>
