<svg width="27" height="11" viewBox="0 0 27 11" fill="none" xmlns="http://www.w3.org/2000/svg">
<path d="M0 10.1818V0H3.81818C4.60038 0 5.25663 0.145833 5.78693 0.4375C6.32055 0.729167 6.72325 1.13021 6.99503 1.64063C7.27012 2.14773 7.40767 2.72443 7.40767 3.37074C7.40767 4.02367 7.27012 4.60369 6.99503 5.1108C6.71993 5.6179 6.31392 6.01728 5.77699 6.30895C5.24006 6.5973 4.57884 6.74148 3.79332 6.74148H1.26278V5.22514H3.54475C4.00213 5.22514 4.37666 5.1456 4.66832 4.98651C4.95999 4.82742 5.17543 4.60867 5.31463 4.33026C5.45715 4.05185 5.52841 3.73201 5.52841 3.37074C5.52841 3.00947 5.45715 2.69129 5.31463 2.41619C5.17543 2.1411 4.95833 1.92732 4.66335 1.77486C4.37169 1.61908 3.9955 1.54119 3.5348 1.54119H1.84446V10.1818H0Z" fill="#F8661C"/>
<path d="M12.8601 10.1818H9.40977V0H12.9297C13.9405 0 14.8089 0.203835 15.5348 0.611506C16.2639 1.01586 16.8241 1.59754 17.2152 2.35653C17.6063 3.11553 17.8018 4.02367 17.8018 5.08097C17.8018 6.14157 17.6046 7.05303 17.2102 7.81534C16.8191 8.57765 16.254 9.16264 15.5149 9.57031C14.7791 9.97798 13.8941 10.1818 12.8601 10.1818ZM11.2542 8.58594H12.7706C13.4798 8.58594 14.0715 8.45668 14.5454 8.19815C15.0194 7.93632 15.3757 7.54688 15.6143 7.02983C15.8529 6.50947 15.9723 5.85985 15.9723 5.08097C15.9723 4.30208 15.8529 3.65578 15.6143 3.14205C15.3757 2.625 15.0227 2.23887 14.5554 1.98367C14.0913 1.72514 13.5146 1.59588 12.8253 1.59588H11.2542V8.58594Z" fill="#F8661C"/>
<path d="M19.9543 10.1818V0H26.477V1.54617H21.7988V4.31037H26.0296V5.85653H21.7988V10.1818H19.9543Z" fill="#F8661C"/>
</svg>
