<svg width="21" height="20" viewBox="0 0 21 20" fill="none" xmlns="http://www.w3.org/2000/svg">
<g clip-path="url(#clip0_1714_7875)">
<path fill-rule="evenodd" clip-rule="evenodd" d="M20.0417 5.95406C20.18 5.49906 20.0417 5.16406 19.3792 5.16406H17.1917C16.635 5.16406 16.3783 5.45323 16.2392 5.7724C16.2392 5.7724 15.1267 8.43573 13.5508 10.1657C13.0408 10.6674 12.8092 10.8266 12.5308 10.8266C12.3917 10.8266 12.1825 10.6674 12.1825 10.2116V5.95406C12.1825 5.4074 12.0292 5.16406 11.5658 5.16406H8.12583C7.77833 5.16406 7.56917 5.4174 7.56917 5.65823C7.56917 6.17573 8.3575 6.29573 8.43833 7.7524V10.9174C8.43833 11.6116 8.31083 11.7374 8.0325 11.7374C7.29083 11.7374 5.48667 9.06156 4.41583 5.9999C4.20833 5.40406 3.99833 5.16406 3.43917 5.16406H1.25C0.625 5.16406 0.5 5.45323 0.5 5.7724C0.5 6.34073 1.24167 9.16406 3.95417 12.8982C5.7625 15.4482 8.30833 16.8307 10.6275 16.8307C12.0183 16.8307 12.19 16.5241 12.19 15.9949V14.0674C12.19 13.4532 12.3217 13.3307 12.7625 13.3307C13.0875 13.3307 13.6433 13.4907 14.9417 14.7199C16.425 16.1774 16.6692 16.8307 17.5042 16.8307H19.6917C20.3167 16.8307 20.63 16.5241 20.45 15.9174C20.2517 15.3141 19.5433 14.4382 18.6042 13.3991C18.0942 12.8074 17.3292 12.1699 17.0967 11.8507C16.7725 11.4416 16.865 11.2591 17.0967 10.8949C17.0967 10.8949 19.7633 7.20656 20.0408 5.95406H20.0417Z" fill="white"/>
</g>
<defs>
<clipPath id="clip0_1714_7875">
<rect width="20" height="20" fill="white" transform="translate(0.5)"/>
</clipPath>
</defs>
</svg>
