<svg width="24" height="24" viewBox="0 0 24 24" fill="none" xmlns="http://www.w3.org/2000/svg">
<path d="M6.66652 5.28593C6.28528 4.90469 5.66717 4.90469 5.28593 5.28593C4.90469 5.66717 4.90469 6.28528 5.28593 6.66652L10.6194 12L5.28593 17.3335C4.90469 17.7147 4.90469 18.3328 5.28593 18.7141C5.66717 19.0953 6.28528 19.0953 6.66652 18.7141L12 13.3806L17.3335 18.7141C17.7147 19.0953 18.3328 19.0953 18.7141 18.7141C19.0953 18.3328 19.0953 17.7147 18.7141 17.3335L13.3806 12L18.7141 6.66652C19.0953 6.28528 19.0953 5.66717 18.7141 5.28593C18.3328 4.90469 17.7147 4.90469 17.3335 5.28593L12 10.6194L6.66652 5.28593Z" fill="white"/>
</svg>
