<svg width="173" height="36" viewBox="0 0 173 36" xmlns="http://www.w3.org/2000/svg">
<path fill="#F8661C" clip-rule="evenodd" d="M168.495 6.32516C168.36 6.87517 167.274 10.1753 165.24 12.1003C163.069 10.3128 161.848 6.32516 161.848 6.32516C160.492 8.52521 159.406 11.2753 159.406 11.2753C159.406 11.2753 161.577 17.7379 165.24 20.6255C168.902 17.4629 170.937 11.1378 170.937 11.1378C170.937 11.1378 170.123 8.80022 168.495 6.32516ZM168.495 4.95012C168.495 4.95012 167.41 8.52521 165.24 10.4503C163.205 8.80022 161.984 4.95012 161.984 4.95012C161.984 4.95012 163.205 1.78754 165.24 0C167.41 1.65004 168.495 4.95012 168.495 4.95012ZM170.666 13.3378C171.887 15.6754 172.565 17.4629 172.565 17.4629C172.565 17.4629 169.852 26.8132 165.24 30.9383C160.492 27.0882 157.914 17.6004 157.914 17.6004V17.3254C158.05 16.9129 158.592 15.4004 159.678 13.4753C160.356 15.2629 162.391 20.0755 165.24 22.5506C168.495 19.663 170.123 14.8504 170.666 13.3378Z"/>
<path fill="currentColor" clip-rule="evenodd" d="M149.777 32.3068C149.777 32.3068 149.777 32.3068 149.777 32.1693C149.777 32.1693 149.777 32.1693 149.777 32.0318C149.641 31.8943 149.641 31.8943 149.641 31.7568C149.641 31.6193 149.505 31.4818 149.505 31.3443L148.149 28.1817C147.877 27.6317 147.606 27.2192 147.335 26.8067C147.199 26.3942 146.928 26.1191 146.656 25.8441C146.385 25.5691 146.114 25.2941 145.842 25.1566C145.571 25.0191 145.164 24.8816 144.893 24.7441C145.164 24.6066 145.436 24.4691 145.707 24.3316C145.978 24.1941 146.249 24.0566 146.385 23.7816C146.656 23.5066 146.928 23.2316 147.199 22.8191C147.47 22.4066 147.742 21.994 147.877 21.444L149.098 18.694C149.098 18.419 149.234 18.2815 149.234 18.144C149.37 17.8689 149.37 17.8689 149.37 17.7314C149.37 17.5939 149.37 17.5939 149.234 17.4564C149.234 17.4564 149.098 17.3189 148.963 17.3189C148.827 17.3189 148.556 17.1814 148.42 17.1814C148.149 17.1814 147.742 17.1814 147.47 17.1814C146.928 17.1814 146.656 17.1814 146.385 17.1814C146.114 17.1814 145.842 17.3189 145.707 17.3189C145.571 17.3189 145.436 17.4564 145.3 17.4564C145.3 17.5939 145.164 17.7314 145.164 17.8689L143.943 20.894C143.808 21.3065 143.672 21.719 143.536 21.994C143.265 22.4066 143.129 22.6816 142.858 22.8191C142.587 22.9566 142.451 23.0941 142.18 23.2316C141.908 23.2316 141.637 23.3691 141.23 23.3691H140.416V17.7314C140.416 17.7314 140.416 17.5939 140.281 17.4564C140.281 17.4564 140.145 17.4564 140.009 17.3189C139.874 17.3189 139.602 17.3189 139.331 17.1814C139.06 17.1814 138.788 17.1814 138.381 17.1814C138.11 17.1814 137.703 17.1814 137.567 17.1814C137.296 17.3189 137.025 17.3189 136.889 17.3189C136.753 17.4564 136.618 17.4564 136.482 17.4564C136.482 17.5939 136.482 17.7314 136.482 17.7314V32.3068V32.4443C136.618 32.5818 136.753 32.5818 136.889 32.7193C137.025 32.7193 137.296 32.7193 137.567 32.8568C137.703 32.8568 138.11 32.8568 138.381 32.8568C138.788 32.8568 139.06 32.8568 139.331 32.8568C139.602 32.7193 139.874 32.7193 140.009 32.7193C140.145 32.5818 140.281 32.5818 140.281 32.4443C140.416 32.4443 140.416 32.3068 140.416 32.3068V26.3942H141.23C141.637 26.3942 141.908 26.5317 142.18 26.5317C142.587 26.6692 142.722 26.8067 142.994 26.9442C143.265 27.0817 143.401 27.3567 143.672 27.6317C143.808 28.0442 143.943 28.4567 144.079 28.8692L145.436 32.3068C145.436 32.4443 145.571 32.4443 145.571 32.5818C145.707 32.5818 145.842 32.7193 145.978 32.7193C146.114 32.7193 146.385 32.8568 146.656 32.8568C146.928 32.8568 147.335 32.8568 147.742 32.8568C148.149 32.8568 148.556 32.8568 148.691 32.8568C148.963 32.8568 149.234 32.7193 149.37 32.7193C149.505 32.7193 149.641 32.5818 149.641 32.5818C149.777 32.5818 149.777 32.4443 149.777 32.3068ZM132.955 32.4443C132.955 32.4443 132.955 32.3068 132.955 32.1693V17.8689C132.955 17.7314 132.955 17.5939 132.955 17.5939C132.819 17.4564 132.684 17.4564 132.548 17.3189C132.412 17.3189 132.277 17.3189 132.005 17.1814C131.734 17.1814 131.327 17.1814 131.056 17.1814C130.649 17.1814 130.242 17.1814 129.971 17.1814C129.699 17.3189 129.564 17.3189 129.428 17.3189C129.292 17.4564 129.157 17.4564 129.157 17.5939C129.021 17.5939 129.021 17.7314 129.021 17.8689V23.2316H123.323V17.8689C123.323 17.7314 123.188 17.5939 123.188 17.5939C123.052 17.4564 123.052 17.4564 122.781 17.3189C122.645 17.3189 122.51 17.3189 122.238 17.1814C121.967 17.1814 121.696 17.1814 121.289 17.1814C120.882 17.1814 120.61 17.1814 120.339 17.1814C120.068 17.3189 119.796 17.3189 119.661 17.3189C119.525 17.4564 119.389 17.4564 119.389 17.5939C119.254 17.5939 119.254 17.7314 119.254 17.8689V32.1693C119.254 32.3068 119.254 32.4443 119.389 32.4443C119.389 32.5818 119.525 32.5818 119.661 32.7193C119.796 32.7193 120.068 32.7193 120.339 32.8568C120.61 32.8568 120.882 32.8568 121.289 32.8568C121.696 32.8568 121.967 32.8568 122.238 32.8568C122.51 32.7193 122.645 32.7193 122.781 32.7193C123.052 32.5818 123.052 32.5818 123.188 32.4443C123.188 32.4443 123.323 32.3068 123.323 32.1693V26.5317H129.021V32.1693C129.021 32.3068 129.021 32.4443 129.157 32.4443C129.157 32.5818 129.292 32.5818 129.428 32.7193C129.564 32.7193 129.699 32.7193 129.971 32.8568C130.242 32.8568 130.649 32.8568 131.056 32.8568C131.327 32.8568 131.734 32.8568 132.005 32.8568C132.277 32.7193 132.412 32.7193 132.548 32.7193C132.684 32.5818 132.819 32.5818 132.955 32.4443ZM116.269 30.7943V22.6816C116.269 20.2065 114.506 18.0064 112.471 17.4564C111.657 17.1814 110.843 17.0439 109.893 17.0439C109.351 17.0439 108.808 17.0439 108.266 17.1814C107.723 17.3189 107.316 17.4564 106.773 17.5939C106.366 17.7314 105.959 17.8689 105.552 18.144C105.281 18.2815 105.01 18.419 104.738 18.694C104.603 18.8315 104.467 19.1065 104.331 19.3815C104.331 19.519 104.331 19.794 104.331 20.069C104.331 20.2065 104.331 20.4815 104.331 20.619C104.331 20.7565 104.467 21.0315 104.467 21.169C104.603 21.3065 104.738 21.444 104.874 21.444C105.01 21.5815 105.145 21.719 105.417 21.719C105.688 21.719 105.959 21.5815 106.231 21.3065H106.366H106.502C106.502 21.169 106.638 21.169 106.909 21.0315L107.045 20.894C107.452 20.7565 107.859 20.619 108.266 20.4815C108.944 20.344 109.486 20.2065 110.029 20.2065C111.114 20.2065 112.2 20.619 112.335 23.0941C112.064 23.0941 111.928 23.0941 111.657 23.0941C109.622 23.0941 107.587 23.2316 106.095 23.7816C104.331 24.4691 103.111 25.8441 103.111 27.9067C103.111 31.2068 105.959 32.9943 110.029 32.9943C111.793 32.9943 114.234 32.5818 115.455 32.1693V32.0318H115.591C115.727 32.0318 116.269 31.6193 116.269 30.7943ZM112.335 29.5567C111.793 29.6942 110.843 29.8317 110.029 29.8317C107.452 29.8317 107.316 29.2817 107.316 28.1817C107.316 26.8067 107.859 26.3942 110.029 26.3942C110.436 26.3942 110.843 26.3942 111.25 26.3942C111.521 26.3942 111.928 26.3942 112.335 26.3942V29.5567ZM100.669 28.3192C100.94 27.2192 101.211 26.1191 101.211 24.8816C101.211 23.7816 101.076 22.6816 100.804 21.8565C100.533 20.894 100.126 20.2065 99.7191 19.519C99.1765 18.969 98.4982 18.419 97.6843 18.144C97.006 17.7314 96.0564 17.5939 94.9712 17.5939C94.5642 17.5939 94.0216 17.5939 93.6146 17.7314C93.2076 17.8689 92.8006 18.0064 92.3937 18.144C91.9867 18.2815 91.5797 18.5565 91.1728 18.8315C90.9014 19.1065 90.4945 19.3815 90.2232 19.6565C90.3588 19.244 90.3588 18.8315 90.4945 18.419C90.4945 18.0064 90.6301 17.5939 90.7658 17.3189C90.7658 16.9064 90.9014 16.6314 91.0371 16.3564C91.3084 16.0814 91.4441 15.9439 91.5797 15.6689C91.7154 15.5314 91.9867 15.3939 92.1224 15.2564C92.258 15.1189 92.5293 14.9814 92.8006 14.8439C93.072 14.8439 93.3433 14.7064 93.6146 14.5689C94.0216 14.5689 94.4285 14.4314 94.8355 14.4314L99.4478 13.7438C99.5835 13.6063 99.7191 13.6063 99.8548 13.4688C99.9905 13.4688 100.126 13.3313 100.126 13.1938C100.262 12.9188 100.262 12.7813 100.262 12.5063C100.262 12.3688 100.262 12.0938 100.262 11.8188C100.262 11.4063 100.262 10.9938 100.262 10.7188C100.262 10.5813 100.262 10.3063 100.126 10.3063C100.126 10.1688 99.9905 10.0312 99.8548 10.0312C99.7191 10.0312 99.5835 10.0312 99.4478 10.0312L94.2929 10.8563C93.7502 10.8563 93.2076 10.9938 92.665 11.1313C92.1224 11.2688 91.7154 11.4063 91.3084 11.6813C90.7658 11.8188 90.4945 12.0938 90.0875 12.3688C89.6805 12.5063 89.4092 12.9188 89.0022 13.3313C88.5953 13.6063 88.324 14.1564 87.917 14.8439C87.51 15.5314 87.2387 16.2189 87.1031 17.1814C86.8317 18.0064 86.5604 18.969 86.5604 20.069C86.4248 21.0315 86.2891 22.2691 86.2891 23.3691C86.2891 25.0191 86.4248 26.5317 86.6961 27.7692C86.9674 28.8692 87.3744 29.9692 88.0527 30.7943C88.5953 31.4818 89.2736 32.1693 90.2232 32.5818C91.1728 32.9943 92.258 33.1318 93.4789 33.1318C94.6998 33.1318 95.6494 32.9943 96.599 32.5818C97.5486 32.1693 98.3626 31.6193 99.0409 30.9318C99.7191 30.1067 100.262 29.2817 100.669 28.3192ZM97.1417 25.1566C97.1417 25.8441 97.006 26.5317 96.8703 27.0817C96.7347 27.6317 96.4634 28.1817 96.1921 28.5942C95.9208 29.0067 95.6494 29.2817 95.1068 29.5567C94.6998 29.6942 94.2929 29.8317 93.7502 29.8317C93.072 29.8317 92.665 29.6942 92.1224 29.4192C91.7154 29.2817 91.4441 28.8692 91.1728 28.3192C90.9014 27.9067 90.7658 27.2192 90.6301 26.5317C90.4945 25.7066 90.4945 24.8816 90.4945 23.9191V23.3691C90.4945 23.2316 90.4945 23.0941 90.4945 22.9566C90.7658 22.6816 91.0371 22.2691 91.3084 22.1315C91.5797 21.8565 91.9867 21.5815 92.258 21.444C92.5293 21.169 92.8006 21.0315 93.072 21.0315C93.4789 20.894 93.7502 20.894 94.1572 20.894C94.6998 20.894 95.1068 21.0315 95.5138 21.169C95.9208 21.444 96.1921 21.719 96.4634 22.1315C96.7347 22.4066 96.8703 22.9566 97.006 23.3691C97.006 23.9191 97.1417 24.4691 97.1417 25.1566ZM83.4403 35.8819C83.8473 35.8819 84.1186 35.7444 84.1186 35.7444V31.8943C84.1186 31.0693 83.576 30.9318 83.4403 30.7943L82.3551 30.5193V17.7314C82.3551 17.5939 82.3551 17.5939 82.3551 17.5939C82.3551 17.5939 82.3551 17.4564 82.2194 17.4564C82.2194 17.4564 82.0837 17.4564 81.9481 17.4564C81.6768 17.4564 81.5411 17.4564 81.2698 17.4564C80.9985 17.4564 80.8628 17.4564 80.5915 17.4564C80.4559 17.4564 80.3202 17.4564 80.3202 17.4564C80.1846 17.5939 80.1846 17.5939 80.1846 17.5939C80.1846 17.5939 80.1846 17.5939 80.1846 17.7314V28.8692V30.3818L78.421 30.2443L73.9443 30.5193C72.7234 30.5193 72.4521 29.8317 72.4521 29.4192V17.7314C72.4521 17.5939 72.4521 17.5939 72.4521 17.5939L72.3165 17.4564C72.1808 17.4564 72.1808 17.4564 72.0451 17.4564C71.7738 17.4564 71.6382 17.4564 71.3669 17.4564C71.0955 17.4564 70.8242 17.4564 70.6886 17.4564C70.5529 17.4564 70.4173 17.4564 70.4173 17.4564C70.2816 17.5939 70.2816 17.5939 70.2816 17.5939C70.2816 17.5939 70.2816 17.5939 70.2816 17.7314V30.1067C70.4173 31.0693 70.8242 32.3068 72.5878 32.3068C72.8591 32.3068 72.9947 32.3068 73.1304 32.3068H82.3551L82.762 35.7444C82.762 35.7444 83.169 35.8819 83.4403 35.8819ZM66.7545 28.1817C67.0258 27.2192 67.1615 26.1191 67.1615 24.8816C67.1615 23.7816 67.0258 22.6816 66.7545 21.719C66.4832 20.7565 65.9406 19.9315 65.398 19.3815C64.8553 18.694 64.177 18.144 63.3631 17.8689C62.5492 17.4564 61.4639 17.3189 60.3786 17.3189C59.1577 17.3189 58.0725 17.5939 57.2585 17.8689C56.3089 18.2815 55.6307 18.8315 55.088 19.519C54.4097 20.2065 54.0028 21.0315 53.7315 21.994C53.4601 22.9566 53.3245 24.0566 53.3245 25.2941C53.3245 26.3942 53.4601 27.4942 53.7315 28.4567C54.0028 29.4192 54.4097 30.2443 54.9524 30.7943C55.495 31.4818 56.1733 32.0318 56.9872 32.3068C57.9368 32.7193 58.8864 32.8568 60.1073 32.8568C61.1926 32.8568 62.2778 32.5818 63.0918 32.3068C64.0414 31.8943 64.7197 31.3443 65.398 30.6568C65.9406 29.9692 66.3476 29.1442 66.7545 28.1817ZM64.8553 25.1566C64.8553 25.9816 64.7197 26.8067 64.584 27.4942C64.4484 28.1817 64.177 28.8692 63.7701 29.4192C63.3631 29.8317 62.8205 30.2443 62.2778 30.6568C61.7352 30.9318 60.9213 31.0693 60.243 31.0693C59.2934 31.0693 58.6151 30.9318 57.9368 30.5193C57.3942 30.2443 56.8516 29.8317 56.5803 29.2817C56.1733 28.7317 55.902 28.0442 55.7663 27.3567C55.6307 26.6692 55.495 25.8441 55.495 25.0191C55.495 24.1941 55.6307 23.3691 55.7663 22.6816C56.0376 21.994 56.3089 21.3065 56.7159 20.894C56.9872 20.344 57.5299 19.9315 58.0725 19.519C58.7508 19.244 59.4291 19.1065 60.243 19.1065C61.0569 19.1065 61.8709 19.244 62.4135 19.6565C63.0918 19.9315 63.4988 20.344 63.9057 20.894C64.177 21.444 64.4484 22.1316 64.584 22.8191C64.7197 23.5066 64.8553 24.3316 64.8553 25.1566ZM51.4253 30.6568C51.4253 30.5193 51.4253 30.3818 51.4253 30.1067C51.4253 29.9692 51.4253 29.6942 51.4253 29.5567C51.2896 29.4192 51.2896 29.4192 51.2896 29.2817C51.2896 29.1442 51.2896 29.1442 51.2896 29.1442H51.154C51.154 29.1442 51.154 29.1442 51.0183 29.1442C51.0183 29.2817 50.8827 29.2817 50.747 29.4192C50.4757 29.5567 50.2044 29.8317 49.9331 29.9692C49.5261 30.2443 49.1191 30.5193 48.7122 30.6568C48.1695 30.9318 47.6269 30.9318 47.0843 30.9318C46.406 30.9318 45.7277 30.7943 45.1851 30.6568C44.7781 30.3818 44.2355 29.9692 43.9642 29.4192C43.5572 29.0067 43.2859 28.3192 43.1502 27.6317C42.8789 26.9442 42.8789 26.1191 42.8789 25.1566C42.8789 23.2316 43.1502 21.719 43.8285 20.7565C44.6425 19.6565 45.592 19.1065 46.9486 19.1065C47.6269 19.1065 48.1695 19.244 48.5765 19.519C49.1191 19.6565 49.5261 19.794 49.7974 20.069C50.2044 20.344 50.4757 20.4815 50.6114 20.619C50.8827 20.7565 51.0183 20.894 51.0183 20.894H51.154V20.7565C51.2896 20.619 51.2896 20.344 51.2896 19.9315C51.2896 19.794 51.2896 19.6565 51.2896 19.519C51.2896 19.3815 51.2896 19.244 51.2896 19.244C51.2896 19.1065 51.154 19.1065 51.154 18.969C51.154 18.969 51.0183 18.8315 50.8827 18.694C50.8827 18.5565 50.6114 18.419 50.34 18.2815C50.0687 18.144 49.7974 18.0064 49.3904 17.8689C49.1191 17.7314 48.7122 17.5939 48.3052 17.4564C47.8982 17.4564 47.4912 17.3189 46.9486 17.3189C46.1347 17.3189 45.1851 17.4564 44.3711 17.8689C43.6929 18.144 43.0146 18.5565 42.3363 19.244C41.7937 19.794 41.3867 20.619 40.9797 21.719C40.7084 22.6816 40.5727 23.9191 40.5727 25.2941C40.5727 26.5317 40.7084 27.6317 40.9797 28.5942C41.251 29.4192 41.658 30.2443 42.065 30.9318C42.6076 31.4818 43.2859 32.0318 44.0998 32.3068C44.7781 32.7193 45.7277 32.8568 46.6773 32.8568C47.2199 32.8568 47.6269 32.8568 48.0339 32.7193C48.5765 32.5818 48.9835 32.4443 49.3904 32.3068C49.7974 32.1693 50.0687 32.0318 50.34 31.7568C50.747 31.6193 50.8827 31.4818 51.0183 31.3443C51.154 31.2068 51.2896 31.0693 51.2896 31.0693V30.9318C51.2896 30.7943 51.4253 30.7943 51.4253 30.6568ZM39.6231 18.969C39.6231 18.8315 39.6231 18.694 39.6231 18.419C39.6231 18.2815 39.6231 18.144 39.6231 18.0064C39.6231 17.8689 39.6231 17.7314 39.6231 17.5939C39.4875 17.5939 39.4875 17.5939 39.4875 17.5939C39.4875 17.4564 39.4875 17.4564 39.3518 17.4564H27.821C27.821 17.4564 27.821 17.4564 27.821 17.5939H27.6853C27.6853 17.7314 27.6853 17.8689 27.5497 18.0064C27.5497 18.144 27.5497 18.2815 27.5497 18.419C27.5497 18.694 27.5497 18.8315 27.5497 18.969C27.6853 19.1065 27.6853 19.244 27.6853 19.244V19.3815V19.244C27.6853 19.3815 27.6853 19.3815 27.821 19.3815H32.569V32.1693V32.3068C32.569 32.3068 32.569 32.3068 32.7046 32.3068C32.7046 32.3068 32.8403 32.3068 32.976 32.4443C33.1116 32.4443 33.3829 32.4443 33.6542 32.4443C33.9256 32.4443 34.0612 32.4443 34.1969 32.4443C34.4682 32.3068 34.4682 32.3068 34.6038 32.3068C34.6038 32.3068 34.7395 32.3068 34.7395 32.1693V19.3815H39.3518C39.4875 19.3815 39.4875 19.3815 39.4875 19.3815C39.4875 19.3815 39.4875 19.3815 39.6231 19.244C39.6231 19.244 39.6231 19.1065 39.6231 18.969ZM26.1931 32.0318C26.1931 31.8943 26.3288 31.7568 26.3288 31.6193V22.4066C26.3288 21.3065 25.9218 20.2065 25.3792 19.3815C24.8365 18.419 24.0226 17.7314 23.073 17.4564C22.3947 17.3189 21.4451 17.1814 20.4955 17.1814C19.9529 17.1814 19.4103 17.1814 18.8676 17.3189C18.325 17.4564 17.7824 17.5939 17.2398 17.7314C16.8328 17.8689 16.4258 18.0064 16.1545 18.144C15.7475 18.419 15.4762 18.5565 15.3406 18.694C15.3406 18.8315 15.2049 18.8315 15.2049 18.969C15.2049 19.1065 15.2049 19.244 15.2049 19.519C15.2049 19.794 15.2049 19.9315 15.2049 19.9315C15.2049 20.069 15.2049 20.2065 15.2049 20.2065C15.3406 20.344 15.3406 20.344 15.3406 20.344C15.3406 20.344 15.3406 20.344 15.4762 20.344C15.4762 20.344 15.4762 20.344 15.6119 20.344C15.6119 20.344 15.7475 20.2065 15.8832 20.2065C15.8832 20.069 16.0189 20.069 16.0189 20.069C16.0189 20.069 16.2902 19.9315 16.5615 19.794C16.6971 19.6565 16.8328 19.6565 16.8328 19.6565C17.2398 19.3815 17.7824 19.244 18.325 19.1065C18.325 19.1065 18.325 19.1065 18.4607 19.1065C19.139 18.8315 19.8172 18.694 20.4955 18.694C21.1738 18.694 21.7164 18.8315 22.2591 19.1065C22.666 19.244 23.073 19.6565 23.48 20.2065C23.6156 20.4815 23.887 20.894 23.887 21.444C24.1583 21.994 24.1583 22.8191 24.1583 23.6441V23.9191H23.887C23.887 23.9191 23.6156 23.9191 23.48 23.9191C23.3443 23.9191 23.2087 23.9191 23.2087 23.9191C22.9374 23.9191 22.666 23.9191 22.3947 23.9191C21.0382 23.9191 19.8172 24.0566 18.732 24.1941C17.6467 24.1941 16.6971 24.4691 16.0189 24.8816C15.4762 25.1566 15.0693 25.4316 14.7979 25.9816C14.391 26.5317 14.2553 27.2192 14.2553 28.3192C14.2553 29.0067 14.391 29.6942 14.6623 30.2443C14.9336 30.7943 15.3406 31.3443 15.7475 31.7568C16.8328 32.5818 18.4607 32.9943 20.6312 32.9943C21.5808 32.9943 22.5304 32.9943 23.6156 32.7193C24.4296 32.5818 25.3792 32.3068 25.9218 32.1693C26.0575 32.1693 26.0575 32.0318 26.1931 32.0318ZM24.1583 30.9318H24.0226C23.7513 31.0693 23.6156 31.0693 23.3443 31.2068C23.073 31.2068 22.8017 31.3443 22.5304 31.3443C21.8521 31.4818 21.1738 31.4818 20.6312 31.4818C19.8172 31.4818 19.139 31.4818 18.5963 31.3443C18.0537 31.2068 17.5111 30.9318 17.2398 30.6568C16.9684 30.5193 16.8328 30.2443 16.6971 29.9692C16.5615 29.5567 16.5615 29.1442 16.5615 28.5942C16.5615 27.9067 16.6971 27.3567 16.9684 26.9442C17.1041 26.5317 17.5111 26.1191 18.0537 25.9816C18.325 25.8441 18.5963 25.7066 19.0033 25.7066C19.5459 25.7066 20.0886 25.5691 20.6312 25.5691C21.4451 25.5691 22.3947 25.7066 23.48 25.7066C23.6156 25.7066 23.7513 25.7066 23.887 25.7066H24.1583V30.6568V30.9318ZM13.0344 18.969C13.1701 18.8315 13.1701 18.694 13.1701 18.419C13.1701 18.2815 13.1701 18.144 13.0344 18.0064C13.0344 17.8689 13.0344 17.7314 13.0344 17.5939H12.8987C12.8987 17.4564 12.8987 17.4564 12.8987 17.4564H1.23225C1.23225 17.4564 1.23225 17.4564 1.23225 17.5939C1.09659 17.5939 1.09659 17.5939 1.09659 17.5939C1.09659 17.7314 0.960938 17.8689 0.960938 18.0064C0.960938 18.144 0.960938 18.2815 0.960938 18.419C0.960938 18.694 0.960938 18.8315 0.960938 18.969C0.960938 19.1065 1.09659 19.244 1.09659 19.3815C1.09659 19.3815 1.09659 19.3815 1.23225 19.3815V19.519H5.98024V32.1693C5.98024 32.3068 5.98024 32.3068 5.98024 32.3068C5.98024 32.3068 5.98024 32.3068 6.1159 32.3068C6.1159 32.4443 6.25156 32.4443 6.38721 32.4443C6.52287 32.4443 6.79418 32.4443 7.0655 32.4443C7.33681 32.4443 7.47247 32.4443 7.60812 32.4443C7.87944 32.4443 8.0151 32.4443 8.0151 32.3068H8.15075C8.15075 32.3068 8.15075 32.3068 8.15075 32.1693V19.519H12.8987V19.3815C12.8987 19.3815 13.0344 19.3815 13.0344 19.244C13.0344 19.244 13.0344 19.1065 13.0344 18.969Z"/>
</svg>
