<svg width="24" height="24" viewBox="0 0 24 24" fill="none" xmlns="http://www.w3.org/2000/svg">
<path fill-rule="evenodd" clip-rule="evenodd" d="M21.5417 7.95406C21.68 7.49906 21.5417 7.16406 20.8792 7.16406H18.6917C18.135 7.16406 17.8783 7.45323 17.7392 7.7724C17.7392 7.7724 16.6267 10.4357 15.0508 12.1657C14.5408 12.6674 14.3092 12.8266 14.0308 12.8266C13.8917 12.8266 13.6825 12.6674 13.6825 12.2116V7.95406C13.6825 7.4074 13.5292 7.16406 13.0658 7.16406H9.62583C9.27833 7.16406 9.06917 7.4174 9.06917 7.65823C9.06917 8.17573 9.8575 8.29573 9.93833 9.7524V12.9174C9.93833 13.6116 9.81083 13.7374 9.5325 13.7374C8.79083 13.7374 6.98667 11.0616 5.91583 7.9999C5.70833 7.40406 5.49833 7.16406 4.93917 7.16406H2.75C2.125 7.16406 2 7.45323 2 7.7724C2 8.34073 2.74167 11.1641 5.45417 14.8982C7.2625 17.4482 9.80833 18.8307 12.1275 18.8307C13.5183 18.8307 13.69 18.5241 13.69 17.9949V16.0674C13.69 15.4532 13.8217 15.3307 14.2625 15.3307C14.5875 15.3307 15.1433 15.4907 16.4417 16.7199C17.925 18.1774 18.1692 18.8307 19.0042 18.8307H21.1917C21.8167 18.8307 22.13 18.5241 21.95 17.9174C21.7517 17.3141 21.0433 16.4382 20.1042 15.3991C19.5942 14.8074 18.8292 14.1699 18.5967 13.8507C18.2725 13.4416 18.365 13.2591 18.5967 12.8949C18.5967 12.8949 21.2633 9.20656 21.5408 7.95406H21.5417Z" fill="#2A2A2A"/>
</svg>
