<svg width="24" height="24" viewBox="0 0 24 24" fill="none" xmlns="http://www.w3.org/2000/svg">
<path d="M18.0218 12.0139L19.7525 10.2832C20.8589 9.20975 21.3012 7.62345 20.9097 6.13241C20.5183 4.64137 19.3538 3.47692 17.8628 3.08545C16.3717 2.69398 14.7854 3.13623 13.712 4.24266L10.0104 7.9442C9.20905 8.74503 8.75879 9.83152 8.75879 10.9645C8.75879 12.0974 9.20905 13.1839 10.0104 13.9847L9.99944 13.9957C10.3442 14.3339 10.7445 14.6104 11.1829 14.8131" stroke="#2A2A2A" stroke-width="1.5" stroke-linecap="round" stroke-linejoin="round"/>
<path d="M12.8064 9.1875C13.2448 9.39051 13.6451 9.66732 13.9898 10.0058C14.7912 10.8067 15.2415 11.8932 15.2415 13.0261C15.2415 14.159 14.7912 15.2455 13.9898 16.0464L10.2883 19.7479C8.61311 21.3731 5.94357 21.3529 4.29317 19.7025C2.64276 18.0521 2.62256 15.3826 4.24779 13.7074L5.97851 11.9767" stroke="#2A2A2A" stroke-width="1.5" stroke-linecap="round" stroke-linejoin="round"/>
</svg>
