<svg width="24" height="24" viewBox="0 0 24 24" fill="none" xmlns="http://www.w3.org/2000/svg">
<path fill-rule="evenodd" clip-rule="evenodd" d="M12 3C7.0293 3 3 7.0293 3 12C3 13.701 3.4725 15.294 4.2942 16.6512L3.4914 19.38C3.44531 19.5367 3.44227 19.7029 3.48262 19.8611C3.52297 20.0194 3.6052 20.1638 3.72068 20.2793C3.83616 20.3948 3.98062 20.477 4.13887 20.5174C4.29713 20.5577 4.46333 20.5547 4.62 20.5086L7.3488 19.7058C8.75161 20.5546 10.3604 21.0022 12 21C16.9707 21 21 16.9707 21 12C21 7.0293 16.9707 3 12 3ZM9.9642 14.0367C11.7849 15.8565 13.5228 16.0968 14.1366 16.1193C15.0699 16.1535 15.9789 15.4407 16.3326 14.6136C16.3773 14.5107 16.3935 14.3977 16.3795 14.2864C16.3656 14.1751 16.322 14.0696 16.2534 13.9809C15.7602 13.3509 15.0933 12.8982 14.4417 12.4482C14.3057 12.3541 14.1385 12.3164 13.9752 12.3429C13.8119 12.3694 13.6653 12.4581 13.566 12.5904L13.026 13.4139C12.9976 13.4582 12.9534 13.4899 12.9023 13.5026C12.8513 13.5153 12.7973 13.5081 12.7515 13.4823C12.3852 13.2726 11.8515 12.9162 11.4681 12.5328C11.0847 12.1494 10.7499 11.64 10.5618 11.2971C10.5385 11.2535 10.5317 11.203 10.5428 11.1548C10.5539 11.1067 10.5821 11.0642 10.6221 11.0352L11.4537 10.4178C11.5724 10.3146 11.649 10.1714 11.6689 10.0154C11.6888 9.85938 11.6506 9.7015 11.5617 9.5718C11.1585 8.9814 10.6887 8.2308 10.0074 7.7331C9.91948 7.66938 9.81648 7.62965 9.70854 7.61782C9.6006 7.60598 9.49144 7.62245 9.3918 7.6656C8.5638 8.0202 7.8474 8.9292 7.8816 9.8643C7.9041 10.4781 8.1444 12.216 9.9642 14.0367Z" fill="#2A2A2A"/>
</svg>
