<svg width="266" height="186" viewBox="0 0 266 186" fill="none" xmlns="http://www.w3.org/2000/svg">
<path opacity="0.45" fill-rule="evenodd" clip-rule="evenodd" d="M161.729 48.6375C158.258 69.5625 130.491 195.112 78.4279 268.35C22.8937 200.344 -8.34427 48.6375 -8.34427 48.6375C-43.0531 132.337 -70.8202 236.962 -70.8202 236.962C-70.8202 236.962 -15.286 482.831 78.4279 592.688C172.142 472.369 224.205 231.731 224.205 231.731C224.205 231.731 203.38 142.8 161.729 48.6375ZM161.729 -3.675C161.729 -3.675 133.962 132.337 78.4279 205.575C26.3646 142.8 -4.87338 -3.675 -4.87338 -3.675C-4.87338 -3.675 26.3646 -123.994 78.4279 -192C133.962 -129.225 161.729 -3.675 161.729 -3.675ZM217.263 315.431C248.501 404.362 265.856 472.369 265.856 472.369C265.856 472.369 196.438 828.094 78.4279 985.031C-43.0531 838.556 -109 477.6 -109 477.6V467.137C-105.529 451.444 -91.6456 393.9 -63.8785 320.662C-46.524 388.669 5.53928 571.762 78.4279 665.925C161.729 556.069 203.38 372.975 217.263 315.431Z" fill="url(#paint0_linear_1937_14340)" fill-opacity="0.8"/>
<defs>
<linearGradient id="paint0_linear_1937_14340" x1="66.7384" y1="116.229" x2="-277.46" y2="754.341" gradientUnits="userSpaceOnUse">
<stop stop-color="white" stop-opacity="0.53"/>
<stop offset="1" stop-color="white" stop-opacity="0.67"/>
</linearGradient>
</defs>
</svg>
