<svg width="25" height="25" viewBox="0 0 25 25" fill="none" xmlns="http://www.w3.org/2000/svg">
<path d="M13.5005 9.5C13.5005 10.6055 11.2615 11.5008 8.4994 11.5008C5.73625 11.5008 3.49731 10.6055 3.49731 9.5" stroke="#2A2A2A" stroke-width="1.25" stroke-linecap="round" stroke-linejoin="round"/>
<path d="M8.4984 15.5008C5.73625 15.5008 3.49731 14.6055 3.49731 13.5" stroke="#2A2A2A" stroke-width="1.25" stroke-linecap="round" stroke-linejoin="round"/>
<path d="M13.4995 5.49609H13.5005V11.4986" stroke="#2A2A2A" stroke-width="1.25" stroke-linecap="round" stroke-linejoin="round"/>
<path d="M21.5007 15.5008C21.5027 14.3954 19.2617 13.5 16.5006 13.5C13.7394 13.5 11.4985 14.3954 11.4995 15.5008C11.4995 16.6063 13.7384 17.5017 16.5016 17.5017C19.2647 17.5017 21.5037 16.6063 21.5037 15.5008" stroke="#2A2A2A" stroke-width="1.25" stroke-linecap="round" stroke-linejoin="round"/>
<path d="M21.5027 15.5V19.5017C21.5027 20.6071 19.2637 21.5025 16.5016 21.5025C13.7384 21.5025 11.4995 20.6071 11.4995 19.5017V15.5" stroke="#2A2A2A" stroke-width="1.25" stroke-linecap="round" stroke-linejoin="round"/>
<path d="M8.49842 19.5047C5.73627 19.5047 3.49634 18.6094 3.49634 17.5039" stroke="#2A2A2A" stroke-width="1.25" stroke-linecap="round" stroke-linejoin="round"/>
<ellipse cx="8.49842" cy="5.49693" rx="5.00208" ry="2.00083" stroke="#2A2A2A" stroke-width="1.25" stroke-linecap="round" stroke-linejoin="round"/>
<path d="M3.4963 5.49609V17.5011" stroke="#2A2A2A" stroke-width="1.25" stroke-linecap="round" stroke-linejoin="round"/>
<path d="M18.5024 5.49609V10.4982" stroke="#2A2A2A" stroke-width="1.25" stroke-linecap="round" stroke-linejoin="round"/>
<path d="M20.5034 7.49693L18.5025 5.49609L16.5017 7.49693" stroke="#2A2A2A" stroke-width="1.25" stroke-linecap="round" stroke-linejoin="round"/>
</svg>
