<svg width="725" height="1671" viewBox="0 0 725 1671" fill="none" xmlns="http://www.w3.org/2000/svg">
<path opacity="0.2" fill-rule="evenodd" clip-rule="evenodd" d="M523.611 341.436C516.898 371.127 463.194 549.267 362.5 653.183C255.093 556.69 194.676 341.436 194.676 341.436C127.546 460.197 73.8426 608.648 73.8426 608.648C73.8426 608.648 181.25 957.507 362.5 1113.38C543.75 942.662 644.444 601.225 644.444 601.225C644.444 601.225 604.167 475.042 523.611 341.436ZM523.611 267.211C523.611 267.211 469.907 460.197 362.5 564.112C261.806 475.042 201.389 267.211 201.389 267.211C201.389 267.211 261.806 96.4929 362.5 0C469.907 89.0704 523.611 267.211 523.611 267.211ZM631.019 719.986C691.435 846.169 725 942.662 725 942.662C725 942.662 590.741 1447.39 362.5 1670.07C127.546 1462.24 0 950.084 0 950.084V935.239C6.71296 912.971 33.5648 831.324 87.2685 727.408C120.833 823.901 221.528 1083.69 362.5 1217.3C523.611 1061.42 604.167 801.634 631.019 719.986Z" fill="url(#paint0_linear_1_925)" fill-opacity="0.9"/>
<defs>
<linearGradient id="paint0_linear_1_925" x1="339.892" y1="437.34" x2="-60.0154" y2="1447.93" gradientUnits="userSpaceOnUse">
<stop stop-color="white" stop-opacity="0.53"/>
<stop offset="1" stop-color="white" stop-opacity="0.67"/>
</linearGradient>
</defs>
</svg>
