<svg width="817" height="361" viewBox="0 0 817 361" fill="none" xmlns="http://www.w3.org/2000/svg">
<path opacity="0.15" fill-rule="evenodd" clip-rule="evenodd" d="M590.056 -198.129C582.491 -167.444 521.972 16.6622 408.5 124.058C287.463 24.3333 219.38 -198.129 219.38 -198.129C143.731 -75.3911 83.213 78.0311 83.213 78.0311C83.213 78.0311 204.25 438.573 408.5 599.667C612.75 423.231 726.222 70.36 726.222 70.36C726.222 70.36 680.833 -60.0489 590.056 -198.129ZM590.056 -274.84C590.056 -274.84 529.537 -75.3911 408.5 32.0045C295.028 -60.0489 226.944 -274.84 226.944 -274.84C226.944 -274.84 295.028 -451.276 408.5 -551C529.537 -458.947 590.056 -274.84 590.056 -274.84ZM711.093 193.098C779.176 323.507 817 423.231 817 423.231C817 423.231 665.704 944.867 408.5 1175C143.731 960.209 0 430.902 0 430.902V415.56C7.56482 392.547 37.8241 308.164 98.3426 200.769C136.167 300.493 249.639 568.982 408.5 707.062C590.056 545.969 680.833 277.48 711.093 193.098Z" fill="url(#paint0_linear_1834_6984)"/>
<defs>
<linearGradient id="paint0_linear_1834_6984" x1="313.626" y1="-112.26" x2="-5.45236" y2="967.26" gradientUnits="userSpaceOnUse">
<stop stop-color="white" stop-opacity="0"/>
<stop offset="1" stop-color="white"/>
</linearGradient>
</defs>
</svg>
