<svg width="79" height="53" viewBox="0 0 79 53" fill="none" xmlns="http://www.w3.org/2000/svg">
<path d="M10.0852 52V38.3636C10.0852 34.339 10.8428 30.1013 12.358 25.6506C13.8731 21.1998 15.9801 16.9384 18.679 12.8665C21.3778 8.7945 24.5502 5.31439 28.196 2.42614L38.7074 9.95454C35.8191 14.1686 33.357 18.572 31.321 23.1648C29.285 27.7576 28.267 32.7528 28.267 38.1506V52H10.0852ZM46.3068 52V38.3636C46.3068 34.339 47.0644 30.1013 48.5795 25.6506C50.0947 21.1998 52.2017 16.9384 54.9006 12.8665C57.5994 8.7945 60.7718 5.31439 64.4176 2.42614L74.929 9.95454C72.0407 14.1686 69.5786 18.572 67.5426 23.1648C65.5066 27.7576 64.4886 32.7528 64.4886 38.1506V52H46.3068Z" fill="#F8661C"/>
</svg>
