<?xml version="1.0" encoding="utf-8"?><svg xmlns="http://www.w3.org/2000/svg" xmlns:xlink="http://www.w3.org/1999/xlink"><symbol viewBox="0 0 24 24" id="bank" xmlns="http://www.w3.org/2000/svg"><path d="M4 18V9M20 9v9M8 9v9M12 9v9M16 9v9M12.001 6.272a.125.125 0 10.126.125.127.127 0 00-.126-.125"/><path clip-rule="evenodd" d="M21.5 9h-19V6.361L12 3l9.5 3.361V9zM21 18H3l-1 1v2h20v-2l-1-1z"/></symbol><symbol viewBox="0 0 24 24" id="burger" xmlns="http://www.w3.org/2000/svg"><path d="M2.85 7.15h18.3M2.85 12.15h18.3M2.85 17.15h18.3"/></symbol><symbol viewBox="0 0 24 24" id="close" xmlns="http://www.w3.org/2000/svg"><path d="M6.667 5.286a.976.976 0 10-1.381 1.38L10.619 12l-5.333 5.334a.976.976 0 001.38 1.38L12 13.381l5.334 5.333a.976.976 0 001.38-1.38L13.381 12l5.333-5.333a.976.976 0 00-1.38-1.381L12 10.619 6.667 5.286z"/></symbol><symbol viewBox="0 0 24 24" id="conversion" xmlns="http://www.w3.org/2000/svg"><path d="M20.237 11.248l-2.25-2.25-2.25 2.25M3.75 12.751L6 15.001l2.251-2.25"/><path d="M6.001 15.002V9a3 3 0 013-3.001h4.501M17.987 8.998V15c0 1.65-1.35 3-3 3h-4.485"/></symbol><symbol viewBox="0 0 10 11" id="cross" xmlns="http://www.w3.org/2000/svg"><path d="M9.3.901L.433 9.768m0-8.867L9.3 9.768"/></symbol><symbol viewBox="0 0 24 24" id="dislike" xmlns="http://www.w3.org/2000/svg"><path d="M4 15.5h5.612l-1.123 3.367c-.202.608-.1 1.282.275 1.802s.983.831 1.624.831H12c.297 0 .578-.132.769-.36l4.7-5.64H20c1.103 0 2-.897 2-2v-9c0-1.103-.897-2-2-2H6.693A2.01 2.01 0 004.82 3.798l-2.757 7.351A1 1 0 002 11.5v2c0 1.103.897 2 2 2zm16-2h-2v-9h2v9zM4 11.681L6.693 4.5H16v9.638L11.532 19.5h-1.146l1.562-4.683A.998.998 0 0011 13.5H4v-1.819z"/></symbol><symbol viewBox="0 0 24 24" id="document" xmlns="http://www.w3.org/2000/svg"><path clip-rule="evenodd" d="M17.661 20.706l3.414-3.414a.999.999 0 000-1.414l-1.586-1.586a.999.999 0 00-1.414 0l-3.414 3.414a1 1 0 00-.293.707v2.586h2.586a1 1 0 00.707-.293v0z"/><path d="M7.001 12.737h4M6.947 16.421H8.21M7.001 9.002h8M18.947 11.116V7.453c0-2.024-1.325-3.663-2.96-3.663H6.118c-1.635 0-2.96 1.64-2.96 3.663v10.99c0 2.022 1.325 3.662 2.96 3.662h4.934"/></symbol><symbol viewBox="0 0 24 24" id="down-triangle" xmlns="http://www.w3.org/2000/svg"><path clip-rule="evenodd" d="M4.8 8.4l7.2 7.2 7.2-7.2"/></symbol><symbol viewBox="0 0 24 24" id="eye" xmlns="http://www.w3.org/2000/svg"><path clip-rule="evenodd" d="M4.38 12.397a.846.846 0 010-.802c1.623-3 4.62-5.601 7.617-5.601 2.998 0 5.995 2.6 7.618 5.602a.847.847 0 010 .802c-1.623 3-4.62 5.602-7.618 5.602C9 18 6.003 15.399 4.38 12.397z"/><path clip-rule="evenodd" d="M13.818 10.175a2.573 2.573 0 11-3.638 3.639 2.573 2.573 0 013.638-3.639z"/></symbol><symbol viewBox="0 0 24 24" id="filter" xmlns="http://www.w3.org/2000/svg"><path d="M18 5h3M3 5h11M10 12h11M3 12h3M18 19h3M3 19h11M17.414 3.586a2 2 0 11-2.828 2.828 2 2 0 012.828-2.828M9.414 10.586a2 2 0 11-2.828 2.828 2 2 0 012.828-2.828M17.414 17.586a2 2 0 11-2.828 2.828 2 2 0 012.828-2.828"/></symbol><symbol viewBox="0 0 24 24" id="info" xmlns="http://www.w3.org/2000/svg"><circle cx="12" cy="12" r="8.391"/><path d="M11.063 15.263h2.153M12.15 15.26v-3.963h-1.072M12.09 8.497a.233.233 0 11-.233-.233M11.865 8.264c.129 0 .233.104.233.233"/></symbol><symbol viewBox="0 0 24 24" id="like" xmlns="http://www.w3.org/2000/svg"><path d="M20 8.5h-5.612l1.123-3.367c.202-.608.1-1.282-.275-1.802a2.009 2.009 0 00-1.624-.831H12c-.297 0-.578.132-.769.36l-4.7 5.64H4c-1.103 0-2 .897-2 2v9c0 1.103.897 2 2 2h13.307a2.01 2.01 0 001.873-1.298l2.757-7.351A1 1 0 0022 12.5v-2c0-1.103-.897-2-2-2zm-16 2h2v9H4v-9zm16 1.819L17.307 19.5H8V9.862L12.468 4.5h1.146l-1.562 4.683A.998.998 0 0013 10.5h7v1.819z"/></symbol><symbol viewBox="0 0 24 24" id="loading" xmlns="http://www.w3.org/2000/svg"><path d="M21.25 12A9.25 9.25 0 1112 2.75"/></symbol><symbol viewBox="0 0 24 24" id="location" xmlns="http://www.w3.org/2000/svg"><path clip-rule="evenodd" d="M15.287 20.078l5.626-15.174c.418-1.131-.682-2.232-1.813-1.813L3.918 8.72c-1.3.481-1.197 2.352.147 2.69l6.827 1.714 1.705 6.806c.336 1.345 2.208 1.448 2.69.147z"/></symbol><symbol viewBox="0 0 24 24" id="location-dis" xmlns="http://www.w3.org/2000/svg"><path clip-rule="evenodd" d="M15.285 20.078l5.626-15.174c.418-1.131-.682-2.232-1.813-1.813L3.916 8.72c-1.3.481-1.197 2.352.147 2.69l6.827 1.714 1.705 6.806c.336 1.345 2.208 1.448 2.69.147v0z"/><path d="M5 2l17 17"/></symbol><symbol viewBox="0 0 24 24" id="location-disabled" xmlns="http://www.w3.org/2000/svg"><path clip-rule="evenodd" d="M15.287 20.078l5.626-15.174c.418-1.131-.682-2.232-1.813-1.813L3.918 8.72c-1.3.481-1.197 2.352.147 2.69l6.827 1.714 1.705 6.806c.336 1.345 2.208 1.448 2.69.147v0z"/><path d="M5 2l17 17"/></symbol><symbol viewBox="0 0 16 16" id="location-mobile" xmlns="http://www.w3.org/2000/svg"><path clip-rule="evenodd" d="M10.189 13.386l3.75-10.117a.94.94 0 00-1.208-1.208L2.61 5.814c-.867.32-.799 1.568.097 1.793L7.26 8.75l1.136 4.537c.224.897 1.472.966 1.794.099v0z"/></symbol><symbol viewBox="0 0 24 24" id="marker" xmlns="http://www.w3.org/2000/svg"><path clip-rule="evenodd" d="M12 13v0a3 3 0 01-3-3v0a3 3 0 013-3v0a3 3 0 013 3v0a3 3 0 01-3 3z"/><path clip-rule="evenodd" d="M12 21s-7-5.75-7-11a7 7 0 1114 0c0 5.25-7 11-7 11z"/></symbol><symbol viewBox="0 0 24 24" id="minus" xmlns="http://www.w3.org/2000/svg"><path d="M24 11v2H0v-2z"/></symbol><symbol viewBox="0 0 16 16" id="mobile-filters" xmlns="http://www.w3.org/2000/svg"><path d="M12 3.333h2M2 3.333h7.333M6.668 8.001h7.333M2 8.001h2M12 12.665h2M2 12.665h7.333M11.608 2.39a1.333 1.333 0 11-1.885 1.886 1.333 1.333 0 011.885-1.885M6.276 7.058a1.333 1.333 0 11-1.885 1.886 1.333 1.333 0 011.885-1.886M11.608 11.723a1.333 1.333 0 11-1.885 1.885 1.333 1.333 0 011.885-1.885"/></symbol><symbol viewBox="0 0 24 24" id="pdf" xmlns="http://www.w3.org/2000/svg"><path d="M.857 16.442V7.714H4.13c.67 0 1.233.125 1.687.375.458.25.803.594 1.036 1.032.235.434.353.929.353 1.483 0 .56-.118 1.056-.353 1.491a2.527 2.527 0 01-1.044 1.027c-.46.247-1.027.37-1.7.37h-2.17v-1.299h1.956c.392 0 .713-.068.963-.204.25-.137.435-.324.554-.563a1.78 1.78 0 00.184-.822c0-.31-.062-.583-.184-.819a1.245 1.245 0 00-.558-.55c-.25-.133-.572-.2-.967-.2h-1.45v7.407H.858zM11.88 16.442H8.922V7.714h3.018c.866 0 1.61.175 2.232.524a3.504 3.504 0 011.44 1.496c.336.65.504 1.43.504 2.335 0 .91-.17 1.69-.508 2.344a3.505 3.505 0 01-1.453 1.505c-.63.349-1.389.524-2.275.524zm-1.377-1.368h1.3c.608 0 1.115-.111 1.521-.333.407-.224.712-.558.917-1.001.204-.446.306-1.003.306-1.67 0-.668-.102-1.222-.306-1.662a2.092 2.092 0 00-.908-.993c-.398-.222-.892-.333-1.483-.333h-1.347v5.992zM17.96 16.442V7.714h5.591V9.04h-4.01v2.369h3.627v1.325h-3.626v3.708H17.96z"/></symbol><symbol viewBox="0 0 24 24" id="plus" xmlns="http://www.w3.org/2000/svg"><path d="M11 0h2v24h-2V0z"/><path d="M24 11v2H0v-2h24z"/></symbol><symbol viewBox="0 0 24 24" id="qr" xmlns="http://www.w3.org/2000/svg"><path clip-rule="evenodd" d="M8.944 9.716H5.89a.764.764 0 01-.764-.764V5.897c0-.422.342-.764.764-.764h3.055c.422 0 .764.342.764.764v3.055a.764.764 0 01-.764.764zM8.944 18.88H5.89a.764.764 0 01-.764-.764v-3.055c0-.422.342-.764.764-.764h3.055c.422 0 .764.342.764.764v3.055a.764.764 0 01-.764.764zM18.108 9.716h-3.055a.764.764 0 01-.764-.764V5.897c0-.422.342-.764.764-.764h3.055c.422 0 .764.342.764.764v3.055a.764.764 0 01-.764.764z"/><path d="M8.188 12.015h1.527M12.007 6.66V5.134M15.056 12.003h-2.292a.764.764 0 01-.764-.764V9.71M5.889 12.015h-.764M14.292 16.594h-1.528a.764.764 0 00-.764.764v1.527M12 14.296h4.583M18.872 14.297v3.82a.764.764 0 01-.764.763H14.29M7.421 7.417c-.002 0-.004.002-.004.004s.002.004.004.004.004-.002.004-.004-.002-.004-.004-.004M16.585 7.417c-.002 0-.004.002-.004.004s.002.004.004.004.004-.002.004-.004-.002-.004-.004-.004M17.343 12.01c-.002 0-.004.002-.004.005 0 .002.002.004.004.004a.004.004 0 00.004-.004c0-.003-.002-.004-.004-.004"/><path d="M16.585 16.59c-.002 0-.004 0-.004.003 0 .002.002.004.004.004s.004-.002.004-.004-.002-.004-.004-.004M7.421 16.59c-.002 0-.004 0-.004.003 0 .002.002.004.004.004s.004-.002.004-.004-.002-.004-.004-.004"/></symbol><symbol viewBox="0 0 32 32" id="search" xmlns="http://www.w3.org/2000/svg"><path d="M19.957 10.052a7.004 7.004 0 11-9.906 9.905 7.004 7.004 0 019.906-9.905M24.009 24.022l-3.763-3.763"/></symbol><symbol viewBox="0 0 24 24" id="shevron-arrow" xmlns="http://www.w3.org/2000/svg"><path d="M9 6l6 6-6 6"/></symbol><symbol viewBox="0 0 24 24" id="shevron-arrow-down" xmlns="http://www.w3.org/2000/svg"><path d="M18 9l-6 6-6-6"/></symbol><symbol viewBox="0 0 24 24" id="shevron-arrow-left" xmlns="http://www.w3.org/2000/svg"><path d="M15 18l-6-6 6-6"/></symbol><symbol viewBox="0 0 24 24" id="shevron-arrow-right" xmlns="http://www.w3.org/2000/svg"><path d="M9 6l6 6-6 6"/></symbol><symbol viewBox="0 0 24 24" id="shevron-arrow-up" xmlns="http://www.w3.org/2000/svg"><path d="M6 15l6-6 6 6"/></symbol><symbol viewBox="0 0 24 24" id="star" xmlns="http://www.w3.org/2000/svg"><path d="M12 4l2.16 5.84L20 12l-5.84 2.16L12 20l-2.16-5.84L4 12l5.84-2.16L12 4z"/></symbol><symbol viewBox="0 0 24 24" id="star-2" xmlns="http://www.w3.org/2000/svg"><path d="M12 3l2.02 6.219h6.54l-5.29 3.843 2.02 6.22L12 15.437 6.71 19.28l2.02-6.219L3.44 9.22h6.54L12 3z"/></symbol><symbol viewBox="0 0 24 24" id="tick" xmlns="http://www.w3.org/2000/svg"><path d="M20 6.5l-11 11-5-5"/></symbol><symbol viewBox="0 0 24 24" id="up-triangle" xmlns="http://www.w3.org/2000/svg"><path clip-rule="evenodd" d="M19.2 15.6L12 8.4l-7.2 7.2"/></symbol><symbol viewBox="0 0 40 40" id="vk" xmlns="http://www.w3.org/2000/svg"><circle cx="20" cy="20" r="19.5"/><g clip-path="url(#bhclip0_1152_23264)"><path clip-rule="evenodd" d="M29.542 15.954c.138-.455 0-.79-.663-.79h-2.187c-.557 0-.814.29-.953.608 0 0-1.112 2.664-2.688 4.394-.51.501-.742.66-1.02.66-.14 0-.348-.159-.348-.614v-4.258c0-.547-.154-.79-.617-.79h-3.44c-.348 0-.557.253-.557.494 0 .518.789.638.87 2.094v3.165c0 .695-.128.82-.407.82-.741 0-2.545-2.675-3.616-5.737-.208-.596-.418-.836-.977-.836H10.75c-.625 0-.75.29-.75.608 0 .569.742 3.392 3.454 7.126 1.808 2.55 4.354 3.933 6.674 3.933 1.39 0 1.562-.307 1.562-.836v-1.928c0-.614.132-.736.572-.736.325 0 .881.16 2.18 1.389 1.483 1.457 1.727 2.11 2.562 2.11h2.188c.625 0 .938-.306.758-.913-.198-.603-.907-1.479-1.846-2.518-.51-.592-1.275-1.23-1.507-1.548-.325-.41-.232-.592 0-.956 0 0 2.666-3.688 2.944-4.94z"/></g><defs><clipPath id="bhclip0_1152_23264"><path transform="translate(10 10)" d="M0 0h20v20H0z"/></clipPath></defs></symbol><symbol viewBox="0 0 24 24" id="zoom" xmlns="http://www.w3.org/2000/svg"><path clip-rule="evenodd" d="M18.934 11.467v0a7.467 7.467 0 01-7.467 7.467v0A7.467 7.467 0 014 11.467v0A7.467 7.467 0 0111.467 4v0a7.467 7.467 0 017.467 7.467z"/><path d="M20 20l-3.25-3.25M14.5 11.5h-6m3 3v-6"/></symbol></svg>