<svg width="744" height="1368" viewBox="0 0 744 1368" fill="none" xmlns="http://www.w3.org/2000/svg">
<path opacity="0.1" fill-rule="evenodd" clip-rule="evenodd" d="M537.333 72.8356C530.444 101.778 475.333 275.431 372 376.729C261.778 282.667 199.778 72.8356 199.778 72.8356C130.889 188.604 75.7778 333.316 75.7778 333.316C75.7778 333.316 186 673.387 372 825.333C558 658.916 661.333 326.08 661.333 326.08C661.333 326.08 620 203.076 537.333 72.8356ZM537.333 0.480011C537.333 0.480011 482.222 188.604 372 289.902C268.667 203.076 206.667 0.480011 206.667 0.480011C206.667 0.480011 268.667 -165.938 372 -260C482.222 -173.173 537.333 0.480011 537.333 0.480011ZM647.556 441.849C709.556 564.853 744 658.916 744 658.916C744 658.916 606.222 1150.93 372 1368C130.889 1165.4 0 666.151 0 666.151V651.68C6.88889 629.973 34.4444 550.382 89.5556 449.084C124 543.147 227.333 796.391 372 926.631C537.333 774.684 620 521.44 647.556 441.849Z" fill="url(#paint0_linear_2303_41042)" fill-opacity="0.8"/>
<defs>
<linearGradient id="paint0_linear_2303_41042" x1="348.799" y1="166.323" x2="-26.4714" y2="1164.66" gradientUnits="userSpaceOnUse">
<stop stop-color="white" stop-opacity="0.53"/>
<stop offset="1" stop-color="white" stop-opacity="0.67"/>
</linearGradient>
</defs>
</svg>
