<svg width="114" height="24" viewBox="0 0 114 24" fill="none" xmlns="http://www.w3.org/2000/svg">
<path d="M16.5566 12.7432C16.5566 9.66713 19.1146 8.23896 19.2257 8.1291C17.78 6.04178 15.5557 5.82206 14.7772 5.7122C12.8866 5.49248 11.1071 6.81079 10.1062 6.81079C9.10524 6.81079 7.65953 5.7122 6.10254 5.7122C4.1007 5.7122 2.21001 6.92065 1.09788 8.6784C-1.0152 12.3037 0.541757 17.7967 2.65487 20.7629C3.65584 22.1911 4.87914 23.8389 6.43612 23.8389C7.99311 23.7291 8.54923 22.8502 10.4398 22.8502C12.3305 22.8502 12.7753 23.8389 14.4436 23.8389C16.1117 23.8389 17.1127 22.4108 18.1136 20.8728C19.337 19.2249 19.7818 17.577 19.7818 17.4671C19.7818 17.577 16.5566 16.3685 16.5566 12.7432Z" fill="#241E1A"/>
<path d="M13.442 3.84505C14.2206 2.85632 14.8879 1.42816 14.6654 0C13.442 0 11.9963 0.769012 11.1066 1.86759C10.3281 2.74646 9.66078 4.17463 9.88321 5.6028C11.2178 5.6028 12.6636 4.83379 13.442 3.84505Z" fill="#241E1A"/>
<path d="M38.6108 15.9108H33.3837L32.1603 19.646H29.936L34.9407 6.02344H37.165L42.1696 19.646H39.9454L38.6108 15.9108ZM33.9397 14.2629H38.1659L36.0528 8.22062H35.9417L33.9397 14.2629Z" fill="#241E1A"/>
<path d="M52.9503 14.71C52.9503 17.7861 51.2821 19.7635 48.7242 19.7635C47.2783 19.7635 46.1662 19.1044 45.6102 18.0058V22.9494H43.4971V9.76634H45.4989V11.4142C46.055 10.3156 47.2783 9.65648 48.7242 9.65648C51.1709 9.54662 52.9503 11.6339 52.9503 14.71ZM50.726 14.71C50.726 12.7325 49.725 11.4142 48.0569 11.4142C46.4999 11.4142 45.3878 12.7325 45.3878 14.71C45.3878 16.6875 46.4999 18.0058 48.0569 18.0058C49.725 18.0058 50.726 16.6875 50.726 14.71Z" fill="#241E1A"/>
<path d="M63.963 14.71C63.963 17.7861 62.2948 19.7635 59.7369 19.7635C58.291 19.7635 57.1789 19.1044 56.6229 18.0058V22.9494H54.5098V9.76634H56.5116V11.4142C57.0677 10.3156 58.291 9.65648 59.7369 9.65648C62.2948 9.54662 63.963 11.6339 63.963 14.71ZM61.85 14.71C61.85 12.7325 60.849 11.4142 59.1808 11.4142C57.6237 11.4142 56.5116 12.7325 56.5116 14.71C56.5116 16.6875 57.6237 18.0058 59.1808 18.0058C60.849 18.0058 61.85 16.6875 61.85 14.71Z" fill="#241E1A"/>
<path d="M71.3023 15.8058C71.4135 17.1241 72.748 18.0029 74.6387 18.0029C76.4181 18.0029 77.6415 17.1241 77.6415 15.9156C77.6415 14.817 76.863 14.2677 75.0836 13.8283L73.3041 13.3889C70.7462 12.7297 69.634 11.6311 69.634 9.76352C69.634 7.45648 71.7472 5.80859 74.6387 5.80859C77.5303 5.80859 79.5321 7.45648 79.6434 9.76352H77.5303C77.4191 8.44521 76.3069 7.56634 74.6387 7.56634C72.9705 7.56634 71.8583 8.44521 71.8583 9.65366C71.8583 10.6424 72.6369 11.1917 74.4163 11.6311L75.9733 11.9607C78.7537 12.6199 79.977 13.7184 79.977 15.6959C79.977 18.2227 77.864 19.8705 74.6387 19.8705C71.5247 19.8705 69.5229 18.3325 69.4116 15.8058H71.3023Z" fill="#241E1A"/>
<path d="M84.1986 7.33594V9.64298H86.0892V11.2909H84.1986V16.7838C84.1986 17.6627 84.5322 17.9923 85.4219 17.9923C85.6444 17.9923 85.9781 17.9923 86.0892 17.9923V19.6401C85.8668 19.75 85.4219 19.75 84.9771 19.75C82.9752 19.75 82.1968 18.981 82.1968 17.1134V11.4007H80.751V9.75284H82.1968V7.4458H84.1986V7.33594Z" fill="#241E1A"/>
<path d="M87.3125 14.7059C87.3125 11.6298 89.2032 9.65234 92.0947 9.65234C94.9863 9.65234 96.8769 11.6298 96.8769 14.7059C96.8769 17.8918 94.9863 19.7594 92.0947 19.7594C89.0919 19.7594 87.3125 17.7819 87.3125 14.7059ZM94.7639 14.7059C94.7639 12.5087 93.7629 11.3002 92.0947 11.3002C90.4265 11.3002 89.4256 12.5087 89.4256 14.7059C89.4256 16.903 90.4265 18.1115 92.0947 18.1115C93.7629 18.1115 94.7639 16.7932 94.7639 14.7059Z" fill="#241E1A"/>
<path d="M98.5513 9.65234H100.553V11.4101C100.887 10.3115 101.777 9.65234 103 9.65234C103.334 9.65234 103.556 9.65234 103.668 9.7622V11.6298C103.556 11.5199 103.111 11.5199 102.778 11.5199C101.443 11.5199 100.664 12.3988 100.664 13.827V19.7594H98.5513V9.65234Z" fill="#241E1A"/>
<path d="M113.232 16.6799C113.01 18.4376 111.118 19.756 108.894 19.756C106.003 19.756 104.113 17.7785 104.113 14.7024C104.113 11.6264 105.892 9.53906 108.783 9.53906C111.563 9.53906 113.343 11.4067 113.343 14.4827V15.1419H106.225V15.2517C106.225 16.8996 107.338 18.1081 108.894 18.1081C110.007 18.1081 110.897 17.5588 111.23 16.6799H113.232ZM106.225 13.7137H111.23C111.23 12.1757 110.229 11.1869 108.783 11.1869C107.338 11.1869 106.337 12.2855 106.225 13.7137Z" fill="#241E1A"/>
</svg>
