<svg width="42" height="42" viewBox="0 0 42 42" fill="none" xmlns="http://www.w3.org/2000/svg">
<path d="M7 31.5V15.75" stroke="#F8661C" stroke-width="2" stroke-linecap="round" stroke-linejoin="round"/>
<path d="M35 15.75V31.5" stroke="#F8661C" stroke-width="2" stroke-linecap="round" stroke-linejoin="round"/>
<path d="M14 15.75V31.5" stroke="#F8661C" stroke-width="2" stroke-linecap="round" stroke-linejoin="round"/>
<path d="M21 15.75V31.5" stroke="#F8661C" stroke-width="2" stroke-linecap="round" stroke-linejoin="round"/>
<path d="M28 15.75V31.5" stroke="#F8661C" stroke-width="2" stroke-linecap="round" stroke-linejoin="round"/>
<path d="M21.0022 10.9805C20.8814 10.9805 20.7834 11.0785 20.7852 11.1992C20.7852 11.32 20.8832 11.418 21.0039 11.418C21.1247 11.418 21.2227 11.32 21.2227 11.1992C21.2209 11.0785 21.1229 10.9805 21.0022 10.9805" stroke="#F8661C" stroke-width="2" stroke-linecap="round" stroke-linejoin="round"/>
<path fill-rule="evenodd" clip-rule="evenodd" d="M37.625 15.75H4.375V11.1318L21 5.25L37.625 11.1318V15.75Z" stroke="#F8661C" stroke-width="2" stroke-linecap="round" stroke-linejoin="round"/>
<path fill-rule="evenodd" clip-rule="evenodd" d="M36.75 31.5H5.25L3.5 33.25V36.75H38.5V33.25L36.75 31.5Z" stroke="#F8661C" stroke-width="2" stroke-linecap="round" stroke-linejoin="round"/>
</svg>
