<svg width="168" height="168" viewBox="0 0 168 168" fill="none" xmlns="http://www.w3.org/2000/svg">
<rect width="168" height="168" rx="84" fill="#F8661C"/>
<path fill-rule="evenodd" clip-rule="evenodd" d="M93.7346 56.8396C93.3083 58.5682 89.8975 68.9397 83.5024 74.9897C76.681 69.3718 72.8439 56.8396 72.8439 56.8396C68.5805 63.7539 65.1697 72.3968 65.1697 72.3968C65.1697 72.3968 71.9912 92.7076 83.5024 101.783C95.0136 91.8433 101.409 71.9647 101.409 71.9647C101.409 71.9647 98.8507 64.6182 93.7346 56.8396ZM93.7346 52.5182C93.7346 52.5182 90.3239 63.7539 83.5024 69.8039C77.1073 64.6182 73.2702 52.5182 73.2702 52.5182C73.2702 52.5182 77.1073 42.5788 83.5024 36.9609C90.3239 42.1467 93.7346 52.5182 93.7346 52.5182ZM100.556 78.879C104.393 86.2255 106.525 91.8433 106.525 91.8433C106.525 91.8433 97.998 121.229 83.5024 134.194C68.5805 122.093 60.48 92.2755 60.48 92.2755V91.4112C60.9063 90.1148 62.6117 85.3612 66.0224 79.3111C68.1541 84.929 74.5493 100.054 83.5024 107.833C93.7346 98.7577 98.8507 83.6326 100.556 78.879Z" fill="white"/>
</svg>
