<svg width="21" height="20" viewBox="0 0 21 20" fill="none" xmlns="http://www.w3.org/2000/svg">
<path fill-rule="evenodd" clip-rule="evenodd" d="M3.63379 3V8.40346C4.45646 7.42261 5.44232 6.92842 6.58629 6.92842C7.17523 6.92842 7.70343 7.04039 8.17564 7.26417C8.65036 7.48569 9.00549 7.77056 9.24415 8.11617C9.48514 8.46429 9.64826 8.84634 9.73565 9.2674C9.82357 9.68622 9.86736 10.3384 9.86736 11.2219V17.0002H7.31161V11.7963C7.31161 10.7644 7.26523 10.1095 7.16796 9.83203C7.07061 9.55227 6.90014 9.33308 6.65439 9.17005C6.40846 9.0046 6.10188 8.92171 5.73195 8.92171C5.30846 8.92171 4.92867 9.02883 4.59776 9.23824C4.26202 9.44999 4.01851 9.76644 3.86518 10.1899C3.70924 10.6135 3.63128 11.239 3.63387 12.0666L3.63128 17.0002H1.07812V3H3.63379ZM13.6984 3V8.40346C14.5208 7.42261 15.5068 6.92842 16.6506 6.92842C17.2373 6.92842 17.7677 7.04039 18.2426 7.26417C18.7147 7.48569 19.07 7.77056 19.3084 8.11617C19.5494 8.46429 19.7126 8.84634 19.8002 9.2674C19.8879 9.68622 19.9317 10.3384 19.9317 11.2219V17.0002H17.3783V11.7963C17.3783 10.7644 17.3299 10.1095 17.2323 9.83203C17.1349 9.55227 16.9647 9.33308 16.7187 9.17005C16.4753 9.0046 16.1661 8.92171 15.7962 8.92171C15.3727 8.92171 14.993 9.02883 14.662 9.23824C14.3286 9.44999 14.0852 9.76644 13.9293 10.1899C13.776 10.6135 13.6983 11.239 13.6983 12.0666V17.0002H11.1449V3H13.6983H13.6984Z" fill="white"/>
</svg>
