<svg width="218" height="47" viewBox="0 0 218 47" fill="none" xmlns="http://www.w3.org/2000/svg">
<path fill-rule="evenodd" clip-rule="evenodd" d="M212.318 8.90833C212.147 9.61299 210.779 13.841 208.215 16.3073C205.48 14.0171 203.942 8.90833 203.942 8.90833C202.232 11.727 200.865 15.2503 200.865 15.2503C200.865 15.2503 203.6 23.5301 208.215 27.2296C212.831 23.1778 215.395 15.0741 215.395 15.0741C215.395 15.0741 214.369 12.0793 212.318 8.90833ZM212.318 7.14666C212.318 7.14666 210.95 11.727 208.215 14.1933C205.651 12.0793 204.113 7.14666 204.113 7.14666C204.113 7.14666 205.651 3.09485 208.215 0.804688C210.95 2.91868 212.318 7.14666 212.318 7.14666ZM215.053 17.8928C216.592 20.8876 217.446 23.1778 217.446 23.1778C217.446 23.1778 214.027 35.1571 208.215 40.442C202.232 35.5094 198.984 23.3539 198.984 23.3539V23.0016C199.155 22.4731 199.839 20.5353 201.207 18.069C202.061 20.3591 204.626 26.5249 208.215 29.6959C212.318 25.9964 214.369 19.8306 215.053 17.8928Z" fill="#F8661C"/>
<path fill-rule="evenodd" clip-rule="evenodd" d="M188.728 42.199C188.728 42.199 188.728 42.199 188.728 42.0229C188.728 42.0229 188.728 42.0229 188.728 41.8467C188.557 41.6705 188.557 41.6705 188.557 41.4944C188.557 41.3182 188.386 41.142 188.386 40.9659L186.677 36.9141C186.335 36.2094 185.993 35.6809 185.651 35.1524C185.48 34.6239 185.138 34.2716 184.796 33.9192C184.454 33.5669 184.113 33.2146 183.771 33.0384C183.429 32.8622 182.916 32.6861 182.574 32.5099C182.916 32.3338 183.258 32.1576 183.6 31.9814C183.942 31.8053 184.283 31.6291 184.454 31.2768C184.796 30.9244 185.138 30.5721 185.48 30.0436C185.822 29.5151 186.164 28.9866 186.335 28.2819L187.873 24.7586C187.873 24.4063 188.044 24.2301 188.044 24.0539C188.215 23.7016 188.215 23.7016 188.215 23.5255C188.215 23.3493 188.215 23.3493 188.044 23.1731C188.044 23.1731 187.873 22.997 187.702 22.997C187.531 22.997 187.189 22.8208 187.019 22.8208C186.677 22.8208 186.164 22.8208 185.822 22.8208C185.138 22.8208 184.796 22.8208 184.454 22.8208C184.113 22.8208 183.771 22.997 183.6 22.997C183.429 22.997 183.258 23.1731 183.087 23.1731C183.087 23.3493 182.916 23.5255 182.916 23.7016L181.377 27.5773C181.206 28.1058 181.036 28.6343 180.865 28.9866C180.523 29.5151 180.352 29.8674 180.01 30.0436C179.668 30.2198 179.497 30.3959 179.155 30.5721C178.813 30.5721 178.471 30.7483 177.959 30.7483H176.933V23.5255C176.933 23.5255 176.933 23.3493 176.762 23.1731C176.762 23.1731 176.591 23.1731 176.42 22.997C176.249 22.997 175.907 22.997 175.565 22.8208C175.223 22.8208 174.882 22.8208 174.369 22.8208C174.027 22.8208 173.514 22.8208 173.343 22.8208C173.001 22.997 172.659 22.997 172.488 22.997C172.317 23.1731 172.146 23.1731 171.976 23.1731C171.976 23.3493 171.976 23.5255 171.976 23.5255V42.199V42.3752C172.146 42.5514 172.317 42.5514 172.488 42.7275C172.659 42.7275 173.001 42.7275 173.343 42.9037C173.514 42.9037 174.027 42.9037 174.369 42.9037C174.882 42.9037 175.223 42.9037 175.565 42.9037C175.907 42.7275 176.249 42.7275 176.42 42.7275C176.591 42.5514 176.762 42.5514 176.762 42.3752C176.933 42.3752 176.933 42.199 176.933 42.199V34.6239H177.959C178.471 34.6239 178.813 34.8001 179.155 34.8001C179.668 34.9762 179.839 35.1524 180.181 35.3286C180.523 35.5047 180.694 35.8571 181.036 36.2094C181.206 36.7379 181.377 37.2664 181.548 37.7949L183.258 42.199C183.258 42.3752 183.429 42.3752 183.429 42.5514C183.6 42.5514 183.771 42.7275 183.942 42.7275C184.113 42.7275 184.454 42.9037 184.796 42.9037C185.138 42.9037 185.651 42.9037 186.164 42.9037C186.677 42.9037 187.189 42.9037 187.36 42.9037C187.702 42.9037 188.044 42.7275 188.215 42.7275C188.386 42.7275 188.557 42.5514 188.557 42.5514C188.728 42.5514 188.728 42.3752 188.728 42.199ZM167.531 42.3752C167.531 42.3752 167.531 42.199 167.531 42.0229V23.7016C167.531 23.5255 167.531 23.3493 167.531 23.3493C167.36 23.1731 167.189 23.1731 167.018 22.997C166.847 22.997 166.676 22.997 166.334 22.8208C165.993 22.8208 165.48 22.8208 165.138 22.8208C164.625 22.8208 164.112 22.8208 163.77 22.8208C163.428 22.997 163.257 22.997 163.086 22.997C162.916 23.1731 162.745 23.1731 162.745 23.3493C162.574 23.3493 162.574 23.5255 162.574 23.7016V30.5721H155.394V23.7016C155.394 23.5255 155.223 23.3493 155.223 23.3493C155.052 23.1731 155.052 23.1731 154.71 22.997C154.539 22.997 154.368 22.997 154.026 22.8208C153.685 22.8208 153.343 22.8208 152.83 22.8208C152.317 22.8208 151.975 22.8208 151.633 22.8208C151.291 22.997 150.949 22.997 150.779 22.997C150.608 23.1731 150.437 23.1731 150.437 23.3493C150.266 23.3493 150.266 23.5255 150.266 23.7016V42.0229C150.266 42.199 150.266 42.3752 150.437 42.3752C150.437 42.5514 150.608 42.5514 150.779 42.7275C150.949 42.7275 151.291 42.7275 151.633 42.9037C151.975 42.9037 152.317 42.9037 152.83 42.9037C153.343 42.9037 153.685 42.9037 154.026 42.9037C154.368 42.7275 154.539 42.7275 154.71 42.7275C155.052 42.5514 155.052 42.5514 155.223 42.3752C155.223 42.3752 155.394 42.199 155.394 42.0229V34.8001H162.574V42.0229C162.574 42.199 162.574 42.3752 162.745 42.3752C162.745 42.5514 162.916 42.5514 163.086 42.7275C163.257 42.7275 163.428 42.7275 163.77 42.9037C164.112 42.9037 164.625 42.9037 165.138 42.9037C165.48 42.9037 165.993 42.9037 166.334 42.9037C166.676 42.7275 166.847 42.7275 167.018 42.7275C167.189 42.5514 167.36 42.5514 167.531 42.3752ZM146.505 40.2612V29.8674C146.505 26.6964 144.283 23.8778 141.719 23.1731C140.693 22.8208 139.667 22.6446 138.471 22.6446C137.787 22.6446 137.103 22.6446 136.419 22.8208C135.736 22.997 135.223 23.1731 134.539 23.3493C134.026 23.5255 133.513 23.7016 133 24.0539C132.659 24.2301 132.317 24.4063 131.975 24.7586C131.804 24.9348 131.633 25.2871 131.462 25.6394C131.462 25.8156 131.462 26.1679 131.462 26.5203C131.462 26.6964 131.462 27.0488 131.462 27.2249C131.462 27.4011 131.633 27.7534 131.633 27.9296C131.804 28.1058 131.975 28.2819 132.146 28.2819C132.317 28.4581 132.488 28.6343 132.83 28.6343C133.171 28.6343 133.513 28.4581 133.855 28.1058H134.026H134.197C134.197 27.9296 134.368 27.9296 134.71 27.7534L134.881 27.5773C135.394 27.4011 135.906 27.2249 136.419 27.0488C137.274 26.8726 137.958 26.6964 138.642 26.6964C140.009 26.6964 141.377 27.2249 141.548 30.3959C141.206 30.3959 141.035 30.3959 140.693 30.3959C138.129 30.3959 135.565 30.5721 133.684 31.2768C131.462 32.1576 129.923 33.9192 129.923 36.5617C129.923 40.7897 133.513 43.0799 138.642 43.0799C140.864 43.0799 143.941 42.5514 145.479 42.0229V41.8467H145.65C145.821 41.8467 146.505 41.3182 146.505 40.2612ZM141.548 38.6757C140.864 38.8519 139.667 39.0281 138.642 39.0281C135.394 39.0281 135.223 38.3234 135.223 36.9141C135.223 35.1524 135.906 34.6239 138.642 34.6239C139.154 34.6239 139.667 34.6239 140.18 34.6239C140.522 34.6239 141.035 34.6239 141.548 34.6239V38.6757ZM126.846 37.0902C127.188 35.6809 127.53 34.2716 127.53 32.6861C127.53 31.2768 127.359 29.8674 127.017 28.8104C126.676 27.5773 126.163 26.6964 125.65 25.8156C124.966 25.1109 124.111 24.4063 123.086 24.0539C122.231 23.5255 121.034 23.3493 119.667 23.3493C119.154 23.3493 118.47 23.3493 117.957 23.5255C117.445 23.7016 116.932 23.8778 116.419 24.0539C115.906 24.2301 115.393 24.5824 114.88 24.9348C114.539 25.2871 114.026 25.6394 113.684 25.9918C113.855 25.4633 113.855 24.9348 114.026 24.4063C114.026 23.8778 114.197 23.3493 114.368 22.997C114.368 22.4685 114.539 22.1161 114.71 21.7638C115.051 21.4115 115.222 21.2353 115.393 20.883C115.564 20.7068 115.906 20.5306 116.077 20.3545C116.248 20.1783 116.59 20.0021 116.932 19.826C117.274 19.826 117.616 19.6498 117.957 19.4736C118.47 19.4736 118.983 19.2975 119.496 19.2975L125.308 18.4166C125.479 18.2405 125.65 18.2405 125.821 18.0643C125.992 18.0643 126.163 17.8881 126.163 17.712C126.334 17.3596 126.334 17.1835 126.334 16.8311C126.334 16.655 126.334 16.3026 126.334 15.9503C126.334 15.4218 126.334 14.8933 126.334 14.541C126.334 14.3648 126.334 14.0125 126.163 14.0125C126.163 13.8363 125.992 13.6602 125.821 13.6602C125.65 13.6602 125.479 13.6602 125.308 13.6602L118.812 14.7172C118.128 14.7172 117.445 14.8933 116.761 15.0695C116.077 15.2457 115.564 15.4218 115.051 15.7741C114.368 15.9503 114.026 16.3026 113.513 16.655C113 16.8311 112.658 17.3596 112.145 17.8881C111.633 18.2405 111.291 18.9451 110.778 19.826C110.265 20.7068 109.923 21.5876 109.752 22.8208C109.41 23.8778 109.068 25.1109 109.068 26.5203C108.897 27.7534 108.726 29.3389 108.726 30.7483C108.726 32.8622 108.897 34.8001 109.239 36.3856C109.581 37.7949 110.094 39.2042 110.949 40.2612C111.633 41.142 112.487 42.0229 113.684 42.5514C114.88 43.0799 116.248 43.256 117.786 43.256C119.325 43.256 120.522 43.0799 121.718 42.5514C122.915 42.0229 123.94 41.3182 124.795 40.4374C125.65 39.3804 126.334 38.3234 126.846 37.0902ZM122.402 33.0384C122.402 33.9192 122.231 34.8001 122.06 35.5047C121.889 36.2094 121.547 36.9141 121.205 37.4426C120.863 37.9711 120.522 38.3234 119.838 38.6757C119.325 38.8519 118.812 39.0281 118.128 39.0281C117.274 39.0281 116.761 38.8519 116.077 38.4996C115.564 38.3234 115.222 37.7949 114.88 37.0902C114.539 36.5617 114.368 35.6809 114.197 34.8001C114.026 33.7431 114.026 32.6861 114.026 31.4529V30.7483C114.026 30.5721 114.026 30.3959 114.026 30.2198C114.368 29.8674 114.71 29.3389 115.051 29.1628C115.393 28.8104 115.906 28.4581 116.248 28.2819C116.59 27.9296 116.932 27.7534 117.274 27.7534C117.786 27.5773 118.128 27.5773 118.641 27.5773C119.325 27.5773 119.838 27.7534 120.351 27.9296C120.863 28.2819 121.205 28.6343 121.547 29.1628C121.889 29.5151 122.06 30.2198 122.231 30.7483C122.231 31.4529 122.402 32.1576 122.402 33.0384ZM105.137 46.7794C105.65 46.7794 105.991 46.6032 105.991 46.6032V41.6705C105.991 40.6136 105.308 40.4374 105.137 40.2612L103.769 39.9089V23.5255C103.769 23.3493 103.769 23.3493 103.769 23.3493C103.769 23.3493 103.769 23.1731 103.598 23.1731C103.598 23.1731 103.427 23.1731 103.256 23.1731C102.914 23.1731 102.743 23.1731 102.402 23.1731C102.06 23.1731 101.889 23.1731 101.547 23.1731C101.376 23.1731 101.205 23.1731 101.205 23.1731C101.034 23.3493 101.034 23.3493 101.034 23.3493C101.034 23.3493 101.034 23.3493 101.034 23.5255V37.7949V39.7327L98.8118 39.5566L93.1706 39.9089C91.6322 39.9089 91.2903 39.0281 91.2903 38.4996V23.5255C91.2903 23.3493 91.2903 23.3493 91.2903 23.3493L91.1193 23.1731C90.9484 23.1731 90.9484 23.1731 90.7774 23.1731C90.4356 23.1731 90.2646 23.1731 89.9227 23.1731C89.5808 23.1731 89.239 23.1731 89.068 23.1731C88.8971 23.1731 88.7261 23.1731 88.7261 23.1731C88.5552 23.3493 88.5552 23.3493 88.5552 23.3493C88.5552 23.3493 88.5552 23.3493 88.5552 23.5255V39.3804C88.7261 40.6136 89.239 42.199 91.4612 42.199C91.8031 42.199 91.974 42.199 92.145 42.199H103.769L104.282 46.6032C104.282 46.6032 104.795 46.7794 105.137 46.7794ZM84.1106 36.9141C84.4525 35.6809 84.6235 34.2716 84.6235 32.6861C84.6235 31.2768 84.4525 29.8674 84.1106 28.6343C83.7688 27.4011 83.085 26.3441 82.4012 25.6394C81.7174 24.7586 80.8627 24.0539 79.8371 23.7016C78.8114 23.1731 77.4439 22.997 76.0763 22.997C74.5378 22.997 73.1703 23.3493 72.1446 23.7016C70.948 24.2301 70.0933 24.9348 69.4095 25.8156C68.5548 26.6964 68.042 27.7534 67.7001 28.9866C67.3582 30.2198 67.1873 31.6291 67.1873 33.2146C67.1873 34.6239 67.3582 36.0332 67.7001 37.2664C68.042 38.4996 68.5548 39.5566 69.2386 40.2612C69.9224 41.142 70.7771 41.8467 71.8027 42.199C72.9993 42.7275 74.1959 42.9037 75.7344 42.9037C77.102 42.9037 78.4695 42.5514 79.4952 42.199C80.6918 41.6705 81.5465 40.9659 82.4012 40.0851C83.085 39.2042 83.5978 38.1472 84.1106 36.9141ZM81.7174 33.0384C81.7174 34.0954 81.5465 35.1524 81.3756 36.0332C81.2046 36.9141 80.8627 37.7949 80.3499 38.4996C79.8371 39.0281 79.1533 39.5566 78.4695 40.0851C77.7857 40.4374 76.7601 40.6136 75.9054 40.6136C74.7088 40.6136 73.854 40.4374 72.9993 39.9089C72.3156 39.5566 71.6318 39.0281 71.2899 38.3234C70.7771 37.6187 70.4352 36.7379 70.2642 35.8571C70.0933 34.9762 69.9223 33.9192 69.9223 32.8622C69.9223 31.8053 70.0933 30.7483 70.2642 29.8674C70.6061 28.9866 70.948 28.1058 71.4608 27.5773C71.8027 26.8726 72.4865 26.3441 73.1703 25.8156C74.025 25.4633 74.8797 25.2871 75.9054 25.2871C76.931 25.2871 77.9567 25.4633 78.6405 25.9918C79.4952 26.3441 80.008 26.8726 80.5208 27.5773C80.8627 28.2819 81.2046 29.1628 81.3756 30.0436C81.5465 30.9244 81.7174 31.9814 81.7174 33.0384ZM64.7941 40.0851C64.7941 39.9089 64.7941 39.7327 64.7941 39.3804C64.7941 39.2042 64.7941 38.8519 64.7941 38.6757C64.6231 38.4996 64.6231 38.4996 64.6231 38.3234C64.6231 38.1472 64.6231 38.1472 64.6231 38.1472H64.4522C64.4522 38.1472 64.4522 38.1472 64.2812 38.1472C64.2812 38.3234 64.1103 38.3234 63.9393 38.4996C63.5975 38.6757 63.2556 39.0281 62.9137 39.2042C62.4008 39.5566 61.888 39.9089 61.3752 40.0851C60.6914 40.4374 60.0076 40.4374 59.3239 40.4374C58.4691 40.4374 57.6144 40.2612 56.9307 40.0851C56.4178 39.7327 55.7341 39.2042 55.3922 38.4996C54.8793 37.9711 54.5374 37.0902 54.3665 36.2094C54.0246 35.3286 54.0246 34.2716 54.0246 33.0384C54.0246 30.5721 54.3665 28.6343 55.2212 27.4011C56.2469 25.9918 57.4435 25.2871 59.1529 25.2871C60.0076 25.2871 60.6914 25.4633 61.2042 25.8156C61.888 25.9918 62.4008 26.1679 62.7427 26.5203C63.2556 26.8726 63.5975 27.0488 63.7684 27.2249C64.1103 27.4011 64.2812 27.5773 64.2812 27.5773H64.4522V27.4011C64.6231 27.2249 64.6231 26.8726 64.6231 26.3441C64.6231 26.1679 64.6231 25.9918 64.6231 25.8156C64.6231 25.6394 64.6231 25.4633 64.6231 25.4633C64.6231 25.2871 64.4522 25.2871 64.4522 25.1109C64.4522 25.1109 64.2812 24.9348 64.1103 24.7586C64.1103 24.5824 63.7684 24.4063 63.4265 24.2301C63.0846 24.0539 62.7427 23.8778 62.2299 23.7016C61.888 23.5255 61.3752 23.3493 60.8624 23.1731C60.3495 23.1731 59.8367 22.997 59.1529 22.997C58.1273 22.997 56.9307 23.1731 55.905 23.7016C55.0503 24.0539 54.1956 24.5824 53.3408 25.4633C52.6571 26.1679 52.1442 27.2249 51.6314 28.6343C51.2895 29.8674 51.1186 31.4529 51.1186 33.2146C51.1186 34.8001 51.2895 36.2094 51.6314 37.4426C51.9733 38.4996 52.4861 39.5566 52.999 40.4374C53.6827 41.1421 54.5374 41.8467 55.5631 42.199C56.4178 42.7275 57.6144 42.9037 58.811 42.9037C59.4948 42.9037 60.0076 42.9037 60.5205 42.7275C61.2042 42.5514 61.7171 42.3752 62.2299 42.199C62.7427 42.0229 63.0846 41.8467 63.4265 41.4944C63.9393 41.3182 64.1103 41.142 64.2812 40.9659C64.4522 40.7897 64.6231 40.6136 64.6231 40.6136V40.4374C64.6231 40.2612 64.7941 40.2612 64.7941 40.0851ZM49.922 25.1109C49.922 24.9348 49.922 24.7586 49.922 24.4063C49.922 24.2301 49.922 24.0539 49.922 23.8778C49.922 23.7016 49.922 23.5255 49.922 23.3493C49.751 23.3493 49.751 23.3493 49.751 23.3493C49.751 23.1731 49.751 23.1731 49.5801 23.1731H35.0499C35.0499 23.1731 35.0499 23.1731 35.0499 23.3493H34.879C34.879 23.5255 34.879 23.7016 34.708 23.8778C34.708 24.0539 34.708 24.2301 34.708 24.4063C34.708 24.7586 34.708 24.9348 34.708 25.1109C34.879 25.2871 34.879 25.4633 34.879 25.4633V25.6394V25.4633C34.879 25.6394 34.879 25.6394 35.0499 25.6394H41.0329V42.0229V42.199C41.0329 42.199 41.0329 42.199 41.2039 42.199C41.2039 42.199 41.3748 42.199 41.5458 42.3752C41.7167 42.3752 42.0586 42.3752 42.4005 42.3752C42.7424 42.3752 42.9133 42.3752 43.0842 42.3752C43.4261 42.199 43.4261 42.199 43.5971 42.199C43.5971 42.199 43.768 42.199 43.768 42.0229V25.6394H49.5801C49.751 25.6394 49.751 25.6394 49.751 25.6394C49.751 25.6394 49.751 25.6394 49.922 25.4633C49.922 25.4633 49.922 25.2871 49.922 25.1109ZM32.9986 41.8467C32.9986 41.6705 33.1695 41.4944 33.1695 41.3182V29.5151C33.1695 28.1058 32.6567 26.6964 31.9729 25.6394C31.2892 24.4063 30.2635 23.5255 29.0669 23.1731C28.2122 22.997 27.0156 22.8208 25.819 22.8208C25.1352 22.8208 24.4514 22.8208 23.7676 22.997C23.0839 23.1731 22.4001 23.3493 21.7163 23.5255C21.2035 23.7016 20.6907 23.8778 20.3488 24.0539C19.8359 24.4063 19.4941 24.5824 19.3231 24.7586C19.3231 24.9348 19.1522 24.9348 19.1522 25.1109C19.1522 25.2871 19.1522 25.4633 19.1522 25.8156C19.1522 26.1679 19.1522 26.3441 19.1522 26.3441C19.1522 26.5203 19.1522 26.6964 19.1522 26.6964C19.3231 26.8726 19.3231 26.8726 19.3231 26.8726C19.3231 26.8726 19.3231 26.8726 19.4941 26.8726C19.4941 26.8726 19.4941 26.8726 19.665 26.8726C19.665 26.8726 19.836 26.6964 20.0069 26.6964C20.0069 26.5203 20.1778 26.5203 20.1778 26.5203C20.1778 26.5203 20.5197 26.3441 20.8616 26.1679C21.0326 25.9918 21.2035 25.9918 21.2035 25.9918C21.7163 25.6394 22.4001 25.4633 23.0839 25.2871C23.0839 25.2871 23.0839 25.2871 23.2548 25.2871C24.1095 24.9348 24.9643 24.7586 25.819 24.7586C26.6737 24.7586 27.3575 24.9348 28.0412 25.2871C28.5541 25.4633 29.0669 25.9918 29.5797 26.6964C29.7507 27.0488 30.0926 27.5773 30.0926 28.2819C30.4344 28.9866 30.4344 30.0436 30.4344 31.1006V31.4529H30.0926C30.0926 31.4529 29.7507 31.4529 29.5797 31.4529C29.4088 31.4529 29.2378 31.4529 29.2378 31.4529C28.8959 31.4529 28.5541 31.4529 28.2122 31.4529C26.5027 31.4529 24.9643 31.6291 23.5967 31.8053C22.2292 31.8053 21.0326 32.1576 20.1778 32.6861C19.4941 33.0384 18.9812 33.3907 18.6393 34.0954C18.1265 34.8001 17.9556 35.6809 17.9556 37.0902C17.9556 37.9711 18.1265 38.8519 18.4684 39.5566C18.8103 40.2612 19.3231 40.9659 19.836 41.4944C21.2035 42.5514 23.2548 43.0799 25.9899 43.0799C27.1865 43.0799 28.3831 43.0799 29.7507 42.7275C30.7763 42.5514 31.9729 42.199 32.6567 42.0229C32.8276 42.0229 32.8276 41.8467 32.9986 41.8467ZM30.4344 40.4374H30.2635C29.9216 40.6136 29.7507 40.6136 29.4088 40.7897C29.0669 40.7897 28.725 40.9659 28.3831 40.9659C27.5284 41.142 26.6737 41.1421 25.9899 41.1421C24.9643 41.1421 24.1095 41.142 23.4258 40.9659C22.742 40.7897 22.0582 40.4374 21.7163 40.0851C21.3744 39.9089 21.2035 39.5566 21.0326 39.2042C20.8616 38.6757 20.8616 38.1472 20.8616 37.4426C20.8616 36.5617 21.0326 35.8571 21.3744 35.3286C21.5454 34.8001 22.0582 34.2716 22.742 34.0954C23.0839 33.9192 23.4258 33.7431 23.9386 33.7431C24.6224 33.7431 25.3061 33.5669 25.9899 33.5669C27.0156 33.5669 28.2122 33.7431 29.5797 33.7431C29.7507 33.7431 29.9216 33.7431 30.0926 33.7431H30.4344V40.0851V40.4374ZM16.4171 25.1109C16.588 24.9348 16.588 24.7586 16.588 24.4063C16.588 24.2301 16.588 24.0539 16.4171 23.8778C16.4171 23.7016 16.4171 23.5255 16.4171 23.3493H16.2461C16.2461 23.1731 16.2461 23.1731 16.2461 23.1731H1.54501C1.54501 23.1731 1.54501 23.1731 1.54501 23.3493C1.37407 23.3493 1.37407 23.3493 1.37407 23.3493C1.37407 23.5255 1.20312 23.7016 1.20312 23.8778C1.20312 24.0539 1.20312 24.2301 1.20312 24.4063C1.20312 24.7586 1.20312 24.9348 1.20312 25.1109C1.20312 25.2871 1.37407 25.4633 1.37407 25.6394C1.37407 25.6394 1.37407 25.6394 1.54501 25.6394V25.8156H7.52803V42.0229C7.52803 42.199 7.52803 42.199 7.52803 42.199C7.52803 42.199 7.52803 42.199 7.69897 42.199C7.69897 42.3752 7.86992 42.3752 8.04086 42.3752C8.2118 42.3752 8.55369 42.3752 8.89558 42.3752C9.23746 42.3752 9.40841 42.3752 9.57935 42.3752C9.92124 42.3752 10.0922 42.3752 10.0922 42.199H10.2631C10.2631 42.199 10.2631 42.199 10.2631 42.0229V25.8156H16.2461V25.6394C16.2461 25.6394 16.4171 25.6394 16.4171 25.4633C16.4171 25.4633 16.4171 25.2871 16.4171 25.1109Z" fill="#2A2A2A"/>
</svg>
