<svg width="73" height="19" viewBox="0 0 73 19" fill="none" xmlns="http://www.w3.org/2000/svg">
<g clip-path="url(#clip0_1714_14823)">
<path fill-rule="evenodd" clip-rule="evenodd" d="M39.2477 4.41793C39.4232 4.60162 41.0035 8.97773 41.1687 9.51799C41.3333 10.0968 41.5657 10.6521 41.8607 11.1712C42.4081 11.3008 42.4597 10.7282 42.625 10.2744C43.5236 7.82157 44.8869 4.24504 45.5685 1.83548C46.0436 0.668518 46.085 0.355167 45.2277 0.355167C44.3705 0.355167 44.4634 0.938649 44.1226 1.69501C43.8231 3.13211 42.6663 6.16837 42.2428 7.56224C42.2428 7.74593 42.2428 7.74593 42.026 7.74593C41.3133 5.67133 40.487 3.13211 39.6814 1.07912C39.4646 0.679323 39.0824 0.592882 38.8242 1.48971C38.3904 2.916 37.7914 4.61242 37.3266 5.99549C37.3266 5.99549 36.7689 7.74593 36.7276 7.83237C36.4322 7.33553 36.2159 6.79179 36.0872 6.2224C35.4469 4.5692 34.8891 2.78634 34.3417 1.13314C34.2075 0.819791 34.2075 0.636103 33.908 0.452414C33.6077 0.336023 33.2831 0.306168 32.9681 0.365972C32.1212 0.50644 32.6686 1.21958 32.8442 1.74904C33.877 4.65564 35.0234 8.14573 36.1698 10.9119C36.1967 10.9804 36.2403 11.0403 36.2963 11.0856C36.3524 11.1309 36.4188 11.1599 36.489 11.1698C36.5591 11.1797 36.6305 11.17 36.696 11.1418C36.7615 11.1136 36.8187 11.0678 36.8618 11.0091C37.0271 10.6741 39.1237 4.41793 39.2477 4.41793Z" fill="#2A2A2A"/>
<path fill-rule="evenodd" clip-rule="evenodd" d="M0.164371 0.535984C0.121678 0.715984 0.13618 0.905634 0.205684 1.07624C0.381264 1.83261 -0.135148 10.4552 -0.00088051 10.8009C0.41718 10.9976 0.885898 11.0432 1.33146 10.9306C1.53803 10.7037 1.4554 10.4876 1.4554 10.131C1.4554 8.60748 1.57934 7.13797 1.57934 5.57121C1.63098 4.98773 1.67229 4.58794 1.67229 4.23137C1.67229 3.87479 1.67229 3.91801 1.75492 3.83157C1.83755 3.74513 3.19055 6.20872 3.32481 6.47885C3.58302 7.00831 4.0891 7.8187 4.42993 8.4454C4.94635 9.42867 5.20455 8.75875 5.32849 8.53184C5.62801 8.13205 7.94154 3.8856 8.10679 3.79916C8.26171 3.97204 8.26171 8.21849 8.26171 8.53184C8.26171 10.855 8.00351 11.0819 9.40815 10.9846C9.84193 10.9846 9.88325 10.6281 9.84193 10.2283C9.84193 9.47189 9.84193 8.61828 9.84193 7.86192C9.72832 5.93859 9.6457 3.74513 9.6457 1.83261C9.6457 1.6057 9.72832 0.752088 9.72832 0.622425C9.60188 0.473361 9.4306 0.373907 9.2428 0.340506C9.05499 0.307105 8.86192 0.341759 8.6955 0.438737C8.39598 0.622425 8.31335 1.02222 8.09646 1.29235C7.22889 2.90232 6.0618 4.72841 5.24587 6.25194C4.94635 6.7922 4.94635 6.60851 4.68814 6.25194C4.13042 5.39833 3.40744 3.92882 2.90136 3.07521L1.86853 1.29235C1.72497 0.982521 1.54072 0.695205 1.32113 0.438737C1.03194 0.222632 0.46389 0.395516 0.164371 0.535984Z" fill="#2A2A2A"/>
<path fill-rule="evenodd" clip-rule="evenodd" d="M54.6647 5.53847C55.0302 5.22642 55.4639 5.0138 55.927 4.91954C56.3901 4.82528 56.8683 4.8523 57.319 4.99821C58.6824 5.62491 58.8579 7.73193 58.2589 8.75842C58.0038 9.15847 57.6363 9.46582 57.2071 9.63807C56.7779 9.81032 56.3082 9.83898 55.8627 9.72009C55.4313 9.63099 55.0228 9.44683 54.6647 9.17982V5.53847ZM54.6647 4.01493C54.6003 2.83813 54.6003 1.65843 54.6647 0.481631C54.6647 -0.00460341 54.4994 -0.0910451 54.0656 0.0818383C53.0328 0.535657 53.0328 0.351969 53.1774 1.33524C53.26 1.83228 53.1774 7.59146 53.1774 8.40185C53.1774 10.001 52.9605 10.3684 55.1811 11.0383C55.8134 11.1771 56.4659 11.1806 57.0996 11.0488C57.7332 10.9169 58.3348 10.6524 58.8683 10.2712C61.0475 8.40185 60.4485 3.12891 56.4721 3.5287C56.1255 3.54832 55.7805 3.59164 55.4393 3.65836C55.305 3.70158 54.7989 4.01493 54.737 4.01493H54.6647Z" fill="#2A2A2A"/>
<path fill-rule="evenodd" clip-rule="evenodd" d="M24.5484 10.9019C24.7099 10.3384 24.7557 9.74556 24.6826 9.16226C24.6404 8.55077 24.6404 7.93688 24.6826 7.32538C24.8066 7.32538 24.9409 7.55229 25.1991 7.82242C25.4573 8.09255 27.5849 10.4157 27.9257 10.675C28.0446 10.7908 28.188 10.8756 28.3441 10.9225C28.5002 10.9695 28.6647 10.9772 28.8243 10.9451C29.1238 10.9451 29.5989 10.9451 29.7641 10.729C29.7641 10.4157 29.1651 9.91863 28.9069 9.6485C28.6487 9.37837 28.3182 9.0326 28.0187 8.66523C27.3617 8.06038 26.7473 7.40677 26.1802 6.70948C26.1802 6.61224 28.5248 4.54844 28.9585 4.15945C29.1238 3.97576 29.2994 3.93254 29.2581 3.66241C28.7265 3.49085 28.1578 3.49085 27.6262 3.66241C27.4196 3.75966 26.0047 5.09951 25.6225 5.45608C25.4986 5.58574 24.7653 6.39613 24.6826 6.35291C24.5587 5.94231 24.6826 0.356019 24.6 0.0426676C24.5174 -0.270683 23.0611 0.226356 23.1024 0.766617C23.1834 1.14621 23.2249 1.53384 23.2264 1.92277V9.6485C23.2264 9.91863 23.1437 10.729 23.3193 10.8587C23.7212 10.9661 24.1405 10.9809 24.5484 10.9019Z" fill="#2A2A2A"/>
<path fill-rule="evenodd" clip-rule="evenodd" d="M13.4257 7.23796C13.9008 7.1083 15.4913 7.50809 15.5636 7.9511C15.6049 8.42916 15.6049 8.91014 15.5636 9.38819C15.2641 9.78799 13.2088 10.5876 12.5271 9.16128C12.4352 8.95867 12.3876 8.73723 12.3876 8.51297C12.3876 8.28872 12.4352 8.06727 12.5271 7.86466C12.6263 7.69992 12.7576 7.55894 12.9124 7.45094C13.0673 7.34295 13.2422 7.27037 13.4257 7.23796ZM15.6049 6.6977C15.2036 6.41955 14.7547 6.22509 14.2829 6.12502C13.695 6.05691 13.1001 6.10084 12.5271 6.25468C12.0447 6.39924 11.6193 6.70193 11.3135 7.11825C11.0078 7.53456 10.8378 8.04253 10.8285 8.56746C10.8193 9.09238 10.9713 9.60656 11.2621 10.0344C11.553 10.4622 11.9675 10.7811 12.4445 10.9441C13.2614 11.2356 14.1476 11.2356 14.9646 10.9441C15.1401 10.8577 15.481 10.6308 15.6049 10.5876C15.7289 10.5444 15.7805 10.9009 15.9457 10.9874C16.111 11.0738 16.8856 10.9874 17.1025 10.7713C17.3194 10.5552 17.3607 10.5876 17.2264 10.2742C17.0266 9.86077 16.9544 9.39259 17.0199 8.93438V5.71442C17.0739 5.2585 16.9675 4.79759 16.7204 4.4178C15.9044 2.72138 10.9882 3.3913 11.3807 4.8284C11.7731 6.26549 12.4135 4.33136 14.5824 4.60149C15.7495 4.73115 15.6256 5.89811 15.6256 6.6977H15.6049Z" fill="#2A2A2A"/>
<path fill-rule="evenodd" clip-rule="evenodd" d="M66.1662 6.47785H62.6236C62.6711 6.03419 62.8646 5.62162 63.171 5.31089C63.5055 5.00405 63.9257 4.81835 64.3691 4.78143C64.6001 4.76147 64.8325 4.79041 65.0526 4.86653C65.2726 4.94264 65.4757 5.06437 65.6498 5.22444C65.825 5.37527 65.9633 5.56769 66.0531 5.7857C66.143 6.00371 66.1817 6.24101 66.1662 6.47785ZM62.5307 7.63401C62.7889 7.50434 66.662 7.63401 67.3643 7.63401C68.0666 7.63401 67.7464 5.22444 66.4657 4.24117C65.9425 3.83308 65.3196 3.58813 64.669 3.53459C64.0184 3.48104 63.3666 3.6211 62.7888 3.93858C62.2111 4.25606 61.7309 4.73802 61.4038 5.32881C61.0767 5.91961 60.9159 6.59515 60.9401 7.27743C60.9156 7.94011 61.063 8.59737 61.3667 9.17949C61.6703 9.76162 62.119 10.2469 62.6649 10.5838C63.8114 11.3942 66.8892 11.351 67.2713 10.0976C67.7464 8.48762 66.631 9.38445 66.2385 9.55733C65.9084 9.69888 65.5606 9.78987 65.2057 9.82746C62.9232 10.0976 62.3654 7.99058 62.5307 7.63401Z" fill="#2A2A2A"/>
<path fill-rule="evenodd" clip-rule="evenodd" d="M47.0244 6.48184C47.0607 6.02033 47.2612 5.58989 47.5864 5.27572C47.9116 4.96156 48.3376 4.78657 48.7802 4.78542C49.6685 4.68817 50.7013 5.49856 50.5257 6.48184H47.0244ZM46.8489 7.56236C47.0658 7.56236 51.0834 7.56236 51.6412 7.56236C52.1989 7.56236 52.1059 7.20579 52.0646 6.76277C52.0345 6.16282 51.8558 5.58135 51.5463 5.07533C51.2367 4.5693 50.8068 4.15608 50.2987 3.87613C49.7906 3.59618 49.2217 3.45911 48.6477 3.47834C48.0737 3.49757 47.5144 3.67245 47.0244 3.98583C46.4735 4.32634 46.023 4.81913 45.7224 5.41006C45.4217 6.00099 45.2826 6.66719 45.3203 7.33545C45.2765 7.99512 45.4184 8.65376 45.7287 9.2299C46.0389 9.80603 46.5038 10.2744 47.0658 10.577C48.522 11.5171 51.383 11.1173 51.6412 10.0476C51.6412 9.73421 51.8477 8.96704 51.383 9.15072C50.8215 9.48276 50.2104 9.71293 49.5755 9.83145C49.2371 9.87876 48.893 9.85537 48.5633 9.76263C48.2335 9.6699 47.9246 9.50966 47.6545 9.29119C47.2826 8.97784 46.6836 8.03779 46.8489 7.56236Z" fill="#2A2A2A"/>
<path fill-rule="evenodd" clip-rule="evenodd" d="M70.0382 10.9436C70.2964 10.6735 70.2551 10.5438 70.2551 10.144V9.06352C70.2551 7.63723 69.9969 5.27089 71.5771 4.91432C71.9179 4.82788 72.0006 5.13042 72.4343 5.04398C72.6902 4.80387 72.8823 4.49866 72.9921 4.15795C72.9921 3.47722 71.9592 3.34756 71.0194 3.79058C70.7199 3.93104 70.472 4.41728 70.2551 4.4605C70.2551 4.06071 70.3377 3.88782 70.0795 3.53125C69.7485 3.56446 69.428 3.6713 69.1396 3.8446C68.7162 4.06071 68.6336 4.06071 68.7162 4.60097C68.7988 5.14123 68.7162 8.84741 68.7162 9.73344C68.7575 11.0841 68.7575 11.0409 70.0382 10.9436Z" fill="#2A2A2A"/>
<path fill-rule="evenodd" clip-rule="evenodd" d="M19.6837 10.896V10.8095C19.8036 9.71212 19.8347 8.60605 19.7767 7.50315C19.7767 6.64954 19.9833 5.26647 20.8818 4.99634C21.6048 4.72621 21.6461 5.43936 22.1212 4.99634C23.2263 3.78616 21.7391 3.29992 20.8405 3.69972C19.942 4.09951 20.0659 4.41286 19.8077 4.4993C19.7869 4.32348 19.7869 4.14567 19.8077 3.96985C19.8077 3.74294 19.7147 3.74294 19.6321 3.61328C19.3009 3.61046 18.9755 3.70398 18.6922 3.88341C18.2688 4.05629 18.1345 4.09951 18.2688 4.63977C18.3596 5.46816 18.3873 6.3028 18.3514 7.13577V9.59936C18.4444 10.9392 18.2688 11.0365 19.6837 10.896Z" fill="#2A2A2A"/>
<path fill-rule="evenodd" clip-rule="evenodd" d="M38.9424 12.3397C37.2374 12.5598 35.5609 12.9765 33.9435 13.5823C33.4375 13.8092 32.9107 13.9389 32.4046 14.1658C31.3718 14.5656 30.401 14.9222 29.3785 15.3328C29.0376 15.4624 26.6002 16.2188 26.1767 16.316C24.1111 16.8455 21.0126 17.4722 19.0399 16.5322C18.1 16.0459 18.0071 17.5586 20.145 18.0989C21.3953 18.328 22.6783 18.269 23.9045 17.926C24.9373 17.6991 26.1767 17.2993 27.1579 16.986C28.1391 16.6726 29.2958 16.316 30.3596 16.0027C30.6178 15.9054 30.8244 15.819 31.1239 15.7326L32.7042 15.2355C33.0037 15.1491 33.2206 15.0194 33.4788 14.9222L35.1106 14.5224C35.4101 14.4359 35.627 14.3495 35.8852 14.2522C38.0477 13.7696 40.2533 13.5306 42.4643 13.5391C43.0117 13.5391 43.8277 13.6796 44.3854 13.766C45.4182 13.8957 45.191 13.323 44.5093 12.9556C42.737 12.2452 40.8176 12.0328 38.9424 12.3397Z" fill="#2A2A2A"/>
</g>
<defs>
<clipPath id="clip0_1714_14823">
<rect width="73" height="18.25" fill="white"/>
</clipPath>
</defs>
</svg>
