<svg width="1114" height="779" viewBox="0 0 1114 779" fill="none" xmlns="http://www.w3.org/2000/svg">
<g clip-path="url(#clip0_2288_114850)">
<path d="M398.73 620.494H402.813H407.671L410.593 619.331L414.676 621.129H417.247L419.042 624.336L417.774 627.545L413.057 629.836L413.444 633.043H416.119L416.859 636.992L418.479 640.657L421.999 644.183L424.393 646.579L425.414 650.88L428.934 654.405L425.414 659.199L422.139 662.478H416.612L410.945 662.866L408.059 659.974L406.052 655.885H403.482L400.772 658.6H396.372L391.478 653.7L390.528 650.88L386.796 647.143V640.729L383.664 637.59H377.855L373.067 639.353L371.307 635.582L366.52 631.81L362.226 629.553L356.417 632.338L351.136 633.079L346.842 631.81L343.814 625.993L339.52 622.221L336.492 627.262H333.218V623.138L336.245 620.106L334.239 615.806L331.74 609.25L330.719 602.446L326.952 597.899L320.932 595.642L319.173 591.342L315.899 588.065L309.844 589.087H306.324V584.292L304.564 579.251L298.403 578.124L295.271 581.261L289.462 583.27L284.428 580.486H279.148L276.649 584.257H271.368H265.56L264.293 587.042L261.019 590.32L260.526 595.114L254.365 593.986L250.705 590.32V585.279L252.359 580.379L249.718 577.736H245.424L245.248 572.695L242.186 569.628L241.482 565.856H237.856L235.497 563.494L234.441 558.383L230.851 557.08L229.02 558.912L225.675 555.74L230.252 551.334L229.548 544.319L223.598 538.538L218.495 538.714V535.718L215.15 533.955L209.518 533.25L207.934 527.257L208.285 522.851L210.116 521.018L208.11 515.836L211.665 514.214L214.094 514.073L216.593 511.571L220.993 509.209L225.992 506.143L227.401 503.569H231.625L232.153 495.638L230.111 491.937L230.991 485.275L230.111 481.327L235.356 475.686L237.786 476.849L240.672 474.875L242.889 472.619V470.645H245.776L249.684 466.733L252.747 465.958L255.175 463.524L254.295 461.233V458.801L250.212 455.487V450.87L253.063 447.98L257.252 447.098L260.35 443.996L265.419 443.114L270.946 441.353L277.458 440.577L280.661 437.369L281.999 432.047L284.886 429.155L288.406 432.681H293.476L295.446 427.605H300.515L306.465 428.944L314.209 426.935L317.095 424.044H321.497L323.256 428.239L326.002 430.989H330.754L332.479 432.716L336.386 428.803L342.477 426.689L345.011 429.227L348.003 426.018H355.078L355.959 414.069L358.951 410.649L360.606 408.992V404.339L364.126 402.578L358.6 396.831L361.239 394.399L365.991 396.515L374.934 387.56L377.644 385.234L379.545 385.869L384.332 391.544L383.452 394.328L385.704 395.457L386.162 399.299L383.065 402.401V407.476L378.207 408.57V411.884L374.898 415.197V418.969L377.537 421.612V425.384L378.629 429.368L377.081 432.892L378.84 434.655L381.727 431.129L383.487 426.054L387.887 424.961L392.534 427.181L395.421 430.073L399.399 426.301L401.511 428.416L402.742 431.165L406.509 430.707L408.833 428.38H412.917L416.753 426.864V423.833L414.219 421.295L416.577 416.678L421.681 419.497L423.476 417.7L425.272 419.497L427.736 417.029L430.94 418.158L432.277 420.238L431.714 423.445L434.355 426.653L437.557 425.524L443.049 427.992L446.64 431.589L450.617 429.508L455.159 431.2L457.694 428.663L460.228 429.508L462.024 431.306L464.557 430.46L466.072 427.253H468.712L474.555 431.235L480.223 434.268L486.63 436.734L495.324 438.074V442.058L490.22 444.701V449.812L487.404 456.792L482.3 461.339L478.533 467.014L475.118 470.434H470.788L466.635 474.029V480.445L469.838 485.556L468.149 491.232L465.614 493.77V495.567L468.36 498.387L465.262 501.524L462.129 504.062L457.799 503.111L453.258 506.143L453.433 508.611L455.405 510.583L452.659 513.334L450.759 515.236L447.731 510.69H444.317L441.676 515.025L440.55 519.749L436.396 521.829H431.503L429.989 520.313L428.3 523.733V528.068L426.328 530.042L423.02 533.708L426.258 538.185L432.102 542.415H435.692L438.685 546.786L441.887 543.578L442.908 547.808L441.746 551.651L438.685 557.291V560.357L433.016 561.697L429.637 565.081L424.393 563.177V559.723L421.576 556.903L417.492 554.859L413.655 553.696L408.163 557.784L409.184 562.649L411.614 565.081L412.388 571.849L415.592 576.96L421.858 577.594L424.533 575.797L430.658 577.7L432.453 583.199V588.065H429.531L427.736 585.631L423.512 586.02V587.818L419.605 589.157L414.43 594.339V597.158L411.12 601.635V605.971H408.445L404.995 612.246L404.362 615.947L400.42 617.745L398.73 620.494Z" fill="#F8F8F8" stroke="#D1D1D1"/>
<path d="M140.632 398.205L141.899 393.164L143.414 387.63L139.647 383.858L142.182 382.095L141.935 377.795L143.448 371.732L146.23 365.175L148.236 359.641L153.27 358.125L155.03 354.353L159.817 350.335L164.112 349.947L167.527 354.106L169.041 349.806H172.561L174.074 347.162L175.447 344.131L175.94 338.843L178.193 336.588L178.581 333.45L182.487 330.172L184.001 333.45L186.29 335.741H190.69L192.873 337.927L196.709 337.68L199.631 339.478H205.016L207.868 342.334L211.388 342.756L213.501 340.641H217.724L220.4 337.962H223.744L226.526 339.337C226.526 339.337 227.829 341.382 228.567 341.382C229.306 341.382 229.447 345.047 229.447 345.047H233.037L235.467 347.973H238.74L239.375 345.858L241.486 347.973C241.486 347.973 244.901 349.595 245.57 349.595C246.239 349.595 249.16 351.216 249.16 351.216L251.448 352.52L254.37 353.648L258.453 352.837L262.045 353.966L260.742 358.195V363.237L263.84 362.673L268.487 362.215L271.127 364.858L277.428 369.158L279.857 366.726L284.609 371.485V381.426L290.558 387.383L296.085 384.951L302.281 383.4L307.807 385.832L312.877 383.4L316.186 390.485L322.698 391.684L327.661 396.654L329.422 401.519L338.715 406.383L342.13 411.353L344.453 409.027L349.98 410.367L353.077 405.501L358.921 410.684L355.929 414.102L355.049 426.053H347.973L344.981 429.26L342.446 426.722L336.357 428.837L332.449 432.751L330.724 431.023H325.972L323.227 428.273L321.466 424.079H317.066L314.179 426.969L306.435 428.979L300.485 427.639H295.417L293.445 432.715H288.376L284.856 429.19L281.969 432.08L280.631 437.404L277.428 440.611L270.916 441.386L265.388 443.149L260.32 444.031L257.222 447.132L253.033 448.013L250.181 450.904V455.522L252.61 457.179L254.264 458.836V461.268L255.145 463.559L252.716 465.991L249.653 466.766L248.105 468.318L245.745 470.68H242.859V472.653L240.641 474.91L237.755 476.884L235.326 475.721L232.44 478.999L230.081 481.36L230.961 485.308L230.081 491.97L232.123 495.673L231.594 503.603H227.37L225.962 506.176L220.964 509.243L216.564 511.605L214.064 514.108L211.635 514.249L208.08 515.87L210.086 521.053L208.256 522.885H203.151L199.279 520.77L198.399 517.95L194.702 517.245L191.182 520.418H184.001L182.171 526.481L176.292 532.367H169.815L167.527 534.659H164.006L162.247 532.191H157.951V529.018L156.015 527.08L151.72 525.071V519.784L148.411 516.082L147.673 515.271L146.159 509.455L142.393 507.198L138.379 502.652L139.893 497.364L138.379 489.538L133.592 486.013L128.065 481.713L126.304 475.896L122.539 472.865L121.271 469.34L124.545 465.568L127.08 460.034V454.747L124.298 449.706L121.518 445.405L124.052 443.396L125.566 439.625H128.593L130.846 437.615L132.606 430.811L133.098 426.793L131.092 421.752L128.312 418.968L124.545 418.474L121.763 415.442L119.511 412.164L116.096 415.054L113.456 412.411L111.203 408.639L113.456 404.621L118.244 399.826L121.518 396.054L122.784 391.507L126.551 391.261L129.333 394.293L130.846 398.064L135.88 399.826L140.632 398.205Z" fill="#F8F8F8" stroke="#D1D1D1"/>
<path d="M470.512 605.72L479.065 605.473L484.874 607.236H489.168L493.956 609.774L498.989 608.752L501.876 605.861H504.517L511.064 609.28H517.858L523.386 608.258L527.926 610.797L533.453 609.28H539.754L542.781 604.981L548.308 605.473L553.342 608.505H559.644L561.896 613.052H566.437V610.021L567.846 607.095L570.38 604.557V601.137L572.457 600.75L575.098 598.106L576.153 595.462V591.021L579.744 587.425L582.489 584.676L587.312 583.83L589.108 582.032V578.613L585.341 576.532L584.109 573.608L581.75 571.246L578.336 569.553V566.734L582.314 564.83L580.624 559.719L581.012 555.735L584.039 552.704L586.292 548.933L590.058 546.288L594.036 550.272L591.571 552.739V555.771L594.986 556.899L599.316 558.239L602.132 559.578L605.336 561.657H609.489L612.13 559.189L616.46 561.446L620.227 562.574H626.281L631.28 560.213L635.328 556.158L637.581 552.951L644.727 548.756L645.502 543.468L652.331 538.498L660.709 536.171L660.251 528.24L663.208 520.944L666.165 515.056L674.227 513.823L680.281 516.466H688.977L691.158 519.709L699.22 520.626L705.486 518.229L711.295 524.045L716.118 522.812L722.771 526.231L724.636 520.026L734.563 515.831L743.857 522.671L749.594 516.925L758.571 513.047L762.302 506.844L755.156 503.741L748.784 499.546L748.75 491.791L754.734 485.87L756.881 483.719L757.269 478.044L760.929 474.377V468.033L757.163 462.745L759.697 457.951L763.359 453.298L766.773 449.879L765.013 445.86L766.033 440.572L765.013 434.509L762.127 437.4L759.24 434.509L753.432 433.24L752.165 427.953L754.698 425.414L754.206 419.598L751.953 415.052L748.925 412.019H745.898L743.117 406.979L745.371 405.217V400.669L743.61 397.638V395.1L747.025 391.963L744.877 387.557L739.351 384.278V380.753L737.097 378.497L739.244 374.726L738.436 370.107L735.972 367.639L736.112 363.621L739.632 364.362L740.583 361.259L743.293 358.546L744.913 353.752L742.906 349.979H744.806L746.179 346.314L743.787 340.497V336.584L739.879 335.844L740.02 330.944L736.992 333.835L735.479 332.319L732.452 334.963L730.832 333.341L730.198 330.063L725.411 329.322L722.277 326.185L721.573 323.472L719.356 321.251L719.109 316.598L723.72 313.143L727.417 309.442L729.318 306.41H734.352V297.704L734.844 291.64L729.423 288.609L727.98 285.648L726.783 286.846L725.199 283.498L726.537 282.158L728.685 280.008L733.471 279.267L732.979 276.624L735.373 274.226L734.492 270.948L730.973 269.045L727.558 268.163L725.657 266.259L724.636 263.476H722.243L721.996 260.443L719.109 263.335L719.497 266.225L720.518 269.503L717.49 272.288L713.477 268.269L710.942 265.731L705.663 269.256L707.422 274.79L711.189 278.562V280.572L715.73 282.827L718.616 285.719L720.236 289.631V292.663L715.941 288.609L712.033 284.696L708.126 287.093L705.099 284.59L699.818 280.572V276.025V269.715L704.36 265.167L705.38 258.611V251.314L706.648 246.026H702.529L700.769 249.798L702.529 254.099L700.523 259.387L697.496 264.18H692.215L685.914 270.49L681.901 274.509L685.562 278.174L684.928 283.357L686.442 288.151L688.202 293.685L683.168 298.726L680.915 305.282L677.395 310.816L678.134 318.889L675.107 321.92L675.845 326.715H680.386L682.394 329.499L686.161 327.737L689.047 324.846L692.567 328.372L698.728 330.521L700.734 332.531L704.007 335.562L706.542 340.602L704.782 344.621L706.296 349.416L704.782 352.694L700.769 353.963L701.261 358.51V361.542L703.41 363.691L709.076 365.348V368.874L703.269 367.605L698.234 362.564V358.792L697.988 352.73L702.001 348.711L698.974 340.885L696.58 338.488L694.961 333.588L689.152 334.328H683.872L680.458 337.748L677.043 341.167L677.536 345.96L678.802 351.248L677.289 357.311L674.156 360.449L670.249 364.362L667.996 366.617V371.905L662.962 374.69L656.661 376.453L655.147 377.968H651.873C651.873 377.968 648.212 379.59 649.233 380.612C650.254 381.634 648.353 385.018 648.353 385.018H643.812L640.785 380.718L636.489 380.964L631.456 377.439L627.689 375.676L623.922 369.86V365.067L627.689 366.336L630.33 368.979L634.483 371.623L638.25 369.085L644.551 370.354L648.071 368.344L651.838 362.811L658.385 356.254L663.913 354.738L664.933 345.397L670.46 341.096L671.199 337.078L666.799 332.672L664.898 325.974L666.904 321.18L669.686 311.591L671.445 300.735L676.48 293.156L677.747 286.353L679.26 277.787L675.071 274.156L677.078 267.599L684.259 260.409L685.385 251.208L687.92 248.671L685.667 240.104H680.386L677.359 237.073H671.304L668.277 232.772L663.489 235.31L660.709 241.373L658.174 247.436L654.9 254.734L650.606 259.034L648.705 260.937L643.283 263.58L638.25 265.343L635.47 268.868L633.709 273.909L636.983 274.931V278.704L634.73 281.735L633.462 287.798V291.816L628.428 294.354L626.035 296.752L628.675 302.18L633.462 305.458L632.441 312.509L635.223 319.065L639.235 320.333L633.427 325.621V330.909L628.393 333.941L624.873 328.406V323.365L620.579 317.549L616.565 311.24L610.651 305.317L608.679 301.299L606.639 304.331L602.661 308.314L605.125 310.64L605.618 312.543L607.519 313.178V321.744H605.125L603.998 324.528L601.992 325.551L601.604 328.336L601.217 330.239L606.251 332.778V336.056L601.604 337.959L605.511 341.872L599.457 344.904L594.916 349.451H590.234L588.474 354.985H579.92L571.858 356.748L563.797 361.295V366.829L557.18 366.583L552.286 367.322L549.646 370.354L544.928 372.822L540.212 377.545L535.882 378.11V374.126L532.679 372.997L528.807 376.875L523.597 382.092L521.343 386.428L522.294 391.927L516.24 395.699L515.675 400.247L510.571 403.454L507.156 409.87L508.107 414.206L506.03 418.189V421.608L499.799 427.848L498.955 432.289L496.597 434.65L495.258 438.247V442.229L490.154 444.874V449.985L487.338 456.964L482.233 461.512L478.467 467.187L475.053 470.606H470.723L466.568 474.202V480.617L469.772 485.728L468.082 491.403L465.548 493.941V495.739L468.293 498.56L465.195 501.697L462.063 504.235L457.733 503.283L453.192 506.314L453.368 508.782L455.339 510.756L452.594 513.506L450.692 515.409L447.665 510.862H444.25L441.61 515.198L440.484 519.922L436.33 522.001H431.437L429.923 520.485L428.233 523.904V528.24L426.263 530.214L422.953 533.881L426.192 538.357L432.036 542.587H435.626L438.618 546.958L441.821 543.75L442.842 547.981L441.681 551.823L438.618 557.462V560.529L432.951 561.868L429.571 565.253L424.326 563.35V559.895L421.509 557.074L417.427 555.03L413.589 553.867L408.098 557.956L409.119 562.82L411.547 565.253L412.323 572.021L415.525 577.132L421.791 577.767L424.466 575.969L430.593 577.872L432.388 583.372V588.236H429.465L427.67 585.804L423.447 586.192V587.989L419.539 589.329L414.363 594.51V597.331L411.055 601.808V606.143H408.379L404.93 612.418L404.296 616.119L400.353 617.916L398.805 620.596H407.746L410.667 619.432L414.751 621.23H417.32L419.117 624.438L417.849 627.646L413.131 629.937L413.519 633.145H416.194L416.934 637.093L418.94 631.805L423.974 633.074L428.269 631.805L430.028 627.258L428.269 620.948L432.563 619.185L439.111 618.94L443.405 623.24H446.925L450.059 620.103L446.644 616.683L443.863 613.898L441.082 612.136L444.603 608.611L442.842 604.839L444.603 599.305H449.882L455.691 602.336L459.704 605.861L464.246 604.592L470.512 605.72ZM718.405 254.909L715.906 257.413L713.161 259.704L715.66 261.536L717.702 259.704H720.904L723.862 256.953L721.116 254.204L718.405 254.909ZM710.204 229.494L708.162 231.327L709.535 233.372L712.28 231.539L715.695 232.455L714.779 230.41L710.204 229.494ZM699.677 238.66L698.551 241.62L700.382 243.206L702.423 240.704L699.677 238.66ZM675.248 223.783L672.748 225.616L673.664 227.661L671.833 230.163L672.291 231.75L676.41 232.878L680.281 231.045L682.569 231.292V229L678.908 228.084L680.739 226.04L678.697 223.078L676.197 223.995L675.248 223.783Z" fill="#F8F8F8" stroke="#D1D1D1" stroke-miterlimit="10"/>
<path d="M824.747 51.7578L824.184 55.5294L820.769 57.0454L815.666 60.464V65.1874L817.742 67.2677L814.996 70.017L813.201 73.5071L815.666 76.9268L816.615 80.3454L820.946 84.117L824.923 80.3454H827.564L831.542 78.0898L836.258 76.5738L834.921 72.0269V66.3516L837.737 63.8837L835.379 61.522L830.555 56.6924L828.866 52.9208L824.747 51.7578ZM810.56 54.0134L806.582 54.1899L804.893 55.8813L806.231 57.2208L807.639 58.6319L810.56 55.8813V54.0134ZM763.355 57.9973L761.453 58.3849L760.221 59.6183L762.122 61.522L764.657 60.6763L766.171 59.1603L763.355 57.9973ZM839.427 78.4775L834.392 80.0639C834.392 80.0639 831.435 80.7688 830.732 80.98C830.028 81.1911 826.613 82.3552 826.613 82.3552L825.029 85.7738L824.114 88.7355L822.072 91.2379L822.776 94.1984L818.904 97.1601L820.734 98.7465L823.479 97.8293L825.768 101.038L826.014 103.998L828.056 106.501L833.301 106.96L833.97 109.921L837.631 107.629L839.462 110.59L844.495 112.423L849.283 110.132L851.571 106.924L849.741 103.258L846.784 99.1342L849.072 97.5478L849.987 93.67L848.861 89.3342L849.319 84.9984L843.827 82.0379L841.785 84.5404L839.954 87.9601L838.37 87.254L839.497 82.9182V78.4775H839.427ZM810.385 82.7775L810.948 86.9379V89.5812L815.101 90.7095L816.792 92.4009L819.326 89.8626L820.734 86.1614L818.271 84.2577L813.553 83.1305L810.385 82.7775ZM744.17 87.6071L742.797 88.9824L744.381 89.8984L746.88 91.7317L747.549 89.4404L744.17 87.6071ZM862.976 94.4811L860.689 94.728L857.486 98.6046L857.732 102.024L856.359 104.316L857.274 110.485L854.528 113.234L854.74 119.403L853.367 124.655L852.205 129.907L854.246 131.035L858.576 127.616L861.076 126.03L866.779 123.069L871.354 122.611L877.057 118.275L879.803 113.023L877.973 108.44L875.931 105.021L873.185 106.184L870.44 101.39L868.398 99.3453L865.899 102.307L864.315 106.643V103.434L864.526 97.7243L862.976 94.4811ZM886.738 117.817L884.45 119.191L887.654 120.777L889.942 122.364L892.442 121.695L891.773 118.733L889.272 119.403L886.738 117.817ZM878.818 132.939L874.805 137.239L870.264 140.518L866.497 149.859L865.229 153.913V159.94L867.237 161.456L867.73 165.757H865.969L860.196 167.519H854.67L856.183 170.304L859.211 172.56L861.463 175.592L856.429 174.57L851.396 175.592L850.656 179.645L842.841 179.399L839.709 182.536V178.87L842.103 174.323L837.56 175.064L836.294 177.848L830.766 178.588L824.219 180.104L821.684 182.641L826.225 184.157L824.712 185.92L817.918 187.929L815.525 190.326L806.09 191.702L803.45 194.345L796.515 196.988L793.734 202.77L786.694 202.523L786.94 206.294L790.461 206.541L786.94 209.326L784.406 212.851L786.553 215.002L785.18 218.139L787.186 220.395L784.159 221.135C784.159 221.135 784.159 217.363 782.258 219.231L779.371 222.123L781.906 224.66L784.933 225.682L787.468 229.455L784.933 231.992H780.111L773.564 234.777H763.742V236.293L757.688 234.036H745.859L740.825 238.584L742.092 244.894L744.099 246.903L741.846 251.944L740.333 258.007L742.339 260.016L745.859 265.832L750.647 267.595L750.4 271.12L753.181 274.892L752.16 278.91H745.366L740.966 274.504L739.312 272.847L741.072 267.806L734.524 264.282L731.11 260.862L726.955 261.497L721.922 260.474L722.168 263.506H724.562L725.583 266.29L727.73 268.441L730.863 269.076L734.383 270.979L735.263 274.257L732.869 276.655L733.362 279.298L728.575 280.038L725.124 283.493L726.709 286.842L727.73 285.467L729.349 288.604L734.771 291.636L734.278 297.699V306.405H729.243L727.343 309.437L723.611 313.138L719 316.593L719.246 321.246L721.464 323.467L722.168 326.182L725.301 329.319L730.089 330.058L730.722 333.337L732.377 334.958L735.404 332.315C735.404 332.315 736.495 334.253 736.918 333.831C737.34 333.407 739.945 330.94 739.945 330.94L739.804 335.84L743.712 336.58V340.493L746.106 346.309L744.733 349.975H742.831L744.838 353.747L743.219 358.541L740.508 361.255L739.558 364.357L736.037 363.617L735.897 367.67L738.361 370.138L739.171 374.755L737.024 378.528L739.276 380.784V384.309L744.803 387.587L746.95 391.994L743.535 395.131V397.669L745.296 400.7V405.248L743.043 407.01L745.824 412.05H748.851L751.879 415.082L754.132 419.629L754.625 425.445L752.126 427.984L753.392 433.271L759.201 434.54L762.088 437.431L764.974 434.54L765.994 440.603L764.974 445.891L766.734 449.91L763.32 453.329L759.658 457.982L757.123 462.776L760.89 468.064V474.374L757.23 478.039L756.842 483.714L754.695 485.865L748.781 491.787L748.851 499.541L755.223 503.736L762.369 506.839L758.637 513.043L749.661 516.92L743.923 522.666L734.63 515.828L724.702 520.023L722.837 526.227L716.183 522.807L711.361 524.041L705.552 518.224L699.286 520.622L691.225 519.705L689.043 516.462H680.347L674.293 513.818L666.232 515.052L660.353 528.271L660.811 536.202L652.432 538.529L645.604 543.499L644.828 548.787L637.682 552.982L635.429 556.189L631.382 560.242L626.383 562.604H620.328L616.562 561.477L612.232 559.22L610.542 561.688H605.438L602.234 559.608L599.418 558.268L595.088 556.929L591.673 555.802V552.77L594.137 550.303L590.159 546.319L586.394 548.963L584.633 551.888L581.077 555.766L580.691 559.75L582.38 564.861L578.402 566.765V569.584L581.817 571.276L584.175 573.637L585.407 576.563L589.174 578.644V582.063L587.379 583.861L582.556 584.706L576.219 591.052V595.493L575.164 598.137L572.524 600.781L570.446 601.168V604.588L567.911 607.126L566.504 610.052V613.083L570.271 614.846L572.277 621.156L571.01 624.68V629.474L567.877 632.611L569.25 637.017L574.776 638.534L579.811 635.503L583.471 639.168L581.852 645.09L586.886 646.606L589.667 643.821L594.208 646.606H599.242V650.131L593.187 652.916L591.673 659.72H595.968L601.249 657.182L604.029 661.2L610.084 657.921L617.125 655.912L621.278 651.753L625.186 651.611L630.466 651.366L634.233 647.593H638.774L640.042 651.119L637.014 655.137H633.493V659.684L637.789 661.447L640.921 664.584L643.807 670.753L646.589 673.537L650.883 677.838L653.911 687.92V696.238L657.924 700.01V706.074L662.219 713.652L663.486 720.208L665.247 726.025L668.52 732.581L674.047 731.559L676.827 725.743L680.876 724.474L683.657 727.753V731.524L686.438 734.308L689.465 737.341L694.992 736.318L697.527 738.857L703.827 737.834L706.961 734.696H713.367L716.465 737.799L721.182 739.879L724.702 743.157L725.723 749.22L730.019 752.005L732.025 756.552L737.305 759.831V765.894L744.099 767.655L750.154 769.665L756.701 767.127L760.609 763.214L761.982 768.396L764.762 773.437L767.015 777.208L774.302 778.477L777.576 775.2L783.878 771.674L791.446 771.921L795.6 767.761L801.514 766.386L802.534 761.099H807.569L812.602 756.058L820.91 750.771H827.457L829.218 745.484H834.744L839.144 741.076L844.566 743.474L848.861 747.775L855.655 744.99L861.463 746.752L866.251 751.547L870.264 755.565L877.551 758.102L882.585 759.618L889.624 758.349L896.419 760.112H903.706H908.493L914.161 754.437L920.075 750.524V744.39L915.675 739.984V734.308L912.541 730.537L913.562 723.98L916.977 720.562L920.11 714.146L924.017 710.233L924.123 710.127L923.806 705.474L921.342 703.006L920.462 698.706L923.137 696.027V691.585L926.059 688.659L932.677 682.032L934.472 680.235L936.725 677.979L940.211 680.164L939.471 683.584L944.189 685.84L947.005 688.484L953.236 690.388L956.052 693.207L959.255 694.899L962.846 698.495L970.977 696.802L974.005 700.01L977.771 703.218H981.749V706.814L984.566 711.36H988.719H991.746L993.085 715.909L998.751 712.7H1002.91V705.263L1008.75 699.411L1015.54 691.268L1018.96 682.562L1027.93 673.573L1038.04 661.377L1039.55 643.399L1043.14 631.484L1037.65 629.792L1034.83 616.185L1032.37 605.011L1034.27 601.415L1036.91 598.772L1032.58 595.74L1028.43 594.4L1026.91 587.597L1034.83 581.746H1038.81V576.634L1042.58 574.942L1048.07 576.846L1053.74 574.766V569.866L1057.72 567.046L1059.79 569.303H1066.2L1069.97 566.658L1072.33 569.02L1080.17 570.642L1083.38 567.434L1086.79 569.337L1091.79 564.332H1095.66V554.392L1100.2 552.135L1103.02 546.284L1107.74 547.412L1109.99 549.668L1104.5 554.779L1109.04 555.167L1112.81 553.087L1118.47 554.603L1120.73 550.267L1124.71 547.799L1125.66 542.899L1123.86 541.102V537.965L1119.81 539.657L1112.53 532.36L1114.5 527.143L1112.24 524.887L1114.14 520.551L1112.35 518.754L1116.68 514.418L1120.73 514.699L1123.09 517.061H1126.22L1129.21 514.806L1129.18 514.77L1130.06 512.02L1122.91 504.865L1120.87 499.19L1117.74 498.872V495.171L1114.36 491.47L1111.61 488.72H1107.6V492.562L1104.08 496.123L1098.59 495.348V491.717L1096.23 489.672V485.09L1091.37 484.455L1085.7 481.776L1080.35 482.411L1075 481.635L1072.01 485.266L1070.53 490.235L1066.97 493.761L1068.38 498.661L1066.48 504.336L1061.76 509.06V517.872L1055.15 522.419V527.601L1052.33 523.654V519.246L1049.02 515.934L1045.89 517.344L1045.11 521.433L1036.77 524.57H1032.83L1031.24 529.293L1028.71 533.065L1023.29 533.452L1017.23 527.389L1016.6 514.806L1017.37 507.262V500.176L1018.32 493.866V487.769L1013.92 485.865L1010.79 484.772L1010.33 481.776L1008.89 478.356L1006 475.466V472.082L1007.98 470.108L1008.54 465.455L1005.79 462.706H1002.17L998.224 460.802V457.171L999.808 455.585L998.083 453.858L996.675 448.359L993.541 442.684L989.776 440.005L985.516 441.274L981.432 441.591V436.726L984.811 435.774V432.532L981.291 429.006L981.116 426.01L977.42 425.763L974.674 428.512L971.223 426.927L966.648 428.654L964.43 425.975H962.071L960.03 428.019H955.946L953.27 426.75V421.71L954.854 420.123V416.81L953.588 413.038L956.579 408.315L958.304 403.449L953.13 398.233L951.722 391.289L947.322 388.927V384.521L949.047 382.934L947.322 381.207V377.117L942.605 375.215L941.196 376.625L939.788 372.359L942.146 369.997L944.647 365.909L948.412 364.815L947.005 355.051L945.913 348.741V345.427L941.513 337.39L941.055 329.036L936.655 326.04L934.755 321.633L933.382 318.249V316.17L938.661 314.09L944.153 306.335L947.92 305.208L953.025 306.722L954.538 303.304V299.145L951.722 296.324L953.059 291.425L956.826 290.084V286.101L956.65 280.99L960.804 278.171L965.626 273.341L966.682 269.851H968.76L968.372 264.74H964.394L960.804 257.936V251.697L957.6 248.489L950.806 243.589V240.946L945.702 239.042L943.907 235.271L944.787 230.194L942.639 228.044L940.387 224.66L939.26 221.735L940.985 219.902L941.477 217.47L939.471 215.883L938.802 211.441H935.775L932.009 211.688L932.255 215.742L932.009 217.751L935.036 217.998L936.936 219.902L934.542 224.555L930.53 226.071L926.236 229.595C926.236 229.595 925.496 234.142 923.207 234.142C920.92 234.142 916.907 235.412 916.907 235.412L912.366 238.197L913.386 243.237L908.845 245.246L910.113 240.699L911.134 234.142L915.287 229.983L917.189 224.308L923.243 222.792L924.757 214.966L928.524 211.194L930.037 204.145V201.607L935.071 195.544L937.957 192.652L940.351 187.754L942.85 184.228V179.328L945.737 176.438L942.605 171.009L937.571 168.224L935.563 166.215L940.598 167.238L941.091 161.95L937.676 158.53L935.036 155.887L933.276 157.896L930.248 155.359L927.714 150.318L924.827 147.427L920.92 149.33L918.033 146.44L912.859 150.106H907.824L902.298 153.138L904.551 155.393L903.283 159.694C903.283 159.694 899.271 157.932 897.757 157.932C896.243 157.932 896.489 154.654 896.489 154.654L899.763 151.375L896.102 147.709H891.21L889.624 149.295L881.634 148.872L884.908 144.571L888.816 140.659L887.688 135.477L883.922 135.971L878.818 132.939ZM896.559 138.191L895.644 139.566L897.721 140.94L898.637 139.355L896.559 138.191ZM801.514 151.234L800.387 153.067L801.971 154.441L804.013 151.481L801.514 151.234ZM839.673 152.15L837.385 154.899L834.428 155.604L837.174 157.649L839.92 154.899L839.673 152.15ZM763.178 179.962L761.946 181.197L763.566 182.607L766.207 181.866L763.178 179.962ZM758.321 193.323L755.821 195.367L757.194 198.117L759.483 197.659L758.321 193.323ZM777.964 213.944L775.218 215.319C775.218 215.319 776.344 218.739 776.344 218.279C776.344 217.821 778.386 217.363 778.386 217.363L777.964 213.944ZM757.405 223.32L756.948 225.824H760.82L762.897 227.868L763.108 224.449L760.82 223.991L757.405 223.32ZM732.271 246.41L730.23 247.115L728.646 249.16L729.561 251.909L731.145 253.953L733.432 251.451L734.348 248.489L732.271 246.41Z" fill="#F8F8F8"/>
<path d="M927.045 707.272L926.974 707.342M824.747 51.7578L824.184 55.5294L820.769 57.0454L815.666 60.464V65.1874L817.742 67.2677L814.996 70.017L813.201 73.5071L815.666 76.9268L816.615 80.3454L820.946 84.117L824.923 80.3454H827.564L831.542 78.0898L836.258 76.5738L834.921 72.0269V66.3516L837.737 63.8837L835.379 61.522L830.555 56.6924L828.866 52.9208L824.747 51.7578ZM810.56 54.0134L806.582 54.1899L804.893 55.8813L806.231 57.2208L807.639 58.6319L810.56 55.8813V54.0134ZM763.355 57.9973L761.453 58.3849L760.221 59.6183L762.122 61.522L764.657 60.6763L766.171 59.1603L763.355 57.9973ZM839.427 78.4775L834.392 80.0639C834.392 80.0639 831.435 80.7688 830.732 80.98C830.028 81.1911 826.613 82.3552 826.613 82.3552L825.029 85.7738L824.114 88.7355L822.072 91.2379L822.776 94.1984L818.904 97.1601L820.734 98.7465L823.479 97.8293L825.768 101.038L826.014 103.998L828.056 106.501L833.301 106.96L833.97 109.921L837.631 107.629L839.462 110.59L844.495 112.423L849.283 110.132L851.571 106.924L849.741 103.258L846.784 99.1342L849.072 97.5478L849.987 93.67L848.861 89.3342L849.319 84.9984L843.827 82.0379L841.785 84.5404L839.954 87.9601L838.37 87.254L839.497 82.9182V78.4775H839.427ZM810.385 82.7775L810.948 86.9379V89.5812L815.101 90.7095L816.792 92.4009L819.326 89.8626L820.734 86.1614L818.271 84.2577L813.553 83.1305L810.385 82.7775ZM744.17 87.6071L742.797 88.9824L744.381 89.8984L746.88 91.7317L747.549 89.4404L744.17 87.6071ZM862.976 94.4811L860.689 94.728L857.486 98.6046L857.732 102.024L856.359 104.316L857.274 110.485L854.528 113.234L854.74 119.403L853.367 124.655L852.205 129.907L854.246 131.035L858.576 127.616L861.076 126.03L866.779 123.069L871.354 122.611L877.057 118.275L879.803 113.023L877.973 108.44L875.931 105.021L873.185 106.184L870.44 101.39L868.398 99.3453L865.899 102.307L864.315 106.643V103.434L864.526 97.7243L862.976 94.4811ZM886.738 117.817L884.45 119.191L887.654 120.777L889.942 122.364L892.442 121.695L891.773 118.733L889.273 119.403L886.738 117.817ZM878.818 132.939L874.805 137.239L870.264 140.518L866.497 149.859L865.229 153.913V159.94L867.237 161.456L867.73 165.757H865.969L860.196 167.519H854.67L856.183 170.304L859.211 172.56L861.463 175.592L856.429 174.57L851.396 175.592L850.656 179.645L842.841 179.399L839.709 182.536V178.87L842.103 174.323L837.56 175.064L836.294 177.848L830.766 178.588L824.219 180.104L821.684 182.641L826.225 184.157L824.712 185.92L817.918 187.929L815.525 190.326L806.09 191.702L803.45 194.345L796.515 196.988L793.734 202.77L786.694 202.523L786.94 206.294L790.461 206.541L786.94 209.326L784.406 212.851L786.553 215.002L785.18 218.139L787.186 220.395L784.159 221.135C784.159 221.135 784.159 217.363 782.258 219.231L779.371 222.123L781.906 224.66L784.933 225.682L787.468 229.455L784.933 231.992H780.111L773.564 234.777H763.742V236.293L757.688 234.036H745.859L740.825 238.584L742.092 244.894L744.099 246.903L741.846 251.944L740.333 258.006L742.339 260.016L745.859 265.832L750.647 267.595L750.4 271.12L753.181 274.892L752.16 278.91H745.366L740.966 274.504L739.312 272.847L741.072 267.806L734.524 264.282L731.11 260.862L726.955 261.497L721.922 260.474L722.168 263.506H724.562L725.583 266.29L727.73 268.441L730.863 269.076L734.383 270.979L735.263 274.257L732.869 276.655L733.362 279.298L728.575 280.038L725.124 283.493L726.709 286.842L727.73 285.467L729.349 288.604L734.771 291.636L734.278 297.699V306.405H729.243L727.343 309.437L723.611 313.138L719 316.593L719.246 321.246L721.464 323.467L722.168 326.182L725.301 329.319L730.089 330.058L730.722 333.337L732.377 334.958L735.404 332.315C735.404 332.315 736.495 334.253 736.918 333.831C737.34 333.407 739.945 330.94 739.945 330.94L739.804 335.84L743.712 336.58V340.493L746.106 346.309L744.733 349.975H742.831L744.838 353.747L743.219 358.541L740.508 361.255L739.558 364.357L736.037 363.617L735.897 367.67L738.361 370.138L739.171 374.755L737.024 378.528L739.276 380.784V384.309L744.803 387.587L746.95 391.994L743.535 395.131V397.669L745.296 400.7V405.248L743.043 407.01L745.824 412.05H748.851L751.879 415.082L754.132 419.629L754.625 425.445L752.126 427.984L753.392 433.271L759.201 434.54L762.088 437.431L764.974 434.54L765.994 440.603L764.974 445.891L766.734 449.91L763.32 453.329L759.658 457.982L757.123 462.776L760.89 468.064V474.374L757.23 478.039L756.842 483.714L754.695 485.865L748.781 491.787L748.851 499.541L755.223 503.736L762.369 506.839L758.637 513.043L749.661 516.92L743.923 522.666L734.63 515.828L724.702 520.023L722.837 526.227L716.183 522.807L711.361 524.041L705.552 518.224L699.286 520.622L691.225 519.705L689.043 516.462H680.347L674.293 513.818L666.232 515.052L660.353 528.271L660.811 536.202L652.432 538.529L645.604 543.499L644.828 548.787L637.682 552.982L635.429 556.189L631.382 560.242L626.383 562.604H620.328L616.562 561.477L612.232 559.22L610.542 561.688H605.438L602.234 559.608L599.418 558.268L595.088 556.929L591.673 555.802V552.77L594.137 550.303L590.159 546.319L586.394 548.963L584.633 551.888L581.077 555.766L580.691 559.75L582.38 564.861L578.402 566.765V569.584L581.817 571.276L584.175 573.637L585.407 576.563L589.174 578.644V582.063L587.379 583.861L582.556 584.706L576.219 591.052V595.493L575.164 598.137L572.524 600.781L570.446 601.168V604.588L567.911 607.126L566.504 610.052V613.083L570.271 614.846L572.277 621.156L571.01 624.68V629.474L567.877 632.611L569.25 637.017L574.776 638.533L579.811 635.503L583.471 639.168L581.852 645.09L586.886 646.606L589.667 643.821L594.208 646.606H599.242V650.131L593.187 652.916L591.673 659.72H595.968L601.249 657.182L604.029 661.2L610.084 657.921L617.125 655.912L621.278 651.753L625.186 651.611L630.466 651.366L634.233 647.593H638.774L640.042 651.119L637.014 655.137H633.493V659.684L637.789 661.447L640.921 664.584L643.807 670.753L646.589 673.537L650.883 677.838L653.911 687.92V696.238L657.924 700.01V706.074L662.219 713.652L663.486 720.209L665.247 726.025L668.52 732.581L674.047 731.559L676.827 725.743L680.876 724.474L683.657 727.753V731.524L686.438 734.308L689.465 737.341L694.992 736.318L697.527 738.857L703.827 737.834L706.961 734.696H713.367L716.465 737.799L721.182 739.879L724.702 743.157L725.723 749.22L730.019 752.005L732.025 756.552L737.305 759.831V765.894L744.099 767.655L750.154 769.665L756.701 767.127L760.609 763.214L761.982 768.396L764.762 773.437L767.015 777.208L774.302 778.477L777.576 775.2L783.878 771.674L791.446 771.921L795.6 767.761L801.514 766.386L802.534 761.099H807.569L812.602 756.058L820.91 750.771H827.457L829.218 745.484H834.744L839.144 741.076L844.566 743.474L848.861 747.775L855.655 744.99L861.463 746.752L866.251 751.547L870.264 755.565L877.551 758.102L882.585 759.618L889.624 758.349L896.419 760.112H903.706H908.493L914.161 754.437L920.075 750.524V744.39L915.675 739.984V734.308L912.541 730.537L913.562 723.98L916.977 720.562L920.11 714.146L924.017 710.233L924.123 710.127L923.806 705.474L921.342 703.006L920.462 698.706L923.137 696.027V691.585L926.059 688.659L932.677 682.032L934.472 680.235L936.725 677.979L940.211 680.164L939.471 683.584L944.189 685.84L947.005 688.484L953.236 690.388L956.052 693.207L959.255 694.899L962.846 698.495L970.977 696.802L974.005 700.01L977.771 703.218H981.749V706.814L984.566 711.36H988.719H991.746L993.085 715.909L998.751 712.7H1002.91V705.263L1008.75 699.411L1015.54 691.268L1018.96 682.562L1027.93 673.573L1038.04 661.377L1039.55 643.399L1043.14 631.484L1037.65 629.792L1034.83 616.185L1032.37 605.011L1034.27 601.415L1036.91 598.772L1032.58 595.74L1028.43 594.4L1026.91 587.597L1034.83 581.746H1038.81V576.634L1042.58 574.942L1048.07 576.846L1053.74 574.766V569.866L1057.72 567.046L1059.79 569.303H1066.2L1069.97 566.658L1072.33 569.02L1080.17 570.642L1083.38 567.434L1086.79 569.337L1091.79 564.332H1095.66V554.392L1100.2 552.135L1103.02 546.284L1107.74 547.412L1109.99 549.668L1104.5 554.779L1109.04 555.167L1112.81 553.087L1118.47 554.603L1120.73 550.267L1124.71 547.799L1125.66 542.899L1123.86 541.102V537.965L1119.81 539.657L1112.53 532.36L1114.5 527.143L1112.24 524.887L1114.14 520.551L1112.35 518.754L1116.68 514.418L1120.73 514.699L1123.09 517.061H1126.22L1129.21 514.806L1129.18 514.77L1130.06 512.02L1122.91 504.865L1120.87 499.19L1117.74 498.872V495.171L1114.36 491.47L1111.61 488.72H1107.6V492.562L1104.08 496.123L1098.59 495.348V491.717L1096.23 489.672V485.09L1091.37 484.455L1085.7 481.776L1080.35 482.411L1075 481.635L1072.01 485.266L1070.53 490.235L1066.97 493.761L1068.38 498.661L1066.48 504.336L1061.76 509.06V517.872L1055.15 522.419V527.601L1052.33 523.654V519.246L1049.02 515.934L1045.89 517.344L1045.11 521.433L1036.77 524.57H1032.83L1031.24 529.293L1028.71 533.065L1023.29 533.452L1017.23 527.389L1016.6 514.806L1017.37 507.262V500.176L1018.32 493.866V487.769L1013.92 485.865L1010.79 484.772L1010.33 481.776L1008.89 478.356L1006 475.466V472.082L1007.98 470.108L1008.54 465.455L1005.79 462.706H1002.17L998.224 460.802V457.171L999.808 455.585L998.083 453.858L996.675 448.359L993.541 442.684L989.776 440.005L985.516 441.274L981.432 441.591V436.726L984.811 435.774V432.532L981.291 429.006L981.116 426.01L977.42 425.763L974.674 428.512L971.223 426.927L966.648 428.654L964.43 425.975H962.071L960.03 428.019H955.946L953.27 426.75V421.71L954.854 420.123V416.81L953.588 413.038L956.579 408.315L958.304 403.449L953.13 398.233L951.722 391.289L947.322 388.927V384.521L949.047 382.934L947.322 381.207V377.117L942.605 375.215L941.196 376.625L939.788 372.359L942.146 369.997L944.647 365.909L948.412 364.815L947.005 355.051L945.913 348.741V345.427L941.513 337.39L941.055 329.036L936.655 326.04L934.755 321.633L933.382 318.249V316.17L938.661 314.09L944.153 306.335L947.92 305.208L953.025 306.722L954.538 303.304V299.145L951.722 296.324L953.059 291.425L956.826 290.084V286.101L956.65 280.99L960.804 278.171L965.626 273.341L966.682 269.851H968.76L968.372 264.74H964.394L960.804 257.936V251.697L957.6 248.489L950.806 243.589V240.946L945.702 239.042L943.907 235.271L944.787 230.194L942.639 228.044L940.387 224.66L939.26 221.735L940.985 219.902L941.477 217.47L939.471 215.883L938.802 211.441H935.775L932.009 211.688L932.255 215.742L932.009 217.751L935.036 217.998L936.936 219.902L934.542 224.555L930.53 226.071L926.236 229.595C926.236 229.595 925.496 234.142 923.207 234.142C920.92 234.142 916.907 235.412 916.907 235.412L912.366 238.197L913.386 243.237L908.845 245.246L910.113 240.699L911.134 234.142L915.287 229.983L917.189 224.308L923.243 222.792L924.757 214.966L928.524 211.194L930.037 204.145V201.607L935.071 195.544L937.957 192.652L940.351 187.754L942.85 184.228V179.328L945.737 176.438L942.605 171.009L937.571 168.224L935.563 166.215L940.598 167.238L941.091 161.95L937.676 158.53L935.036 155.887L933.276 157.896L930.248 155.359L927.714 150.318L924.827 147.427L920.92 149.33L918.033 146.44L912.859 150.106H907.824L902.298 153.138L904.551 155.393L903.283 159.694C903.283 159.694 899.271 157.932 897.757 157.932C896.243 157.932 896.489 154.654 896.489 154.654L899.763 151.375L896.102 147.709H891.21L889.624 149.295L881.634 148.872L884.908 144.571L888.816 140.659L887.688 135.477L883.922 135.971L878.818 132.939ZM896.559 138.191L895.644 139.566L897.721 140.94L898.637 139.355L896.559 138.191ZM801.514 151.234L800.387 153.067L801.971 154.441L804.013 151.481L801.514 151.234ZM839.673 152.15L837.385 154.899L834.428 155.604L837.174 157.649L839.92 154.899L839.673 152.15ZM763.178 179.962L761.946 181.197L763.566 182.607L766.207 181.866L763.178 179.962ZM758.321 193.323L755.821 195.367L757.194 198.117L759.483 197.659L758.321 193.323ZM777.964 213.944L775.218 215.319C775.218 215.319 776.344 218.739 776.344 218.279C776.344 217.821 778.386 217.363 778.386 217.363L777.964 213.944ZM757.405 223.32L756.948 225.824H760.82L762.897 227.868L763.108 224.449L760.82 223.991L757.405 223.32ZM732.271 246.41L730.23 247.115L728.646 249.16L729.561 251.909L731.145 253.953L733.432 251.451L734.348 248.489L732.271 246.41Z" stroke="#D1D1D1" stroke-miterlimit="10"/>
<path d="M1435 -132.812C1434.9 -132.812 1434.75 -132.742 1434.59 -132.566C1433.07 -131.05 1428.78 -129.781 1428.78 -129.781L1424.23 -123.471H1422.47L1416.42 -121.215L1412.9 -117.69L1410.36 -114.165L1409.87 -109.618L1407.09 -109.865V-107.609L1411.14 -106.586L1406.35 -103.308L1404.84 -98.7608L1409.37 -97.4918L1416.42 -96.9982L1422.47 -98.2672V-95.2357L1416.42 -91.9575L1413 -88.5381L1407.83 -92.4509L1402.06 -90.6884L1398.04 -94.7421L1394.52 -92.7329L1389 -90.2302L1384.45 -85.4008L1375.9 -82.8981L1371.36 -76.3416L1365.06 -73.8036L1359.88 -68.6217L1354.85 -63.5809L1349.42 -60.4436L1341.86 -57.1654L1337.95 -53.2526L1329.39 -44.6868L1321.72 -37.249L1319.72 -29.9521L1315.43 -23.6424L1313.91 -19.0951L1315.43 -14.7945H1311.9L1307.89 -12.5388L1307.4 -7.2512L1302.86 -4.99445L1301.59 -0.200623V2.58334H1306.62L1308.14 6.10924L1314.44 5.08701L1322.99 8.85861L1325.77 9.35242L1327.28 13.3709L1326.02 17.424L1320.99 18.6932L1315.45 21.2314L1311.44 22.7475H1305.63L1301.86 18.9747L1305.53 15.3092L1300.74 10.5154L1298.11 13.1586L1295.32 18.1993L1298.85 23.2401L1297.82 26.2721L1300.35 28.7746L1298.85 34.8375L1292.54 39.3857V44.4264L1289.27 47.7042H1285.5L1283.25 52.0042V60.3239L1278.46 65.1177V68.6424L1280.85 71.0399H1275.96L1271.41 74.7065L1265.12 77.4905L1258.08 70.4411L1254.67 67.0214L1247.72 67.409L1239.42 68.6424L1234.63 74.4596L1229.36 79.7472L1223.05 89.088V96.3855L1218.01 102.694L1213.23 107.489L1207.94 107.736L1203.16 105.198L1196.36 108.969C1196.36 108.969 1197.88 115.526 1197.1 114.785C1196.36 114.045 1192.32 109.745 1192.32 109.745L1188.8 113.799H1183.27C1183.27 113.799 1179.86 112.671 1181.51 111.014C1183.13 109.393 1185.28 106.467 1185.28 106.467L1180.74 103.188L1173.17 106.467L1167.89 109.004L1165.64 115.314L1164.62 118.84L1166.13 126.911V131.705L1161.83 135.724L1163.1 125.889L1158.31 124.373L1154.55 128.146L1150.25 130.155L1152.01 123.351C1152.01 123.351 1156.8 121.589 1156.8 120.073C1156.8 118.557 1155.78 117.571 1155.78 117.571L1148.49 120.848L1139.16 124.373L1137.16 130.155L1130.12 133.679H1125.36L1122.09 136.958L1127.37 140.236L1128.11 143.762L1122.58 148.803V154.09L1125.61 156.099L1128.15 149.542L1129.91 151.058V156.593L1134.2 158.848L1137.97 162.62L1139.73 163.642L1135.96 167.414L1131.17 167.168L1128.39 170.199L1126.24 172.349L1132.16 174.993V178.764L1126.63 177.249L1121.84 177.496L1115.3 179.011L1111.78 185.568L1113.04 192.125H1106.71L1101.18 193.641L1097.66 190.115L1091.36 189.375V193.922L1094.63 197.201V200.726L1096.15 204.497L1098.68 212.817L1098.19 217.611L1092.42 214.579L1090.16 216.836L1084.88 215.813L1081.12 213.275L1076.22 208.375L1071.05 208.516V204.497C1071.05 204.497 1068.8 200.973 1068.8 202.242C1068.8 203.511 1066.01 204.744 1066.01 204.744L1062.49 201.22L1064.5 199.21L1067.77 198.188V192.653L1065.24 190.115L1060.45 193.147V188.353L1057.57 185.463H1054.68L1056.68 179.294L1050.63 177.284L1048.87 179.047L1043.34 174.746C1043.34 174.746 1042.85 177.143 1040.95 177.143C1039.05 177.143 1039.3 181.796 1039.3 181.796L1037.29 183.312L1035.28 181.056L1033.28 181.549L1032.26 184.581L1028.24 181.796L1025.6 179.153L1022.47 181.549L1019.44 178.518L1018.7 181.549L1017.68 187.331L1021.45 193.147L1022.19 198.188C1022.19 198.188 1023.45 202.734 1022.19 202.734C1020.92 202.734 1015.39 203.757 1015.39 203.757L1010.11 208.305L1004.83 210.313L1001.8 205.52L1001.07 208.305L1000.82 210.313H993.004L988.851 206.154L990.61 204.391L988.71 201.501L981.142 203.757L971.566 205.52L965.265 208.797L960.619 213.451L958.225 215.848L961.745 219.126H958.225L955.198 214.826V209.785L952.557 207.142L949.424 211.548L948.403 214.579L943.37 212.57L939.075 211.548L939.744 215.989L941.75 217.575L941.257 220.007L939.533 221.841L940.659 224.767L942.912 228.15L945.059 230.301L944.179 235.376L945.974 239.148L951.079 241.052V243.696L957.873 248.596L961.076 251.803V258.043L964.667 264.845H968.645L969.032 269.958H966.955L965.899 273.447L961.076 278.276L956.922 281.096L957.098 290.191L953.332 291.53L951.994 296.43L954.81 299.25V303.409L953.296 306.829L948.192 305.313L944.425 306.442L938.934 314.196L933.653 316.276V318.356L935.026 321.74L936.928 326.146L941.328 329.143L941.785 337.497L946.186 345.534V348.848L947.276 355.157L948.685 364.922L944.918 366.014L942.383 370.103L940.025 372.465L941.433 376.73L942.841 375.32L947.559 377.224V381.313L949.284 383.04L947.559 384.626V389.033L951.959 391.394L953.367 398.339L958.541 403.52L956.816 408.386L953.825 413.109L955.091 416.881V420.194L953.507 421.781V426.821L956.183 428.09H960.267L962.308 426.046H964.667L966.885 428.725L971.461 426.998L974.911 428.583L977.657 425.834L981.353 426.081L981.528 429.077L985.084 432.637V435.881L981.705 436.832V441.697L985.788 441.379L990.047 440.11L993.814 442.789L996.948 448.464L998.355 453.963L1000.08 455.692L998.496 457.277V460.908L1002.44 462.811H1006.06L1008.81 465.561L1008.25 470.214L1006.28 472.188V475.572L1009.16 478.427L1010.61 481.847L1011.06 484.843L1014.2 485.936L1018.6 487.84V493.973L1017.65 500.283V507.368L1016.87 514.911L1017.51 527.496L1023.56 533.559L1028.98 533.172L1031.52 529.399L1033.1 524.675H1037.04L1045.39 521.538L1046.16 517.449L1049.29 516.04L1052.6 519.353V523.759L1055.42 527.707V522.49L1062.04 517.907V509.095L1066.75 504.372L1068.65 498.696L1067.25 493.796L1070.77 490.236L1072.24 485.266L1075.24 481.635L1080.59 482.411L1085.94 481.777L1091.61 484.456L1096.5 485.09V489.672L1098.86 491.717V495.347L1104.35 496.124L1107.9 492.563V488.721H1111.92L1114.66 491.471L1118.04 495.172V498.803L1121.18 499.12L1123.22 504.795L1126.53 508.109L1130.4 511.951L1129.52 514.7L1126.53 516.956H1123.39L1121.03 514.594L1116.99 514.312L1112.66 518.648L1114.45 520.446L1112.55 524.781L1114.8 527.037L1112.83 532.254L1120.12 539.552L1124.17 537.859V540.996L1125.96 542.795L1125.01 547.694L1121.03 550.162L1118.78 554.497L1113.11 552.981L1109.35 555.062L1104.81 554.674L1110.3 549.563L1108.05 547.306L1103.33 546.179L1100.51 552.03L1095.97 554.286V564.227H1092.1L1087.1 569.232L1083.69 567.328L1080.48 570.537L1072.63 568.915L1070.27 566.553L1066.51 569.197H1060.1L1058.02 566.941L1054.05 569.76V574.66L1048.38 576.741L1042.89 574.837L1039.12 576.529V581.641H1035.14L1027.22 587.492L1028.73 594.295L1032.89 595.634L1037.22 598.666L1034.58 601.31L1032.68 604.906L1035.14 616.08L1037.96 629.686L1043.45 631.379L1039.86 643.293L1038.34 661.271L1028.24 673.467L1019.27 682.456L1015.85 691.162L1009.06 699.306L1003.21 705.264V712.63H999.059L993.392 715.838L992.054 711.291H989.026H984.908L982.091 706.744V703.148H978.113L974.348 699.94L971.319 696.733L963.188 698.424L959.598 694.829L956.394 693.137L953.578 690.317L947.347 688.413L944.53 685.77L939.814 683.514L940.554 680.095L937.068 677.909L934.815 680.165L933.02 681.962L926.402 688.59L923.48 691.516V695.957L920.805 698.636L921.685 702.937L924.149 705.404L924.465 710.128L927.352 707.238L933.161 711.538H942.982L947.875 716.438L955.057 714.534H961.357L967.906 717.072L972.551 721.725L976.213 729.409L980.121 733.323L986.28 735.966L995.364 736.707L1001.66 734.944L1008.21 733.428L1014.13 727.506H1021.31L1032.89 725.849L1036.41 728.105L1045.21 729.375H1054.78L1058.3 732.899L1060.31 736.671L1067.11 738.928L1074.67 737.905H1084.99L1092.31 735.649H1100.37L1103.5 732.512L1109.66 726.343L1117.73 722.571L1123.5 718.552L1127.9 714.146L1130.05 706.708L1139.13 697.614L1145.43 694.829L1150.22 696.592L1155.5 699.376L1162.54 695.358L1167.57 692.327L1174.37 693.596L1183.7 694.335L1192 691.304L1196.9 686.404L1200.31 678.472L1205.6 676.958V669.907L1203.34 667.651L1199.57 660.354L1202.35 653.305V646.501L1203.87 635.644L1205.87 631.343L1203.87 623.271L1200.35 619.745L1197.21 616.608L1193.31 619.745L1190.52 616.221L1192.53 611.18L1195.31 602.862L1199.21 598.948L1207.13 594.295L1207.11 594.26L1211.05 590.312L1219.6 584.002H1225.91L1231.71 581.992L1239.28 583.262L1245.34 579.984H1250.61L1260.68 581.006L1263.71 584.037L1268.74 586.294L1270.75 591.581L1276.28 593.096L1280.29 597.115L1286.1 601.663L1288.64 607.726L1294.68 608.748C1294.68 608.748 1299.48 612.519 1299.48 613.542C1299.48 614.564 1303.77 617.066 1303.77 617.066L1307.44 620.733L1310.56 626.902L1318.13 628.417L1325.7 625.633L1328.48 622.848H1335.27L1342.56 621.826L1347.35 623.095L1353.15 624.611L1356.04 621.719L1361.47 623.095L1364.74 626.373L1368.79 629.898V635.714L1372.31 636.984L1377.09 639.768H1381.89L1383.15 635.221L1387.69 633.705L1392.97 630.674L1398.25 626.373L1396.25 620.063L1400.78 614.282L1404.8 607.726L1406.32 602.685L1412.36 599.406H1416.66L1417.68 602.685L1421.35 606.35L1424.48 609.489V615.022L1420.71 618.794L1425.75 624.081L1427.01 629.616L1429.79 634.41L1428.78 638.428L1432.3 643.223L1432.79 649.039L1435.33 654.574L1433.31 659.861L1437.33 666.171L1435.08 670.718L1431.41 674.383L1427.26 673.009L1423.24 675.018L1419.72 678.544V683.585L1416.95 686.369L1413.81 689.506L1413.95 694.406L1418.5 695.922L1423.28 700.716L1425.53 706.533L1428.31 709.317L1433.74 714.745L1436.38 720.667V725.708L1433.35 731.771L1431.59 737.588L1433.6 739.597L1438.38 739.844V735.825V733.287L1440.53 731.136L1441.9 726.238L1440.88 721.936L1441.9 715.627V713.088L1445.18 716.367L1447.33 718.517V713.864L1449.22 709.564L1451.13 711.467V714.887L1454.79 716.402L1460.06 713.371L1466.37 710.833H1469.64L1473.41 703.782L1476.68 696.733L1481.71 688.413V682.597L1482.21 670.506L1480.7 661.165L1482.21 652.07V639.98V630.18L1483.72 625.139V615.552L1482.21 605.716L1480.7 598.42L1478.68 590.347L1475.9 583.05L1476.16 573.709L1473.38 564.615L1474.89 555.52V544.944L1470.98 541.032L1466.34 533.841L1465.06 530.316L1461.54 524.253L1456.51 519.212L1455.25 514.911L1452.71 512.374L1446.3 505.958L1441.12 498.52L1437.85 488.438L1437.12 478.851L1434.59 474.057L1432.19 471.659L1427.54 472.294L1423.78 468.522L1422.75 465.243H1418.21H1413.67L1415.18 462.459L1416.95 460.697L1419.34 458.299L1416.21 455.162C1416.21 455.162 1412.69 456.678 1411.42 456.678C1410.15 456.678 1404.37 457.7 1404.37 457.7L1401.99 455.303L1396.56 454.668H1390.01L1384.49 455.937L1381.71 458.722L1377.17 461.261L1379.95 466.301L1382.2 470.602L1384.6 472.999L1383.96 477.158L1381.17 475.15L1379.42 476.664L1376.64 480.437V482.94L1371.61 484.948V481.671V477.124L1370.09 475.608L1368.58 476.101L1365.55 473.845V471.306L1362.77 474.339V478.11L1366.29 479.626V483.645L1363.65 486.288L1360.62 483.257L1358.22 478.851V475.572L1355.19 474.057L1352.67 471.519L1349 475.184L1345.74 478.463H1341.57L1338.61 481.424H1334.79L1332.53 476.313L1334.54 470.778V464.504L1338.3 458.194V451.143L1340.56 442.578V435.774V429.711L1338.02 426.926V418.361L1339.53 412.051V402.957V396.154L1342.56 391.113L1339.04 387.587L1336.79 381.771L1338.05 373.699L1341.82 369.927L1337.82 361.855L1338.56 353.535L1342.85 344.97L1347.14 340.67L1351.15 333.866L1354.81 330.199L1360.48 324.524H1366.25L1370.55 321.74L1369.03 320.224L1367.03 316.946L1370.06 314.161H1373.09L1376.61 310.882L1380.51 306.97L1378.86 301.542L1384.13 303.551L1387.41 300.026L1384.63 297.242L1383.36 292.447L1384.63 288.675L1387.9 285.397L1391.92 284.375L1395.44 280.074L1402.48 276.796V274.54L1407.26 273.8L1411.8 272.037L1413.7 273.94L1409.55 275.316L1408.54 278.594V281.872C1408.54 281.872 1411.95 283 1410.78 284.128C1409.66 285.256 1415.57 283.881 1415.57 283.881L1417.33 279.087V273.8L1422.12 271.79L1422.86 268.018L1421.1 259.206L1428.67 257.937V251.133L1432.68 249.865L1432.93 245.07H1429.16L1427.01 247.221L1424.13 249.865L1420.86 250.358L1417.33 246.833V242.286L1413.18 238.126L1411.8 228.15V220.571L1407.26 213.522L1408 206.472L1403.47 203.439L1403.22 192.336L1406 189.058L1408.25 180.738V176.72H1415.05L1417.05 170.657L1415.05 165.124L1422.09 171.679L1424.09 175.98L1426.63 178.518L1430.39 182.29V175.98L1434.93 178.236L1436.94 183.277L1438.7 177.461L1438.21 167.873L1435.67 161.81V153.737L1432.54 150.6L1434.93 147.216L1437.19 147.463L1437.68 144.184H1432.64L1428.49 140.025L1424.09 135.619L1421.06 132.833L1422.58 128.78V123.493L1428.11 120.461L1432.01 116.548L1433.67 118.205L1428.87 122.752V128.568L1434.16 131.847L1437.68 136.394L1440.56 139.284L1443.7 140.412H1446.97L1450.25 146.722L1453.28 149.753V154.054V157.579L1451.51 163.642L1451.76 168.683L1454.79 171.221L1457.81 180.563L1460.35 186.873L1462.61 194.698L1464.61 203.017L1469.39 209.327L1472.42 218.668L1473.69 226.741L1476.23 234.32L1474.32 236.223L1472.08 238.479L1474.46 242.638L1472.71 246.41L1470.56 248.56V250.711L1475.2 251.733L1479.5 257.796L1480.23 263.612L1483.75 267.137V272.424L1488.79 277.712L1496.07 285.01C1496.07 285.01 1498.22 289.909 1499.36 291.072L1506.14 295.619L1513.19 299.391L1524.03 302.67L1529.07 303.692L1533.6 306.723L1536.39 310.495L1545.96 315.535L1554.27 319.061L1563.07 323.114L1567.61 327.662H1572.64L1576.3 331.328L1580.95 333.725H1588.24L1591.02 337.497V332.456L1589.76 325.653L1587.22 315.077L1586.2 307.006L1581.41 302.458L1574.86 295.902L1570.56 294.139L1568.04 285.044L1570.04 280.497V275.914L1575.56 275.174V272.143L1568.27 270.38L1566.13 268.231L1561.73 266.608L1556.69 258.782L1554.94 248.701L1557.47 243.168L1561.76 240.383L1564.79 238.373L1563.04 233.826L1558 229.771L1549.44 230.794L1545.79 227.128L1541.14 226L1535.85 217.188L1534.34 211.125L1539.37 209.609L1541.39 204.815L1536.49 199.915H1532.34L1529.77 202.489L1523.29 201.043L1516.75 196.496L1515.48 190.679L1508.93 184.123L1507.17 187.895L1504.77 190.291V192.442L1506.68 196.742H1499.63L1495.48 192.583L1488.55 188.917L1487.81 183.383L1486.78 176.332L1482 171.538L1478.48 168.014L1475.45 164.982L1471.68 158.672L1474.46 155.888V149.331H1477.49L1482.14 144.678L1477.49 142.527V137.733L1474.71 130.437L1477.74 130.19L1481.26 133.715L1486.04 135.971V131.917L1481.75 125.361V121.589L1483.75 114.538L1480.97 111.755L1486.26 104.176L1489.53 96.5966L1495.84 94.5867L1500.37 96.8435L1504.66 93.0719L1501.88 90.2867L1497.59 85.4929L1495.06 75.4115V68.114L1490.27 63.814L1487.74 55.9881L1486.47 47.9153L1483.93 41.8523L1482.42 34.803V25.7079L1480.66 17.6351L1476.37 11.0796L1478.27 9.17589L1472.35 5.26236L1473.87 3.00679H1479.15L1482.42 -4.04379L1487.45 -6.05244V-11.3401L1483.79 -15.006L1481.89 -19.4123L1477.88 -16.3808L1475.09 -18.6368L1471.83 -18.1433L1469.19 -15.4996H1464.79L1463.51 -13.103H1458.98V-16.6276L1453.44 -16.3808L1450.43 -15.8873L1446.66 -16.134L1445.14 -13.5956L1442.01 -10.4586L1436.59 -10.3179L1433.56 -8.06229V-3.26727L1430.28 -1.99815L1427.75 -4.50182L1431.76 -9.29564H1428.98L1424.69 -7.5327L1426.45 -11.5512L1431.72 -13.808H1435.49L1439.51 -20.3641L1438.49 -26.1451L1436.48 -33.442L1432.33 -37.6015L1428.42 -41.5143L1426.17 -39.2583L1425.93 -44.0523H1422.47L1416.95 -42.5365L1413.53 -45.9558V-49.375L1409.13 -50.1154L1410.65 -51.6311L1412.9 -52.6534L1410.99 -54.5568L1411.39 -56.9539L1413.88 -55.4381L1416.66 -53.1822H1421.45L1424.72 -55.7202L1428 -53.1822L1432.15 -57.3417V-63.7572L1430.26 -67.529L1434.55 -73.8388H1439.33L1443.1 -72.323L1448.38 -74.0855L1451.17 -80.1486L1456.44 -85.9649L1462.21 -86.4583L1464.47 -93.015L1460.17 -94.284V-96.2932H1465.46L1463.69 -100.312V-103.59L1460.91 -100.065L1458.13 -99.3247L1454.85 -104.366L1450.28 -108.983V-106.34L1444.37 -108.596L1441.59 -105.811L1437.04 -106.551L1442.85 -110.323V-115.61C1442.85 -115.61 1444.37 -120.158 1442.85 -118.642C1441.34 -117.126 1437.57 -117.126 1437.57 -117.126L1440.36 -122.907L1437.82 -125.445L1434.55 -128.23C1434.55 -128.265 1435.71 -132.707 1435 -132.812ZM1303.98 -92.4862L1302.22 -90.6531L1298.38 -88.6439L1295.25 -85.5066L1295.53 -80.1133L1294.2 -78.7738L1294.86 -74.438L1297.37 -70.772L1299.93 -64.7794L1303.94 -63.9335L1306.66 -66.6477L1308.7 -70.349L1306.45 -72.7812L1309.79 -77.6106L1309.19 -82.8628V-89.1022L1305.96 -91.6754L1303.98 -92.4862ZM1093.82 34.3091L1092.45 36.8116L1093.93 38.2919L1095.65 36.8116L1093.82 34.3091ZM1130.15 53.5202L1125.12 55.8115L1122.48 58.914L1119.63 61.7695H1118.5L1116.32 59.1251L1112.76 62.6856L1110.37 65.0831L1108.64 66.8103L1105.23 65.1881L1105.69 67.0214L1106.81 68.6078L1109.31 72.2732L1114.24 74.0004L1117.34 70.8991H1121.46L1125.58 69.3127L1129.34 67.5856L1131.74 65.1881V61.9807L1133.78 56.2696L1130.15 53.5202ZM1100.23 70.8991L1097.27 71.8152H1089.95L1087.56 74.2127L1083.79 76.8559L1081.05 74.1066L1074.43 76.151L1074.88 80.2757L1076.61 82.0028L1079.11 84.5053L1080.83 86.2324L1078.34 88.2769L1074.92 85.3164L1073.09 87.1497L1070.59 84.646L1064.89 85.7744L1062.39 84.4003L1061.26 87.3608L1063.09 89.1941L1059.68 91.0263V95.362L1062.42 98.1126L1061.72 101.32H1064.22L1067.42 104.527L1066.51 108.194L1070.62 110.238L1076.12 110.485L1078.41 112.777H1082.52L1087.31 111.401V107.771L1084.35 105.021L1085.94 103.435L1088.33 105.832L1092.56 98.183L1096.57 94.1645L1098.29 95.8916L1101.95 92.225L1103.08 88.8065L1098.96 87.4312L1096.22 90.1806L1092.8 87.6781L1088.68 85.1756L1084.57 82.2139L1085.94 79.2534L1088.12 77.0682L1089.85 82.8843L1092.49 85.5275L1096.96 86.3386L1099.7 85.2102H1101.99L1104.28 82.9189L1103.15 78.125H1099.32L1100.23 74.0004V70.8991ZM1053.38 104.105L1055.77 106.501L1057.25 111.86H1060.21V108.899L1059.08 106.397L1057.04 104.351L1053.38 104.105ZM1116 110.943L1113.15 113.587L1110.51 116.231L1107.87 118.874L1109.35 122.435L1111.85 124.937L1110.23 128.604L1111.6 129.978L1113.64 125.642L1118.89 124.515L1123.46 122.682L1129.62 119.015L1126.42 113.058H1122.09L1116 110.943ZM1103.89 111.86L1101.15 112.072L1099.1 113.904L1100.72 118.487L1103.36 121.131L1105.55 116.9V113.482L1103.89 111.86ZM1076.68 133.398L1075.31 134.526L1077.81 135.653L1081.01 138.157L1082.38 136.324L1081.01 134.279L1076.68 133.398ZM1493.65 157.615L1491.04 159.131V163.925L1490.62 168.295L1493.22 170.058L1494.99 172.243L1495.2 176.157L1498.69 177.461L1497.8 173.548L1496.29 170.481L1497.8 165.475V159.377L1493.65 157.615ZM1597.14 170.058L1594.32 170.727L1591.51 172.701L1593.02 174.217L1595.1 172.138L1597.14 170.058ZM1583.84 181.832L1579.69 183.594L1575.78 182.078L1572.71 183.172L1574.23 186.449H1579.47H1584.72L1587.99 183.172L1583.84 181.832ZM947.347 194.944L944.813 195.402L940.588 199.633V202.489H944.144L945.27 205.238L948.227 203.863L951.642 200.443V194.944H947.347ZM1590.81 342.819L1589.51 346.733L1587.43 348.812L1589.83 351.209L1591.24 354.17L1590.81 358.083L1590.59 363.088L1592.88 365.38L1595.39 363.97V358.753L1597.68 356.461L1595.8 351.985L1592.75 348.918L1592.95 345.006L1590.81 342.819ZM1600.17 376.871V380.15L1602.35 381.242L1603.87 379.268L1600.17 376.871ZM1412.62 426.151V429.43L1413.92 433.131L1415.68 432.708L1419.87 434.188L1422.75 437.079V438.7L1425.68 441.626L1424.79 445.998L1419.8 444.482V447.76L1418.28 452.131L1424.38 454.105L1427.43 459.781L1433.11 465.456V468.734L1438.34 475.925L1442.26 476.347L1448.8 479.168L1457.07 482.869L1460.14 487.874L1464.93 494.431L1470.38 499.895L1476.93 506.452L1484.99 517.59L1488.69 525.452L1493.06 526.756L1497.63 529.364L1501.99 533.523L1505.47 540.291L1508.29 543.993L1512.45 548.153L1516.82 552.523V556.683L1523.37 562.781L1527.05 566.483L1529.88 569.973L1533.36 567.153L1530.75 561.478L1527.27 557.988L1526.18 553.616L1527.9 549.139H1533.47L1535.96 546.637C1535.96 546.637 1541.84 549.457 1542.93 549.457C1544.02 549.457 1542.93 546.848 1542.93 546.848L1539.87 542.936L1534.73 540.01L1531.81 542.936L1527.03 542.723L1525.05 538.564H1521.35L1518.08 535.286H1512.42L1508.72 532.889L1504.35 528.518L1501.54 525.698C1501.54 525.698 1500.66 519.6 1501.32 518.93C1501.99 518.26 1498.51 514.347 1498.51 514.347L1494.81 508.672V506.064L1495.69 502.785L1494.81 498.203H1498.09L1502.24 496.899L1504.42 494.714L1505.31 491.893L1499.21 489.496L1495.73 486.676L1490.27 483.398L1483.93 480.12L1479.15 475.96L1471.75 471.8L1466.3 467.006L1460.63 464.821L1456.47 463.729L1450.03 457.066L1446.66 453.682L1444.47 447.795L1441.86 444.094H1438.59L1432.5 440.181L1431.2 436.692L1425.75 435.598L1422.68 432.531L1421.17 429.042L1418.35 427.737L1412.62 426.151ZM1619.99 440.568L1617.81 440.781V445.574V449.487H1620.88L1619.99 445.786V443.389V440.568ZM1359.21 454.316L1355.06 455.198L1352.88 457.594V460.661V463.94L1356.58 462.424L1358.55 464.398L1360.73 462.213L1361.61 457.841L1359.21 454.316ZM1618.37 473.598L1615.41 476.559L1614.53 480.261L1616.05 483.751L1614.96 489.426L1617.78 490.095L1619.29 486.605L1618.41 481.811L1619.08 477.652L1618.37 473.598ZM1612.38 502.751L1611.3 503.843L1612.18 507.545L1613.93 504.936L1612.38 502.751ZM1606.26 513.642L1605.17 519.317L1606.57 520.728L1605.38 524.993L1605.8 531.549L1608.41 532.642L1609.29 529.153L1607.98 522.173L1610.38 519.777L1609.96 514.77L1606.26 513.642ZM1604.12 545.932L1599.75 546.601L1600.63 551.184L1601.05 555.555L1602.82 556.225V552.734L1604.12 549.915V545.932ZM1614.78 549.21V551.184L1617.6 552.7V549.422L1614.78 549.21Z" fill="#F8F8F8" stroke="#D1D1D1"/>
<path d="M331.778 180.843L332.411 176.19L340.086 168.506H352.934L356.947 161.456V147.85L365.008 143.831L375.569 138.544L382.855 141.329H387.151L390.671 144.853L395 141.821L393.945 147.109L398.239 146.615L404.293 146.862V150.881L405.561 155.429L402.78 153.666L399.893 150.776L397.254 153.419L398.52 158.213V163.006L402.816 165.263L406.09 168.541V173.829L409.75 175.592V181.514L413.904 185.673L415.911 192.724V200.02L414.643 206.33L416.157 209.854L416.298 217.54L420.698 221.946L420.452 227.48L419.431 236.574L415.031 244.259L408.342 250.957H401.302L393.487 252.473L386.693 249.969L379.265 245.81L374.618 241.157V234.319L369.831 229.525L367.578 224.237L365.818 219.196L362.543 213.662L360.784 204.32L357.264 202.805L358.39 197.13L361.277 194.238L357.757 190.714L356.137 195.12L353.743 197.517L354.764 203.052L354.905 209.467L352.124 212.252L355.785 215.917L354.764 221.452L351.244 229.278L345.083 231.181L340.191 236.081L338.289 245.035L333.643 249.688L337.41 261.532L333.748 267.947L338.924 273.129L344.45 278.663L350.752 274.116L352.018 267.806L348.745 264.528L349.238 258.994V254.693L353.532 250.146H357.827L359.341 261.496L360.714 268.934L365.114 273.341L367.894 279.157L375.076 281.307L377.223 279.157L375.464 274.857L379.758 271.331L380.005 262.518L387.82 263.788L395.107 261.002L401.161 264.281L407.955 262.131H412.601L415.488 265.021L419.783 271.578L416.263 275.102V280.637L419.395 276.725L423.796 272.318L429.85 271.049L434.885 263.752V257.443L436.891 253.142L443.438 249.864V245.846L449.74 242.073V235.764L448.719 229.7H453.014L454.387 232.838L460.054 238.514L464.349 245.069V253.883L462.836 258.43L460.582 260.685L456.815 256.913L451.535 255.644L443.474 258.43V264.986L445.48 271.049V276.09L451.289 277.606L456.815 280.144L463.117 277.112V272.565L469.664 271.049L475.966 274.08L474.945 270.062L484.766 271.825L490.047 270.802L499.621 272.071H505.149L507.929 277.112H510.464V272.565L518.526 270.027H522.82L524.58 276.584H519.792L518.279 281.131L514.512 282.4L520.321 287.687H524.333L531.902 284.408L539.083 285.784L546.898 293.61L549.538 290.965H554.819L561.507 288.816L564.147 291.459L563.408 294.984L559.395 297.769V302.069L564.182 306.087L564.57 301.434L566.717 299.285L571.75 300.554V296.536L576.538 295.795L577.559 289.732L576.82 282.434L581.361 280.179L585.268 279.051L589.915 283.704L591.922 281.695L597.096 288.11L603.011 294.032L607.798 298.827L608.959 301.223L606.917 304.255L604.454 306.722L602.94 308.238L605.404 310.565L605.897 312.468L607.798 313.102V317.016V321.669H605.404L604.278 324.453L602.271 325.475L601.532 330.128L606.565 332.632V335.909L601.919 337.813L605.827 341.726L599.771 344.758L595.23 349.305H590.444L588.683 354.839H580.128L572.068 356.602L564.007 361.149V366.684L557.458 366.437L552.601 367.176L549.96 370.208L545.244 372.676L540.527 377.399L536.197 377.964V373.98L532.993 372.851L529.121 376.729L523.911 381.946L521.658 386.282L522.609 391.781L516.554 395.554L515.991 400.101L510.886 403.308L507.472 409.724L508.422 414.06L506.345 418.043V421.462L500.114 427.702L499.269 432.143L496.911 434.504L495.573 438.1L486.879 436.761L480.471 434.293L474.804 431.262L468.96 427.278H466.32L464.806 430.486L462.273 431.333L460.476 429.534L457.941 428.688L455.408 431.226L450.866 429.534L446.889 431.614L443.298 428.019L437.806 425.551L434.603 426.68L431.963 423.471L432.526 420.264L431.188 418.183L427.985 417.056L425.52 419.523L423.725 417.725L421.93 419.523L416.826 416.703L414.467 421.322L417.001 423.859V426.891L413.165 428.407H409.081L406.758 430.733L402.991 431.191L401.759 428.441L399.648 426.327L395.67 430.098L392.783 427.208L388.136 424.987L383.736 426.08L381.975 431.156L379.089 434.681L377.329 432.919L378.878 429.393L377.786 425.41V421.639L375.146 418.994V415.223L378.455 411.909V408.596L383.313 407.503V402.427L386.411 399.325L385.953 395.482L383.701 394.355L384.58 391.57L382.116 389.102L381.166 388.15L379.794 385.895L377.892 385.26L375.181 387.587L369.655 393.12L366.24 396.54L361.488 394.425L358.848 396.857L364.374 402.603L360.854 404.366V409.019L359.2 410.676L353.357 405.493L350.259 410.359L344.732 409.019L342.408 411.345L338.994 406.375L333.925 403.485L329.736 401.511L327.975 396.646L323.012 391.676L316.499 390.477L313.191 383.392L308.121 385.824L302.595 383.392L296.399 384.943L290.872 387.375L284.923 381.418V376.095V371.441L280.171 366.684L277.742 369.116L271.441 364.814L268.801 362.171L264.154 362.629L261.056 363.193V358.153L262.359 353.923L258.768 352.795L254.684 353.606L249.474 351.174L245.251 349.551L241.836 347.93L239.723 345.814L239.09 347.93H235.816L233.387 345.005H229.409L228.529 341.338L226.488 339.293L223.706 337.919H220.362L217.686 340.598H213.463L211.35 342.713L207.865 342.29L205.014 339.434H199.629L196.706 337.637L192.869 337.884L190.686 335.698H186.286L183.998 333.407L182.485 330.128L178.577 333.407L178.19 336.544L175.938 338.8L175.444 344.087L174.071 347.119L172.557 349.763H169.037L167.524 354.064L164.109 349.905L159.815 350.292V341.726L155.519 337.707L150.733 336.438L152.246 332.666L153.513 328.648L149.993 325.123L147.74 320.082L148.48 316.558L153.267 311.763L156.048 306.722L154.781 302.175L158.794 301.153L164.848 297.381V292.094L167.383 289.062L173.684 288.816L176.465 285.537L176.712 281.765L181.992 279.755L186.286 273.939L192.095 274.186L197.129 271.155L203.923 272.67L204.944 268.899L207.197 266.643L211.491 268.652L215.011 272.423L220.538 274.186L222.545 278.733L224.551 283.775L227.578 280.743L227.086 273.447L222.545 269.427V260.862L226.558 259.839L227.825 258.57L222.299 256.315L219.025 252.543H242.083L275.419 252.296L285.98 248.525V241.968L287.739 225.33H294.78L300.835 220.536V213.873L305.375 212.111V203.545L309.389 203.298L318.19 196.248L322.484 198.257L331.778 180.843ZM347.09 243.201L346.175 244.577L347.759 246.621L349.801 244.577L347.09 243.201ZM560.063 246.41H557.564L554.819 242.285L553.235 243.201L548.447 238.619L544.786 234.741L546.159 230.617L549.82 229.489L551.193 227.198L548.694 225.153L548.905 219.654L547.321 219.196L545.737 215.072L542.322 214.861L539.576 210.983L540.491 205.942L544.153 200.901L548.483 201.359L549.855 202.946L551.439 203.615L552.107 200.654L557.353 199.068L561.472 194.732L558.726 191.772L562.387 189.48L566.506 191.067L567.633 187.647V184.227H572.877L575.376 186.731L578.017 184.087L578.58 181.689L584.283 180.562L582.347 178.622L577.418 176.895V175.063L583.121 173.441L589.071 171.855L592.028 168.894H595.899V166.145L601.391 165.898L598.434 162.936L603.222 162.725L605.052 164.558L604.841 159.976L607.13 157.684L604.629 154.724L606.214 152.22L608.959 154.969H612.374V151.551L617.408 153.384L619.908 150.634L622.407 147.673H625.611L631.102 145.171L634.974 146.545H640.677L644.444 142.773L648.914 143.126L650.956 146.087H655.743L658.032 148.378L662.151 147.25H667.853L671.619 143.478L676.091 141.082L682.039 138.79H687.531L690.734 143.831V149.33L685.947 153.666L681.617 157.79L675.914 158.248L669.05 161.456L662.889 159.164L659.932 162.126L652.856 161.914H643.704L640.289 165.58H633.179L627.933 168.541L629.518 172.208L625.856 173.582L621.527 173.124H617.655L617.197 175.626L613.078 174.499V178.622L608.959 181.584L605.544 184.087V180.209L602.799 182.713L603.468 187.294H600.722L598.786 185.356V187.541V190.961L596.78 188.951L594.209 191.525L592.028 193.71H589.071L586.782 196.671L583.825 201.711H579.038L575.165 204.92V209.256L571.293 210.842L569.921 215.425L566.717 218.632V224.342L565.133 228.467L567.175 234.425L565.344 240.381L567.844 244.259L568.97 248.383L567.597 249.758L563.725 251.591V248.63L560.063 246.41ZM705.625 21.5119L703.724 22.076L705.238 24.1563V26.06H707.877V22.4637L705.625 21.5119ZM705.061 37.5871L703.724 39.6661L698.831 40.6179L695.627 42.3105L698.092 43.4377L696.966 46.0821L699.042 46.6463H703.196L706.504 43.3327L708.969 40.8649L708.124 37.1636L705.061 37.5871ZM689.396 34.1674L688.341 35.2242L690.312 37.1982L693.903 35.8587V32.8279H691.826L689.396 34.1674ZM686.65 40.1241L683.905 36.9871L681.828 39.0673L680.314 42.0982V45.8698L683.518 46.434L684.256 48.6907L688.234 47.7389L690.769 45.2007L692.67 43.297L693.726 40.1599H690.91L686.65 40.1241ZM675.422 53.2734L674.189 54.5068V56.8685H676.724L677.675 53.8364L675.422 53.2734ZM670.105 43.6142L668.768 42.2747H664.615V45.0945L662.362 47.3512L663.699 48.6907L668.24 47.7389L669.93 49.4303L673.908 48.4784L675.034 45.8352L677.85 46.7871L676.336 43.3673L673.802 40.8291L670.105 43.6142ZM691.086 12.0304L689.96 14.2859L691.931 16.26L693.832 14.3563L691.086 12.0304ZM686.932 17.3526H683.905V20.7723L687.108 23.9797V26.6242L689.925 25.2846L688.234 21.6884L686.932 17.3526ZM668.029 27.1871H665.389L664.826 27.7513L667.008 29.9377L668.029 27.1871ZM670.318 31.5229L668.521 33.3217L670.318 35.2957L672.394 35.1192L670.318 31.5229ZM672.006 23.2044V25.6723H674.647L674.083 22.8514L672.006 23.2044ZM675.703 29.3377V31.5229H677.886L676.196 29.8316L675.703 29.3377ZM677.85 34.3439L678.801 35.2957L680.491 33.6032L677.85 34.3439ZM680.525 24.3328V26.976L682.779 27.1525V24.3328H680.525ZM677.11 19.0452L678.449 21.5119L679.681 20.2785L678.449 19.0452H677.11ZM652.751 34.9069L651.343 36.3179L653.807 38.7846L656.553 38.8908V34.3439L654.651 31.876L652.751 34.9069ZM658.982 31.9118L659.932 34.555H661.833V32.2994L658.982 31.9118ZM648.422 16.7538L646.52 18.6575V20.7365L644.337 22.9229L640.466 20.1724L637.262 21.8649V24.1205L633.284 21.3007L630.257 22.4291L631.207 26.976L634.023 26.0242V29.0563L637.051 29.7958L639.797 27.0464L643.669 25.4254L646.872 26.3772H651.59L655.005 22.9575L651.801 19.7501L653.984 17.5649L650.287 15.3785L648.422 16.7538ZM637.649 12.0304H633.495L631.032 9.5625L629.342 12.9822L631.525 15.1674L632.369 17.7057L637.262 16.0131L638.952 17.7057L642.156 16.3662L643.493 17.7057V14.8847L641.31 12.6995H639.34L637.649 12.0304ZM641.31 31.9822H639.692L640.255 34.3439L643.669 34.5192L641.31 31.9822ZM641.979 36.9871L640.289 38.6797L641.627 40.0192L644.83 40.7587L642.753 38.6797L641.979 36.9871ZM655.779 12.5946V15.0613H657.68L659.58 13.1576L655.779 12.5946ZM56.6016 254.517L60.509 255.397L63.8532 254.447L65.1206 251.979L68.1479 252.473L70.9992 255.327L71.1049 259.205L73.4282 259.91L73.9211 262.942L77.5117 263.576L78.3214 260.685L76.3501 258.711L78.0398 257.02L79.131 258.112L82.5809 261.002V265.338L82.088 269.11L84.0945 272.389L86.101 273.763L86.8051 278.663L85.0449 282.329L76.6317 286.559L63.9236 271.437L56.6016 254.517ZM576.045 259.91L572.385 261.743L569.639 262.659L570.307 268.617L570.765 271.825L573.265 272.495L574.18 277.289L578.968 277.747L580.552 273.869L578.263 269.991L578.51 265.655L576.045 259.91ZM495.151 240.028L490.117 241.404L487.16 245.281L484.872 248.242L486.456 252.578L490.117 253.953L493.532 255.327L496.735 253.036L500.608 253.706L502.648 248.912L499.446 244.788L499.199 241.368L495.151 240.028Z" fill="#F8F8F8" stroke="#D1D1D1" stroke-miterlimit="10"/>
<path d="M167.029 673.638L167.381 669.302L166.148 666.06L163.403 665.108L161.748 662.534L158.263 660.068L158.299 654.286L156.15 651.149L155.447 647.271L152.737 644.522V641.526L150.801 638.987L148.266 636.379L146.365 632.818L148.125 629.434L146.506 624.922L144.077 622.526L143.338 619.353L140.944 616.568L140.451 612.902L137.599 611.739L133.058 612.515L131.088 610.505L129.96 607.191L127.848 607.896H125.313L124.223 604.618L121.301 603.138L119.54 601.199L116.724 601.269L114.577 603.49L111.022 603.948L109.719 601.869L107.678 601.164L105.882 603.349L105.847 606.346L103.77 609.378L105.671 610.999L107.149 614.031L105.073 617.344L107.501 619.811L103.312 623.02L100.672 623.724L101.658 627.39L100.391 630.034L96.5536 634.828L91.6253 634.792L89.478 631.549L88.0347 628.518H85.5705L83.0359 631.057L79.4454 631.585L76.3828 634.652L77.6852 639.692L81.5223 645.544L83.1768 651.36L88.8092 655.202L92.5406 656.965L94.7935 662.922L99.053 666.412L98.0322 671.453L101.588 674.696L102.608 682.769L106.129 686.328L111.691 687.069L114.824 690.242L115.668 692.85L119.964 693.343L121.23 697.891L124.997 701.944L123.518 706.28L121.196 710.017L124.786 714.564L126.722 719.781L126.757 723.13L130.841 725.844L131.228 731.943L134.044 740.227L134.783 745.02L140.345 746.324L146.188 744.28L150.132 746.043L156.221 743.257L155.694 735.15L156.679 728.629L155.165 720.062L155.131 712.977L160.693 703.883L163.226 701.662V699.9L166.114 697.044L168.507 687.809L166.993 682.98L164.353 680.335L164.317 676.247L167.029 673.638Z" fill="#F8F8F8" stroke="#D1D1D1"/>
<path d="M26.3962 520.268L25.0233 519.07L23.2984 517.695L22.0311 516.779L20.8694 516.003L16.1875 515.898L13.477 516.215L11.1888 514.875L8.9359 514.171L7.63341 513.359L5.62689 515.157L5.9085 517.659L7.84463 518.683L10.0976 519.388L11.4 523.019L11.6817 525.838L10.9776 528.094L11.3296 531.231L10.3792 534.157L7.17578 535.743L5.48608 537.506L3.02192 537.788L1.19141 540.784L2.17707 544.451L3.09233 547.164L6.71816 549.596L10.696 549.174L13.0193 547.975L16.5396 546.353L19.1094 547.059L22.4184 549.209L23.404 551.042L24.3192 552.205L26.0089 553.721L29.8812 555.06L33.859 555.131L38.3649 555.06L40.1955 558.868L41.2516 561.617L46.5318 565.036L51.6714 566.023L53.5019 563.063L57.7965 563.732L53.6779 559.573L53.2203 557.916L52.481 556.647L51.7066 555.801L47.1302 555.06L42.0964 552.311L38.5058 546.742L40.7235 543.428L41.7795 538.599L41.1811 534.193L40.5475 533.593L39.1042 532.536L38.8226 531.725L39.9139 526.931L37.3441 524.358L37.2384 520.41L34.2815 519.916L33.7887 521.89L31.3597 521.678L28.1915 522.208L26.3962 520.268Z" fill="#F8F8F8" stroke="#D1D1D1" stroke-miterlimit="10"/>
<path d="M76.4544 634.727L73.6735 634.235L71.6669 631.697L69.1324 628.172L65.8585 628.665L63.852 622.602L64.5913 611.004L63.5704 602.439L61.5639 598.139L59.0294 594.366L59.5222 586.788L56.4948 584.003L54.4883 579.984L56.0019 575.437L54.7347 570.397L57.5157 567.612L60.543 567.118L64.5561 572.158L68.3227 573.428L70.0828 569.656L74.3776 567.893L80.1858 567.646H83.2133L86.98 568.915L87.7191 562.605L85.7126 558.834L86.7335 555.556L89.7608 556.05L92.5418 558.059L95.5692 560.844L97.8222 558.587L101.342 560.103L107.151 560.844L111.445 562.605L112.466 558.059L109.439 555.803L105.144 554.781L102.363 551.996L99.336 550.973L103.103 546.955L108.629 544.417L113.417 546.426L117.711 544.664L121.725 548.964L127.78 555.52L133.306 549.986L137.073 547.73L136.052 542.196L139.571 538.671L143.093 539.165L142.846 535.146L152.174 533.877L153.935 529.576L155.941 527.039L157.877 528.977V532.15H162.243L164.002 534.617H167.522L169.811 532.327H176.288L182.167 526.439L183.997 520.376H191.179L194.699 517.203L198.395 517.908L199.275 520.729L203.147 522.844H208.287L207.935 527.25L209.519 533.207L215.116 533.912L218.46 535.675V538.671L223.564 538.494L229.514 544.276L230.217 551.291L225.642 555.697L228.985 558.87L230.816 557.036L234.407 558.34L235.463 563.452L237.821 565.814H241.412L242.116 569.586L245.179 572.652L245.355 577.693L243.595 581.712L240.32 584.109H235.428L231.52 588.021L228.247 591.299V595.847L223.952 597.609L219.411 597.362L216.137 600.641L212.088 603.426L213.708 608.325L217.369 611.992L215.855 618.548L212.581 621.826L215.855 623.836L220.643 628.383L223.67 631.415L222.402 637.971L223.775 646.537V653.482L221.136 656.125L218.601 653.34L214.834 652.847L215.327 657.394L217.475 661.8L220.607 664.937L218.072 667.475L213.778 667.969H210.258H207.477H205.224C205.224 667.969 202.196 668.357 199.803 668.357C197.41 668.357 197.902 666.453 197.902 666.453L194.136 665.431L192.375 663.668L187.834 662.893V666.417L184.314 667.934L180.019 672.974H175.232L169.952 674.49L166.854 673.679L167.206 669.309L165.974 666.136L163.263 665.114L161.574 662.505L158.159 660.073L158.124 654.221L155.976 651.084L155.378 647.313L152.562 644.493V641.531L150.52 638.817L148.056 636.35L146.19 632.789L147.985 629.369L146.331 624.893L143.973 622.497L143.233 619.465L140.769 616.539L140.311 612.873L137.39 611.71L132.919 612.52L130.948 610.511L129.822 607.162L127.744 607.867H125.139L124.118 604.589L121.267 603.179L119.366 601.135L116.55 601.276L114.473 603.426L110.882 603.919L109.615 601.91L107.573 601.24L105.813 603.39L105.778 606.457L103.666 609.453L105.602 611.04L107.045 614.107L105.003 617.384L107.397 619.888L103.173 623.095L100.603 623.871L101.589 627.431L100.322 630.146L96.3437 634.94L91.5562 634.904L89.4088 631.697L87.9304 628.63L85.5014 628.594L82.9316 631.132L79.3762 631.697L76.4544 634.727Z" fill="#F8F8F8" stroke="#D1D1D1"/>
<rect x="149" y="432" width="40" height="40" rx="20" fill="#F8661C"/>
<path fill-rule="evenodd" clip-rule="evenodd" d="M171.318 445.53C171.216 445.941 170.404 448.411 168.881 449.851C167.257 448.514 166.344 445.53 166.344 445.53C165.329 447.176 164.517 449.234 164.517 449.234C164.517 449.234 166.141 454.07 168.881 456.231C171.622 453.864 173.145 449.131 173.145 449.131C173.145 449.131 172.536 447.382 171.318 445.53ZM171.318 444.501C171.318 444.501 170.506 447.176 168.881 448.617C167.359 447.382 166.445 444.501 166.445 444.501C166.445 444.501 167.359 442.134 168.881 440.797C170.506 442.032 171.318 444.501 171.318 444.501ZM172.942 450.777C173.855 452.527 174.363 453.864 174.363 453.864C174.363 453.864 172.333 460.861 168.881 463.947C165.329 461.067 163.4 453.967 163.4 453.967V453.761C163.501 453.453 163.907 452.321 164.72 450.88C165.227 452.218 166.75 455.819 168.881 457.671C171.318 455.51 172.536 451.909 172.942 450.777Z" fill="white"/>
<rect x="235" y="365" width="40" height="40" rx="20" fill="#F8661C"/>
<path fill-rule="evenodd" clip-rule="evenodd" d="M257.318 378.53C257.216 378.941 256.404 381.411 254.881 382.851C253.257 381.514 252.344 378.53 252.344 378.53C251.329 380.176 250.517 382.234 250.517 382.234C250.517 382.234 252.141 387.07 254.881 389.231C257.622 386.864 259.145 382.131 259.145 382.131C259.145 382.131 258.536 380.382 257.318 378.53ZM257.318 377.501C257.318 377.501 256.506 380.176 254.881 381.617C253.359 380.382 252.445 377.501 252.445 377.501C252.445 377.501 253.359 375.134 254.881 373.797C256.506 375.032 257.318 377.501 257.318 377.501ZM258.942 383.777C259.855 385.527 260.363 386.864 260.363 386.864C260.363 386.864 258.333 393.861 254.881 396.947C251.329 394.067 249.4 386.967 249.4 386.967V386.761C249.501 386.453 249.907 385.321 250.72 383.88C251.227 385.218 252.75 388.819 254.881 390.671C257.318 388.51 258.536 384.909 258.942 383.777Z" fill="white"/>
<rect x="312" y="452" width="40" height="40" rx="20" fill="#F8661C"/>
<path fill-rule="evenodd" clip-rule="evenodd" d="M334.318 465.53C334.216 465.941 333.404 468.411 331.881 469.851C330.257 468.514 329.344 465.53 329.344 465.53C328.329 467.176 327.517 469.234 327.517 469.234C327.517 469.234 329.141 474.07 331.881 476.231C334.622 473.864 336.145 469.131 336.145 469.131C336.145 469.131 335.536 467.382 334.318 465.53ZM334.318 464.501C334.318 464.501 333.506 467.176 331.881 468.617C330.359 467.382 329.445 464.501 329.445 464.501C329.445 464.501 330.359 462.134 331.881 460.797C333.506 462.032 334.318 464.501 334.318 464.501ZM335.942 470.777C336.855 472.527 337.363 473.864 337.363 473.864C337.363 473.864 335.333 480.861 331.881 483.947C328.329 481.067 326.4 473.967 326.4 473.967V473.761C326.501 473.453 326.907 472.321 327.72 470.88C328.227 472.218 329.75 475.819 331.881 477.671C334.318 475.51 335.536 471.909 335.942 470.777Z" fill="white"/>
<rect x="428" y="427" width="40" height="40" rx="20" fill="#F8661C"/>
<path fill-rule="evenodd" clip-rule="evenodd" d="M450.318 440.53C450.216 440.941 449.404 443.411 447.881 444.851C446.257 443.514 445.344 440.53 445.344 440.53C444.329 442.176 443.517 444.234 443.517 444.234C443.517 444.234 445.141 449.07 447.881 451.231C450.622 448.864 452.145 444.131 452.145 444.131C452.145 444.131 451.536 442.382 450.318 440.53ZM450.318 439.501C450.318 439.501 449.506 442.176 447.881 443.617C446.359 442.382 445.445 439.501 445.445 439.501C445.445 439.501 446.359 437.134 447.881 435.797C449.506 437.032 450.318 439.501 450.318 439.501ZM451.942 445.777C452.855 447.527 453.363 448.864 453.363 448.864C453.363 448.864 451.333 455.861 447.881 458.947C444.329 456.067 442.4 448.967 442.4 448.967V448.761C442.501 448.453 442.907 447.321 443.72 445.88C444.227 447.218 445.75 450.819 447.881 452.671C450.318 450.51 451.536 446.909 451.942 445.777Z" fill="white"/>
<rect x="399" y="362" width="40" height="40" rx="20" fill="#F8661C"/>
<path fill-rule="evenodd" clip-rule="evenodd" d="M421.318 375.53C421.216 375.941 420.404 378.411 418.881 379.851C417.257 378.514 416.344 375.53 416.344 375.53C415.329 377.176 414.517 379.234 414.517 379.234C414.517 379.234 416.141 384.07 418.881 386.231C421.622 383.864 423.145 379.131 423.145 379.131C423.145 379.131 422.536 377.382 421.318 375.53ZM421.318 374.501C421.318 374.501 420.506 377.176 418.881 378.617C417.359 377.382 416.445 374.501 416.445 374.501C416.445 374.501 417.359 372.134 418.881 370.797C420.506 372.032 421.318 374.501 421.318 374.501ZM422.942 380.777C423.855 382.527 424.363 383.864 424.363 383.864C424.363 383.864 422.333 390.861 418.881 393.947C415.329 391.067 413.4 383.967 413.4 383.967V383.761C413.501 383.453 413.907 382.321 414.72 380.88C415.227 382.218 416.75 385.819 418.881 387.671C421.318 385.51 422.536 381.909 422.942 380.777Z" fill="white"/>
<rect x="343" y="566" width="40" height="40" rx="20" fill="#F8661C"/>
<path fill-rule="evenodd" clip-rule="evenodd" d="M365.318 579.53C365.216 579.941 364.404 582.411 362.881 583.851C361.257 582.514 360.344 579.53 360.344 579.53C359.329 581.176 358.517 583.234 358.517 583.234C358.517 583.234 360.141 588.07 362.881 590.231C365.622 587.864 367.145 583.131 367.145 583.131C367.145 583.131 366.536 581.382 365.318 579.53ZM365.318 578.501C365.318 578.501 364.506 581.176 362.881 582.617C361.359 581.382 360.445 578.501 360.445 578.501C360.445 578.501 361.359 576.134 362.881 574.797C364.506 576.032 365.318 578.501 365.318 578.501ZM366.942 584.777C367.855 586.527 368.363 587.864 368.363 587.864C368.363 587.864 366.333 594.861 362.881 597.947C359.329 595.067 357.4 587.967 357.4 587.967V587.761C357.501 587.453 357.907 586.321 358.72 584.88C359.227 586.218 360.75 589.819 362.881 591.671C365.318 589.51 366.536 585.909 366.942 584.777Z" fill="white"/>
</g>
<defs>
<clipPath id="clip0_2288_114850">
<rect width="1621" height="779" fill="white"/>
</clipPath>
</defs>
</svg>
