<svg width="24" height="24" viewBox="0 0 24 24" fill="none" xmlns="http://www.w3.org/2000/svg">
<path fill-rule="evenodd" clip-rule="evenodd" d="M17.6612 20.7058L21.0752 17.2918C21.4662 16.9008 21.4662 16.2678 21.0752 15.8778L19.4892 14.2918C19.0982 13.9008 18.4652 13.9008 18.0752 14.2918L14.6612 17.7058C14.4732 17.8938 14.3682 18.1478 14.3682 18.4128V20.9988H16.9542C17.2192 20.9988 17.4732 20.8938 17.6612 20.7058V20.7058Z" stroke="white" stroke-linecap="round" stroke-linejoin="round"/>
<path d="M7.00146 12.7368H11.0015" stroke="white" stroke-linecap="round" stroke-linejoin="round"/>
<path d="M6.94727 16.4211H8.21042" stroke="white" stroke-linecap="round" stroke-linejoin="round"/>
<path d="M7.00146 9.00171H15.0015" stroke="white" stroke-linecap="round" stroke-linejoin="round"/>
<path d="M18.9472 11.1159V7.45271C18.9472 5.42942 17.6219 3.78955 15.9867 3.78955H6.11824C4.48304 3.78955 3.15771 5.42942 3.15771 7.45271V18.4422C3.15771 20.4655 4.48304 22.1053 6.11824 22.1053H11.0525" stroke="white" stroke-linecap="round" stroke-linejoin="round"/>
</svg>
