<svg width="24" height="24" viewBox="0 0 24 24" fill="none" xmlns="http://www.w3.org/2000/svg">
<path fill-rule="evenodd" clip-rule="evenodd" d="M4.38028 12.3973C4.24564 12.1477 4.24564 11.845 4.38028 11.5955C6.00285 8.59474 9.00014 5.99365 11.9974 5.99365C14.9947 5.99365 17.992 8.59474 19.6146 11.5963C19.7492 11.8459 19.7492 12.1486 19.6146 12.3982C17.992 15.3989 14.9947 18 11.9974 18C9.00014 18 6.00285 15.3989 4.38028 12.3973Z" stroke="white" stroke-width="0.857982" stroke-linecap="round" stroke-linejoin="round"/>
<path fill-rule="evenodd" clip-rule="evenodd" d="M13.8183 10.1752C14.823 11.1799 14.823 12.8089 13.8183 13.8136C12.8136 14.8184 11.1846 14.8184 10.1798 13.8136C9.17509 12.8089 9.17509 11.1799 10.1798 10.1752C11.1846 9.17045 12.8136 9.17045 13.8183 10.1752Z" fill="currentColor"/>
</svg>
