<svg width="16" height="16" viewBox="0 0 16 16" fill="none" xmlns="http://www.w3.org/2000/svg">
<path d="M12 3.33333H14" stroke="#2A2A2A" stroke-linecap="round" stroke-linejoin="round"/>
<path d="M2 3.33333H9.33333" stroke="#2A2A2A" stroke-linecap="round" stroke-linejoin="round"/>
<path d="M6.66797 8.0013H14.0013" stroke="#2A2A2A" stroke-linecap="round" stroke-linejoin="round"/>
<path d="M2 8.0013H4" stroke="#2A2A2A" stroke-linecap="round" stroke-linejoin="round"/>
<path d="M12 12.6654H14" stroke="#2A2A2A" stroke-linecap="round" stroke-linejoin="round"/>
<path d="M2 12.6654H9.33333" stroke="#2A2A2A" stroke-linecap="round" stroke-linejoin="round"/>
<path d="M11.6082 2.39052C12.1289 2.91122 12.1289 3.75544 11.6082 4.27614C11.0875 4.79684 10.2433 4.79684 9.72256 4.27614C9.20186 3.75545 9.20186 2.91122 9.72256 2.39052C10.2433 1.86983 11.0875 1.86983 11.6082 2.39052" stroke="#2A2A2A" stroke-linecap="round" stroke-linejoin="round"/>
<path d="M6.27614 7.05849C6.79684 7.57919 6.79684 8.42341 6.27614 8.94411C5.75545 9.46481 4.91122 9.46481 4.39052 8.94411C3.86983 8.42341 3.86983 7.57919 4.39052 7.05849C4.91122 6.53779 5.75544 6.53779 6.27614 7.05849" stroke="#2A2A2A" stroke-linecap="round" stroke-linejoin="round"/>
<path d="M11.6082 11.7226C12.1289 12.2433 12.1289 13.0875 11.6082 13.6082C11.0875 14.1289 10.2433 14.1289 9.72256 13.6082C9.20186 13.0875 9.20186 12.2433 9.72256 11.7226C10.2433 11.2019 11.0875 11.2019 11.6082 11.7226" stroke="#2A2A2A" stroke-linecap="round" stroke-linejoin="round"/>
</svg>
