<svg width="31" height="31" viewBox="0 0 31 31" fill="none" xmlns="http://www.w3.org/2000/svg">
<g clip-path="url(#clip0_1123_21042)">
<circle cx="15.1432" cy="15.1432" r="15.1432" fill="#D9D9D9"/>
<g clip-path="url(#clip1_1123_21042)">
<path d="M42.6627 29.994H-1.53859C-1.97493 29.994 -2.32812 29.6408 -2.32812 29.2045V0.78953C-2.32812 0.353186 -1.97493 0 -1.53859 0H42.6636C43.0999 0 43.4531 0.353186 43.4531 0.78953V29.2045C43.4522 29.6408 43.099 29.994 42.6627 29.994Z" fill="#FF0000"/>
<path d="M43.4522 2.30778H-2.32812V0.78953C-2.32812 0.353186 -1.97493 0 -1.53859 0H42.6636C43.0999 0 43.4531 0.353186 43.4531 0.78953L43.4522 2.30778Z" fill="#FF4B55"/>
<path d="M43.4522 9.22656H-2.32812V11.5334H43.4522V9.22656Z" fill="#FF4B55"/>
<path d="M43.4522 4.61719H-2.32812V6.92407H43.4522V4.61719Z" fill="#FF4B55"/>
<path d="M43.4522 16.1515H-1.53859C-1.97493 16.1515 -2.32812 15.7983 -2.32812 15.362V13.8438H43.4522V16.1515Z" fill="#FF4B55"/>
<path d="M43.4522 23.0703H-2.32812V25.3772H43.4522V23.0703Z" fill="#FF4B55"/>
<path d="M42.6627 29.9875H-1.53859C-1.97493 29.9875 -2.32812 29.6343 -2.32812 29.1979V27.6797H43.4522V29.1979C43.4522 29.6343 43.099 29.9875 42.6627 29.9875Z" fill="#FF4B55"/>
<path d="M43.4522 18.4531H-2.32812V20.76H43.4522V18.4531Z" fill="#FF4B55"/>
<path d="M18.1943 0H-1.53859C-1.97493 0 -2.32812 0.353186 -2.32812 0.78953V15.3613C-2.32812 15.7977 -1.97493 16.1509 -1.53859 16.1509H18.1943C18.6307 16.1509 18.9838 15.7977 18.9838 15.3613V0.78953C18.9838 0.353186 18.6298 0 18.1943 0Z" fill="#41479B"/>
<path d="M2.00649 3.14471L2.18085 3.66868L2.73343 3.67315C2.80496 3.67404 2.83447 3.76525 2.77725 3.80728L2.33285 4.13542L2.49917 4.66207C2.52063 4.73003 2.44283 4.78636 2.38471 4.74523L1.93495 4.42423L1.4852 4.74523C1.42708 4.78636 1.34929 4.73003 1.37075 4.66207L1.53706 4.13542L1.09267 3.80728C1.03545 3.76436 1.06495 3.67404 1.13648 3.67315L1.68907 3.66868L1.86521 3.14471C1.88846 3.07676 1.98414 3.07676 2.00649 3.14471Z" fill="#FF0000"/>
<path d="M2.00649 5.89471L2.18085 6.41868L2.73343 6.42315C2.80496 6.42404 2.83447 6.51525 2.77725 6.55728L2.33285 6.88542L2.49917 7.41205C2.52063 7.48005 2.44283 7.53633 2.38471 7.49523L1.93495 7.17424L1.4852 7.49523C1.42708 7.53633 1.34929 7.48094 1.37075 7.41205L1.53706 6.88542L1.09267 6.55728C1.03545 6.51436 1.06495 6.42404 1.13648 6.42315L1.68907 6.41868L1.86521 5.89471C1.88846 5.82676 1.98414 5.82676 2.00649 5.89471Z" fill="#FF0000"/>
<path d="M2.00649 8.62912L2.18085 9.15306L2.73343 9.15755C2.80496 9.15844 2.83447 9.24964 2.77725 9.29163L2.33285 9.61983L2.49917 10.1464C2.52063 10.2144 2.44283 10.2707 2.38471 10.2296L1.93495 9.90861L1.4852 10.2296C1.42708 10.2707 1.34929 10.2144 1.37075 10.1464L1.53706 9.61983L1.09267 9.29163C1.03545 9.24876 1.06495 9.15844 1.13648 9.15755L1.68907 9.15306L1.86521 8.62912C1.88846 8.56113 1.98414 8.56113 2.00649 8.62912Z" fill="#FF0000"/>
<path d="M2.00649 11.3706L2.18085 11.8946L2.73343 11.8991C2.80496 11.9 2.83447 11.9912 2.77725 12.0332L2.33285 12.3614L2.49917 12.888C2.52063 12.956 2.44283 13.0122 2.38471 12.9711L1.93495 12.6502L1.4852 12.9711C1.42708 13.0122 1.34929 12.956 1.37075 12.888L1.53706 12.3614L1.09267 12.0332C1.03545 11.9903 1.06495 11.9 1.13648 11.8991L1.68907 11.8946L1.86343 11.3706C1.88846 11.3036 1.98414 11.3036 2.00649 11.3706Z" fill="#FF0000"/>
<path d="M4.1393 1.80096L4.31366 2.32493L4.86624 2.3294C4.93777 2.33029 4.96728 2.4215 4.91006 2.46353L4.46566 2.79167L4.63198 3.31832C4.65344 3.38628 4.57564 3.44261 4.51752 3.40148L4.06777 3.08048L3.61801 3.40148C3.55989 3.44261 3.4821 3.38628 3.50356 3.31832L3.66988 2.79167L3.22548 2.46353C3.16826 2.42061 3.19777 2.3294 3.2693 2.3294L3.82188 2.32493L3.99624 1.80096C4.02038 1.73301 4.11605 1.73301 4.1393 1.80096Z" fill="#FF0000"/>
<path d="M4.14533 4.54315L4.31969 5.06712L4.87227 5.07159C4.9438 5.07249 4.9733 5.16368 4.91608 5.20571L4.47169 5.53387L4.638 6.06051C4.65946 6.12847 4.58167 6.18479 4.52354 6.14366L4.07379 5.82267L3.62404 6.14366C3.56592 6.18479 3.48813 6.12847 3.50959 6.06051L3.67769 5.53387L3.2333 5.20571C3.17607 5.16279 3.20558 5.07249 3.27711 5.07159L3.82969 5.06712L4.00405 4.54315C4.0264 4.4752 4.12208 4.4752 4.14533 4.54315Z" fill="#FF0000"/>
<path d="M4.1393 7.29316L4.31366 7.81714L4.86624 7.82156C4.93777 7.82252 4.96728 7.91372 4.91006 7.95571L4.46566 8.28383L4.63198 8.8105C4.65344 8.87849 4.57564 8.93478 4.51752 8.89367L4.06777 8.57269L3.61801 8.89367C3.55989 8.93478 3.4821 8.87849 3.50356 8.8105L3.66988 8.28383L3.22548 7.95571C3.16826 7.91276 3.19777 7.82252 3.2693 7.82156L3.82188 7.81714L3.99624 7.29316C4.02038 7.2252 4.11605 7.2252 4.1393 7.29316Z" fill="#FF0000"/>
<path d="M4.1393 10.0275L4.31366 10.5515L4.86624 10.5559C4.93777 10.5568 4.96728 10.648 4.91006 10.6901L4.46566 11.0182L4.63198 11.5449C4.65344 11.6128 4.57564 11.6692 4.51752 11.628L4.06777 11.3071L3.61801 11.628C3.55989 11.6692 3.4821 11.6128 3.50356 11.5449L3.66988 11.0182L3.22548 10.6901C3.16826 10.6471 3.19777 10.5568 3.2693 10.5559L3.82188 10.5515L3.99624 10.0275C4.02038 9.95958 4.11605 9.95958 4.1393 10.0275Z" fill="#FF0000"/>
<path d="M4.1393 12.7697L4.31366 13.2937L4.86624 13.2981C4.93777 13.2991 4.96728 13.3903 4.91006 13.4323L4.46566 13.7604L4.63198 14.2871C4.65344 14.3551 4.57564 14.4113 4.51752 14.3702L4.06777 14.0493L3.61801 14.3702C3.55989 14.4113 3.4821 14.3551 3.50356 14.2871L3.66988 13.7604L3.22548 13.4323C3.16826 13.3893 3.19777 13.2991 3.2693 13.2981L3.82188 13.2937L3.99624 12.7697C4.02038 12.7018 4.11605 12.7018 4.1393 12.7697Z" fill="#FF0000"/>
<path d="M6.27212 3.14471L6.44647 3.66868L6.99906 3.67315C7.07059 3.67404 7.10009 3.76525 7.04287 3.80728L6.59848 4.13542L6.76479 4.66207C6.78625 4.73003 6.70846 4.78636 6.65033 4.74523L6.20058 4.42423L5.75082 4.74523C5.69271 4.78636 5.61492 4.73003 5.63638 4.66207L5.80269 4.13542L5.3583 3.80728C5.30107 3.76436 5.33058 3.67404 5.40211 3.67315L5.95469 3.66868L6.12905 3.14471C6.15319 3.07676 6.24976 3.07676 6.27212 3.14471Z" fill="#FF0000"/>
<path d="M6.27212 5.89471L6.44647 6.41868L6.99906 6.42315C7.07059 6.42404 7.10009 6.51525 7.04287 6.55728L6.59848 6.88542L6.76479 7.41205C6.78625 7.48005 6.70846 7.53633 6.65033 7.49523L6.20058 7.17424L5.75082 7.49523C5.69271 7.53633 5.61492 7.48094 5.63638 7.41205L5.80269 6.88542L5.3583 6.55728C5.30107 6.51436 5.33058 6.42404 5.40211 6.42315L5.95469 6.41868L6.12905 5.89471C6.15319 5.82676 6.24976 5.82676 6.27212 5.89471Z" fill="#FF0000"/>
<path d="M6.27212 8.62912L6.44647 9.15306L6.99906 9.15755C7.07059 9.15844 7.10009 9.24964 7.04287 9.29163L6.59848 9.61983L6.76479 10.1464C6.78625 10.2144 6.70846 10.2707 6.65033 10.2296L6.20058 9.90861L5.75082 10.2296C5.69271 10.2707 5.61492 10.2144 5.63638 10.1464L5.80269 9.61983L5.3583 9.29163C5.30107 9.24876 5.33058 9.15844 5.40211 9.15755L5.95469 9.15306L6.12905 8.62912C6.15319 8.56113 6.24976 8.56113 6.27212 8.62912Z" fill="#FF0000"/>
<path d="M6.27212 11.3706L6.44647 11.8946L6.99906 11.8991C7.07059 11.9 7.10009 11.9912 7.04287 12.0332L6.59848 12.3614L6.76479 12.888C6.78625 12.956 6.70846 13.0122 6.65033 12.9711L6.20058 12.6502L5.75082 12.9711C5.69271 13.0122 5.61492 12.956 5.63638 12.888L5.80269 12.3614L5.3583 12.0332C5.30107 11.9903 5.33058 11.9 5.40211 11.8991L5.95469 11.8946L6.12905 11.3706C6.15319 11.3036 6.24976 11.3036 6.27212 11.3706Z" fill="#FF0000"/>
<path d="M8.39709 1.80096L8.57147 2.32493L9.12406 2.3294C9.1956 2.33029 9.22506 2.4215 9.1679 2.46353L8.72345 2.79167L8.88979 3.31832C8.91123 3.38628 8.83344 3.44261 8.77531 3.40148L8.32556 3.08048L7.87582 3.40148C7.81771 3.44261 7.73992 3.38628 7.76137 3.31832L7.92769 2.79167L7.4833 2.46353C7.42607 2.42061 7.45558 2.3294 7.52711 2.3294L8.07969 2.32493L8.25403 1.80096C8.27907 1.73301 8.37477 1.73301 8.39709 1.80096Z" fill="#FF0000"/>
<path d="M8.39709 4.54315L8.57147 5.06712L9.12406 5.07159C9.1956 5.07249 9.22506 5.16368 9.1679 5.20571L8.72345 5.53387L8.88979 6.06051C8.91123 6.12847 8.83344 6.18479 8.77531 6.14366L8.32556 5.82267L7.87582 6.14366C7.81771 6.18479 7.73992 6.12847 7.76137 6.06051L7.92769 5.53387L7.4833 5.20571C7.42607 5.16279 7.45558 5.07249 7.52711 5.07159L8.07969 5.06712L8.25403 4.54315C8.27907 4.4752 8.37477 4.4752 8.39709 4.54315Z" fill="#FF0000"/>
<path d="M8.39709 7.29316L8.57147 7.81714L9.12406 7.82156C9.1956 7.82252 9.22506 7.91372 9.1679 7.95571L8.72345 8.28383L8.88979 8.8105C8.91123 8.87849 8.83344 8.93478 8.77531 8.89367L8.32556 8.57269L7.87582 8.89367C7.81771 8.93478 7.73992 8.87849 7.76137 8.8105L7.92769 8.28383L7.4833 7.95571C7.42607 7.91276 7.45558 7.82252 7.52711 7.82156L8.07969 7.81714L8.25403 7.29316C8.27907 7.2252 8.37477 7.2252 8.39709 7.29316Z" fill="#FF0000"/>
<path d="M8.39709 10.0275L8.57147 10.5515L9.12406 10.5559C9.1956 10.5568 9.22506 10.648 9.1679 10.6901L8.72345 11.0182L8.88979 11.5449C8.91123 11.6128 8.83344 11.6692 8.77531 11.628L8.32556 11.3071L7.87582 11.628C7.81771 11.6692 7.73992 11.6128 7.76137 11.5449L7.92769 11.0182L7.4833 10.6901C7.42607 10.6471 7.45558 10.5568 7.52711 10.5559L8.07969 10.5515L8.25403 10.0275C8.27907 9.95958 8.37477 9.95958 8.39709 10.0275Z" fill="#FF0000"/>
<path d="M8.39709 12.7697L8.57147 13.2937L9.12406 13.2981C9.1956 13.2991 9.22506 13.3903 9.1679 13.4323L8.72345 13.7604L8.88979 14.2871C8.91123 14.3551 8.83344 14.4113 8.77531 14.3702L8.32556 14.0493L7.87582 14.3702C7.81771 14.4113 7.73992 14.3551 7.76137 14.2871L7.92769 13.7604L7.4833 13.4323C7.42607 13.3893 7.45558 13.2991 7.52711 13.2981L8.07969 13.2937L8.25403 12.7697C8.27907 12.7018 8.37477 12.7018 8.39709 12.7697Z" fill="#FF0000"/>
<path d="M10.5203 3.14471L10.6947 3.66868L11.2473 3.67315C11.3188 3.67404 11.3483 3.76525 11.2911 3.80728L10.8467 4.13542L11.013 4.66207C11.0345 4.73003 10.9567 4.78636 10.8985 4.74523L10.4497 4.42423L10.0008 4.74523C9.94276 4.78636 9.86496 4.73003 9.8864 4.66207L10.0527 4.13542L9.6083 3.80728C9.55106 3.76436 9.5806 3.67404 9.65213 3.67315L10.2047 3.66868L10.3791 3.14471C10.4014 3.07676 10.4971 3.07676 10.5203 3.14471Z" fill="#FF0000"/>
<path d="M10.5203 5.89471L10.6947 6.41868L11.2473 6.42315C11.3188 6.42404 11.3483 6.51525 11.2911 6.55728L10.8467 6.88542L11.013 7.41205C11.0345 7.48005 10.9567 7.53633 10.8985 7.49523L10.4497 7.17424L10.0008 7.49523C9.94276 7.53633 9.86496 7.48094 9.8864 7.41205L10.0527 6.88542L9.6083 6.55728C9.55106 6.51436 9.5806 6.42404 9.65213 6.42315L10.2047 6.41868L10.3791 5.89471C10.4014 5.82676 10.4971 5.82676 10.5203 5.89471Z" fill="#FF0000"/>
<path d="M10.5203 8.62912L10.6947 9.15306L11.2473 9.15755C11.3188 9.15844 11.3483 9.24964 11.2911 9.29163L10.8467 9.61983L11.013 10.1464C11.0345 10.2144 10.9567 10.2707 10.8985 10.2296L10.4497 9.90861L10.0008 10.2296C9.94276 10.2707 9.86496 10.2144 9.8864 10.1464L10.0527 9.61983L9.6083 9.29163C9.55106 9.24876 9.5806 9.15844 9.65213 9.15755L10.2047 9.15306L10.3791 8.62912C10.4014 8.56113 10.4971 8.56113 10.5203 8.62912Z" fill="#FF0000"/>
<path d="M10.5203 11.3706L10.6947 11.8946L11.2473 11.8991C11.3188 11.9 11.3483 11.9912 11.2911 12.0332L10.8467 12.3614L11.013 12.888C11.0345 12.956 10.9567 13.0122 10.8985 12.9711L10.4497 12.6502L10.0008 12.9711C9.94276 13.0122 9.86496 12.956 9.8864 12.888L10.0527 12.3614L9.6083 12.0332C9.55106 11.9903 9.5806 11.9 9.65213 11.8991L10.2047 11.8946L10.3791 11.3706C10.4014 11.3036 10.4971 11.3036 10.5203 11.3706Z" fill="#FF0000"/>
<path d="M12.6453 1.80096L12.8197 2.32493L13.3722 2.3294C13.4438 2.33029 13.4733 2.4215 13.4161 2.46353L12.9717 2.79167L13.138 3.31832C13.1595 3.38628 13.0817 3.44261 13.0235 3.40148L12.5747 3.08048L12.1258 3.40148C12.0677 3.44261 11.9899 3.38628 12.0114 3.31832L12.1777 2.79167L11.7333 2.46353C11.6761 2.42061 11.7056 2.3294 11.7771 2.3294L12.3297 2.32493L12.504 1.80096C12.5264 1.73301 12.6229 1.73301 12.6453 1.80096Z" fill="#FF0000"/>
<path d="M12.6453 4.54315L12.8197 5.06712L13.3722 5.07159C13.4438 5.07249 13.4733 5.16368 13.4161 5.20571L12.9717 5.53387L13.138 6.06051C13.1595 6.12847 13.0817 6.18479 13.0235 6.14366L12.5747 5.82267L12.1258 6.14366C12.0677 6.18479 11.9899 6.12847 12.0114 6.06051L12.1777 5.53387L11.7333 5.20571C11.6761 5.16279 11.7056 5.07249 11.7771 5.07159L12.3297 5.06712L12.504 4.54315C12.5264 4.4752 12.6229 4.4752 12.6453 4.54315Z" fill="#FF0000"/>
<path d="M12.6453 7.29316L12.8197 7.81714L13.3722 7.82156C13.4438 7.82252 13.4733 7.91372 13.4161 7.95571L12.9717 8.28383L13.138 8.8105C13.1595 8.87849 13.0817 8.93478 13.0235 8.89367L12.5747 8.57269L12.1258 8.89367C12.0677 8.93478 11.9899 8.87849 12.0114 8.8105L12.1777 8.28383L11.7333 7.95571C11.6761 7.91276 11.7056 7.82252 11.7771 7.82156L12.3297 7.81714L12.504 7.29316C12.5264 7.2252 12.6229 7.2252 12.6453 7.29316Z" fill="#FF0000"/>
<path d="M12.6453 10.0275L12.8197 10.5515L13.3722 10.5559C13.4438 10.5568 13.4733 10.648 13.4161 10.6901L12.9717 11.0182L13.138 11.5449C13.1595 11.6128 13.0817 11.6692 13.0235 11.628L12.5747 11.3071L12.1258 11.628C12.0677 11.6692 11.9899 11.6128 12.0114 11.5449L12.1777 11.0182L11.7333 10.6901C11.6761 10.6471 11.7056 10.5568 11.7771 10.5559L12.3297 10.5515L12.504 10.0275C12.5264 9.95958 12.6229 9.95958 12.6453 10.0275Z" fill="#FF0000"/>
<path d="M12.6453 12.7697L12.8197 13.2937L13.3722 13.2981C13.4438 13.2991 13.4733 13.3903 13.4161 13.4323L12.9717 13.7604L13.138 14.2871C13.1595 14.3551 13.0817 14.4113 13.0235 14.3702L12.5747 14.0493L12.1258 14.3702C12.0677 14.4113 11.9899 14.3551 12.0114 14.2871L12.1777 13.7604L11.7333 13.4323C11.6761 13.3893 11.7056 13.2991 11.7771 13.2981L12.3297 13.2937L12.504 12.7697C12.5264 12.7018 12.6229 12.7018 12.6453 12.7697Z" fill="#FF0000"/>
<path d="M14.7781 3.14471L14.9525 3.66868L15.5051 3.67315C15.5766 3.67404 15.6061 3.76525 15.5489 3.80728L15.1045 4.13542L15.2708 4.66207C15.2923 4.73003 15.2145 4.78636 15.1564 4.74523L14.7075 4.42423L14.2586 4.74523C14.2005 4.78636 14.1228 4.73003 14.1442 4.66207L14.3105 4.13542L13.8661 3.80728C13.8089 3.76436 13.8384 3.67404 13.9099 3.67315L14.4625 3.66868L14.6368 3.14471C14.6601 3.07676 14.7558 3.07676 14.7781 3.14471Z" fill="#FF0000"/>
<path d="M14.7781 5.89471L14.9525 6.41868L15.5051 6.42315C15.5766 6.42404 15.6061 6.51525 15.5489 6.55728L15.1045 6.88542L15.2708 7.41205C15.2923 7.48005 15.2145 7.53633 15.1564 7.49523L14.7075 7.17424L14.2586 7.49523C14.2005 7.53633 14.1228 7.48094 14.1442 7.41205L14.3105 6.88542L13.8661 6.55728C13.8089 6.51436 13.8384 6.42404 13.9099 6.42315L14.4625 6.41868L14.6368 5.89471C14.6601 5.82676 14.7558 5.82676 14.7781 5.89471Z" fill="#FF0000"/>
<path d="M14.7781 8.62912L14.9525 9.15306L15.5051 9.15755C15.5766 9.15844 15.6061 9.24964 15.5489 9.29163L15.1045 9.61983L15.2708 10.1464C15.2923 10.2144 15.2145 10.2707 15.1564 10.2296L14.7075 9.90861L14.2586 10.2296C14.2005 10.2707 14.1228 10.2144 14.1442 10.1464L14.3105 9.61983L13.8661 9.29163C13.8089 9.24876 13.8384 9.15844 13.9099 9.15755L14.4625 9.15306L14.6368 8.62912C14.6601 8.56113 14.7558 8.56113 14.7781 8.62912Z" fill="#FF0000"/>
<path d="M14.7781 11.3706L14.9525 11.8946L15.5051 11.8991C15.5766 11.9 15.6061 11.9912 15.5489 12.0332L15.1045 12.3614L15.2708 12.888C15.2923 12.956 15.2145 13.0122 15.1564 12.9711L14.7075 12.6502L14.2586 12.9711C14.2005 13.0122 14.1228 12.956 14.1442 12.888L14.3105 12.3614L13.8661 12.0332C13.8089 11.9903 13.8384 11.9 13.9099 11.8991L14.4625 11.8946L14.6368 11.3706C14.6601 11.3036 14.7558 11.3036 14.7781 11.3706Z" fill="#FF0000"/>
<path d="M16.911 1.80096L17.0853 2.32493L17.6378 2.3294C17.7094 2.33029 17.7389 2.4215 17.6817 2.46353L17.2373 2.79167L17.4036 3.31832C17.4251 3.38628 17.3473 3.44261 17.2892 3.40148L16.8403 3.08048L16.3914 3.40148C16.3333 3.44261 16.2555 3.38628 16.277 3.31832L16.4433 2.79167L15.9989 2.46353C15.9417 2.42061 15.9712 2.3294 16.0428 2.3294L16.5953 2.32493L16.7697 1.80096C16.792 1.73301 16.8877 1.73301 16.911 1.80096Z" fill="#FF0000"/>
<path d="M16.911 4.54315L17.0853 5.06712L17.6378 5.07159C17.7094 5.07249 17.7389 5.16368 17.6817 5.20571L17.2373 5.53387L17.4036 6.06051C17.4251 6.12847 17.3473 6.18479 17.2892 6.14366L16.8403 5.82267L16.3914 6.14366C16.3333 6.18479 16.2555 6.12847 16.277 6.06051L16.4433 5.53387L15.9989 5.20571C15.9417 5.16279 15.9712 5.07249 16.0428 5.07159L16.5953 5.06712L16.7697 4.54315C16.792 4.4752 16.8877 4.4752 16.911 4.54315Z" fill="#FF0000"/>
<path d="M16.911 7.29316L17.0853 7.81714L17.6378 7.82156C17.7094 7.82252 17.7389 7.91372 17.6817 7.95571L17.2373 8.28383L17.4036 8.8105C17.4251 8.87849 17.3473 8.93478 17.2892 8.89367L16.8403 8.57269L16.3914 8.89367C16.3333 8.93478 16.2555 8.87849 16.277 8.8105L16.4433 8.28383L15.9989 7.95571C15.9417 7.91276 15.9712 7.82252 16.0428 7.82156L16.5953 7.81714L16.7697 7.29316C16.792 7.2252 16.8877 7.2252 16.911 7.29316Z" fill="#FF0000"/>
<path d="M16.911 10.0275L17.0853 10.5515L17.6378 10.5559C17.7094 10.5568 17.7389 10.648 17.6817 10.6901L17.2373 11.0182L17.4036 11.5449C17.4251 11.6128 17.3473 11.6692 17.2892 11.628L16.8403 11.3071L16.3914 11.628C16.3333 11.6692 16.2555 11.6128 16.277 11.5449L16.4433 11.0182L15.9989 10.6901C15.9417 10.6471 15.9712 10.5568 16.0428 10.5559L16.5953 10.5515L16.7697 10.0275C16.792 9.95958 16.8877 9.95958 16.911 10.0275Z" fill="#FF0000"/>
<path d="M16.911 12.7697L17.0853 13.2937L17.6378 13.2981C17.7094 13.2991 17.7389 13.3903 17.6817 13.4323L17.2373 13.7604L17.4036 14.2871C17.4251 14.3551 17.3473 14.4113 17.2892 14.3702L16.8403 14.0493L16.3914 14.3702C16.3333 14.4113 16.2555 14.3551 16.277 14.2871L16.4433 13.7604L15.9989 13.4323C15.9417 13.3893 15.9712 13.2991 16.0428 13.2981L16.5953 13.2937L16.7697 12.7697C16.792 12.7018 16.8877 12.7018 16.911 12.7697Z" fill="#FF0000"/>
<path d="M44.5247 27.6406H-7.71875V29.9882H44.5247V27.6406Z" fill="#CB001C"/>
<path d="M44.5247 25.2891H-7.71875V27.6366H44.5247V25.2891Z" fill="white"/>
<path d="M44.5247 22.9375H-7.71875V25.282H44.5247V22.9375Z" fill="#CB001C"/>
<path d="M44.5247 20.5859H-7.71875V22.9364H44.5247V20.5859Z" fill="white"/>
<path d="M44.5247 18.2344H-7.71875V20.5819H44.5247V18.2344Z" fill="#CB001C"/>
<path d="M44.5247 15.8984H-7.71875V18.246H44.5247V15.8984Z" fill="white"/>
<path d="M44.5247 13.5469H-7.71875V15.8974H44.5247V13.5469Z" fill="#CB001C"/>
<path d="M44.5247 11.1953H-7.71875V13.5398H44.5247V11.1953Z" fill="white"/>
<path d="M44.5247 8.85156H-7.71875V11.1991H44.5247V8.85156Z" fill="#CB001C"/>
<path d="M44.5247 6.50781H-7.71875V8.85535H44.5247V6.50781Z" fill="white"/>
<path d="M44.5247 4.15625H-7.71875V6.50673H44.5247V4.15625Z" fill="#CB001C"/>
<path d="M44.5247 1.80469H-7.71875V4.14924H44.5247V1.80469Z" fill="white"/>
<path d="M44.5247 -0.546875H-7.71875V1.80361H44.5247V-0.546875Z" fill="#CB001C"/>
<path d="M16.1396 -0.546875H-7.71875V15.8917H16.1396V-0.546875Z" fill="#2A3560"/>
<path d="M0.183169 2.71875L0.381398 3.3412H1.03821L0.50566 3.72653L0.709805 4.34601L0.183169 3.96365L-0.343464 4.34601L-0.139319 3.72653L-0.671875 3.3412H-0.0180144L0.183169 2.71875Z" fill="white"/>
<path d="M0.183169 5.45312L0.381398 6.07261H1.03821L0.50566 6.45793L0.709805 7.07742L0.183169 6.70098L-0.343464 7.07742L-0.139319 6.45793L-0.671875 6.07261H-0.0180144L0.183169 5.45312Z" fill="white"/>
<path d="M0.183169 8.19531L0.381398 8.81775H1.03821L0.50566 9.20009L0.709805 9.81958L0.183169 9.43723L-0.343464 9.81958L-0.139319 9.20009L-0.671875 8.81775H-0.0180144L0.183169 8.19531Z" fill="white"/>
<path d="M0.183169 10.9453L0.381398 11.5648H1.03821L0.50566 11.9471L0.709805 12.5637L0.183169 12.1813L-0.343464 12.5637L-0.139319 11.9471L-0.671875 11.5648H-0.0180144L0.183169 10.9453Z" fill="white"/>
<path d="M2.11771 1.25781L2.32186 1.88322H2.96979L2.4402 2.26558L2.65026 2.88803L2.11771 2.50567L1.58812 2.88803L1.7893 2.26558L1.26562 1.88322H1.91652L2.11771 1.25781Z" fill="white"/>
<path d="M2.11771 4.00781L2.32186 4.63026H2.96979L2.4402 5.01262L2.65026 5.63507L2.11771 5.24975L1.58812 5.63507L1.7893 5.01262L1.26562 4.63026H1.91652L2.11771 4.00781Z" fill="white"/>
<path d="M2.11771 6.75781L2.32186 7.37434H2.96979L2.4402 7.75963L2.65026 8.38214L2.11771 7.99677L1.58812 8.38214L1.7893 7.75963L1.26562 7.37434H1.91652L2.11771 6.75781Z" fill="white"/>
<path d="M2.11771 9.5L2.32186 10.1195H2.96979L2.4402 10.5048L2.65026 11.1243L2.11771 10.7419L1.58812 11.1243L1.7893 10.5048L1.26562 10.1195H1.91652L2.11771 9.5Z" fill="white"/>
<path d="M2.11771 12.2422L2.32186 12.8676H2.96979L2.4402 13.25L2.65026 13.8694L2.11771 13.4871L1.58812 13.8694L1.7893 13.25L1.26562 12.8676H1.91652L2.11771 12.2422Z" fill="white"/>
<path d="M4.02692 2.71875L4.2281 3.3412H4.879L4.35237 3.72653L4.5506 4.34601L4.02692 3.96365L3.50029 4.34601L3.69852 3.72653L3.17188 3.3412H3.82277L4.02692 2.71875Z" fill="white"/>
<path d="M4.02692 5.45312L4.2281 6.07261H4.879L4.35237 6.45793L4.5506 7.07742L4.02692 6.70098L3.50029 7.07742L3.69852 6.45793L3.17188 6.07261H3.82277L4.02692 5.45312Z" fill="white"/>
<path d="M4.02692 8.19531L4.2281 8.81775H4.879L4.35237 9.20009L4.5506 9.81958L4.02692 9.43723L3.50029 9.81958L3.69852 9.20009L3.17188 8.81775H3.82277L4.02692 8.19531Z" fill="white"/>
<path d="M4.02692 10.9453L4.2281 11.5648H4.879L4.35237 11.9471L4.5506 12.5637L4.02692 12.1813L3.50029 12.5637L3.69852 11.9471L3.17188 11.5648H3.82277L4.02692 10.9453Z" fill="white"/>
<path d="M5.96146 1.25781L6.16265 1.88322H6.81354L6.28987 2.26558L6.49401 2.88803L5.96146 2.50567L5.43778 2.88803L5.63601 2.26558L5.10938 1.88322H5.76027L5.96146 1.25781Z" fill="white"/>
<path d="M5.96146 4.00781L6.16265 4.63026H6.81354L6.28987 5.01262L6.49401 5.63507L5.96146 5.24975L5.43778 5.63507L5.63601 5.01262L5.10938 4.63026H5.76027L5.96146 4.00781Z" fill="white"/>
<path d="M5.96146 6.75781L6.16265 7.37434H6.81354L6.28987 7.75963L6.49401 8.38214L5.96146 7.99677L5.43778 8.38214L5.63601 7.75963L5.10938 7.37434H5.76027L5.96146 6.75781Z" fill="white"/>
<path d="M5.96146 9.5L6.16265 10.1195H6.81354L6.28987 10.5048L6.49401 11.1243L5.96146 10.7419L5.43778 11.1243L5.63601 10.5048L5.10938 10.1195H5.76027L5.96146 9.5Z" fill="white"/>
<path d="M5.96146 12.2422L6.16265 12.8676H6.81354L6.28987 13.25L6.49401 13.8694L5.96146 13.4871L5.43778 13.8694L5.63601 13.25L5.10938 12.8676H5.76027L5.96146 12.2422Z" fill="white"/>
<path d="M7.86772 2.71875L8.0689 3.3412H8.72573L8.19612 3.72653L8.39731 4.34601L7.86772 3.96365L7.34107 4.34601L7.54522 3.72653L7.01562 3.3412H7.66949L7.86772 2.71875Z" fill="white"/>
<path d="M7.86772 5.45312L8.0689 6.07261H8.72573L8.19612 6.45793L8.39731 7.07742L7.86772 6.70098L7.34107 7.07742L7.54522 6.45793L7.01562 6.07261H7.66949L7.86772 5.45312Z" fill="white"/>
<path d="M7.86772 8.19531L8.0689 8.81775H8.72573L8.19612 9.20009L8.39731 9.81958L7.86772 9.43723L7.34107 9.81958L7.54522 9.20009L7.01562 8.81775H7.66949L7.86772 8.19531Z" fill="white"/>
<path d="M7.86772 10.9453L8.0689 11.5648H8.72573L8.19612 11.9471L8.39731 12.5637L7.86772 12.1813L7.34107 12.5637L7.54522 11.9471L7.01562 11.5648H7.66949L7.86772 10.9453Z" fill="white"/>
<path d="M9.79745 1.25781L10.0016 1.88322H10.6525L10.1258 2.26558L10.324 2.88803L9.79745 2.50567L9.27668 2.88803L9.47198 2.26558L8.94531 1.88322H9.59626L9.79745 1.25781Z" fill="white"/>
<path d="M9.78963 4.00781L9.99377 4.63026H10.6446L10.118 5.01262L10.3162 5.63507L9.78963 5.24975L9.26887 5.63507L9.46416 5.01262L8.9375 4.63026H9.58844L9.78963 4.00781Z" fill="white"/>
<path d="M9.78963 6.75781L9.99377 7.37434H10.6446L10.118 7.75963L10.3162 8.38214L9.78963 7.99677L9.26887 8.38214L9.46416 7.75963L8.9375 7.37434H9.58844L9.78963 6.75781Z" fill="white"/>
<path d="M9.78963 9.5L9.99377 10.1195H10.6446L10.118 10.5048L10.3162 11.1243L9.78963 10.7419L9.26887 11.1243L9.46416 10.5048L8.9375 10.1195H9.58844L9.78963 9.5Z" fill="white"/>
<path d="M9.78963 12.2422L9.99377 12.8676H10.6446L10.118 13.25L10.3162 13.8694L9.78963 13.4871L9.26887 13.8694L9.46416 13.25L8.9375 12.8676H9.58844L9.78963 12.2422Z" fill="white"/>
<path d="M11.7036 2.71875L11.8989 3.3412H12.5527L12.032 3.72653L12.2243 4.34601L11.7036 3.96365L11.1711 4.34601L11.3752 3.72653L10.8516 3.3412H11.4995L11.7036 2.71875Z" fill="white"/>
<path d="M11.7036 5.45312L11.8989 6.07261H12.5527L12.032 6.45793L12.2243 7.07742L11.7036 6.70098L11.1711 7.07742L11.3752 6.45793L10.8516 6.07261H11.4995L11.7036 5.45312Z" fill="white"/>
<path d="M11.7036 8.19531L11.8989 8.81775H12.5527L12.032 9.20009L12.2243 9.81958L11.7036 9.43723L11.1711 9.81958L11.3752 9.20009L10.8516 8.81775H11.4995L11.7036 8.19531Z" fill="white"/>
<path d="M11.7036 10.9453L11.8989 11.5648H12.5527L12.032 11.9471L12.2243 12.5637L11.7036 12.1813L11.1711 12.5637L11.3752 11.9471L10.8516 11.5648H11.4995L11.7036 10.9453Z" fill="white"/>
<path d="M13.6333 1.25781L13.8405 1.88322H14.4884L13.9617 2.26558L14.1659 2.88803L13.6333 2.50567L13.1097 2.88803L13.3079 2.26558L12.7812 1.88322H13.4322L13.6333 1.25781Z" fill="white"/>
<path d="M13.6333 4.00781L13.8405 4.63026H14.4884L13.9617 5.01262L14.1659 5.63507L13.6333 5.24975L13.1097 5.63507L13.3079 5.01262L12.7812 4.63026H13.4322L13.6333 4.00781Z" fill="white"/>
<path d="M13.6333 6.75781L13.8405 7.37434H14.4884L13.9617 7.75963L14.1659 8.38214L13.6333 7.99677L13.1097 8.38214L13.3079 7.75963L12.7812 7.37434H13.4322L13.6333 6.75781Z" fill="white"/>
<path d="M13.6333 9.5L13.8405 10.1195H14.4884L13.9617 10.5048L14.1659 11.1243L13.6333 10.7419L13.1097 11.1243L13.3079 10.5048L12.7812 10.1195H13.4322L13.6333 9.5Z" fill="white"/>
<path d="M13.6333 12.2422L13.8405 12.8676H14.4884L13.9617 13.25L14.1659 13.8694L13.6333 13.4871L13.1097 13.8694L13.3079 13.25L12.7812 12.8676H13.4322L13.6333 12.2422Z" fill="white"/>
</g>
</g>
<defs>
<clipPath id="clip0_1123_21042">
<rect width="30.132" height="30.132" rx="15.066" fill="white"/>
</clipPath>
<clipPath id="clip1_1123_21042">
<rect width="29.4678" height="29.4678" fill="white" transform="translate(0.820312)"/>
</clipPath>
</defs>
</svg>
