<svg width="50" height="50" viewBox="0 0 50 50" fill="none" xmlns="http://www.w3.org/2000/svg">
<rect width="50" height="50" rx="25" fill="#EE2A23"/>
<path fill-rule="evenodd" clip-rule="evenodd" d="M28.0129 13.1325C28.2242 13.7493 33.1827 28.1825 33.3318 28.6157C33.3715 28.7365 33.3447 28.9349 33.1698 29.0067C32.9939 29.0774 30.4176 30.1422 30.2749 30.1992C30.1323 30.2574 29.9725 30.173 29.921 30.0214C29.8674 29.872 28.798 26.7255 28.6779 26.3743H21.3286C21.2127 26.7255 20.1305 29.8789 20.0822 30.0214C20.0329 30.1662 19.8795 30.2642 19.7272 30.1992C19.5749 30.1354 16.9889 29.0706 16.8345 29.0067C16.6864 28.9452 16.6189 28.7662 16.6704 28.6157C16.8527 28.0753 21.7361 13.8735 21.985 13.1325C22.1151 12.7485 22.255 12.3612 22.4269 12H27.568C27.7383 12.3594 27.879 12.746 28.0129 13.1325ZM22.5009 22.8675L24.985 14.9384H25.0172L27.5098 22.8675H22.5009Z" fill="white"/>
<path fill-rule="evenodd" clip-rule="evenodd" d="M16 35.3256C16 35.1591 16.1233 35.0223 16.2778 35.0223H33.719C33.8767 35.0223 34 35.1591 34 35.3256V38.699C34 38.8655 33.8767 39 33.719 39H16.2778C16.1233 39 16 38.8655 16 38.699V35.3256Z" fill="white"/>
</svg>
