<svg width="40" height="40" viewBox="0 0 40 40" fill="none" xmlns="http://www.w3.org/2000/svg">
<rect width="40" height="40" rx="20" fill="#F8661C"/>
<path fill-rule="evenodd" clip-rule="evenodd" d="M22.3162 13.5338C22.2147 13.9454 21.4026 16.4148 19.88 17.8552C18.2558 16.5177 17.3422 13.5338 17.3422 13.5338C16.3271 15.1801 15.515 17.2379 15.515 17.2379C15.515 17.2379 17.1392 22.0738 19.88 24.2345C22.6207 21.868 24.1434 17.135 24.1434 17.135C24.1434 17.135 23.5343 15.3858 22.3162 13.5338ZM22.3162 12.5049C22.3162 12.5049 21.5041 15.1801 19.88 16.6205C18.3573 15.3858 17.4437 12.5049 17.4437 12.5049C17.4437 12.5049 18.3573 10.1384 19.88 8.80078C21.5041 10.0355 22.3162 12.5049 22.3162 12.5049ZM23.9404 18.7813C24.854 20.5304 25.3615 21.868 25.3615 21.868C25.3615 21.868 23.3313 28.8646 19.88 31.9514C16.3271 29.0704 14.3984 21.9709 14.3984 21.9709V21.7651C14.4999 21.4565 14.906 20.3246 15.7181 18.8842C16.2256 20.2218 17.7483 23.823 19.88 25.675C22.3162 23.5143 23.5343 19.9131 23.9404 18.7813Z" fill="white"/>
</svg>
