<svg width="26" height="26" viewBox="0 0 26 26" fill="none" xmlns="http://www.w3.org/2000/svg">
<path fill-rule="evenodd" clip-rule="evenodd" d="M4.49906 4.33594V11.0258C5.51758 9.81145 6.73816 9.19961 8.15448 9.19961C8.88363 9.19961 9.53758 9.33824 10.1222 9.61529C10.7099 9.88956 11.1496 10.2422 11.4451 10.6701C11.7435 11.1011 11.9454 11.5741 12.0536 12.0954C12.1625 12.614 12.2167 13.4214 12.2167 14.5153V21.6692H9.05247V15.2264C9.05247 13.9489 8.99505 13.1381 8.87463 12.7945C8.75411 12.4481 8.54305 12.1768 8.23879 11.9749C7.93431 11.7701 7.55474 11.6674 7.09674 11.6674C6.57243 11.6674 6.10221 11.8001 5.69253 12.0593C5.27685 12.3215 4.97538 12.7133 4.78554 13.2376C4.59248 13.762 4.49595 14.5364 4.49917 15.561L4.49595 21.6693H1.33496V4.33594H4.49906ZM16.9598 4.33594V11.0258C17.978 9.81145 19.1987 9.19961 20.6148 9.19961C21.3412 9.19961 21.9979 9.33824 22.5859 9.61529C23.1703 9.88956 23.6103 10.2422 23.9054 10.6701C24.2038 11.1011 24.4058 11.5741 24.5143 12.0954C24.6228 12.614 24.6771 13.4214 24.6771 14.5153V21.6692H21.5158V15.2264C21.5158 13.9489 21.4558 13.1381 21.3351 12.7945C21.2144 12.4481 21.0037 12.1768 20.6991 11.9749C20.3978 11.7701 20.015 11.6674 19.5571 11.6674C19.0327 11.6674 18.5627 11.8001 18.1528 12.0593C17.7401 12.3215 17.4387 12.7133 17.2457 13.2376C17.0558 13.762 16.9596 14.5364 16.9596 15.561V21.6693H13.7984V4.33594H16.9597H16.9598Z" fill="#2A2A2A"/>
</svg>
