<svg width="50" height="50" viewBox="0 0 50 50" fill="none" xmlns="http://www.w3.org/2000/svg">
<rect width="50" height="50" rx="25" fill="#5FC1F1"/>
<path d="M25 11.0032C17.2581 11.0032 11 17.2612 11 25.0032C11 32.7451 17.2581 39.0032 25 39.0032C32.7419 39.0032 39 32.7451 39 25.0032C39 17.2612 32.7419 11.0032 25 11.0032ZM23.0645 30.9387L22.0323 33.9709C18.1613 32.6806 15.5806 29.0032 15.5806 24.8741C15.5806 20.7451 18.1613 17.1322 22.0968 15.7774L23.129 18.8096C20.5484 19.6483 18.871 22.0999 18.871 24.8096C18.7419 27.6483 20.4839 30.0999 23.0645 30.9387ZM27.8387 34.0354L26.871 30.9387C29.5161 30.0999 31.2581 27.6483 31.2581 24.8741C31.2581 22.0999 29.5161 19.7129 26.9355 18.8741L27.9677 15.7774C31.9032 17.0677 34.5484 20.7451 34.5484 24.8741C34.5484 29.1322 31.8387 32.8096 27.8387 34.0354Z" fill="white"/>
</svg>
