<svg width="26" height="26" viewBox="0 0 26 26" fill="none" xmlns="http://www.w3.org/2000/svg">
<path d="M15.8867 16.6563L17.3801 15.1629C17.5812 14.9642 17.8357 14.8283 18.1126 14.7715C18.3896 14.7147 18.677 14.7395 18.9401 14.8429L20.7602 15.5696C21.026 15.6775 21.254 15.8617 21.4154 16.099C21.5767 16.3363 21.6642 16.616 21.6668 16.9029V20.2363C21.6653 20.4315 21.6243 20.6244 21.5462 20.8033C21.4682 20.9822 21.3547 21.1435 21.2127 21.2774C21.0707 21.4113 20.9031 21.5151 20.7199 21.5825C20.5367 21.65 20.3418 21.6796 20.1468 21.6697C7.39317 20.8764 4.81978 10.0761 4.3331 5.94267C4.31051 5.73969 4.33115 5.53423 4.39366 5.3398C4.45618 5.14536 4.55916 4.96637 4.69582 4.8146C4.83248 4.66283 4.99972 4.54171 5.18656 4.45921C5.37339 4.37671 5.57557 4.33471 5.7798 4.33596H8.99988C9.28722 4.33682 9.56774 4.42361 9.80536 4.58519C10.043 4.74677 10.2268 4.97574 10.3332 5.24265L11.0599 7.0627C11.1668 7.32475 11.194 7.61247 11.1383 7.88992C11.0826 8.16738 10.9463 8.42226 10.7466 8.62273L9.25321 10.1161C9.25321 10.1161 10.1132 15.9362 15.8867 16.6563Z" fill="#559B57"/>
</svg>
