<svg width="50" height="50" viewBox="0 0 50 50" fill="none" xmlns="http://www.w3.org/2000/svg">
<rect width="50" height="50" rx="25" fill="#FFF200"/>
<path fill-rule="evenodd" clip-rule="evenodd" d="M11.5464 33.6718L15.3899 37.5898L24.3951 28.4532L33.7016 37.778L37.6014 33.9162L28.3883 24.7045L30.1594 22.9902V19.3356L31.2711 18.3939V21.257L32.703 22.4249L36.9792 18.1488L38.3542 19.2036C39.1646 16.2084 34.4735 9.40757 30.5927 13.1753L26.0708 17.6586L26.9943 18.7703L24.6957 21.0119L22.473 18.8265L23.6409 17.771L18.6864 12.9864C14.9566 9.91535 11.132 14.5882 11 19.1467L12.3561 18.0167L16.5192 22.5007L18.0073 21.2577V18.5069L18.9301 19.2036V22.802L20.7385 24.6104L11.5464 33.6718Z" fill="black"/>
</svg>
