<svg width="30" height="30" viewBox="0 0 30 30" fill="none" xmlns="http://www.w3.org/2000/svg">
<g clip-path="url(#clip0_1583_57578)">
<circle cx="15.1432" cy="15.1432" r="15.1432" fill="#D9D9D9"/>
<g clip-path="url(#clip1_1583_57578)">
<path d="M42.6549 29.994H-1.5464C-1.98274 29.994 -2.33594 29.6408 -2.33594 29.2045V0.78953C-2.33594 0.353186 -1.98274 0 -1.5464 0H42.6557C43.0921 0 43.4453 0.353186 43.4453 0.78953V29.2045C43.4444 29.6408 43.0912 29.994 42.6549 29.994Z" fill="#F5F5F5"/>
<path d="M43.4444 2.30778H-2.33594V0.78953C-2.33594 0.353186 -1.98274 0 -1.5464 0H42.6557C43.0921 0 43.4453 0.353186 43.4453 0.78953L43.4444 2.30778Z" fill="#FF4B55"/>
<path d="M43.4444 9.22656H-2.33594V11.5334H43.4444V9.22656Z" fill="#FF4B55"/>
<path d="M43.4444 4.61719H-2.33594V6.92407H43.4444V4.61719Z" fill="#FF4B55"/>
<path d="M43.4444 16.1515H-1.5464C-1.98274 16.1515 -2.33594 15.7983 -2.33594 15.362V13.8438H43.4444V16.1515Z" fill="#FF4B55"/>
<path d="M43.4444 23.0703H-2.33594V25.3772H43.4444V23.0703Z" fill="#FF4B55"/>
<path d="M42.6548 29.9875H-1.5464C-1.98274 29.9875 -2.33594 29.6343 -2.33594 29.1979V27.6797H43.4444V29.1979C43.4444 29.6343 43.0912 29.9875 42.6548 29.9875Z" fill="#FF4B55"/>
<path d="M43.4444 18.4531H-2.33594V20.76H43.4444V18.4531Z" fill="#FF4B55"/>
<path d="M18.1865 0H-1.5464C-1.98274 0 -2.33594 0.353186 -2.33594 0.78953V15.3613C-2.33594 15.7977 -1.98274 16.1509 -1.5464 16.1509H18.1865C18.6228 16.1509 18.976 15.7977 18.976 15.3613V0.78953C18.976 0.353186 18.622 0 18.1865 0Z" fill="#41479B"/>
<path d="M2.00649 3.14471L2.18085 3.66868L2.73343 3.67315C2.80496 3.67404 2.83447 3.76525 2.77725 3.80728L2.33285 4.13542L2.49917 4.66207C2.52063 4.73003 2.44283 4.78636 2.38471 4.74523L1.93495 4.42423L1.4852 4.74523C1.42708 4.78636 1.34929 4.73003 1.37075 4.66207L1.53706 4.13542L1.09267 3.80728C1.03545 3.76436 1.06495 3.67404 1.13648 3.67315L1.68907 3.66868L1.86521 3.14471C1.88846 3.07676 1.98414 3.07676 2.00649 3.14471Z" fill="#F5F5F5"/>
<path d="M2.00649 5.89471L2.18085 6.41868L2.73343 6.42315C2.80496 6.42404 2.83447 6.51525 2.77725 6.55728L2.33285 6.88542L2.49917 7.41205C2.52063 7.48005 2.44283 7.53633 2.38471 7.49523L1.93495 7.17424L1.4852 7.49523C1.42708 7.53633 1.34929 7.48094 1.37075 7.41205L1.53706 6.88542L1.09267 6.55728C1.03545 6.51436 1.06495 6.42404 1.13648 6.42315L1.68907 6.41868L1.86521 5.89471C1.88846 5.82676 1.98414 5.82676 2.00649 5.89471Z" fill="#F5F5F5"/>
<path d="M2.00649 8.62912L2.18085 9.15306L2.73343 9.15755C2.80496 9.15844 2.83447 9.24964 2.77725 9.29163L2.33285 9.61983L2.49917 10.1464C2.52063 10.2144 2.44283 10.2707 2.38471 10.2296L1.93495 9.90861L1.4852 10.2296C1.42708 10.2707 1.34929 10.2144 1.37075 10.1464L1.53706 9.61983L1.09267 9.29163C1.03545 9.24876 1.06495 9.15844 1.13648 9.15755L1.68907 9.15306L1.86521 8.62912C1.88846 8.56113 1.98414 8.56113 2.00649 8.62912Z" fill="#F5F5F5"/>
<path d="M2.00649 11.3706L2.18085 11.8946L2.73343 11.8991C2.80496 11.9 2.83447 11.9912 2.77725 12.0332L2.33285 12.3614L2.49917 12.888C2.52063 12.956 2.44283 13.0122 2.38471 12.9711L1.93495 12.6502L1.4852 12.9711C1.42708 13.0122 1.34929 12.956 1.37075 12.888L1.53706 12.3614L1.09267 12.0332C1.03545 11.9903 1.06495 11.9 1.13648 11.8991L1.68907 11.8946L1.86343 11.3706C1.88846 11.3036 1.98414 11.3036 2.00649 11.3706Z" fill="#F5F5F5"/>
<path d="M4.13539 1.80096L4.30975 2.32493L4.86233 2.3294C4.93386 2.33029 4.96338 2.4215 4.90615 2.46353L4.46175 2.79167L4.62807 3.31832C4.64953 3.38628 4.57174 3.44261 4.51362 3.40148L4.06387 3.08048L3.61411 3.40148C3.55599 3.44261 3.47819 3.38628 3.49965 3.31832L3.66597 2.79167L3.22157 2.46353C3.16435 2.42061 3.19386 2.3294 3.26539 2.3294L3.81797 2.32493L3.99233 1.80096C4.01647 1.73301 4.11215 1.73301 4.13539 1.80096Z" fill="#F5F5F5"/>
<path d="M4.13751 4.54315L4.31187 5.06712L4.86445 5.07159C4.93599 5.07249 4.96549 5.16368 4.90826 5.20571L4.46388 5.53387L4.63018 6.06051C4.65164 6.12847 4.57386 6.18479 4.51573 6.14366L4.06598 5.82267L3.61623 6.14366C3.5581 6.18479 3.48031 6.12847 3.50177 6.06051L3.66987 5.53387L3.22549 5.20571C3.16826 5.16279 3.19776 5.07249 3.2693 5.07159L3.82188 5.06712L3.99624 4.54315C4.01859 4.4752 4.11426 4.4752 4.13751 4.54315Z" fill="#F5F5F5"/>
<path d="M4.13539 7.29316L4.30975 7.81714L4.86233 7.82156C4.93386 7.82252 4.96338 7.91372 4.90615 7.95571L4.46175 8.28383L4.62807 8.8105C4.64953 8.87849 4.57174 8.93478 4.51362 8.89367L4.06387 8.57269L3.61411 8.89367C3.55599 8.93478 3.47819 8.87849 3.49965 8.8105L3.66597 8.28383L3.22157 7.95571C3.16435 7.91276 3.19386 7.82252 3.26539 7.82156L3.81797 7.81714L3.99233 7.29316C4.01647 7.2252 4.11215 7.2252 4.13539 7.29316Z" fill="#F5F5F5"/>
<path d="M4.13539 10.0275L4.30975 10.5515L4.86233 10.5559C4.93386 10.5568 4.96338 10.648 4.90615 10.6901L4.46175 11.0182L4.62807 11.5449C4.64953 11.6128 4.57174 11.6692 4.51362 11.628L4.06387 11.3071L3.61411 11.628C3.55599 11.6692 3.47819 11.6128 3.49965 11.5449L3.66597 11.0182L3.22157 10.6901C3.16435 10.6471 3.19386 10.5568 3.26539 10.5559L3.81797 10.5515L3.99233 10.0275C4.01647 9.95958 4.11215 9.95958 4.13539 10.0275Z" fill="#F5F5F5"/>
<path d="M4.13539 12.7697L4.30975 13.2937L4.86233 13.2981C4.93386 13.2991 4.96338 13.3903 4.90615 13.4323L4.46175 13.7604L4.62807 14.2871C4.64953 14.3551 4.57174 14.4113 4.51362 14.3702L4.06387 14.0493L3.61411 14.3702C3.55599 14.4113 3.47819 14.3551 3.49965 14.2871L3.66597 13.7604L3.22157 13.4323C3.16435 13.3893 3.19386 13.2991 3.26539 13.2981L3.81797 13.2937L3.99233 12.7697C4.01647 12.7018 4.11215 12.7018 4.13539 12.7697Z" fill="#F5F5F5"/>
<path d="M6.2643 3.14471L6.43866 3.66868L6.99124 3.67315C7.06278 3.67404 7.09228 3.76525 7.03506 3.80728L6.59067 4.13542L6.75698 4.66207C6.77844 4.73003 6.70065 4.78636 6.64252 4.74523L6.19277 4.42423L5.74301 4.74523C5.68489 4.78636 5.60711 4.73003 5.62857 4.66207L5.79487 4.13542L5.35049 3.80728C5.29326 3.76436 5.32276 3.67404 5.3943 3.67315L5.94688 3.66868L6.12124 3.14471C6.14538 3.07676 6.24194 3.07676 6.2643 3.14471Z" fill="#F5F5F5"/>
<path d="M6.2643 5.89471L6.43866 6.41868L6.99124 6.42315C7.06278 6.42404 7.09228 6.51525 7.03506 6.55728L6.59067 6.88542L6.75698 7.41205C6.77844 7.48005 6.70065 7.53633 6.64252 7.49523L6.19277 7.17424L5.74301 7.49523C5.68489 7.53633 5.60711 7.48094 5.62857 7.41205L5.79487 6.88542L5.35049 6.55728C5.29326 6.51436 5.32276 6.42404 5.3943 6.42315L5.94688 6.41868L6.12124 5.89471C6.14538 5.82676 6.24194 5.82676 6.2643 5.89471Z" fill="#F5F5F5"/>
<path d="M6.2643 8.62912L6.43866 9.15306L6.99124 9.15755C7.06278 9.15844 7.09228 9.24964 7.03506 9.29163L6.59067 9.61983L6.75698 10.1464C6.77844 10.2144 6.70065 10.2707 6.64252 10.2296L6.19277 9.90861L5.74301 10.2296C5.68489 10.2707 5.60711 10.2144 5.62857 10.1464L5.79487 9.61983L5.35049 9.29163C5.29326 9.24876 5.32276 9.15844 5.3943 9.15755L5.94688 9.15306L6.12124 8.62912C6.14538 8.56113 6.24194 8.56113 6.2643 8.62912Z" fill="#F5F5F5"/>
<path d="M6.2643 11.3706L6.43866 11.8946L6.99124 11.8991C7.06278 11.9 7.09228 11.9912 7.03506 12.0332L6.59067 12.3614L6.75698 12.888C6.77844 12.956 6.70065 13.0122 6.64252 12.9711L6.19277 12.6502L5.74301 12.9711C5.68489 13.0122 5.60711 12.956 5.62857 12.888L5.79487 12.3614L5.35049 12.0332C5.29326 11.9903 5.32276 11.9 5.3943 11.8991L5.94688 11.8946L6.12124 11.3706C6.14538 11.3036 6.24194 11.3036 6.2643 11.3706Z" fill="#F5F5F5"/>
<path d="M8.38928 1.80096L8.56366 2.32493L9.11625 2.3294C9.18778 2.33029 9.21725 2.4215 9.16008 2.46353L8.71564 2.79167L8.88198 3.31832C8.90342 3.38628 8.82563 3.44261 8.7675 3.40148L8.31775 3.08048L7.86801 3.40148C7.80989 3.44261 7.73211 3.38628 7.75356 3.31832L7.91987 2.79167L7.47549 2.46353C7.41826 2.42061 7.44776 2.3294 7.5193 2.3294L8.07188 2.32493L8.24621 1.80096C8.27126 1.73301 8.36696 1.73301 8.38928 1.80096Z" fill="#F5F5F5"/>
<path d="M8.38928 4.54315L8.56366 5.06712L9.11625 5.07159C9.18778 5.07249 9.21725 5.16368 9.16008 5.20571L8.71564 5.53387L8.88198 6.06051C8.90342 6.12847 8.82563 6.18479 8.7675 6.14366L8.31775 5.82267L7.86801 6.14366C7.80989 6.18479 7.73211 6.12847 7.75356 6.06051L7.91987 5.53387L7.47549 5.20571C7.41826 5.16279 7.44776 5.07249 7.5193 5.07159L8.07188 5.06712L8.24621 4.54315C8.27126 4.4752 8.36696 4.4752 8.38928 4.54315Z" fill="#F5F5F5"/>
<path d="M8.38928 7.29316L8.56366 7.81714L9.11625 7.82156C9.18778 7.82252 9.21725 7.91372 9.16008 7.95571L8.71564 8.28383L8.88198 8.8105C8.90342 8.87849 8.82563 8.93478 8.7675 8.89367L8.31775 8.57269L7.86801 8.89367C7.80989 8.93478 7.73211 8.87849 7.75356 8.8105L7.91987 8.28383L7.47549 7.95571C7.41826 7.91276 7.44776 7.82252 7.5193 7.82156L8.07188 7.81714L8.24621 7.29316C8.27126 7.2252 8.36696 7.2252 8.38928 7.29316Z" fill="#F5F5F5"/>
<path d="M8.38928 10.0275L8.56366 10.5515L9.11625 10.5559C9.18778 10.5568 9.21725 10.648 9.16008 10.6901L8.71564 11.0182L8.88198 11.5449C8.90342 11.6128 8.82563 11.6692 8.7675 11.628L8.31775 11.3071L7.86801 11.628C7.80989 11.6692 7.73211 11.6128 7.75356 11.5449L7.91987 11.0182L7.47549 10.6901C7.41826 10.6471 7.44776 10.5568 7.5193 10.5559L8.07188 10.5515L8.24621 10.0275C8.27126 9.95958 8.36696 9.95958 8.38928 10.0275Z" fill="#F5F5F5"/>
<path d="M8.38928 12.7697L8.56366 13.2937L9.11625 13.2981C9.18778 13.2991 9.21725 13.3903 9.16008 13.4323L8.71564 13.7604L8.88198 14.2871C8.90342 14.3551 8.82563 14.4113 8.7675 14.3702L8.31775 14.0493L7.86801 14.3702C7.80989 14.4113 7.73211 14.3551 7.75356 14.2871L7.91987 13.7604L7.47549 13.4323C7.41826 13.3893 7.44776 13.2991 7.5193 13.2981L8.07188 13.2937L8.24621 12.7697C8.27126 12.7018 8.36696 12.7018 8.38928 12.7697Z" fill="#F5F5F5"/>
<path d="M10.5164 3.14471L10.6908 3.66868L11.2434 3.67315C11.3149 3.67404 11.3444 3.76525 11.2872 3.80728L10.8428 4.13542L11.0091 4.66207C11.0306 4.73003 10.9528 4.78636 10.8946 4.74523L10.4458 4.42423L9.9969 4.74523C9.93885 4.78636 9.86106 4.73003 9.88249 4.66207L10.0488 4.13542L9.60439 3.80728C9.54715 3.76436 9.57669 3.67404 9.64822 3.67315L10.2008 3.66868L10.3752 3.14471C10.3975 3.07676 10.4932 3.07676 10.5164 3.14471Z" fill="#F5F5F5"/>
<path d="M10.5164 5.89471L10.6908 6.41868L11.2434 6.42315C11.3149 6.42404 11.3444 6.51525 11.2872 6.55728L10.8428 6.88542L11.0091 7.41205C11.0306 7.48005 10.9528 7.53633 10.8946 7.49523L10.4458 7.17424L9.9969 7.49523C9.93885 7.53633 9.86106 7.48094 9.88249 7.41205L10.0488 6.88542L9.60439 6.55728C9.54715 6.51436 9.57669 6.42404 9.64822 6.42315L10.2008 6.41868L10.3752 5.89471C10.3975 5.82676 10.4932 5.82676 10.5164 5.89471Z" fill="#F5F5F5"/>
<path d="M10.5164 8.62912L10.6908 9.15306L11.2434 9.15755C11.3149 9.15844 11.3444 9.24964 11.2872 9.29163L10.8428 9.61983L11.0091 10.1464C11.0306 10.2144 10.9528 10.2707 10.8946 10.2296L10.4458 9.90861L9.9969 10.2296C9.93885 10.2707 9.86106 10.2144 9.88249 10.1464L10.0488 9.61983L9.60439 9.29163C9.54715 9.24876 9.57669 9.15844 9.64822 9.15755L10.2008 9.15306L10.3752 8.62912C10.3975 8.56113 10.4932 8.56113 10.5164 8.62912Z" fill="#F5F5F5"/>
<path d="M10.5164 11.3706L10.6908 11.8946L11.2434 11.8991C11.3149 11.9 11.3444 11.9912 11.2872 12.0332L10.8428 12.3614L11.0091 12.888C11.0306 12.956 10.9528 13.0122 10.8946 12.9711L10.4458 12.6502L9.9969 12.9711C9.93885 13.0122 9.86106 12.956 9.88249 12.888L10.0488 12.3614L9.60439 12.0332C9.54715 11.9903 9.57669 11.9 9.64822 11.8991L10.2008 11.8946L10.3752 11.3706C10.3975 11.3036 10.4932 11.3036 10.5164 11.3706Z" fill="#F5F5F5"/>
<path d="M12.6453 1.80096L12.8197 2.32493L13.3722 2.3294C13.4438 2.33029 13.4733 2.4215 13.4161 2.46353L12.9717 2.79167L13.138 3.31832C13.1595 3.38628 13.0817 3.44261 13.0235 3.40148L12.5747 3.08048L12.1258 3.40148C12.0677 3.44261 11.9899 3.38628 12.0114 3.31832L12.1777 2.79167L11.7333 2.46353C11.6761 2.42061 11.7056 2.3294 11.7771 2.3294L12.3297 2.32493L12.504 1.80096C12.5264 1.73301 12.6229 1.73301 12.6453 1.80096Z" fill="#F5F5F5"/>
<path d="M12.6453 4.54315L12.8197 5.06712L13.3722 5.07159C13.4438 5.07249 13.4733 5.16368 13.4161 5.20571L12.9717 5.53387L13.138 6.06051C13.1595 6.12847 13.0817 6.18479 13.0235 6.14366L12.5747 5.82267L12.1258 6.14366C12.0677 6.18479 11.9899 6.12847 12.0114 6.06051L12.1777 5.53387L11.7333 5.20571C11.6761 5.16279 11.7056 5.07249 11.7771 5.07159L12.3297 5.06712L12.504 4.54315C12.5264 4.4752 12.6229 4.4752 12.6453 4.54315Z" fill="#F5F5F5"/>
<path d="M12.6453 7.29316L12.8197 7.81714L13.3722 7.82156C13.4438 7.82252 13.4733 7.91372 13.4161 7.95571L12.9717 8.28383L13.138 8.8105C13.1595 8.87849 13.0817 8.93478 13.0235 8.89367L12.5747 8.57269L12.1258 8.89367C12.0677 8.93478 11.9899 8.87849 12.0114 8.8105L12.1777 8.28383L11.7333 7.95571C11.6761 7.91276 11.7056 7.82252 11.7771 7.82156L12.3297 7.81714L12.504 7.29316C12.5264 7.2252 12.6229 7.2252 12.6453 7.29316Z" fill="#F5F5F5"/>
<path d="M12.6453 10.0275L12.8197 10.5515L13.3722 10.5559C13.4438 10.5568 13.4733 10.648 13.4161 10.6901L12.9717 11.0182L13.138 11.5449C13.1595 11.6128 13.0817 11.6692 13.0235 11.628L12.5747 11.3071L12.1258 11.628C12.0677 11.6692 11.9899 11.6128 12.0114 11.5449L12.1777 11.0182L11.7333 10.6901C11.6761 10.6471 11.7056 10.5568 11.7771 10.5559L12.3297 10.5515L12.504 10.0275C12.5264 9.95958 12.6229 9.95958 12.6453 10.0275Z" fill="#F5F5F5"/>
<path d="M12.6453 12.7697L12.8197 13.2937L13.3722 13.2981C13.4438 13.2991 13.4733 13.3903 13.4161 13.4323L12.9717 13.7604L13.138 14.2871C13.1595 14.3551 13.0817 14.4113 13.0235 14.3702L12.5747 14.0493L12.1258 14.3702C12.0677 14.4113 11.9899 14.3551 12.0114 14.2871L12.1777 13.7604L11.7333 13.4323C11.6761 13.3893 11.7056 13.2991 11.7771 13.2981L12.3297 13.2937L12.504 12.7697C12.5264 12.7018 12.6229 12.7018 12.6453 12.7697Z" fill="#F5F5F5"/>
<path d="M14.7742 3.14471L14.9486 3.66868L15.5012 3.67315C15.5727 3.67404 15.6022 3.76525 15.545 3.80728L15.1006 4.13542L15.2669 4.66207C15.2884 4.73003 15.2106 4.78636 15.1525 4.74523L14.7036 4.42423L14.2547 4.74523C14.1966 4.78636 14.1189 4.73003 14.1403 4.66207L14.3066 4.13542L13.8622 3.80728C13.805 3.76436 13.8345 3.67404 13.906 3.67315L14.4586 3.66868L14.6329 3.14471C14.6562 3.07676 14.7519 3.07676 14.7742 3.14471Z" fill="#F5F5F5"/>
<path d="M14.7742 5.89471L14.9486 6.41868L15.5012 6.42315C15.5727 6.42404 15.6022 6.51525 15.545 6.55728L15.1006 6.88542L15.2669 7.41205C15.2884 7.48005 15.2106 7.53633 15.1525 7.49523L14.7036 7.17424L14.2547 7.49523C14.1966 7.53633 14.1189 7.48094 14.1403 7.41205L14.3066 6.88542L13.8622 6.55728C13.805 6.51436 13.8345 6.42404 13.906 6.42315L14.4586 6.41868L14.6329 5.89471C14.6562 5.82676 14.7519 5.82676 14.7742 5.89471Z" fill="#F5F5F5"/>
<path d="M14.7742 8.62912L14.9486 9.15306L15.5012 9.15755C15.5727 9.15844 15.6022 9.24964 15.545 9.29163L15.1006 9.61983L15.2669 10.1464C15.2884 10.2144 15.2106 10.2707 15.1525 10.2296L14.7036 9.90861L14.2547 10.2296C14.1966 10.2707 14.1189 10.2144 14.1403 10.1464L14.3066 9.61983L13.8622 9.29163C13.805 9.24876 13.8345 9.15844 13.906 9.15755L14.4586 9.15306L14.6329 8.62912C14.6562 8.56113 14.7519 8.56113 14.7742 8.62912Z" fill="#F5F5F5"/>
<path d="M14.7742 11.3706L14.9486 11.8946L15.5012 11.8991C15.5727 11.9 15.6022 11.9912 15.545 12.0332L15.1006 12.3614L15.2669 12.888C15.2884 12.956 15.2106 13.0122 15.1525 12.9711L14.7036 12.6502L14.2547 12.9711C14.1966 13.0122 14.1189 12.956 14.1403 12.888L14.3066 12.3614L13.8622 12.0332C13.805 11.9903 13.8345 11.9 13.906 11.8991L14.4586 11.8946L14.6329 11.3706C14.6562 11.3036 14.7519 11.3036 14.7742 11.3706Z" fill="#F5F5F5"/>
<path d="M16.9031 1.80096L17.0775 2.32493L17.63 2.3294C17.7016 2.33029 17.7311 2.4215 17.6739 2.46353L17.2295 2.79167L17.3958 3.31832C17.4173 3.38628 17.3395 3.44261 17.2814 3.40148L16.8325 3.08048L16.3836 3.40148C16.3255 3.44261 16.2477 3.38628 16.2692 3.31832L16.4355 2.79167L15.9911 2.46353C15.9339 2.42061 15.9634 2.3294 16.0349 2.3294L16.5875 2.32493L16.7618 1.80096C16.7842 1.73301 16.8799 1.73301 16.9031 1.80096Z" fill="#F5F5F5"/>
<path d="M16.9031 4.54315L17.0775 5.06712L17.63 5.07159C17.7016 5.07249 17.7311 5.16368 17.6739 5.20571L17.2295 5.53387L17.3958 6.06051C17.4173 6.12847 17.3395 6.18479 17.2814 6.14366L16.8325 5.82267L16.3836 6.14366C16.3255 6.18479 16.2477 6.12847 16.2692 6.06051L16.4355 5.53387L15.9911 5.20571C15.9339 5.16279 15.9634 5.07249 16.0349 5.07159L16.5875 5.06712L16.7618 4.54315C16.7842 4.4752 16.8799 4.4752 16.9031 4.54315Z" fill="#F5F5F5"/>
<path d="M16.9031 7.29316L17.0775 7.81714L17.63 7.82156C17.7016 7.82252 17.7311 7.91372 17.6739 7.95571L17.2295 8.28383L17.3958 8.8105C17.4173 8.87849 17.3395 8.93478 17.2814 8.89367L16.8325 8.57269L16.3836 8.89367C16.3255 8.93478 16.2477 8.87849 16.2692 8.8105L16.4355 8.28383L15.9911 7.95571C15.9339 7.91276 15.9634 7.82252 16.0349 7.82156L16.5875 7.81714L16.7618 7.29316C16.7842 7.2252 16.8799 7.2252 16.9031 7.29316Z" fill="#F5F5F5"/>
<path d="M16.9031 10.0275L17.0775 10.5515L17.63 10.5559C17.7016 10.5568 17.7311 10.648 17.6739 10.6901L17.2295 11.0182L17.3958 11.5449C17.4173 11.6128 17.3395 11.6692 17.2814 11.628L16.8325 11.3071L16.3836 11.628C16.3255 11.6692 16.2477 11.6128 16.2692 11.5449L16.4355 11.0182L15.9911 10.6901C15.9339 10.6471 15.9634 10.5568 16.0349 10.5559L16.5875 10.5515L16.7618 10.0275C16.7842 9.95958 16.8799 9.95958 16.9031 10.0275Z" fill="#F5F5F5"/>
<path d="M16.9031 12.7697L17.0775 13.2937L17.63 13.2981C17.7016 13.2991 17.7311 13.3903 17.6739 13.4323L17.2295 13.7604L17.3958 14.2871C17.4173 14.3551 17.3395 14.4113 17.2814 14.3702L16.8325 14.0493L16.3836 14.3702C16.3255 14.4113 16.2477 14.3551 16.2692 14.2871L16.4355 13.7604L15.9911 13.4323C15.9339 13.3893 15.9634 13.2991 16.0349 13.2981L16.5875 13.2937L16.7618 12.7697C16.7842 12.7018 16.8799 12.7018 16.9031 12.7697Z" fill="#F5F5F5"/>
<path d="M44.5208 27.6406H-7.72266V29.9882H44.5208V27.6406Z" fill="#CB001C"/>
<path d="M44.5208 25.2891H-7.72266V27.6366H44.5208V25.2891Z" fill="white"/>
<path d="M44.5208 22.9375H-7.72266V25.282H44.5208V22.9375Z" fill="#CB001C"/>
<path d="M44.5208 20.5859H-7.72266V22.9364H44.5208V20.5859Z" fill="white"/>
<path d="M43.2434 18.2344H-9V20.5819H43.2434V18.2344Z" fill="#CB001C"/>
<path d="M44.5208 15.8984H-7.72266V18.246H44.5208V15.8984Z" fill="white"/>
<path d="M44.5208 13.5469H-7.72266V15.8974H44.5208V13.5469Z" fill="#CB001C"/>
<path d="M44.5208 11.1953H-7.72266V13.5398H44.5208V11.1953Z" fill="white"/>
<path d="M44.5208 8.85156H-7.72266V11.1991H44.5208V8.85156Z" fill="#CB001C"/>
<path d="M44.5208 6.50781H-7.72266V8.85535H44.5208V6.50781Z" fill="white"/>
<path d="M44.5208 4.15625H-7.72266V6.50673H44.5208V4.15625Z" fill="#CB001C"/>
<path d="M44.5208 1.80469H-7.72266V4.14924H44.5208V1.80469Z" fill="white"/>
<path d="M44.5208 -0.546875H-7.72266V1.80361H44.5208V-0.546875Z" fill="#CB001C"/>
<path d="M16.1357 -0.546875H-7.72266V15.8917H16.1357V-0.546875Z" fill="#2A3560"/>
<path d="M0.183169 2.71875L0.381398 3.3412H1.03821L0.50566 3.72653L0.709805 4.34601L0.183169 3.96365L-0.343464 4.34601L-0.139319 3.72653L-0.671875 3.3412H-0.0180144L0.183169 2.71875Z" fill="white"/>
<path d="M0.183169 5.45312L0.381398 6.07261H1.03821L0.50566 6.45793L0.709805 7.07742L0.183169 6.70098L-0.343464 7.07742L-0.139319 6.45793L-0.671875 6.07261H-0.0180144L0.183169 5.45312Z" fill="white"/>
<path d="M0.183169 8.19531L0.381398 8.81775H1.03821L0.50566 9.20009L0.709805 9.81958L0.183169 9.43723L-0.343464 9.81958L-0.139319 9.20009L-0.671875 8.81775H-0.0180144L0.183169 8.19531Z" fill="white"/>
<path d="M0.183169 10.9453L0.381398 11.5648H1.03821L0.50566 11.9471L0.709805 12.5637L0.183169 12.1813L-0.343464 12.5637L-0.139319 11.9471L-0.671875 11.5648H-0.0180144L0.183169 10.9453Z" fill="white"/>
<path d="M2.1138 1.25781L2.31795 1.88322H2.96589L2.43629 2.26558L2.64635 2.88803L2.1138 2.50567L1.58421 2.88803L1.78539 2.26558L1.26172 1.88322H1.91261L2.1138 1.25781Z" fill="white"/>
<path d="M2.1138 4.00781L2.31795 4.63026H2.96589L2.43629 5.01262L2.64635 5.63507L2.1138 5.24975L1.58421 5.63507L1.78539 5.01262L1.26172 4.63026H1.91261L2.1138 4.00781Z" fill="white"/>
<path d="M2.1138 6.75781L2.31795 7.37434H2.96589L2.43629 7.75963L2.64635 8.38214L2.1138 7.99677L1.58421 8.38214L1.78539 7.75963L1.26172 7.37434H1.91261L2.1138 6.75781Z" fill="white"/>
<path d="M2.1138 9.5L2.31795 10.1195H2.96589L2.43629 10.5048L2.64635 11.1243L2.1138 10.7419L1.58421 11.1243L1.78539 10.5048L1.26172 10.1195H1.91261L2.1138 9.5Z" fill="white"/>
<path d="M2.1138 12.2422L2.31795 12.8676H2.96589L2.43629 13.25L2.64635 13.8694L2.1138 13.4871L1.58421 13.8694L1.78539 13.25L1.26172 12.8676H1.91261L2.1138 12.2422Z" fill="white"/>
<path d="M4.01911 2.71875L4.22029 3.3412H4.87119L4.34456 3.72653L4.54279 4.34601L4.01911 3.96365L3.49247 4.34601L3.6907 3.72653L3.16406 3.3412H3.81496L4.01911 2.71875Z" fill="white"/>
<path d="M4.01911 5.45312L4.22029 6.07261H4.87119L4.34456 6.45793L4.54279 7.07742L4.01911 6.70098L3.49247 7.07742L3.6907 6.45793L3.16406 6.07261H3.81496L4.01911 5.45312Z" fill="white"/>
<path d="M4.01911 8.19531L4.22029 8.81775H4.87119L4.34456 9.20009L4.54279 9.81958L4.01911 9.43723L3.49247 9.81958L3.6907 9.20009L3.16406 8.81775H3.81496L4.01911 8.19531Z" fill="white"/>
<path d="M4.01911 10.9453L4.22029 11.5648H4.87119L4.34456 11.9471L4.54279 12.5637L4.01911 12.1813L3.49247 12.5637L3.6907 11.9471L3.16406 11.5648H3.81496L4.01911 10.9453Z" fill="white"/>
<path d="M5.95365 1.25781L6.15484 1.88322H6.80573L6.28206 2.26558L6.4862 2.88803L5.95365 2.50567L5.42997 2.88803L5.6282 2.26558L5.10156 1.88322H5.75246L5.95365 1.25781Z" fill="white"/>
<path d="M5.95365 4.00781L6.15484 4.63026H6.80573L6.28206 5.01262L6.4862 5.63507L5.95365 5.24975L5.42997 5.63507L5.6282 5.01262L5.10156 4.63026H5.75246L5.95365 4.00781Z" fill="white"/>
<path d="M5.95365 6.75781L6.15484 7.37434H6.80573L6.28206 7.75963L6.4862 8.38214L5.95365 7.99677L5.42997 8.38214L5.6282 7.75963L5.10156 7.37434H5.75246L5.95365 6.75781Z" fill="white"/>
<path d="M5.95365 9.5L6.15484 10.1195H6.80573L6.28206 10.5048L6.4862 11.1243L5.95365 10.7419L5.42997 11.1243L5.6282 10.5048L5.10156 10.1195H5.75246L5.95365 9.5Z" fill="white"/>
<path d="M5.95365 12.2422L6.15484 12.8676H6.80573L6.28206 13.25L6.4862 13.8694L5.95365 13.4871L5.42997 13.8694L5.6282 13.25L5.10156 12.8676H5.75246L5.95365 12.2422Z" fill="white"/>
<path d="M7.8599 2.71875L8.06109 3.3412H8.71792L8.18831 3.72653L8.3895 4.34601L7.8599 3.96365L7.33326 4.34601L7.53741 3.72653L7.00781 3.3412H7.66167L7.8599 2.71875Z" fill="white"/>
<path d="M7.8599 5.45312L8.06109 6.07261H8.71792L8.18831 6.45793L8.3895 7.07742L7.8599 6.70098L7.33326 7.07742L7.53741 6.45793L7.00781 6.07261H7.66167L7.8599 5.45312Z" fill="white"/>
<path d="M7.8599 8.19531L8.06109 8.81775H8.71792L8.18831 9.20009L8.3895 9.81958L7.8599 9.43723L7.33326 9.81958L7.53741 9.20009L7.00781 8.81775H7.66167L7.8599 8.19531Z" fill="white"/>
<path d="M7.8599 10.9453L8.06109 11.5648H8.71792L8.18831 11.9471L8.3895 12.5637L7.8599 12.1813L7.33326 12.5637L7.53741 11.9471L7.00781 11.5648H7.66167L7.8599 10.9453Z" fill="white"/>
<path d="M9.78963 1.25781L9.99377 1.88322H10.6446L10.118 2.26558L10.3162 2.88803L9.78963 2.50567L9.26887 2.88803L9.46416 2.26558L8.9375 1.88322H9.58844L9.78963 1.25781Z" fill="white"/>
<path d="M9.78963 4.00781L9.99377 4.63026H10.6446L10.118 5.01262L10.3162 5.63507L9.78963 5.24975L9.26887 5.63507L9.46416 5.01262L8.9375 4.63026H9.58844L9.78963 4.00781Z" fill="white"/>
<path d="M9.78963 6.75781L9.99377 7.37434H10.6446L10.118 7.75963L10.3162 8.38214L9.78963 7.99677L9.26887 8.38214L9.46416 7.75963L8.9375 7.37434H9.58844L9.78963 6.75781Z" fill="white"/>
<path d="M9.78963 9.5L9.99377 10.1195H10.6446L10.118 10.5048L10.3162 11.1243L9.78963 10.7419L9.26887 11.1243L9.46416 10.5048L8.9375 10.1195H9.58844L9.78963 9.5Z" fill="white"/>
<path d="M9.78963 12.2422L9.99377 12.8676H10.6446L10.118 13.25L10.3162 13.8694L9.78963 13.4871L9.26887 13.8694L9.46416 13.25L8.9375 12.8676H9.58844L9.78963 12.2422Z" fill="white"/>
<path d="M11.6997 2.71875L11.895 3.3412H12.5488L12.0281 3.72653L12.2204 4.34601L11.6997 3.96365L11.1672 4.34601L11.3713 3.72653L10.8477 3.3412H11.4956L11.6997 2.71875Z" fill="white"/>
<path d="M11.6997 5.45312L11.895 6.07261H12.5488L12.0281 6.45793L12.2204 7.07742L11.6997 6.70098L11.1672 7.07742L11.3713 6.45793L10.8477 6.07261H11.4956L11.6997 5.45312Z" fill="white"/>
<path d="M11.6997 8.19531L11.895 8.81775H12.5488L12.0281 9.20009L12.2204 9.81958L11.6997 9.43723L11.1672 9.81958L11.3713 9.20009L10.8477 8.81775H11.4956L11.6997 8.19531Z" fill="white"/>
<path d="M11.6997 10.9453L11.895 11.5648H12.5488L12.0281 11.9471L12.2204 12.5637L11.6997 12.1813L11.1672 12.5637L11.3713 11.9471L10.8477 11.5648H11.4956L11.6997 10.9453Z" fill="white"/>
<path d="M13.6255 1.25781L13.8327 1.88322H14.4806L13.9539 2.26558L14.1581 2.88803L13.6255 2.50567L13.1019 2.88803L13.3001 2.26558L12.7734 1.88322H13.4244L13.6255 1.25781Z" fill="white"/>
<path d="M13.6255 4.00781L13.8327 4.63026H14.4806L13.9539 5.01262L14.1581 5.63507L13.6255 5.24975L13.1019 5.63507L13.3001 5.01262L12.7734 4.63026H13.4244L13.6255 4.00781Z" fill="white"/>
<path d="M13.6255 6.75781L13.8327 7.37434H14.4806L13.9539 7.75963L14.1581 8.38214L13.6255 7.99677L13.1019 8.38214L13.3001 7.75963L12.7734 7.37434H13.4244L13.6255 6.75781Z" fill="white"/>
<path d="M13.6255 9.5L13.8327 10.1195H14.4806L13.9539 10.5048L14.1581 11.1243L13.6255 10.7419L13.1019 11.1243L13.3001 10.5048L12.7734 10.1195H13.4244L13.6255 9.5Z" fill="white"/>
<path d="M13.6255 12.2422L13.8327 12.8676H14.4806L13.9539 13.25L14.1581 13.8694L13.6255 13.4871L13.1019 13.8694L13.3001 13.25L12.7734 12.8676H13.4244L13.6255 12.2422Z" fill="white"/>
</g>
</g>
<defs>
<clipPath id="clip0_1583_57578">
<rect width="30" height="30" rx="15" fill="white"/>
</clipPath>
<clipPath id="clip1_1583_57578">
<rect width="30" height="30" fill="white"/>
</clipPath>
</defs>
</svg>
