<svg width="32" height="37" viewBox="0 0 32 37" fill="none" xmlns="http://www.w3.org/2000/svg">
<rect width="32" height="32" rx="16" fill="#2A2A2A"/>
<path d="M17.8995 13.1449C19.2124 14.4578 19.2124 16.5865 17.8995 17.8995C16.5865 19.2124 14.4578 19.2124 13.1449 17.8995C11.8319 16.5865 11.8319 14.4578 13.1449 13.1449C14.4578 11.8319 16.5865 11.8319 17.8995 13.1449" stroke="white" stroke-width="1.3" stroke-linecap="round" stroke-linejoin="round"/>
<path d="M19.8451 19.849L18.0391 18.043" stroke="white" stroke-width="1.3" stroke-linecap="round" stroke-linejoin="round"/>
<path d="M19.0318 30H13.6098C13.2381 30 12.9964 30.3912 13.1626 30.7236L15.8736 36.1456C16.0578 36.5141 16.5837 36.5141 16.768 36.1456L19.479 30.7236C19.6452 30.3912 19.4035 30 19.0318 30Z" fill="#2A2A2A"/>
</svg>
