<svg width="50" height="50" viewBox="0 0 50 50" fill="none" xmlns="http://www.w3.org/2000/svg">
<rect width="50" height="50" rx="25" fill="#F8661C"/>
<path fill-rule="evenodd" clip-rule="evenodd" d="M27.8972 16.9163C27.7703 17.4307 26.7552 20.5175 24.8519 22.3181C22.8217 20.6461 21.6797 16.9163 21.6797 16.9163C20.4109 18.9741 19.3958 21.5464 19.3958 21.5464C19.3958 21.5464 21.426 27.5913 24.8519 30.2922C28.2779 27.334 30.1812 21.4178 30.1812 21.4178C30.1812 21.4178 29.4199 19.2313 27.8972 16.9163ZM27.8972 15.6301C27.8972 15.6301 26.8821 18.9741 24.8519 20.7747C22.9486 19.2313 21.8066 15.6301 21.8066 15.6301C21.8066 15.6301 22.9486 12.672 24.8519 11C26.8821 12.5434 27.8972 15.6301 27.8972 15.6301ZM29.9274 23.4756C31.0694 25.6621 31.7038 27.334 31.7038 27.334C31.7038 27.334 29.1661 36.0798 24.8519 39.9383C20.4109 36.3371 18 27.4627 18 27.4627V27.2054C18.1269 26.8196 18.6344 25.4048 19.6495 23.6042C20.284 25.2762 22.1873 29.7777 24.8519 32.0928C27.8972 29.3919 29.4199 24.8904 29.9274 23.4756Z" fill="white"/>
</svg>
