<svg width="32" height="32" viewBox="0 0 32 32" fill="none" xmlns="http://www.w3.org/2000/svg">
<path fill-rule="evenodd" clip-rule="evenodd" d="M23.5483 27.6071L28.1003 23.0551C28.6216 22.5337 28.6216 21.6897 28.1003 21.1697L25.9856 19.0551C25.4643 18.5337 24.6203 18.5337 24.1003 19.0551L19.5483 23.6071C19.2976 23.8577 19.1576 24.1964 19.1576 24.5497V27.9977H22.6056C22.9589 27.9977 23.2976 27.8577 23.5483 27.6071V27.6071Z" stroke="#F8661C" stroke-width="1.3" stroke-linecap="round" stroke-linejoin="round"/>
<path d="M9.33606 16.9792H14.6694" stroke="#F8661C" stroke-width="1.3" stroke-linecap="round" stroke-linejoin="round"/>
<path d="M9.26331 21.8945H10.9475" stroke="#F8661C" stroke-width="1.3" stroke-linecap="round" stroke-linejoin="round"/>
<path d="M9.33606 11.9987H20.0027" stroke="#F8661C" stroke-width="1.3" stroke-linecap="round" stroke-linejoin="round"/>
<path d="M25.2648 14.8192V9.93499C25.2648 7.23728 23.4977 5.05078 21.3174 5.05078H8.15953C5.97926 5.05078 4.21216 7.23728 4.21216 9.93499V24.5876C4.21216 27.2853 5.97926 29.4718 8.15953 29.4718H14.7385" stroke="#F8661C" stroke-width="1.3" stroke-linecap="round" stroke-linejoin="round"/>
</svg>
