<svg width="113" height="37" viewBox="0 0 113 37" fill="none" xmlns="http://www.w3.org/2000/svg">
<g clip-path="url(#clip0_1834_6942)">
<path d="M105.467 0H7.53333C3.37279 0 0 3.31309 0 7.4V29.6C0 33.6869 3.37279 37 7.53333 37H105.467C109.627 37 113 33.6869 113 29.6V7.4C113 3.31309 109.627 0 105.467 0Z" fill="black"/>
<path d="M23.4126 18.7767C23.4126 16.1867 25.5839 14.9842 25.6783 14.8917C24.4511 13.1342 22.563 12.9492 21.9022 12.8567C20.2974 12.6717 18.7869 13.7817 17.9373 13.7817C17.0876 13.7817 15.8604 12.8567 14.5388 12.8567C12.8396 12.8567 11.2347 13.8742 10.2907 15.3542C8.49701 18.4067 9.81861 23.0317 11.6123 25.5292C12.462 26.7317 13.5003 28.1192 14.822 28.1192C16.1436 28.0267 16.6157 27.2867 18.2204 27.2867C19.8253 27.2867 20.2029 28.1192 21.619 28.1192C23.035 28.1192 23.8847 26.9167 24.7342 25.6217C25.7727 24.2342 26.1503 22.8467 26.1503 22.7542C26.1503 22.8467 23.4126 21.8292 23.4126 18.7767Z" fill="white"/>
<path d="M20.7686 11.2766C21.4295 10.4441 21.9959 9.24155 21.8071 8.03906C20.7686 8.03906 19.5414 8.68656 18.7862 9.61155C18.1254 10.3516 17.5589 11.5541 17.7477 12.7566C18.8806 12.7566 20.1078 12.1091 20.7686 11.2766Z" fill="white"/>
<path d="M39.9338 25.0672H35.4968L34.4584 28.2122H32.5703L36.8185 16.7422H38.7065L42.9546 28.2122H41.0666L39.9338 25.0672ZM35.9688 23.6797H39.5562L37.7625 18.5922H37.6681L35.9688 23.6797Z" fill="white"/>
<path d="M52.1102 24.0554C52.1102 26.6454 50.6942 28.3104 48.5229 28.3104C47.2956 28.3104 46.3516 27.7554 45.8796 26.8304V30.9929H44.0859V19.8929H45.7852V21.2804C46.2572 20.3554 47.2956 19.8004 48.5229 19.8004C50.5997 19.7079 52.1102 21.4654 52.1102 24.0554ZM50.2221 24.0554C50.2221 22.3904 49.3725 21.2804 47.9565 21.2804C46.6348 21.2804 45.6908 22.3904 45.6908 24.0554C45.6908 25.7204 46.6348 26.8304 47.9565 26.8304C49.3725 26.8304 50.2221 25.7204 50.2221 24.0554Z" fill="white"/>
<path d="M61.4617 24.0554C61.4617 26.6454 60.0457 28.3104 57.8744 28.3104C56.6472 28.3104 55.7032 27.7554 55.2312 26.8304V30.9929H53.4375V19.8929H55.1367V21.2804C55.6088 20.3554 56.6472 19.8004 57.8744 19.8004C60.0457 19.7079 61.4617 21.4654 61.4617 24.0554ZM59.6681 24.0554C59.6681 22.3904 58.8185 21.2804 57.4025 21.2804C56.0808 21.2804 55.1367 22.3904 55.1367 24.0554C55.1367 25.7204 56.0808 26.8304 57.4025 26.8304C58.8185 26.8304 59.6681 25.7204 59.6681 24.0554Z" fill="white"/>
<path d="M67.6908 24.98C67.7852 26.09 68.918 26.83 70.5229 26.83C72.0333 26.83 73.0718 26.09 73.0718 25.0725C73.0718 24.1475 72.4109 23.685 70.9005 23.315L69.3901 22.945C67.2188 22.39 66.2747 21.465 66.2747 19.8925C66.2747 17.95 68.0684 16.5625 70.5229 16.5625C72.9773 16.5625 74.6766 17.95 74.771 19.8925H72.9773C72.883 18.7825 71.9389 18.0425 70.5229 18.0425C69.1068 18.0425 68.1628 18.7825 68.1628 19.8C68.1628 20.6325 68.8236 21.095 70.3341 21.465L71.6557 21.7425C74.0158 22.2975 75.0542 23.2225 75.0542 24.8875C75.0542 27.015 73.2606 28.4025 70.5229 28.4025C67.8796 28.4025 66.1804 27.1075 66.0859 24.98H67.6908Z" fill="white"/>
<path d="M78.6374 17.8438V19.7863H80.2422V21.1738H78.6374V25.7988C78.6374 26.5388 78.9206 26.8163 79.6758 26.8163C79.8646 26.8163 80.1479 26.8163 80.2422 26.8163V28.2038C80.0534 28.2963 79.6758 28.2963 79.2982 28.2963C77.599 28.2963 76.9382 27.6488 76.9382 26.0763V21.2663H75.7109V19.8788H76.9382V17.9363H78.6374V17.8438Z" fill="white"/>
<path d="M81.2812 24.0519C81.2812 21.4619 82.8861 19.7969 85.3406 19.7969C87.795 19.7969 89.3998 21.4619 89.3998 24.0519C89.3998 26.7344 87.795 28.3069 85.3406 28.3069C82.7917 28.3069 81.2812 26.6419 81.2812 24.0519ZM87.6062 24.0519C87.6062 22.2019 86.7566 21.1844 85.3406 21.1844C83.9245 21.1844 83.0749 22.2019 83.0749 24.0519C83.0749 25.9019 83.9245 26.9194 85.3406 26.9194C86.7566 26.9194 87.6062 25.8094 87.6062 24.0519Z" fill="white"/>
<path d="M90.8125 19.7969H92.5118V21.2769C92.795 20.3519 93.5502 19.7969 94.5886 19.7969C94.872 19.7969 95.0604 19.7969 95.1555 19.8894V21.4619C95.0604 21.3694 94.6827 21.3694 94.4002 21.3694C93.267 21.3694 92.6062 22.1094 92.6062 23.3119V28.3069H90.8125V19.7969Z" fill="white"/>
<path d="M103.28 25.7156C103.091 27.1956 101.486 28.3056 99.5976 28.3056C97.1437 28.3056 95.5391 26.6406 95.5391 24.0506C95.5391 21.4606 97.0495 19.7031 99.5035 19.7031C101.863 19.7031 103.374 21.2756 103.374 23.8656V24.4206H97.332V24.5131C97.332 25.9006 98.2765 26.9181 99.5976 26.9181C100.542 26.9181 101.297 26.4556 101.581 25.7156H103.28ZM97.332 23.2181H101.581C101.581 21.9231 100.73 21.0906 99.5035 21.0906C98.2765 21.0906 97.4271 22.0156 97.332 23.2181Z" fill="white"/>
<path d="M34.6498 10.4506H35.405C36.0658 10.4506 36.4434 10.0806 36.4434 9.52559C36.4434 8.97062 36.0658 8.69312 35.405 8.69312C34.7442 8.69312 34.2721 9.06312 34.2721 9.52559H33.4226C33.5169 8.50812 34.2721 7.95312 35.405 7.95312C36.5378 7.95312 37.2931 8.60062 37.2931 9.43309C37.2931 10.0806 36.9155 10.5431 36.2546 10.7281V10.8206C37.0099 10.9131 37.4819 11.3756 37.4819 12.1156C37.4819 13.0406 36.5378 13.7806 35.405 13.7806C34.1778 13.7806 33.3281 13.1331 33.3281 12.1156H34.1778C34.2721 12.6706 34.7442 12.9481 35.4994 12.9481C36.2546 12.9481 36.7266 12.5781 36.7266 12.0231C36.7266 11.4681 36.2546 11.0981 35.4994 11.0981H34.7442V10.4506H34.6498Z" fill="white"/>
<path d="M38.5156 12.3962C38.5156 11.6562 39.082 11.1938 40.1205 11.1938L41.2533 11.1012V10.7313C41.2533 10.2688 40.9701 10.0837 40.4037 10.0837C39.9317 10.0837 39.6485 10.2687 39.5541 10.5462H38.7044C38.7989 9.80625 39.4596 9.34375 40.4037 9.34375C41.4421 9.34375 42.1029 9.89875 42.1029 10.7313V13.5987H41.2533V13.0438H41.1589C40.8757 13.5062 40.4037 13.6912 39.8373 13.6912C39.1765 13.6912 38.5156 13.1362 38.5156 12.3962ZM41.2533 12.0262V11.6562L40.2149 11.7487C39.6485 11.7487 39.3653 12.0262 39.3653 12.3037C39.3653 12.6737 39.7429 12.8587 40.1205 12.8587C40.7813 12.9512 41.2533 12.5812 41.2533 12.0262Z" fill="white"/>
<path d="M44.3652 10.085V13.6H43.5156V9.4375H46.3477V10.085H44.3652Z" fill="white"/>
<path d="M51.3561 11.47C51.3561 12.765 50.6954 13.5975 49.5625 13.5975C48.9961 13.5975 48.4297 13.32 48.2409 12.8575H48.1464V14.8925H47.2969V9.3425H48.1464V9.99H48.2409C48.5241 9.5275 48.9961 9.25 49.5625 9.25C50.6954 9.3425 51.3561 10.175 51.3561 11.47ZM50.5065 11.47C50.5065 10.545 50.0345 10.0825 49.3737 10.0825C48.7129 10.0825 48.2409 10.6375 48.2409 11.47C48.2409 12.3025 48.7129 12.8575 49.3737 12.8575C50.1289 12.95 50.5065 12.395 50.5065 11.47Z" fill="white"/>
<path d="M52.487 15.08V14.34C52.5813 14.34 52.6758 14.34 52.7701 14.34C53.1478 14.34 53.431 14.155 53.5254 13.785L53.6198 13.6L52.1094 9.4375H53.0534L54.0918 12.7675H54.1862L55.2246 9.4375H56.0743L54.4694 13.785C54.0918 14.8025 53.7142 15.08 52.8646 15.08C52.7701 15.08 52.5813 15.08 52.487 15.08Z" fill="white"/>
<path d="M56.7344 12.3962H57.584C57.6784 12.7662 58.056 12.9512 58.5281 12.9512C59.0945 12.9512 59.4721 12.6737 59.4721 12.3037C59.4721 11.9337 59.1888 11.7487 58.5281 11.7487H57.8672V11.1012H58.5281C59 11.1012 59.2833 10.9162 59.2833 10.5462C59.2833 10.2687 59 9.99125 58.5281 9.99125C58.056 9.99125 57.6784 10.1762 57.6784 10.5462H56.8288C56.9232 9.80625 57.584 9.34375 58.5281 9.34375C59.5664 9.34375 60.1329 9.80625 60.1329 10.4537C60.1329 10.9162 59.8497 11.1937 59.4721 11.2862V11.3787C60.0385 11.4712 60.3217 11.8412 60.3217 12.3037C60.3217 13.1362 59.6609 13.5987 58.6224 13.5987C57.584 13.6912 56.8288 13.2287 56.7344 12.3962Z" fill="white"/>
<path d="M61.4531 13.6V9.4375H62.3027V12.305L64.2852 9.4375H65.1349V13.6H64.2852V10.7325H64.1908L62.2083 13.6H61.4531Z" fill="white"/>
<path d="M69.6726 10.085H68.351V13.6H67.5013V10.085H66.1797V9.4375H69.6726V10.085Z" fill="white"/>
<path d="M74.1987 12.4887C74.0099 13.2287 73.3491 13.6912 72.3106 13.6912C71.0833 13.6912 70.3281 12.8587 70.3281 11.5637C70.3281 10.2687 71.0833 9.34375 72.3106 9.34375C73.5379 9.34375 74.1987 10.1762 74.1987 11.4712V11.7487H71.1778C71.1778 12.4887 71.6498 12.9512 72.3106 12.9512C72.7827 12.9512 73.1603 12.7662 73.3491 12.4887H74.1987ZM71.2722 11.1012H73.4434C73.4434 10.4537 72.9715 9.99125 72.4051 9.99125C71.7442 10.0837 71.2722 10.4537 71.2722 11.1012Z" fill="white"/>
<path d="M77.7898 9.4375H79.6778C80.5274 9.4375 80.9994 9.8075 80.9994 10.455C80.9994 10.9175 80.7162 11.2875 80.2442 11.38V11.4725C80.8106 11.565 81.1882 11.935 81.1882 12.3975C81.1882 13.1375 80.6218 13.6 79.6778 13.6H77.6953V9.4375H77.7898ZM78.6393 10.085V11.1025H79.489C79.961 11.1025 80.2442 10.9175 80.2442 10.5475C80.2442 10.1775 80.0554 9.9925 79.5834 9.9925H78.6393V10.085ZM78.6393 11.75V12.9525H79.6778C80.1498 12.9525 80.433 12.7675 80.433 12.305C80.433 11.8425 80.1498 11.6575 79.5834 11.6575H78.6393V11.75Z" fill="white"/>
</g>
<defs>
<clipPath id="clip0_1834_6942">
<rect width="113" height="37" fill="white"/>
</clipPath>
</defs>
</svg>
