<svg width="25" height="25" viewBox="0 0 25 25" fill="none" xmlns="http://www.w3.org/2000/svg">
<path d="M20.2172 10.1108V4.49651C20.2172 3.94428 19.7691 3.49609 19.2168 3.49609H17.3591C16.8068 3.49609 16.3586 3.94428 16.3586 4.49651V6.80347" stroke="#2A2A2A" stroke-width="1.25" stroke-linecap="round" stroke-linejoin="round"/>
<path d="M3.49634 11.2153L11.1975 4.61451C11.9469 3.97225 13.0523 3.97225 13.8016 4.61451L21.5038 11.2153" stroke="#2A2A2A" stroke-width="1.25" stroke-linecap="round" stroke-linejoin="round"/>
<path d="M4.78271 10.1094V19.5013C4.78271 20.6067 5.67809 21.5021 6.78355 21.5021H11.4995" stroke="#2A2A2A" stroke-width="1.25" stroke-linecap="round" stroke-linejoin="round"/>
<path d="M18.0024 22.5037C15.5163 22.5037 13.5005 20.4879 13.5005 18.0019C13.5005 15.5158 15.5163 13.5 18.0024 13.5C20.4894 13.5 22.5042 15.5158 22.5042 18.0019C22.5042 20.4879 20.4894 22.5037 18.0024 22.5037" stroke="#2A2A2A" stroke-width="1.25" stroke-linecap="round" stroke-linejoin="round"/>
<path d="M19.7811 17.1133L17.5582 19.3362L16.2236 18.0027" stroke="#2A2A2A" stroke-width="1.25" stroke-linecap="round" stroke-linejoin="round"/>
</svg>
