<svg width="125" height="37" viewBox="0 0 125 37" fill="none" xmlns="http://www.w3.org/2000/svg">
<g clip-path="url(#clip0_1834_6964)">
<path d="M117.647 0H7.35294C3.29202 0 0 3.31309 0 7.4V29.6C0 33.6869 3.29202 37 7.35294 37H117.647C121.708 37 125 33.6869 125 29.6V7.4C125 3.31309 121.708 0 117.647 0Z" fill="black"/>
<path d="M62.3162 20.1678C60.1103 20.1678 58.364 21.8328 58.364 24.1453C58.364 26.3653 60.1103 28.1228 62.3162 28.1228C64.5221 28.1228 66.2685 26.4578 66.2685 24.1453C66.2685 21.7403 64.5221 20.1678 62.3162 20.1678ZM62.3162 26.4578C61.1213 26.4578 60.1103 25.4403 60.1103 24.0528C60.1103 22.6653 61.1213 21.6478 62.3162 21.6478C63.511 21.6478 64.5222 22.5728 64.5222 24.0528C64.5222 25.4403 63.511 26.4578 62.3162 26.4578ZM53.7684 20.1678C51.5625 20.1678 49.8163 21.8328 49.8163 24.1453C49.8163 26.3653 51.5625 28.1228 53.7684 28.1228C55.9743 28.1228 57.7206 26.4578 57.7206 24.1453C57.7206 21.7403 55.9743 20.1678 53.7684 20.1678ZM53.7684 26.4578C52.5736 26.4578 51.5626 25.4403 51.5626 24.0528C51.5626 22.6653 52.5736 21.6478 53.7684 21.6478C54.9632 21.6478 55.9744 22.5728 55.9744 24.0528C55.9744 25.4403 54.9632 26.4578 53.7684 26.4578ZM43.5663 21.3703V23.0353H47.5185C47.4265 23.9603 47.0589 24.7003 46.5994 25.1628C46.0478 25.7178 45.1288 26.3653 43.5663 26.3653C41.0847 26.3653 39.2464 24.4228 39.2464 21.9253C39.2464 19.4278 41.1766 17.4853 43.5663 17.4853C44.853 17.4853 45.8641 18.0403 46.5994 18.6878L47.7941 17.4853C46.7831 16.5603 45.4963 15.8203 43.6581 15.8203C40.3493 15.8203 37.5 18.5953 37.5 21.9253C37.5 25.2553 40.3493 28.0303 43.6581 28.0303C45.4963 28.0303 46.7832 27.4753 47.8861 26.2728C48.9891 25.1628 49.3567 23.5903 49.3567 22.3878C49.3567 22.0178 49.3567 21.6478 49.2648 21.3703H43.5663ZM85.2941 22.6653C84.9265 21.7403 84.0075 20.1678 81.9854 20.1678C79.9632 20.1678 78.3089 21.7403 78.3089 24.1453C78.3089 26.3653 79.9632 28.1228 82.1691 28.1228C83.9154 28.1228 85.0184 27.0128 85.386 26.3653L84.0994 25.4403C83.6398 26.0878 83.0882 26.5503 82.1691 26.5503C81.25 26.5503 80.6985 26.1803 80.239 25.3478L85.478 23.1278L85.2941 22.6653ZM79.9633 23.9603C79.9633 22.4803 81.1581 21.6478 81.9854 21.6478C82.6288 21.6478 83.2721 22.0178 83.4559 22.4803L79.9633 23.9603ZM75.6434 27.7528H77.3898V16.1903H75.6434V27.7528ZM72.886 21.0003C72.4265 20.5378 71.6913 20.0753 70.7722 20.0753C68.842 20.0753 67.0037 21.8328 67.0037 24.0528C67.0037 26.2728 68.7501 27.9378 70.7722 27.9378C71.6913 27.9378 72.4265 27.4753 72.7942 27.0128H72.886V27.5678C72.886 29.0478 72.0589 29.8803 70.7722 29.8803C69.7611 29.8803 69.0257 29.1403 68.8419 28.4928L67.3713 29.1403C67.8309 30.1578 68.9339 31.4528 70.8641 31.4528C72.8861 31.4528 74.5405 30.2503 74.5405 27.3828V20.3528H72.886V21.0003ZM70.8641 26.4578C69.6692 26.4578 68.6582 25.4403 68.6582 24.0528C68.6582 22.6653 69.6692 21.6478 70.8641 21.6478C72.0589 21.6478 72.9779 22.6653 72.9779 24.0528C72.9779 25.4403 72.0589 26.4578 70.8641 26.4578ZM93.2904 16.1903H89.1545V27.7528H90.9007V23.4053H93.2904C95.2206 23.4053 97.0588 22.0178 97.0588 19.7978C97.0588 17.5778 95.2206 16.1903 93.2904 16.1903ZM93.3824 21.7403H90.9007V17.7628H93.3824C94.6691 17.7628 95.4044 18.8728 95.4044 19.7053C95.3125 20.7228 94.5772 21.7403 93.3824 21.7403ZM103.952 20.0753C102.665 20.0753 101.379 20.6303 100.919 21.8328L102.482 22.4803C102.849 21.8328 103.401 21.6478 104.044 21.6478C104.963 21.6478 105.79 22.2028 105.882 23.1278V23.2203C105.607 23.0353 104.871 22.7578 104.136 22.7578C102.482 22.7578 100.827 23.6828 100.827 25.3478C100.827 26.9203 102.206 27.9378 103.676 27.9378C104.871 27.9378 105.423 27.3828 105.882 26.8278H105.974V27.7528H107.629V23.3128C107.445 21.2778 105.882 20.0753 103.952 20.0753ZM103.768 26.4578C103.217 26.4578 102.39 26.1803 102.39 25.4403C102.39 24.5153 103.401 24.2378 104.228 24.2378C104.963 24.2378 105.331 24.4228 105.79 24.6078C105.607 25.7178 104.688 26.4578 103.768 26.4578ZM113.419 20.3528L111.489 25.3478H111.397L109.375 20.3528H107.537L110.57 27.3828L108.824 31.2678H110.57L115.257 20.3528H113.419ZM97.9779 27.7528H99.7243V16.1903H97.9779V27.7528Z" fill="white"/>
<path d="M9.28176 6.9375C9.00597 7.215 8.91406 7.6775 8.91406 8.2325V28.675C8.91406 29.23 9.09789 29.6925 9.37367 29.97L9.46558 30.0625L20.8626 18.5925V18.5V18.4075L9.28176 6.9375Z" fill="url(#paint0_linear_1834_6964)"/>
<path d="M24.5418 22.4719L20.7734 18.6794V18.4944V18.4019L24.5418 14.6094L24.6337 14.7019L29.1374 17.2919C30.4242 18.0319 30.4242 19.2344 29.1374 19.9744L24.5418 22.4719Z" fill="url(#paint1_linear_1834_6964)"/>
<path d="M24.6305 22.385L20.7702 18.5L9.28125 30.0625C9.74081 30.525 10.3842 30.525 11.2114 30.155L24.6305 22.385Z" fill="url(#paint2_linear_1834_6964)"/>
<path d="M24.6305 14.6222L11.2114 6.9447C10.3842 6.4822 9.74081 6.5747 9.28125 7.0372L20.7702 18.5072L24.6305 14.6222Z" fill="url(#paint3_linear_1834_6964)"/>
<path opacity="0.2" d="M24.5386 22.2891L11.2114 29.8741C10.4761 30.3366 9.83272 30.2441 9.37316 29.8741L9.28125 29.9666L9.37316 30.0591C9.83272 30.4291 10.4761 30.5216 11.2114 30.0591L24.5386 22.2891Z" fill="black"/>
<path opacity="0.12" d="M9.28176 29.8809C9.00597 29.6034 8.91406 29.1409 8.91406 28.5859V28.6784C8.91406 29.2334 9.09789 29.6959 9.37367 29.9734V29.8809H9.28176Z" fill="black"/>
<path opacity="0.12" d="M29.1347 19.7025L24.5391 22.2925L24.631 22.385L29.1347 19.795C29.778 19.425 30.0538 18.9625 30.0538 18.5C30.0538 18.9625 29.6861 19.3325 29.1347 19.7025Z" fill="black"/>
<path opacity="0.25" d="M11.2119 7.03604L29.1347 17.3035C29.6862 17.6735 30.0538 18.0435 30.0538 18.506C30.0538 18.0435 29.7781 17.581 29.1347 17.211L11.2119 6.94354C9.92514 6.20354 8.91406 6.75854 8.91406 8.23854V8.33104C8.91406 6.94354 9.92514 6.29604 11.2119 7.03604Z" fill="white"/>
<path d="M38.4168 13.229H37.7734V11.379H38.3249C38.7845 11.009 39.0602 10.269 39.0602 9.25154V6.47656H42.7367V11.379H43.3801V13.229H42.7367V12.0265H38.5087V13.229H38.4168ZM39.7036 9.25154C39.7036 10.084 39.5198 10.824 39.1521 11.379H41.9095V7.12406H39.6117V9.25154H39.7036Z" fill="white" stroke="white" stroke-width="0.218182" stroke-miterlimit="10"/>
<path d="M48.8088 11.2775C48.2574 11.8325 47.614 12.11 46.7868 12.11C45.9596 12.11 45.3162 11.8325 44.7647 11.2775C44.2132 10.7225 43.9375 10.075 43.9375 9.24248C43.9375 8.41 44.2132 7.7625 44.7647 7.2075C45.3162 6.6525 45.9596 6.375 46.7868 6.375C47.614 6.375 48.2574 6.6525 48.8088 7.2075C49.3603 7.7625 49.636 8.41 49.636 9.24248C49.636 10.075 49.3603 10.7225 48.8088 11.2775ZM45.3162 10.815C45.6838 11.185 46.2353 11.4625 46.7868 11.4625C47.3382 11.4625 47.8897 11.2775 48.2574 10.815C48.625 10.445 48.9007 9.88998 48.9007 9.24248C48.9007 8.595 48.7169 8.04 48.2574 7.67C47.8897 7.3 47.3382 7.0225 46.7868 7.0225C46.2353 7.0225 45.6838 7.2075 45.3162 7.67C44.9485 8.04 44.6728 8.595 44.6728 9.24248C44.6728 9.88998 44.8566 10.445 45.3162 10.815Z" fill="white" stroke="white" stroke-width="0.218182" stroke-miterlimit="10"/>
<path d="M53.2165 12.11C52.3892 12.11 51.7459 11.8325 51.1944 11.2775C50.6429 10.7225 50.3672 10.075 50.3672 9.24248C50.3672 8.41 50.6429 7.7625 51.1944 7.2075C51.7459 6.6525 52.3892 6.375 53.2165 6.375C54.0437 6.375 54.687 6.6525 55.2385 7.3L54.779 7.7625C54.4113 7.3 53.8598 7.0225 53.2165 7.0225C52.5731 7.0225 52.1135 7.2075 51.6539 7.67C51.1944 8.04 51.0106 8.595 51.0106 9.24248C51.0106 9.88998 51.1944 10.445 51.6539 10.815C52.0216 11.185 52.5731 11.4625 53.2165 11.4625C53.8598 11.4625 54.4113 11.185 54.8709 10.63L55.3304 11.0925C55.0547 11.37 54.7789 11.6475 54.4113 11.8325C54.0437 12.0175 53.676 12.11 53.2165 12.11Z" fill="white" stroke="white" stroke-width="0.218182" stroke-miterlimit="10"/>
<path d="M58.2665 12.0265H57.5313V7.12406H55.9688V6.47656H59.7371V7.12406H58.1746V12.0265H58.2665Z" fill="white" stroke="white" stroke-width="0.218182" stroke-miterlimit="10"/>
<path d="M64.6071 6.47656L62.4931 11.194C62.2174 11.8415 61.7578 12.2115 61.2063 12.2115C61.0225 12.2115 60.8387 12.2115 60.6549 12.119L60.8387 11.4715C60.9306 11.564 61.1144 11.564 61.2063 11.564C61.3902 11.564 61.4821 11.564 61.574 11.4715C61.6659 11.379 61.7578 11.2865 61.8497 11.1015L62.0335 10.639L60.1953 6.56906H61.0225L62.4012 9.71404L63.7799 6.47656H64.6071Z" fill="white" stroke="white" stroke-width="0.218182" stroke-miterlimit="10"/>
<path d="M65.4453 12.0265V6.47656H69.3975V12.0265H68.6622V7.12406H66.0887V12.0265H65.4453Z" fill="white" stroke="white" stroke-width="0.218182" stroke-miterlimit="10"/>
<path d="M70.6797 12.0265V6.47656H71.415V8.88156H74.1723V6.47656H74.9076V12.0265H74.1723V9.52904H71.415V12.0265H70.6797Z" fill="white" stroke="white" stroke-width="0.218182" stroke-miterlimit="10"/>
<path d="M80.6994 11.2775C80.148 11.8325 79.5046 12.11 78.6774 12.11C77.8502 12.11 77.2068 11.8325 76.6553 11.2775C76.1039 10.7225 75.8281 10.075 75.8281 9.24248C75.8281 8.41 76.1039 7.7625 76.6553 7.2075C77.2068 6.6525 77.8502 6.375 78.6774 6.375C79.5046 6.375 80.148 6.6525 80.6994 7.2075C81.2509 7.7625 81.5267 8.41 81.5267 9.24248C81.4347 10.075 81.159 10.7225 80.6994 11.2775ZM77.1149 10.815C77.4825 11.185 78.034 11.4625 78.5855 11.4625C79.1369 11.4625 79.6884 11.2775 80.0561 10.815C80.4237 10.445 80.6994 9.88998 80.6994 9.24248C80.6994 8.595 80.5156 8.04 80.0561 7.67C79.6884 7.3 79.1369 7.0225 78.5855 7.0225C78.034 7.0225 77.4825 7.2075 77.1149 7.67C76.7472 8.04 76.4715 8.595 76.4715 9.24248C76.4715 9.88998 76.7472 10.445 77.1149 10.815Z" fill="white" stroke="white" stroke-width="0.218182" stroke-miterlimit="10"/>
<path d="M84.375 12.0265V6.47656H86.3971C86.8566 6.47656 87.2243 6.66156 87.5 6.93906C87.7757 7.21656 87.9596 7.58656 87.9596 7.95656C87.9596 8.23406 87.8677 8.41906 87.7757 8.69656C87.6838 8.88156 87.5 9.06656 87.2243 9.15906C87.5 9.25154 87.6838 9.43654 87.8676 9.62154C88.0515 9.80654 88.1434 10.084 88.1434 10.454C88.1434 10.9165 87.9596 11.2865 87.6838 11.564C87.3162 11.8415 86.9485 12.0265 86.489 12.0265H84.375ZM85.1103 8.88156H86.3971C86.6728 8.88156 86.8566 8.78906 87.0404 8.60406C87.2243 8.41906 87.3162 8.23406 87.3162 8.04906C87.3162 7.86406 87.1324 7.58656 87.0404 7.40156C86.8566 7.21656 86.6728 7.12406 86.3971 7.12406H85.1103V8.88156ZM85.1103 11.379H86.5809C86.8566 11.379 87.0404 11.2865 87.2243 11.1015C87.4081 10.9165 87.5 10.7315 87.5 10.454C87.5 10.269 87.4081 9.99154 87.2243 9.80654C87.0404 9.62154 86.8566 9.52904 86.5809 9.52904H85.2022V11.379H85.1103Z" fill="white" stroke="white" stroke-width="0.218182" stroke-miterlimit="10"/>
</g>
<defs>
<linearGradient id="paint0_linear_1834_6964" x1="19.7593" y1="8.05656" x2="4.23588" y2="23.4812" gradientUnits="userSpaceOnUse">
<stop stop-color="#00A0FF"/>
<stop offset="0.00657445" stop-color="#00A1FF"/>
<stop offset="0.2601" stop-color="#00BEFF"/>
<stop offset="0.5122" stop-color="#00D2FF"/>
<stop offset="0.7604" stop-color="#00DFFF"/>
<stop offset="1" stop-color="#00E3FF"/>
</linearGradient>
<linearGradient id="paint1_linear_1834_6964" x1="30.8233" y1="18.4958" x2="8.58353" y2="18.4958" gradientUnits="userSpaceOnUse">
<stop stop-color="#FFE000"/>
<stop offset="0.4087" stop-color="#FFBD00"/>
<stop offset="0.7754" stop-color="#FFA500"/>
<stop offset="1" stop-color="#FF9C00"/>
</linearGradient>
<linearGradient id="paint2_linear_1834_6964" x1="22.5413" y1="20.624" x2="1.49025" y2="41.5411" gradientUnits="userSpaceOnUse">
<stop stop-color="#FF3A44"/>
<stop offset="1" stop-color="#C31162"/>
</linearGradient>
<linearGradient id="paint3_linear_1834_6964" x1="6.42939" y1="0.170271" x2="15.8296" y2="9.51059" gradientUnits="userSpaceOnUse">
<stop stop-color="#32A071"/>
<stop offset="0.0685" stop-color="#2DA771"/>
<stop offset="0.4762" stop-color="#15CF74"/>
<stop offset="0.8009" stop-color="#06E775"/>
<stop offset="1" stop-color="#00F076"/>
</linearGradient>
<clipPath id="clip0_1834_6964">
<rect width="125" height="37" fill="white"/>
</clipPath>
</defs>
</svg>
