<svg width="725" height="482" viewBox="0 0 725 482" fill="none" xmlns="http://www.w3.org/2000/svg">
<path opacity="0.2" fill-rule="evenodd" clip-rule="evenodd" d="M523.611 -169.564C516.898 -139.873 463.194 38.2674 362.5 142.183C255.093 45.6899 194.676 -169.564 194.676 -169.564C127.546 -50.803 73.8426 97.6476 73.8426 97.6476C73.8426 97.6476 181.25 446.507 362.5 602.38C543.75 431.662 644.444 90.2252 644.444 90.2252C644.444 90.2252 604.167 -35.9579 523.611 -169.564ZM523.611 -243.789C523.611 -243.789 469.907 -50.803 362.5 53.1125C261.806 -35.9579 201.389 -243.789 201.389 -243.789C201.389 -243.789 261.806 -414.507 362.5 -511C469.907 -421.93 523.611 -243.789 523.611 -243.789ZM631.019 208.986C691.435 335.169 725 431.662 725 431.662C725 431.662 590.741 936.394 362.5 1159.07C127.546 951.239 0 439.084 0 439.084V424.239C6.71296 401.971 33.5648 320.324 87.2685 216.408C120.833 312.901 221.528 572.69 362.5 706.295C523.611 550.422 604.167 290.634 631.019 208.986Z" fill="url(#paint0_linear_2059_7369)" fill-opacity="0.9"/>
<defs>
<linearGradient id="paint0_linear_2059_7369" x1="339.892" y1="-73.6598" x2="-60.0154" y2="936.929" gradientUnits="userSpaceOnUse">
<stop stop-color="white" stop-opacity="0.53"/>
<stop offset="1" stop-color="white" stop-opacity="0.67"/>
</linearGradient>
</defs>
</svg>
