<svg width="24" height="24" viewBox="0 0 24 24" fill="none" xmlns="http://www.w3.org/2000/svg">
<path d="M4 15.5L9.612 15.5L8.489 18.867C8.287 19.475 8.389 20.149 8.764 20.669C9.139 21.189 9.747 21.5 10.388 21.5L12 21.5C12.297 21.5 12.578 21.368 12.769 21.14L17.469 15.5L20 15.5C21.103 15.5 22 14.603 22 13.5L22 4.5C22 3.397 21.103 2.5 20 2.5L6.693 2.5C6.28611 2.50135 5.88922 2.62616 5.55478 2.85792C5.22035 3.08969 4.96413 3.41749 4.82 3.798L2.063 11.149C2.02114 11.2613 1.9998 11.3802 2 11.5L2 13.5C2 14.603 2.897 15.5 4 15.5ZM20 13.5L18 13.5L18 4.5L20 4.5L20 13.5ZM4 11.681L6.693 4.5L16 4.5L16 14.138L11.532 19.5L10.386 19.5L11.948 14.817C11.9987 14.6667 12.0129 14.5064 11.9893 14.3496C11.9657 14.1927 11.905 14.0437 11.8123 13.915C11.7197 13.7862 11.5976 13.6814 11.4564 13.6092C11.3151 13.5371 11.1586 13.4996 11 13.5L4 13.5L4 11.681Z" fill="white"/>
</svg>
