<svg width="24" height="24" viewBox="0 0 24 24" fill="none" xmlns="http://www.w3.org/2000/svg">
<path d="M0.856934 16.4416V7.71436H4.12966C4.80012 7.71436 5.36262 7.83936 5.81716 8.08936C6.27455 8.33936 6.61972 8.68311 6.85267 9.12061C7.08847 9.55526 7.20637 10.0496 7.20637 10.6036C7.20637 11.1632 7.08847 11.6604 6.85267 12.095C6.61688 12.5297 6.26887 12.872 5.80864 13.122C5.34841 13.3692 4.78165 13.4928 4.10835 13.4928H1.93932V12.193H3.89529C4.28733 12.193 4.60835 12.1249 4.85835 11.9885C5.10835 11.8521 5.29301 11.6646 5.41233 11.426C5.53449 11.1874 5.59557 10.9132 5.59557 10.6036C5.59557 10.2939 5.53449 10.0212 5.41233 9.78538C5.29301 9.54958 5.10693 9.36634 4.85409 9.23566C4.60409 9.10214 4.28165 9.03538 3.88676 9.03538H2.4379V16.4416H0.856934Z" fill="white"/>
<path d="M11.8798 16.4416H8.92245V7.71436H11.9395C12.806 7.71436 13.5503 7.88907 14.1724 8.2385C14.7974 8.58509 15.2776 9.08367 15.6128 9.73424C15.948 10.3848 16.1156 11.1632 16.1156 12.0695C16.1156 12.9786 15.9466 13.7598 15.6085 14.4132C15.2733 15.0666 14.7889 15.568 14.1554 15.9175C13.5247 16.2669 12.7662 16.4416 11.8798 16.4416ZM10.5034 15.0737H11.8031C12.4111 15.0737 12.9182 14.9629 13.3244 14.7413C13.7307 14.5169 14.0361 14.1831 14.2406 13.7399C14.4452 13.2939 14.5474 12.7371 14.5474 12.0695C14.5474 11.4019 14.4452 10.8479 14.2406 10.4075C14.0361 9.96436 13.7335 9.63339 13.333 9.41464C12.9352 9.19305 12.4409 9.08225 11.85 9.08225H10.5034V15.0737Z" fill="white"/>
<path d="M17.9606 16.4416V7.71436H23.5515V9.03964H19.5416V11.409H23.168V12.7342H19.5416V16.4416H17.9606Z" fill="white"/>
</svg>
