<svg width="24" height="24" viewBox="0 0 24 24" fill="none" xmlns="http://www.w3.org/2000/svg">
<path fill-rule="evenodd" clip-rule="evenodd" d="M8.94445 9.71615H5.88889C5.46722 9.71615 5.125 9.37392 5.125 8.95226V5.8967C5.125 5.47503 5.46722 5.13281 5.88889 5.13281H8.94445C9.36611 5.13281 9.70833 5.47503 9.70833 5.8967V8.95226C9.70833 9.37392 9.36611 9.71615 8.94445 9.71615Z" stroke="white" stroke-linecap="round" stroke-linejoin="round"/>
<path fill-rule="evenodd" clip-rule="evenodd" d="M8.94445 18.8802H5.88889C5.46722 18.8802 5.125 18.538 5.125 18.1163V15.0608C5.125 14.6391 5.46722 14.2969 5.88889 14.2969H8.94445C9.36611 14.2969 9.70833 14.6391 9.70833 15.0608V18.1163C9.70833 18.538 9.36611 18.8802 8.94445 18.8802Z" stroke="white" stroke-linecap="round" stroke-linejoin="round"/>
<path fill-rule="evenodd" clip-rule="evenodd" d="M18.1085 9.71615H15.053C14.6313 9.71615 14.2891 9.37392 14.2891 8.95226V5.8967C14.2891 5.47503 14.6313 5.13281 15.053 5.13281H18.1085C18.5302 5.13281 18.8724 5.47503 18.8724 5.8967V8.95226C18.8724 9.37392 18.5302 9.71615 18.1085 9.71615Z" stroke="white" stroke-linecap="round" stroke-linejoin="round"/>
<path d="M8.1875 12.0148H9.71528" stroke="white" stroke-linecap="round" stroke-linejoin="round"/>
<path d="M12.0069 6.66059V5.13281" stroke="white" stroke-linecap="round" stroke-linejoin="round"/>
<path d="M15.0556 12.0026H12.7639C12.3422 12.0026 12 11.6604 12 11.2387V9.71094" stroke="white" stroke-linecap="round" stroke-linejoin="round"/>
<path d="M5.88889 12.0148H5.125" stroke="white" stroke-linecap="round" stroke-linejoin="round"/>
<path d="M14.2917 16.5938H12.7639C12.3422 16.5938 12 16.936 12 17.3576V18.8854" stroke="white" stroke-linecap="round" stroke-linejoin="round"/>
<path d="M12 14.296H16.5833" stroke="white" stroke-linecap="round" stroke-linejoin="round"/>
<path d="M18.8724 14.2969V18.1163C18.8724 18.538 18.5302 18.8802 18.1085 18.8802H14.2891" stroke="white" stroke-linecap="round" stroke-linejoin="round"/>
<path d="M7.42101 7.41719C7.41872 7.41719 7.41719 7.41872 7.41719 7.42101C7.41719 7.4233 7.41872 7.42483 7.42101 7.42483C7.4233 7.42483 7.42483 7.4233 7.42483 7.42101C7.42483 7.41872 7.4233 7.41719 7.42101 7.41719" stroke="white" stroke-linecap="round" stroke-linejoin="round"/>
<path d="M16.5851 7.41719C16.5828 7.41719 16.5812 7.41872 16.5812 7.42101C16.5812 7.4233 16.5828 7.42483 16.5851 7.42483C16.5874 7.42483 16.5889 7.4233 16.5889 7.42101C16.5889 7.41872 16.5874 7.41719 16.5851 7.41719" stroke="white" stroke-linecap="round" stroke-linejoin="round"/>
<path d="M17.3429 12.0109C17.3406 12.0109 17.3391 12.0125 17.3391 12.0148C17.3391 12.017 17.3406 12.0186 17.3429 12.0186C17.3452 12.0186 17.3467 12.017 17.3467 12.0148C17.3467 12.0125 17.3452 12.0109 17.3429 12.0109" stroke="white" stroke-linecap="round" stroke-linejoin="round"/>
<path d="M16.5851 16.5891C16.5828 16.5891 16.5812 16.5906 16.5812 16.5929C16.5812 16.5952 16.5828 16.5967 16.5851 16.5967C16.5874 16.5967 16.5889 16.5952 16.5889 16.5929C16.5889 16.5906 16.5874 16.5891 16.5851 16.5891" stroke="white" stroke-linecap="round" stroke-linejoin="round"/>
<path d="M7.42101 16.5891C7.41872 16.5891 7.41719 16.5906 7.41719 16.5929C7.41719 16.5952 7.41872 16.5967 7.42101 16.5967C7.4233 16.5967 7.42483 16.5952 7.42483 16.5929C7.42483 16.5906 7.4233 16.5891 7.42101 16.5891" stroke="white" stroke-linecap="round" stroke-linejoin="round"/>
</svg>
