<svg width="40" height="40" viewBox="0 0 40 40" fill="none" xmlns="http://www.w3.org/2000/svg">
<circle cx="20" cy="20" r="19.5" stroke="white" stroke-opacity="0.3"/>
<g clip-path="url(#clip0_1152_23264)">
<path fill-rule="evenodd" clip-rule="evenodd" d="M29.5417 15.9541C29.68 15.4991 29.5417 15.1641 28.8792 15.1641H26.6917C26.135 15.1641 25.8783 15.4532 25.7392 15.7724C25.7392 15.7724 24.6267 18.4357 23.0508 20.1657C22.5408 20.6674 22.3092 20.8266 22.0308 20.8266C21.8917 20.8266 21.6825 20.6674 21.6825 20.2116V15.9541C21.6825 15.4074 21.5292 15.1641 21.0658 15.1641H17.6258C17.2783 15.1641 17.0692 15.4174 17.0692 15.6582C17.0692 16.1757 17.8575 16.2957 17.9383 17.7524V20.9174C17.9383 21.6116 17.8108 21.7374 17.5325 21.7374C16.7908 21.7374 14.9867 19.0616 13.9158 15.9999C13.7083 15.4041 13.4983 15.1641 12.9392 15.1641H10.75C10.125 15.1641 10 15.4532 10 15.7724C10 16.3407 10.7417 19.1641 13.4542 22.8982C15.2625 25.4482 17.8083 26.8307 20.1275 26.8307C21.5183 26.8307 21.69 26.5241 21.69 25.9949V24.0674C21.69 23.4532 21.8217 23.3307 22.2625 23.3307C22.5875 23.3307 23.1433 23.4907 24.4417 24.7199C25.925 26.1774 26.1692 26.8307 27.0042 26.8307H29.1917C29.8167 26.8307 30.13 26.5241 29.95 25.9174C29.7517 25.3141 29.0433 24.4382 28.1042 23.3991C27.5942 22.8074 26.8292 22.1699 26.5967 21.8507C26.2725 21.4416 26.365 21.2591 26.5967 20.8949C26.5967 20.8949 29.2633 17.2066 29.5408 15.9541H29.5417Z" fill="white"/>
</g>
<defs>
<clipPath id="clip0_1152_23264">
<rect width="20" height="20" fill="white" transform="translate(10 10)"/>
</clipPath>
</defs>
</svg>
